<svg width="26" height="26" viewBox="0 0 26 26" fill="none" xmlns="http://www.w3.org/2000/svg">
<path d="M13.1222 25C19.7558 25 25.1333 19.6224 25.1333 12.9889C25.1333 6.35534 19.7558 0.977783 13.1222 0.977783C6.48867 0.977783 1.11111 6.35534 1.11111 12.9889C1.11111 19.6224 6.48867 25 13.1222 25Z" fill="#F1037A" stroke="black" stroke-width="0.9867" stroke-miterlimit="10"/>
<path d="M16.8114 10.5008V9.64288H9.43311V10.5008H11.7495V19.166H9.43311V20.0239H16.8114V19.166H14.4949V10.5008H16.8114Z" fill="white"/>
<path d="M13.1222 8.01281C14.0225 8.01281 14.7523 7.283 14.7523 6.38273C14.7523 5.48247 14.0225 4.75266 13.1222 4.75266C12.222 4.75266 11.4922 5.48247 11.4922 6.38273C11.4922 7.283 12.222 8.01281 13.1222 8.01281Z" fill="white"/>
</svg>
