<svg xmlns="http://www.w3.org/2000/svg" viewBox="0 0 243 104"><path fill="none" d="M0 0h243v104H0z"/><path d="M63.4 30v-8.2H65c.7 0 1.2.1 1.7.2s.9.4 1.2.7c.3.3.6.7.7 1.2.2.5.2 1.1.2 1.8 0 .8-.1 1.4-.3 1.9-.2.5-.5 1-.8 1.3s-.8.6-1.3.8c-.5.2-1.1.2-1.7.2h-1.3zm1.1-7.4v6.5h.4c.5 0 .9-.1 1.3-.2s.7-.3.9-.6c.3-.3.4-.6.6-1.1.1-.4.2-1 .2-1.6 0-.6-.1-1.1-.2-1.5s-.3-.7-.6-1c-.2-.2-.5-.4-.9-.5-.4-.1-.8-.2-1.2-.2h-.5zm6.7 7.4h-1v-5.7h1V30zm-.5-7.1c-.2 0-.4-.1-.5-.2-.1-.1-.2-.3-.2-.5s.1-.4.2-.5c.1-.1.3-.2.5-.2s.3.1.5.2c.1.1.2.3.2.5s-.1.4-.2.5c-.1.1-.3.2-.5.2zm5.6 3.3v1.1h-2.9c0 .7.2 1.2.4 1.5.3.3.6.5 1.1.5.2 0 .3 0 .5-.1.1 0 .3-.1.4-.1.1-.1.2-.1.2-.2l.1-.1.4.7-.2.2c-.1.1-.2.2-.3.2-.1.1-.3.1-.5.2s-.4.1-.7.1c-.4 0-.7-.1-1-.2-.3-.1-.5-.3-.7-.6-.2-.2-.4-.6-.5-1-.1-.4-.2-.8-.2-1.4 0-.5.1-.9.2-1.3s.3-.7.5-.9c.2-.2.4-.4.7-.5.3-.1.5-.2.8-.2.5 0 1 .2 1.3.5.3.4.4.9.4 1.6zm-1.8-1.3c-.3 0-.6.1-.8.4s-.3.7-.4 1.2h2.1v-.4c0-.4-.1-.7-.2-.9-.1-.2-.4-.3-.7-.3zm10.2-1c0 .3 0 .5-.1.7l-.3.6c-.1.2-.3.3-.4.4-.2.1-.3.2-.5.2.2 0 .4.1.6.2.2.1.3.2.5.4l.3.6c.1.2.1.5.1.7 0 .3-.1.6-.2.9s-.3.5-.5.7c-.2.2-.5.4-.9.5-.4.1-.8.2-1.3.2h-1.7v-8.2h1.6c.5 0 .9 0 1.2.1.3.1.6.2.9.4s.4.4.5.7c.1.3.2.6.2.9zm-1.1 0c0-.4-.1-.7-.4-.9-.3-.2-.7-.4-1.3-.4h-.5v2.8h.5c.6 0 1-.1 1.3-.4.3-.2.4-.6.4-1.1zm.2 3.8c0-.4-.1-.8-.4-1.1-.3-.3-.7-.4-1.2-.4h-.7v2.9h.5c.6 0 1.1-.1 1.3-.4.3-.2.5-.5.5-1zm6-1.5v1.1h-2.9c0 .7.2 1.2.4 1.5.3.3.6.5 1.1.5.2 0 .3 0 .5-.1.1 0 .3-.1.4-.1.1-.1.2-.1.2-.2l.1-.1.4.7-.2.2c-.1.1-.2.2-.3.2-.1.1-.3.1-.5.2s-.4.1-.7.1c-.4 0-.7-.1-1-.2-.3-.1-.5-.3-.7-.6-.2-.2-.4-.6-.5-1-.1-.4-.2-.8-.2-1.4 0-.5.1-.9.2-1.3s.3-.7.5-.9.4-.4.7-.5c.3-.1.5-.2.8-.2.5 0 1 .2 1.3.5.3.4.4.9.4 1.6zM88 24.9c-.3 0-.6.1-.8.4-.2.3-.3.7-.4 1.2h2.1v-.4c0-.4-.1-.7-.2-.9-.2-.2-.4-.3-.7-.3zm2.8 3.6c0-.3.1-.6.2-.8.1-.2.3-.4.5-.5.2-.1.5-.2.8-.3.3-.1.6-.1.9-.1h.3v-.5c0-.5-.1-.8-.3-1-.2-.2-.4-.3-.7-.3-.3 0-.5.1-.7.2-.2.1-.3.2-.5.3l-.4-.6.2-.2c.1-.1.2-.2.4-.2.1-.1.3-.1.5-.2.2 0 .4-.1.6-.1.6 0 1 .2 1.3.5.3.3.5.8.5 1.6v3.8h-.9v-.6c0 .1-.1.2-.1.2-.1.1-.1.2-.2.2-.1.1-.2.1-.3.2-.1.1-.3.1-.5.1s-.4 0-.6-.1c-.2-.1-.3-.2-.5-.3-.1-.1-.2-.3-.3-.5-.2-.3-.2-.5-.2-.8zm1.7.8c.1 0 .3 0 .4-.1.1 0 .2-.1.3-.1l.2-.2c.1-.1.1-.1.1-.2v-1.3h-.3c-.5 0-.8.1-1 .2-.2.1-.4.4-.4.7 0 .3.1.5.2.7.1.2.2.3.5.3zm7.3.7H99v-.6l-.2.2-.3.3c-.1 0-.3.1-.5.1s-.4.1-.6.1c-.3 0-.5 0-.7-.1-.2-.1-.4-.2-.5-.4-.1-.2-.3-.4-.3-.6-.1-.3-.1-.6-.1-1v-3.7h1V28c0 .5.1.8.2 1 .2.2.4.3.7.3.3 0 .5-.1.7-.2.2-.1.3-.3.5-.4v-4.4h1V30zm3.9-4.9h-1.2V30h-1v-4.9h-.7v-.6l.7-.1v-1.1c0-.3 0-.6.1-.8.1-.2.2-.4.3-.5s.3-.2.5-.3.4-.1.6-.1c.2 0 .4 0 .5.1.1.1.2.1.3.1l-.2.8s-.1-.1-.2-.1-.2-.1-.3-.1c-.2 0-.4.1-.5.2-.1.1-.2.4-.2.8v1h1.3v.7zm3.4 0h-1.2v3.2c0 .4.1.7.2.8.1.1.3.2.5.2.1 0 .3 0 .4-.1.1 0 .2-.1.2-.1l.1.8s-.1.1-.3.1c-.2.1-.4.1-.6.1-.5 0-.9-.1-1.1-.4-.2-.3-.4-.7-.4-1.4V25h-.7v-.6l.7-.1.1-1.6h.9v1.6h1.4l-.2.8zm3.6 0s-.1 0-.2-.1h-.3c-.3 0-.5.1-.7.2-.2.2-.3.3-.4.5V30h-1v-5.7h.9v.8c0-.1.1-.2.2-.3s.1-.2.2-.3.2-.1.3-.2c.1 0 .3-.1.5-.1h.3c.1 0 .1 0 .2.1v.8zm.6 3.4c0-.3.1-.6.2-.8s.3-.4.5-.5c.2-.1.5-.2.8-.3.3-.1.6-.1.9-.1h.3v-.5c0-.5-.1-.8-.3-1-.2-.2-.4-.3-.7-.3-.3 0-.5.1-.7.2-.2.1-.3.2-.5.3l-.4-.6.2-.2c.1-.1.2-.2.4-.2.1-.1.3-.1.5-.2s.4-.1.6-.1c.6 0 1 .2 1.3.5.3.3.5.8.5 1.6v3.8h-.9v-.6c0 .1-.1.2-.1.2-.1.1-.1.2-.2.2-.1.1-.2.1-.3.2-.1.1-.3.1-.5.1s-.4 0-.6-.1c-.2-.1-.3-.2-.5-.3-.1-.1-.2-.3-.3-.5-.2-.3-.2-.5-.2-.8zm1.7.8c.1 0 .3 0 .4-.1.1 0 .2-.1.3-.1l.2-.2c.1-.1.1-.1.1-.2v-1.3h-.3c-.5 0-.8.1-1 .2s-.4.4-.4.7c0 .3.1.5.2.7.1.2.3.3.5.3zm7.5-4.3h-.7c.2.3.3.6.3 1 0 .3 0 .6-.1.8-.1.2-.2.4-.4.6-.2.2-.4.3-.6.4-.2.1-.5.1-.8.1h-.4c-.1 0-.2.1-.3.2-.1.1-.2.2-.2.3 0 .1 0 .2.1.3.1.1.2.1.4.1h.7c.3 0 .5 0 .7.1.2.1.4.1.6.3.2.1.3.3.4.5s.1.4.1.7c0 .3-.1.6-.2.8-.1.3-.3.5-.6.7-.2.2-.5.3-.9.4-.3.1-.7.2-1.1.2-.6 0-1.1-.1-1.4-.4-.3-.3-.5-.6-.5-1.1 0-.2 0-.4.1-.6.1-.2.2-.3.3-.4l.3-.3c.1-.1.2-.1.3-.2-.2-.2-.4-.4-.4-.8 0-.2 0-.3.1-.4.1-.1.1-.2.2-.3.1-.1.2-.1.2-.2.1 0 .1-.1.2-.1-.3-.1-.5-.3-.7-.6-.2-.3-.3-.7-.3-1.1 0-.3.1-.6.2-.8.1-.2.2-.4.4-.6s.4-.3.6-.4c.2-.1.5-.1.8-.1s.5 0 .8.1h1.7l.1.8zm-2.7 4.8h-.4c-.1 0-.1.1-.2.1l-.2.2c-.1.1-.1.2-.1.3 0 .1-.1.2-.1.4 0 .6.3.9 1 .9.6 0 1-.1 1.3-.3.3-.2.4-.5.4-.8 0-.3-.1-.5-.3-.6-.2-.1-.4-.2-.7-.2h-.7zm1.3-3.7c0-.4-.1-.7-.3-.9-.2-.2-.4-.3-.7-.3-.3 0-.5.1-.7.3-.2.2-.3.5-.3.9s.1.7.3.9c.2.2.4.3.7.3.3 0 .5-.1.7-.3.2-.2.3-.5.3-.9zm4.9-1h-1.2v3.2c0 .4.1.7.2.8.1.1.3.2.5.2.1 0 .3 0 .4-.1.1 0 .2-.1.2-.1l.1.8s-.1.1-.3.1c-.2.1-.4.1-.6.1-.5 0-.9-.1-1.1-.4-.2-.3-.4-.7-.4-1.4V25h-.7v-.6l.7-.1.1-1.6h.9v1.6h1.4l-.2.8zm4.7 1.1v1.1h-2.9c0 .7.2 1.2.4 1.5.3.3.6.5 1.1.5.2 0 .3 0 .5-.1.1 0 .3-.1.4-.1.1-.1.2-.1.2-.2l.1-.1.4.7-.2.2c-.1.1-.2.2-.3.2-.1.1-.3.1-.5.2s-.4.1-.7.1c-.4 0-.7-.1-1-.2-.3-.1-.5-.3-.7-.6-.2-.2-.4-.6-.5-1-.1-.4-.2-.8-.2-1.4 0-.5.1-.9.2-1.3s.3-.7.5-.9.4-.4.7-.5c.3-.1.5-.2.8-.2.5 0 1 .2 1.3.5.2.4.4.9.4 1.6zm-1.8-1.3c-.3 0-.6.1-.8.4-.2.3-.3.7-.4 1.2h2.1v-.4c0-.4-.1-.7-.2-.9-.2-.2-.4-.3-.7-.3zm5.3 2.3c0-.6.1-1.1.2-1.5.2-.4.3-.7.6-.9.2-.2.5-.4.8-.5.3-.1.6-.1.9-.1h.5c.1 0 .2.1.3.1v-2.7l1-.1V30h-.9v-.6s-.1.1-.1.2c-.1.1-.2.2-.3.2-.1.1-.2.2-.4.2-.2.1-.4.1-.6.1-.3 0-.5-.1-.8-.2-.2-.1-.5-.3-.6-.5-.2-.2-.3-.5-.4-.9-.1-.3-.2-.7-.2-1.3zm2.3 2.1c.2 0 .3 0 .4-.1.1 0 .2-.1.3-.1.1-.1.2-.1.2-.2.1-.1.1-.1.1-.2v-3.5c-.1-.1-.2-.1-.3-.1-.1 0-.3-.1-.4-.1-.2 0-.4 0-.6.1-.2.1-.4.2-.5.4-.1.2-.3.4-.3.7-.1.3-.1.6-.1 1s0 .7.1 1c.1.3.2.5.3.6.1.2.3.3.4.4 0 .1.2.1.4.1zm7.1-3.1v1.1h-2.9c0 .7.2 1.2.4 1.5.3.3.6.5 1.1.5.2 0 .3 0 .5-.1.1 0 .3-.1.4-.1.1-.1.2-.1.2-.2l.1-.1.4.7-.2.2c-.1.1-.2.2-.3.2-.1.1-.3.1-.5.2s-.4.1-.7.1c-.4 0-.7-.1-1-.2-.3-.1-.5-.3-.7-.6-.2-.2-.4-.6-.5-1-.1-.4-.2-.8-.2-1.4 0-.5.1-.9.2-1.3s.3-.7.5-.9.4-.4.7-.5c.3-.1.5-.2.8-.2.5 0 1 .2 1.3.5.3.4.4.9.4 1.6zm-1.8-1.3c-.3 0-.6.1-.8.4s-.3.7-.4 1.2h2.1v-.4c0-.4-.1-.7-.2-.9-.1-.2-.4-.3-.7-.3zm5.6.2s-.1 0-.2-.1h-.3c-.3 0-.5.1-.7.2-.2.2-.3.3-.4.5V30h-1v-5.7h.9v.8c0-.1.1-.2.2-.3.1-.1.1-.2.2-.3s.2-.1.3-.2c.1 0 .3-.1.5-.1h.3c.1 0 .1 0 .2.1v.8zm7.8-1.2c0 .3 0 .5-.1.7l-.3.6c-.1.2-.3.3-.4.4-.2.1-.3.2-.5.2.2 0 .4.1.6.2.2.1.3.2.5.4l.3.6c.1.2.1.5.1.7 0 .3-.1.6-.2.9s-.3.5-.5.7c-.2.2-.5.4-.9.5-.4.1-.8.2-1.3.2h-1.7v-8.2h1.6c.5 0 .9 0 1.2.1.3.1.6.2.9.4.2.2.4.4.5.7.1.3.2.6.2.9zm-1.1 0c0-.4-.1-.7-.4-.9-.3-.2-.7-.4-1.3-.4h-.5v2.8h.5c.6 0 1-.1 1.3-.4.3-.2.4-.6.4-1.1zm.2 3.8c0-.4-.1-.8-.4-1.1-.3-.3-.7-.4-1.2-.4h-.7v2.9h.6c.6 0 1.1-.1 1.3-.4.2-.2.4-.5.4-1zm6.3 2.3h-.9v-.6l-.2.2-.3.3c-.1.1-.3.2-.4.2s-.4.1-.6.1c-.3 0-.5 0-.7-.1-.2-.1-.4-.2-.5-.4-.1-.2-.3-.4-.3-.6-.1-.3-.1-.6-.1-1v-3.7h1V28c0 .5.1.8.2 1 .2.2.4.3.7.3.3 0 .5-.1.7-.2.2-.1.3-.3.5-.4v-4.4h1V30zm4.6 0v-3.7c0-.5-.1-.8-.2-1-.2-.2-.4-.3-.7-.3-.3 0-.5.1-.7.2-.2.1-.3.3-.5.4V30h-1v-5.7h.9v.6l.2-.2.3-.3c.1-.1.3-.2.5-.2s.4-.1.6-.1c.3 0 .5 0 .7.1.2.1.4.2.5.4.1.2.3.4.3.6.1.3.1.6.1 1V30h-1zm2.2-2.8c0-.6.1-1.1.2-1.5.2-.4.3-.7.6-.9.2-.2.5-.4.8-.5.3-.1.6-.1.9-.1h.5c.1 0 .2.1.3.1v-2.7l1-.1V30h-.9v-.6s-.1.1-.1.2c-.1.1-.2.2-.3.2-.1.1-.2.2-.4.2-.2.1-.4.1-.6.1-.3 0-.5-.1-.8-.2-.2-.1-.5-.3-.6-.5-.2-.2-.3-.5-.4-.9-.2-.3-.2-.7-.2-1.3zm2.2 2.1c.2 0 .3 0 .4-.1.1 0 .2-.1.3-.1.1-.1.2-.1.2-.2.1-.1.1-.1.1-.2v-3.5c-.1-.1-.2-.1-.3-.1-.1 0-.3-.1-.4-.1-.2 0-.4 0-.6.1-.2.1-.4.2-.5.4-.1.2-.3.4-.3.7-.1.3-.1.6-.1 1s0 .7.1 1c.1.3.2.5.3.6.1.2.3.3.4.4.1.1.3.1.4.1zm7.2-3.1v1.1h-2.9c0 .7.2 1.2.4 1.5.3.3.6.5 1.1.5.2 0 .3 0 .5-.1.1 0 .3-.1.4-.1.1-.1.2-.1.2-.2l.1-.1.4.7-.2.2c-.1.1-.2.2-.3.2-.1.1-.3.1-.5.2s-.4.1-.7.1c-.4 0-.7-.1-1-.2-.3-.1-.5-.3-.7-.6-.2-.2-.4-.6-.5-1-.1-.4-.2-.8-.2-1.4 0-.5.1-.9.2-1.3s.3-.7.5-.9.4-.4.7-.5c.3-.1.5-.2.8-.2.5 0 1 .2 1.3.5.3.4.4.9.4 1.6zm-1.8-1.3c-.3 0-.6.1-.8.4s-.3.7-.4 1.2h2.1v-.4c0-.4-.1-.7-.2-.9-.2-.2-.4-.3-.7-.3zm5.6.5l-.3-.3c-.2-.1-.4-.2-.7-.2-.3 0-.4.1-.6.2-.1.1-.2.3-.2.4 0 .2.1.4.2.5.1.1.3.3.6.4l.4.2c.4.2.7.5.9.7.2.3.3.6.3 1 0 .5-.2.8-.5 1.1-.3.3-.8.5-1.4.5-.2 0-.4 0-.6-.1s-.3-.1-.5-.2c-.1-.1-.2-.1-.3-.2-.1-.1-.2-.1-.2-.2l.5-.8.2.2.2.2c.1.1.2.1.3.1.1 0 .3.1.4.1.3 0 .5-.1.7-.2.2-.1.2-.3.2-.5 0-.1 0-.3-.1-.4 0-.1-.1-.2-.2-.3s-.2-.2-.3-.2c-.1-.1-.2-.2-.4-.2l-.4-.2c-.4-.2-.6-.5-.8-.7-.2-.3-.3-.6-.3-1 0-.2 0-.4.1-.6.1-.2.2-.3.4-.5.2-.1.3-.2.5-.3.2-.1.4-.1.6-.1.2 0 .4 0 .6.1.2 0 .3.1.4.2.1.1.2.1.3.2l.2.2-.2.9zm4.2-.3s-.1 0-.2-.1h-.3c-.3 0-.5.1-.7.2-.2.2-.3.3-.4.5V30h-1v-5.7h.9v.8c0-.1.1-.2.2-.3.1-.1.1-.2.2-.3s.2-.1.3-.2c.1 0 .3-.1.5-.1h.3c.1 0 .1 0 .2.1v.8zm4.4 1.1v1.1h-2.9c0 .7.2 1.2.4 1.5.3.3.6.5 1.1.5.2 0 .3 0 .5-.1.1 0 .3-.1.4-.1.1-.1.2-.1.2-.2l.1-.1.4.7-.2.2c-.1.1-.2.2-.3.2-.1.1-.3.1-.5.2s-.4.1-.7.1c-.4 0-.7-.1-1-.2-.3-.1-.5-.3-.7-.6-.2-.2-.4-.6-.5-1-.1-.4-.2-.8-.2-1.4 0-.5.1-.9.2-1.3s.3-.7.5-.9.4-.4.7-.5c.3-.1.5-.2.8-.2.5 0 1 .2 1.3.5.3.4.4.9.4 1.6zm-1.8-1.3c-.3 0-.6.1-.8.4s-.3.7-.4 1.2h2.1v-.4c0-.4-.1-.7-.2-.9-.1-.2-.4-.3-.7-.3zm7.2.1h-.7c.2.3.3.6.3 1 0 .3 0 .6-.1.8-.1.2-.2.4-.4.6-.2.2-.4.3-.6.4-.2.1-.5.1-.8.1h-.4c-.1 0-.2.1-.3.2-.1.1-.2.2-.2.3 0 .1 0 .2.1.3.1.1.2.1.4.1h.7c.3 0 .5 0 .7.1.2.1.4.1.6.3.2.1.3.3.4.5.1.2.1.4.1.7 0 .3-.1.6-.2.8-.1.3-.3.5-.6.7-.2.2-.5.3-.9.4-.3.1-.7.2-1.1.2-.6 0-1.1-.1-1.4-.4-.3-.3-.5-.6-.5-1.1 0-.2 0-.4.1-.6.1-.2.2-.3.3-.4l.3-.3c.1-.1.2-.1.3-.2-.2-.2-.4-.4-.4-.8 0-.2 0-.3.1-.4.1-.1.1-.2.2-.3.1-.1.2-.1.2-.2.1 0 .1-.1.2-.1-.3-.1-.5-.3-.7-.6-.2-.3-.3-.7-.3-1.1 0-.3.1-.6.2-.8.1-.2.2-.4.4-.6.2-.2.4-.3.6-.4.2-.1.5-.1.8-.1.3 0 .5 0 .8.1h1.7l.1.8zm-2.6 4.8h-.4c-.1 0-.1.1-.2.1l-.2.2c-.1.1-.1.2-.1.3 0 .1-.1.2-.1.4 0 .6.3.9 1 .9.6 0 1-.1 1.3-.3.3-.2.4-.5.4-.8 0-.3-.1-.5-.3-.6-.2-.1-.4-.2-.7-.2h-.7zm1.2-3.7c0-.4-.1-.7-.3-.9-.2-.2-.4-.3-.7-.3-.3 0-.5.1-.7.3-.2.2-.3.5-.3.9s.1.7.3.9c.2.2.4.3.7.3.3 0 .5-.1.7-.3.2-.2.3-.5.3-.9zm3.5 3.9h-1v-5.7h1V30zm-.5-7.1c-.2 0-.4-.1-.5-.2s-.2-.3-.2-.5.1-.4.2-.5.3-.2.5-.2.3.1.5.2c.1.1.2.3.2.5s-.1.4-.2.5c-.1.1-.3.2-.5.2zm5.6 3.3v1.1h-2.9c0 .7.2 1.2.4 1.5.3.3.6.5 1.1.5.2 0 .3 0 .5-.1.1 0 .3-.1.4-.1.1-.1.2-.1.2-.2l.1-.1.4.7-.2.2c-.1.1-.2.2-.3.2-.1.1-.3.1-.5.2s-.4.1-.7.1c-.4 0-.7-.1-1-.2-.3-.1-.5-.3-.7-.6-.2-.2-.4-.6-.5-1-.1-.4-.2-.8-.2-1.4 0-.5.1-.9.2-1.3s.3-.7.5-.9c.2-.2.4-.4.7-.5.3-.1.5-.2.8-.2.5 0 1 .2 1.3.5.3.4.4.9.4 1.6zm-1.8-1.3c-.3 0-.6.1-.8.4s-.3.7-.4 1.2h2.1v-.4c0-.4-.1-.7-.2-.9-.2-.2-.4-.3-.7-.3zm5.6.2s-.1 0-.2-.1h-.3c-.3 0-.5.1-.7.2-.2.2-.3.3-.4.5V30h-1v-5.7h.9v.8c0-.1.1-.2.2-.3.1-.1.1-.2.2-.3s.2-.1.3-.2c.1 0 .3-.1.5-.1h.3c.1 0 .1 0 .2.1v.8zm5 4.9h-.9v-.6l-.2.2-.3.3c-.1.1-.3.2-.4.2s-.4.1-.6.1c-.3 0-.5 0-.7-.1-.2-.1-.4-.2-.5-.4-.1-.2-.3-.4-.3-.6-.1-.3-.1-.6-.1-1v-3.7h1V28c0 .5.1.8.2 1 .2.2.4.3.7.3.3 0 .5-.1.7-.2.2-.1.3-.3.5-.4v-4.4h1V30zm4.6 0v-3.7c0-.5-.1-.8-.2-1-.2-.2-.4-.3-.7-.3-.3 0-.5.1-.7.2-.2.1-.3.3-.5.4V30h-1v-5.7h.9v.6l.2-.2.3-.3c.1-.1.3-.2.5-.2s.4-.1.6-.1c.3 0 .5 0 .7.1.2.1.4.2.5.4.1.2.3.4.3.6.1.3.1.6.1 1V30h-1zm6.5-5h-.7c.2.3.3.6.3 1 0 .3 0 .6-.1.8-.1.2-.2.4-.4.6-.2.2-.4.3-.6.4-.2.1-.5.1-.8.1h-.4c-.1 0-.2.1-.3.2-.1.1-.2.2-.2.3 0 .1 0 .2.1.3.1.1.2.1.4.1h.7c.3 0 .5 0 .7.1.2.1.4.1.6.3.2.1.3.3.4.5s.1.4.1.7c0 .3-.1.6-.2.8s-.3.5-.6.7c-.2.2-.5.3-.9.4-.3.1-.7.2-1.1.2-.6 0-1.1-.1-1.4-.4-.3-.3-.5-.6-.5-1.1 0-.2 0-.4.1-.6.1-.2.2-.3.3-.4l.3-.3c.1-.1.2-.1.3-.2-.2-.2-.4-.4-.4-.8 0-.2 0-.3.1-.4.1-.1.1-.2.2-.3.1-.1.2-.1.2-.2.1 0 .1-.1.2-.1-.3-.1-.5-.3-.7-.6-.2-.3-.3-.7-.3-1.1 0-.3.1-.6.2-.8.1-.2.2-.4.4-.6s.4-.3.6-.4c.2-.1.5-.1.8-.1s.5 0 .8.1h1.7l.1.8zm-2.7 4.8h-.4c-.1 0-.1.1-.2.1l-.2.2c-.1.1-.1.2-.1.3 0 .1-.1.2-.1.4 0 .6.3.9 1 .9.6 0 1-.1 1.3-.3.3-.2.4-.5.4-.8 0-.3-.1-.5-.3-.6-.2-.1-.4-.2-.7-.2h-.7zm1.3-3.7c0-.4-.1-.7-.3-.9-.2-.2-.4-.3-.7-.3-.3 0-.5.1-.7.3-.2.2-.3.5-.3.9s.1.7.3.9c.2.2.4.3.7.3.3 0 .5-.1.7-.3.2-.2.3-.5.3-.9zm-152.7 11h-1.2V42h-1v-4.9h-.7v-.6l.7-.1v-1.1c0-.3 0-.6.1-.8s.2-.4.3-.5c.1-.1.3-.2.5-.3s.4-.1.6-.1c.2 0 .4 0 .5.1.1.1.2.1.3.1l-.2.8s-.1-.1-.2-.1-.2-.1-.3-.1c-.2 0-.4.1-.5.2s-.2.4-.2.8v1h1.3v.7zm5 4.9h-.9v-.6l-.2.2-.3.3c-.1 0-.2.1-.4.1s-.4.1-.6.1c-.3 0-.5 0-.7-.1-.2-.1-.4-.2-.5-.4-.1-.2-.3-.4-.3-.6-.1-.3-.1-.6-.1-1v-3.7h1V40c0 .5.1.8.2 1 .2.2.4.3.7.3.3 0 .5-.1.7-.2.2-.1.3-.3.5-.4v-4.4h1V42zm-2.4-7.4c0 .2-.1.3-.2.4-.1.1-.2.2-.4.2s-.3-.1-.4-.2-.2-.3-.2-.4c0-.2.1-.3.2-.4s.2-.2.4-.2.3.1.4.2c.2.1.2.3.2.4zm1.9 0c0 .2-.1.3-.2.4s-.2.2-.4.2-.3-.1-.4-.2c-.1-.1-.2-.3-.2-.4 0-.2.1-.3.2-.4.1-.1.2-.2.4-.2s.3.1.4.2.2.3.2.4zm4.5 2.5s-.1 0-.2-.1h-.3c-.3 0-.5.1-.7.2-.2.2-.3.3-.4.5V42h-1v-5.7h.9v.8c0-.1.1-.2.2-.3s.1-.2.2-.3.2-.1.3-.2c.1 0 .3-.1.5-.1h.3c.1 0 .1 0 .2.1v.8zm5.9.7l2.8 4.2H82l-2.4-3.7H79V42h-1v-8.2h1v3.7h.6l2.3-3.7h1.2l-2.6 4zM88 42h-.9v-.6l-.2.2-.3.3c-.1.1-.3.2-.4.2-.2.1-.4.1-.6.1-.3 0-.5 0-.7-.1-.2-.1-.4-.2-.5-.4-.1-.2-.3-.4-.3-.6-.1-.3-.1-.6-.1-1v-3.7h1V40c0 .5.1.8.2 1 .2.2.4.3.7.3.3 0 .5-.1.7-.2.2-.1.3-.3.5-.4v-4.4h1V42zm2.4-1.3c0 .2 0 .4.1.5.1.1.2.1.4.1h.3l.1.7s-.1.1-.3.1-.3.1-.5.1c-.3 0-.6-.1-.8-.3-.2-.2-.3-.6-.3-1.1v-7.2l1-.1v7.2zm4.2-3.6h-1.2v3.2c0 .4.1.7.2.8.1.1.3.2.5.2.1 0 .3 0 .4-.1.1 0 .2-.1.2-.1l.1.8s-.1.1-.3.1c-.2.1-.4.1-.6.1-.5 0-.9-.1-1.1-.4-.2-.3-.4-.7-.4-1.4V37h-.7v-.6l.7-.1.1-1.6h.9v1.6h1.4l-.2.8zm5.1 4.9h-.9v-.6l-.2.2-.3.3c-.1.1-.3.2-.4.2s-.4.1-.6.1c-.3 0-.5 0-.7-.1-.2-.1-.4-.2-.5-.4-.1-.2-.3-.4-.3-.6-.1-.3-.1-.6-.1-1v-3.7h1V40c0 .5.1.8.2 1 .2.2.4.3.7.3.3 0 .5-.1.7-.2.2-.1.3-.3.5-.4v-4.4h1V42zm4-4.9s-.1 0-.2-.1h-.3c-.3 0-.5.1-.7.2-.2.2-.3.3-.4.5V42h-1v-5.7h.9v.8c0-.1.1-.2.2-.3s.1-.2.2-.3.2-.1.3-.2c.1 0 .3-.1.5-.1h.3c.1 0 .1 0 .2.1v.8zm7.2 4.9h-.9v-.6l-.2.2-.3.3c-.1.1-.3.2-.4.2s-.4.1-.6.1c-.3 0-.5 0-.7-.1-.2-.1-.4-.2-.5-.4-.1-.2-.3-.4-.3-.6-.1-.3-.1-.6-.1-1v-3.7h1V40c0 .5.1.8.2 1 .2.2.4.3.7.3.3 0 .5-.1.7-.2.2-.1.3-.3.5-.4v-4.4h1V42zm4.6 0v-3.7c0-.5-.1-.8-.2-1-.2-.2-.4-.3-.7-.3-.3 0-.5.1-.7.2-.2.1-.3.3-.5.4V42h-1v-5.7h.9v.6l.2-.2.3-.3c.1-.1.3-.2.5-.2s.4-.1.6-.1c.3 0 .5 0 .7.1.2.1.4.2.5.4s.3.4.3.6c.1.3.1.6.1 1V42h-1zm2.1-2.8c0-.6.1-1.1.2-1.5.2-.4.3-.7.6-.9.2-.2.5-.4.8-.5.3-.1.6-.1.9-.1h.5c.1 0 .2.1.3.1v-2.7l1-.1V42h-.9v-.6s-.1.1-.1.2c-.1.1-.2.2-.3.2-.1.1-.2.2-.4.2-.2.1-.4.1-.6.1-.3 0-.5-.1-.8-.2-.2-.1-.5-.3-.6-.5-.2-.2-.3-.5-.4-.9-.1-.3-.2-.7-.2-1.3zm2.3 2.1c.2 0 .3 0 .4-.1.1 0 .2-.1.3-.1.1-.1.2-.1.2-.2s.1-.1.1-.2v-3.5c-.1-.1-.2-.1-.3-.1-.1 0-.3-.1-.4-.1-.2 0-.4 0-.6.1-.2.1-.4.2-.5.4s-.3.4-.3.7c-.1.3-.1.6-.1 1s0 .7.1 1c.1.3.2.5.3.6.1.2.3.3.4.4 0 .1.2.1.4.1zm13-7.5V42h-1v-6.2c0 .2-.1.5-.2.9s-.3.8-.4 1.3l-1.4 4h-.8l-1.4-4c-.2-.5-.3-.9-.4-1.3-.1-.4-.2-.7-.2-.9V42h-1v-8.2h1.2l1.9 5.7c.1.3.2.5.2.8.1.2.1.5.1.6 0-.2 0-.4.1-.6.1-.2.1-.5.2-.8l1.9-5.7h1.2zm5.3 4.4v1.1h-2.9c0 .7.2 1.2.4 1.5.3.3.6.5 1.1.5.2 0 .3 0 .5-.1.1 0 .3-.1.4-.1.1-.1.2-.1.2-.2l.1-.1.4.7-.2.2c-.1.1-.2.2-.3.2-.1.1-.3.1-.5.2s-.4.1-.7.1c-.4 0-.7-.1-1-.2-.3-.1-.5-.3-.7-.6s-.4-.6-.5-1c-.1-.4-.2-.8-.2-1.4 0-.5.1-.9.2-1.3s.3-.7.5-.9c.2-.2.4-.4.7-.5.3-.1.5-.2.8-.2.5 0 1 .2 1.3.5.3.4.4.9.4 1.6zm-1.8-1.3c-.3 0-.6.1-.8.4s-.3.7-.4 1.2h2.1v-.4c0-.4-.1-.7-.2-.9-.1-.2-.4-.3-.7-.3zm2.9 2.3c0-.6.1-1.1.2-1.5.2-.4.3-.7.6-.9.2-.2.5-.4.8-.5.3-.1.6-.1.9-.1h.5c.1 0 .2.1.3.1v-2.7l1-.1V42h-.9v-.6s-.1.1-.1.2c-.1.1-.2.2-.3.2-.1.1-.2.2-.4.2-.2.1-.4.1-.6.1-.3 0-.5-.1-.8-.2-.2-.1-.5-.3-.6-.5-.2-.2-.3-.5-.4-.9-.2-.3-.2-.7-.2-1.3zm2.2 2.1c.2 0 .3 0 .4-.1.1 0 .2-.1.3-.1.1-.1.2-.1.2-.2.1-.1.1-.1.1-.2v-3.5c-.1-.1-.2-.1-.3-.1-.1 0-.3-.1-.4-.1-.2 0-.4 0-.6.1-.2.1-.4.2-.5.4-.1.2-.3.4-.3.7-.1.3-.1.6-.1 1s0 .7.1 1c.1.3.2.5.3.6.1.2.3.3.4.4.1.1.3.1.4.1zm4.5.7h-1v-5.7h1V42zm-.5-7.1c-.2 0-.4-.1-.5-.2-.1-.1-.2-.3-.2-.5s.1-.4.2-.5c.1-.1.3-.2.5-.2s.3.1.5.2.2.3.2.5-.1.4-.2.5-.3.2-.5.2zm5.6 3.3v1.1h-2.9c0 .7.2 1.2.4 1.5.3.3.6.5 1.1.5.2 0 .3 0 .5-.1.1 0 .3-.1.4-.1.1-.1.2-.1.2-.2l.1-.1.4.7-.2.2c-.1.1-.2.2-.3.2-.1.1-.3.1-.5.2s-.4.1-.7.1c-.4 0-.7-.1-1-.2-.3-.1-.5-.3-.7-.6s-.4-.6-.5-1c-.1-.4-.2-.8-.2-1.4 0-.5.1-.9.2-1.3s.3-.7.5-.9.4-.4.7-.5c.3-.1.5-.2.8-.2.5 0 1 .2 1.3.5.3.4.4.9.4 1.6zm-1.8-1.3c-.3 0-.6.1-.8.4s-.3.7-.4 1.2h2.1v-.4c0-.4-.1-.7-.2-.9-.1-.2-.4-.3-.7-.3zm6.2 5.1v-3.7c0-.5-.1-.8-.2-1-.2-.2-.4-.3-.7-.3-.3 0-.5.1-.7.2-.2.1-.3.3-.5.4V42h-1v-5.7h.9v.6l.2-.2.3-.3c.1-.1.3-.2.5-.2s.4-.1.6-.1c.3 0 .5 0 .7.1.2.1.4.2.5.4s.3.4.3.6c.1.3.1.6.1 1V42h-1zM37.2 29.3v-1.1c2 0 3.7-1.5 3.7-3.1 0-.8-.5-1.5-.9-1.9h.2c.3.3 1.1 1.2 1.1 2.3.1 2-1.9 3.8-4.1 3.8m-2-6.9c0-.2-.1-.4-.2-.6 0-.2.1-.4.4-.2-.2.2 0 .5 0 .5s.4-.2.3-.4c.4.1 0 .8-.5.7m-.5 1.1c-.1-.3-.2-.6-.4-.8-.2-.2-.5-.5-.9-.5-.2 0-.5.1-.7.2-.1-.1-.2-.4-.2-.6 0-.1.2-.3.7-.3 1 0 1.6.5 1.6 1.2.1.3 0 .5-.1.8m2.7 13.3h.2c.3.8 1.4 2.3 1.5 2.4.3 0 1-.2 1.6-.2h.2s.1.1.1.2-.1.4-.1.5c-.2-.2-.6-.3-1.1-.3-.2 0-.4 0-.5.1l.3.3c.5.5.9.9.9 1.2 0 .2-.2.4-.3.5 0-.5-.5-1.2-1.1-1.6v.7c0 1-.1 1.1-.4 1.1h-.2c.2-.2.3-.5.3-1.1v-1.1h-.1c-.2 0-.5-.1-.7-.1-.5 0-.8 0-1 .3-.2-.1-.3-.3-.3-.5s.1-.2.3-.2h.3c.2 0 .5.1 1.2.1-.2-.5-.6-1.1-1.3-2-.1-.2-.1-.3.2-.3m-6.2 2.4h1.5c.2 0 .3 0 .3.2 0 .1-.2.4-.3.5-.2-.2-.6-.3-1-.3-.2 0-.5 0-.7.1v1.1c0 .5.1.9.3 1.1h-.2c-.3 0-.4-.1-.4-1.1v-.7c-.5.4-1 1.1-1.1 1.6-.2-.1-.3-.3-.3-.5 0-.3.4-.7.9-1.2l.3-.3h-.1c-.1 0-.3-.1-.5-.1-.5 0-.9.1-1.1.3-.1-.1-.1-.4-.1-.5 0-.1 0-.2.1-.2h.2c.6 0 1.3.1 1.6.2 0-.1 1.2-1.6 1.5-2.4h.2c.2 0 .3.2.4.4-.9.6-1.4 1.3-1.5 1.8m-3.1-13.7c0-1.1.8-2 1.1-2.3h.2c-.3.4-.9 1-.9 1.9 0 1.7 1.8 3.1 3.8 3.1v1.1c-2.2 0-4.2-1.8-4.2-3.8M43.4 29c1 1.6 1.8 1.6 3 1.6-1-.8-1.7-1.8-2-2.3l-1.9-3c-.2-.9-.7-1.8-1.4-2.4l.6-.3c-1.2 0-2.4-.6-3.1-.6-.4 0-.7.3-.7.6 0 .4.4.8 1.1.8.2 0 .4 0 .6-.1.4.5.7 1 .7 1.7 0 1.3-1.6 2.3-3.1 2.3h-.3c-.1-.3-.6-.9-.6-1.5 0-1 .7-1.9.7-2.9 0-.6-.3-1-.4-1.2.2-.2.4-.4.5-.6-.1 0-.2.1-.4.1-.8 0-1.4-.2-2-.2-.3 0-.4.1-.4.2v.1c-.1 0-.2-.1-.4-.1s-.4-.1-.6-.1c-.7 0-1 .3-1 .6 0 .2.2.6.4.9.3-.1.6-.2.8-.2.4 0 .7.4.9.8h-.6c-.7 0-1.2-.3-1.3-.3 0 .1.2.4.6.5.5.2 1.3.3 1.4.3 0 0-.1.3-.3.3h-.1c-.5-.1-.7-.2-1.4-.4 0 .3.7.9 1.3 1.1-.5.7-1.2 1.4-1.5 2.4h-.3c-1.6 0-3.1-1-3.1-2.3 0-.7.3-1.2.7-1.7.2 0 .4.1.6.1.7 0 1.1-.4 1.1-.8 0-.3-.3-.6-.7-.6-.7 0-1.9.6-3.1.6.1.1.3.2.6.3-.7.6-1.2 1.5-1.4 2.4l-1.9 3c-.3.5-1 1.5-2 2.3 1.2 0 2 0 3-1.6l1-1.5.3.6-1.9 3.1c-.3.5-1 1.5-2 2.3 1.2 0 2 0 3-1.6l1.6-2.6.4.4-2.3 3.7c-.3.5-1 1.5-2 2.2 1.2 0 2 0 3-1.6l2.3-3.6c.1.1.3.2.5.3l-2.8 4.4c-.3.5-1 1.5-2 2.2 1.2 0 2 0 3-1.6l2.8-4.5c.2.1.3.1.5.2l-3.2 5.1c-.3.5-1 1.5-2 2.2 1.2 0 2 0 3-1.6l3.4-5.5h.1c.1.3.2.6.2.8 0 1.7-1.1 3.2-2.5 4.4.1 0 .2.1.4.1h.6c-.3.7-1 1.6-1.3 2.1-.4-.1-1.1-.1-1.5-.1-.4 0-.5.3-.5.5 0 .4.2.7.4.9.1-.2.2-.5 1.1-.5h.1c-.2.3-1 .9-1 1.4 0 .3.4.8.8.8v-.3c0-.4.3-.9.6-1.2v.2c0 .9.1 1.4.7 1.4.3 0 .5-.2.6-.2-.4-.4-.4-.6-.4-1.2v-.9h.5s.8-.1 1 .4c.2-.2.6-.5.6-.8 0-.2-.1-.5-.5-.5-.2 0-.7.1-1.1.1.1-.3.6-1 1.1-1.6.1.2.2.4.4.6 0-.4.2-1.5.8-2.1.1.4.2.9.2 1.8 0 2.3-.6 4-1.7 4.3.2.3.5.5.8.5.4 0 .7-.5.9-1 .1.3.5 1.2.8 1.2s.7-.8.8-1.2c.2.5.5 1 .9 1 .3 0 .7-.2.8-.5-1.2-.3-1.7-2-1.7-4.3 0-1 .1-1.4.2-1.8.6.7.8 1.8.8 2.1.2-.2.3-.4.4-.6.4.5 1 1.3 1.1 1.6-.4 0-.9-.1-1.1-.1-.4 0-.5.2-.5.5s.3.6.6.8c.2-.4 1-.4 1-.4h.5v.9c0 .5 0 .8-.4 1.2.1 0 .3.2.6.2.6 0 .7-.4.7-1.4v-.2c.3.3.6.8.6 1.2v.3c.5 0 .8-.5.8-.8 0-.5-.7-1.1-1-1.4h.1c.8 0 1 .3 1.1.5.2-.2.4-.5.4-.9 0-.2 0-.5-.5-.5-.4 0-1.1.1-1.5.1-.3-.5-1-1.4-1.3-2.1h.6c.1 0 .3 0 .4-.1-1.4-1.2-2.5-2.7-2.5-4.4 0-.3.1-.6.2-.8h.1l3 5.6c1 1.6 1.8 1.6 3 1.6-1-.8-1.7-1.8-2-2.2l-3.2-5.1c.2-.1.3-.1.5-.2l2.8 4.5c1 1.6 1.8 1.6 3 1.6-1-.8-1.7-1.7-2-2.2l-2.8-4.4c.2-.1.3-.2.5-.3l2.3 3.6c1 1.6 1.8 1.6 3 1.6-1-.8-1.7-1.7-2-2.2L41 29.5c.1-.1.3-.2.4-.4l1.6 2.6c1 1.6 1.8 1.6 3 1.6-1-.8-1.7-1.7-2-2.3l-1.8-3 .3-.6.9 1.6zM56 42h-3.5V22H56v20z"/><path d="M56 62h-3.5V42H56v20z" fill="red"/><path d="M56 82h-3.5V62H56v20z" fill="#fc0"/></svg>