<svg width="114" height="38" fill="none" xmlns="http://www.w3.org/2000/svg"><path d="M.568 16.435V.196H2.15v14.93h8.98v1.31H.569zM20.655 10.3a7.023 7.023 0 01-1.791.474 37.15 37.15 0 01-1.815.18c-1.07.076-1.907.309-2.512.7-.59.39-.885.984-.885 1.781 0 .361.07.677.21.948.155.255.349.473.582.654.248.165.527.293.837.383.326.075.651.113.977.113.559 0 1.102-.068 1.629-.203a4.48 4.48 0 001.396-.609c.418-.286.752-.64 1-1.06.248-.436.372-.947.372-1.534V10.3zm-2.35-.676c.264-.03.575-.075.931-.136.372-.06.675-.142.908-.248a.688.688 0 00.418-.518 3 3 0 00.093-.7c0-.691-.232-1.255-.698-1.691-.45-.451-1.217-.677-2.303-.677-.48 0-.923.045-1.326.135-.403.076-.76.218-1.07.429a2.407 2.407 0 00-.745.812c-.186.33-.31.752-.372 1.263h-1.42c.047-.692.21-1.278.49-1.76a3.536 3.536 0 011.07-1.195 4.4 4.4 0 011.535-.676c.59-.15 1.21-.226 1.861-.226.605 0 1.171.068 1.699.203.543.12 1.008.323 1.396.61.403.27.713.638.93 1.104.233.466.35 1.038.35 1.714v6.36c0 .527.092.865.279 1.016.201.135.597.097 1.186-.113v1.06l-.488.135c-.202.06-.404.09-.605.09a2.88 2.88 0 01-.629-.067 1.16 1.16 0 01-.558-.203 1.753 1.753 0 01-.349-.406 2.025 2.025 0 01-.163-.519 3.882 3.882 0 01-.046-.609 6.055 6.055 0 01-2.024 1.444c-.76.33-1.582.496-2.467.496a5.82 5.82 0 01-1.535-.203 3.744 3.744 0 01-1.28-.632 3.197 3.197 0 01-.884-1.037c-.217-.421-.325-.917-.325-1.489 0-1.985 1.403-3.157 4.21-3.518l1.932-.248zm13.363 5.503h4.025c.869 0 1.629-.038 2.28-.113.667-.075 1.24-.225 1.722-.45a3.09 3.09 0 001.163-.993c.295-.436.52-1.008.675-1.714.14-.677.14-1.218 0-1.624a1.712 1.712 0 00-.791-.97c-.373-.226-.853-.376-1.443-.451-.59-.09-1.256-.136-2-.136h-4.212l-1.419 6.45zm1.699-7.759h4.001c.822 0 1.528-.067 2.117-.203.59-.135 1.086-.33 1.49-.586a3.19 3.19 0 00.953-.97c.233-.39.403-.834.512-1.33.108-.512.116-.94.023-1.286a1.412 1.412 0 00-.628-.857c-.326-.226-.775-.384-1.35-.474-.573-.105-1.294-.158-2.163-.158h-3.653l-1.302 5.864zm-3.56 9.067L33.367.196h6.049c.977 0 1.79.098 2.442.293.667.196 1.18.474 1.536.835.357.36.581.797.675 1.308.108.496.093 1.045-.047 1.646a4.675 4.675 0 01-.562 1.436c-.248.406-.524.805-.834 1.09-.31.271-.644.49-1 .654-.357.15-.706.256-1.047.316l-.023.045c1.116.166 1.876.61 2.28 1.331.418.722.511 1.624.279 2.707-.186.842-.481 1.556-.884 2.142a4.745 4.745 0 01-1.443 1.421 5.963 5.963 0 01-1.908.79c-.698.15-1.442.225-2.233.225h-6.84zm21.068.315a6.55 6.55 0 01-2.187-.405 5.022 5.022 0 01-1.768-1.15c-.497-.512-.892-1.15-1.187-1.918-.294-.766-.442-1.661-.442-2.683 0-.858.117-1.654.35-2.391a5.6 5.6 0 011.046-1.962 4.835 4.835 0 011.745-1.309c.698-.33 1.512-.496 2.443-.496.946 0 1.768.166 2.466.496a4.83 4.83 0 011.745 1.309 5.104 5.104 0 011.024 1.94c.232.751.349 1.555.349 2.413 0 .932-.132 1.774-.396 2.526a5.547 5.547 0 01-1.14 1.94c-.48.54-1.07.962-1.768 1.262-.683.286-1.443.429-2.28.429zm4.095-6.156a7.75 7.75 0 00-.233-1.94 4.409 4.409 0 00-.721-1.556 3.394 3.394 0 00-1.256-1.06c-.512-.256-1.14-.384-1.885-.384-.729 0-1.357.143-1.885.429a3.51 3.51 0 00-1.256 1.105 4.651 4.651 0 00-.721 1.579 7.115 7.115 0 00-.233 1.827c0 .721.086 1.39.256 2.007a4.8 4.8 0 00.791 1.556c.341.436.768.774 1.28 1.015.512.24 1.101.36 1.768.36.729 0 1.35-.134 1.861-.405a3.66 3.66 0 001.28-1.128c.326-.466.566-.992.721-1.579a7.115 7.115 0 00.233-1.826zm3.611 5.841V.196h1.396v6.18a8.986 8.986 0 011.722-1.398c.605-.361 1.326-.542 2.163-.542.745 0 1.435.128 2.071.384.636.24 1.171.669 1.605 1.285.295.421.466.857.512 1.308.062.436.093.895.093 1.376v7.646h-1.396V8.812c0-1.053-.24-1.842-.721-2.368-.48-.527-1.28-.79-2.396-.79-.435 0-.83.068-1.187.203a3.71 3.71 0 00-.977.496c-.28.21-.52.451-.721.722-.202.27-.357.556-.465.857a4.22 4.22 0 00-.257 1.083 12.68 12.68 0 00-.046 1.127v6.293h-1.396zm21.526-6.653A4.751 4.751 0 0080.2 8.18c-.047-.511-.186-.947-.419-1.308a2.346 2.346 0 00-1-.88c-.434-.225-.962-.338-1.582-.338-.62 0-1.195.113-1.722.338a5.241 5.241 0 00-1.396.903 6.067 6.067 0 00-1.093 1.308 7.391 7.391 0 00-.745 1.579h7.864zm-8.12 1.127a6.063 6.063 0 00-.14 1.805c.047.556.195 1.045.443 1.466.248.406.597.736 1.047.992.465.24 1.031.36 1.698.36a4.6 4.6 0 002.49-.698c.76-.466 1.341-1.128 1.744-1.985h1.56a9.733 9.733 0 01-1.025 1.556 6.67 6.67 0 01-1.302 1.24 6.131 6.131 0 01-1.675.813 6.87 6.87 0 01-2.071.293c-.962 0-1.76-.158-2.397-.474-.62-.316-1.1-.744-1.442-1.285-.326-.557-.512-1.203-.558-1.94-.047-.752.023-1.556.21-2.413a8.742 8.742 0 01.906-2.414 8.086 8.086 0 011.513-1.962 6.793 6.793 0 012.024-1.33 6.054 6.054 0 012.443-.497c1.66 0 2.838.557 3.536 1.67.713 1.097.83 2.698.349 4.803h-9.353zM75.431.354h1.814l1.885 3.135h-1.187L75.43.354zm9.823 16.081h-1.396V4.752h1.396v1.76h.046a3.55 3.55 0 011.536-1.534 4.522 4.522 0 012.187-.542c.558 0 1.031.06 1.419.18.388.12.714.286.977.497.28.195.504.428.675.699.186.27.341.564.465.88.403-.767.939-1.331 1.606-1.692.682-.376 1.457-.564 2.326-.564.822 0 1.474.136 1.954.406a2.78 2.78 0 011.14 1.038c.264.42.435.91.512 1.466.093.556.14 1.127.14 1.714v7.375h-1.396V8.361c0-.842-.186-1.504-.559-1.985-.356-.481-1.031-.722-2.024-.722a3.48 3.48 0 00-1.489.338 3.325 3.325 0 00-1.233.993 2.783 2.783 0 00-.395.699 6.25 6.25 0 00-.233.812 8.247 8.247 0 00-.14.857 15.19 15.19 0 00-.023.79v6.292H91.35V8.361c0-.842-.186-1.504-.558-1.985-.357-.481-1.031-.722-2.024-.722-.512 0-1.008.113-1.49.338a3.33 3.33 0 00-1.232.993 2.786 2.786 0 00-.396.699 6.25 6.25 0 00-.232.812 8.194 8.194 0 00-.14.857 15.19 15.19 0 00-.023.79v6.292zm26.699-6.653c0-.572-.086-1.106-.256-1.602a3.4 3.4 0 00-.722-1.308 3.14 3.14 0 00-1.186-.88c-.481-.225-1.032-.338-1.652-.338-.62 0-1.171.113-1.652.338a3.949 3.949 0 00-1.21.903 4.68 4.68 0 00-.791 1.308 5.935 5.935 0 00-.395 1.579h7.864zm-7.864 1.127c0 .632.085 1.233.256 1.805.17.556.418 1.045.744 1.466a3.95 3.95 0 001.28.992c.512.24 1.101.36 1.768.36.915 0 1.698-.232 2.35-.698.651-.466 1.086-1.128 1.303-1.985h1.558a7.404 7.404 0 01-.674 1.556 5.04 5.04 0 01-1.047 1.24 4.684 4.684 0 01-1.489.813c-.574.195-1.241.293-2.001.293-.962 0-1.791-.158-2.489-.474a4.737 4.737 0 01-1.722-1.285 5.53 5.53 0 01-1-1.94 8.628 8.628 0 01-.326-2.413c0-.857.124-1.662.372-2.414a6.241 6.241 0 011.094-1.962 4.985 4.985 0 011.744-1.33c.683-.331 1.458-.497 2.327-.497 1.66 0 2.962.557 3.909 1.67.946 1.097 1.411 2.698 1.395 4.803h-9.352zM1.042 26.584c0-.798.12-1.52.36-2.164a4.63 4.63 0 011.038-1.68 4.407 4.407 0 011.625-1.083 5.69 5.69 0 012.143-.391c.797 0 1.496.123 2.097.368.617.23 1.128.545 1.534.944.421.4.737.875.948 1.428.21.552.315 1.136.315 1.75 0 .721-.12 1.358-.36 1.91a4.95 4.95 0 01-.925 1.474 6.79 6.79 0 01-1.309 1.151c-.48.338-.977.66-1.488.968-.512.291-1.015.575-1.512.851a9.763 9.763 0 00-2.075 1.52c-.24.215-.459.453-.654.714-.196.26-.354.552-.474.875a3.17 3.17 0 00-.203 1.036h8.865v1.243H.568a9.961 9.961 0 01.248-2.118c.15-.63.481-1.243.993-1.842a12.38 12.38 0 011.714-1.658 21.46 21.46 0 011.76-1.22 35.245 35.245 0 011.624-.99 8.679 8.679 0 001.353-.99 4.1 4.1 0 00.925-1.197c.226-.446.338-.99.338-1.635 0-.522-.09-.99-.27-1.405a3.114 3.114 0 00-.745-1.059 2.974 2.974 0 00-1.105-.645 3.989 3.989 0 00-1.376-.23c-.526 0-1.008.115-1.444.346-.42.214-.79.506-1.105.874a4.154 4.154 0 00-.902 2.855H1.042zm21.851 2.925c0-.875-.053-1.727-.158-2.556-.09-.844-.279-1.596-.564-2.256-.286-.66-.692-1.19-1.218-1.59-.512-.398-1.188-.598-2.03-.598-.798 0-1.452.207-1.963.622-.496.399-.887.936-1.173 1.611-.286.676-.489 1.443-.61 2.303-.104.86-.157 1.734-.157 2.625 0 1.044.06 1.995.18 2.855.136.844.354 1.566.655 2.164.3.599.699 1.067 1.195 1.405.511.322 1.15.483 1.918.483.857 0 1.541-.215 2.052-.644.527-.43.925-.983 1.196-1.658.27-.676.451-1.435.541-2.28.09-.844.136-1.673.136-2.486zm-3.925-8.243c.782 0 1.458.123 2.03.368.571.23 1.052.553 1.444.967.405.415.729.898.97 1.45.255.553.45 1.144.586 1.774.135.614.226 1.25.27 1.91.046.66.068 1.306.068 1.935 0 1.074-.075 2.103-.225 3.085-.15.982-.429 1.85-.835 2.602a4.636 4.636 0 01-1.624 1.796c-.692.445-1.587.668-2.684.668-1.098 0-2-.223-2.707-.668a4.811 4.811 0 01-1.647-1.796c-.391-.767-.662-1.65-.812-2.648a21.793 21.793 0 01-.226-3.2c0-1.029.068-2.034.203-3.017.136-.982.391-1.857.767-2.624a4.84 4.84 0 011.647-1.888c.707-.476 1.632-.714 2.775-.714zm9.236 5.318c.166-.798.437-1.52.813-2.164a6.23 6.23 0 011.376-1.68 5.888 5.888 0 011.872-1.083 6.213 6.213 0 012.21-.391c.798 0 1.474.123 2.03.368.572.23 1.016.545 1.332.944.33.4.541.875.631 1.428.105.552.09 1.136-.045 1.75a5.801 5.801 0 01-.744 1.91 7.159 7.159 0 01-1.218 1.474 9.17 9.17 0 01-1.557 1.151c-.556.338-1.12.66-1.692.968-.571.291-1.135.575-1.692.851-.556.277-1.06.568-1.51.875-.302.2-.602.415-.903.645a5.872 5.872 0 00-.79.714c-.24.26-.458.552-.654.875-.18.307-.323.652-.428 1.036H36.1l-.248 1.243h-10.4a10.24 10.24 0 01.677-2.118c.301-.63.767-1.243 1.399-1.842a16.35 16.35 0 012.075-1.658c.692-.46 1.354-.867 1.985-1.22a45.42 45.42 0 011.827-.99 10.18 10.18 0 001.557-.99 5.481 5.481 0 001.173-1.197c.33-.446.564-.99.7-1.635.104-.522.104-.99 0-1.405a2.325 2.325 0 00-.52-1.059 2.267 2.267 0 00-.97-.645 3.62 3.62 0 00-1.33-.23 3.46 3.46 0 00-1.512.346 4.796 4.796 0 00-1.286.874 5.55 5.55 0 00-.97 1.29 5.174 5.174 0 00-.519 1.566h-1.534zm12.699 0c.166-.798.436-1.52.812-2.164.376-.66.835-1.22 1.376-1.68a5.885 5.885 0 011.873-1.083 6.212 6.212 0 012.21-.391c.797 0 1.474.123 2.03.368.572.23 1.015.545 1.331.944.331.4.542.875.632 1.428.105.552.09 1.136-.045 1.75a5.799 5.799 0 01-.745 1.91 7.159 7.159 0 01-1.218 1.474c-.466.43-.985.814-1.556 1.151-.557.338-1.12.66-1.692.968-.572.291-1.136.575-1.692.851a12.81 12.81 0 00-1.511.875c-.301.2-.602.415-.903.645a5.866 5.866 0 00-.79.714 5.46 5.46 0 00-.653.875 4.26 4.26 0 00-.429 1.036h8.865l-.248 1.243H38.151a10.18 10.18 0 01.677-2.118c.3-.63.767-1.243 1.398-1.842a16.351 16.351 0 012.076-1.658c.691-.46 1.353-.867 1.985-1.22a45.489 45.489 0 011.827-.99 10.187 10.187 0 001.556-.99 5.481 5.481 0 001.173-1.197c.331-.446.564-.99.7-1.635.105-.522.105-.99 0-1.405a2.326 2.326 0 00-.52-1.059 2.266 2.266 0 00-.97-.645 3.62 3.62 0 00-1.33-.23 3.46 3.46 0 00-1.511.346 4.796 4.796 0 00-1.286.874c-.376.369-.7.799-.97 1.29a5.176 5.176 0 00-.519 1.566h-1.534z" fill="#000"/></svg>