<svg width="109" height="38" fill="none" xmlns="http://www.w3.org/2000/svg"><path d="M1.584.18v15.707H11.88v-1.276h-8.8V.18H1.584zm11.42 7.831h1.386c.03-.924.323-1.591.88-2.002.558-.425 1.276-.638 2.156-.638.411 0 .792.037 1.144.11.367.059.682.176.946.352.28.176.492.418.638.726.162.294.242.675.242 1.144 0 .308-.044.558-.132.748-.073.19-.183.345-.33.462-.146.103-.33.176-.55.22a8.07 8.07 0 01-.77.11c-.748.088-1.488.184-2.222.286a7.814 7.814 0 00-1.958.484 3.294 3.294 0 00-1.386 1.034c-.352.44-.528 1.056-.528 1.848 0 .572.096 1.07.286 1.496.206.41.477.755.814 1.034.352.264.756.455 1.21.572.47.132.968.198 1.496.198.558 0 1.034-.051 1.43-.154.411-.103.77-.25 1.078-.44.323-.19.61-.425.858-.704.264-.293.521-.623.77-.99h.044c0 .293.015.565.044.814.044.235.125.44.242.616.118.176.28.316.484.418.22.088.506.132.858.132.191 0 .345-.007.462-.022.132-.014.28-.037.44-.066v-1.166a1.071 1.071 0 01-.44.088c-.542 0-.814-.278-.814-.836V7.857c0-.762-.124-1.378-.374-1.848-.249-.484-.572-.858-.968-1.122a3.48 3.48 0 00-1.342-.528 7.4 7.4 0 00-1.496-.154c-.66 0-1.26.074-1.804.22a4.169 4.169 0 00-1.43.682 3.303 3.303 0 00-.946 1.188c-.234.484-.374 1.056-.418 1.716zm7.392 1.672v1.804a3.3 3.3 0 01-.33 1.496 3.23 3.23 0 01-.858 1.122 3.61 3.61 0 01-1.254.704 4.77 4.77 0 01-1.518.242c-.322 0-.638-.051-.946-.154a2.562 2.562 0 01-.814-.44 2.624 2.624 0 01-.572-.704 2.184 2.184 0 01-.198-.946c0-.557.162-.982.484-1.276.338-.308.763-.543 1.276-.704a9.33 9.33 0 011.694-.352 53.37 53.37 0 001.826-.286c.191-.03.411-.08.66-.154.25-.073.418-.19.506-.352h.044zM32.89 7.065l1.21-5.61h4.84c.396 0 .762.044 1.1.132.352.088.652.235.902.44.264.19.469.448.616.77.146.308.22.682.22 1.122 0 .543-.11 1.012-.33 1.408-.22.382-.514.697-.88.946-.367.25-.785.44-1.254.572-.47.132-.961.206-1.474.22h-4.95zM32.868.18l-3.41 15.708h6.776c.821 0 1.613-.08 2.376-.242.762-.176 1.43-.454 2.002-.836a4.246 4.246 0 001.408-1.518c.352-.63.528-1.408.528-2.332 0-.836-.242-1.554-.726-2.156-.47-.616-1.122-.975-1.958-1.078v-.044c1.026-.176 1.848-.608 2.464-1.298.63-.704.946-1.576.946-2.618 0-.66-.118-1.217-.352-1.672a2.82 2.82 0 00-.924-1.1 3.614 3.614 0 00-1.386-.616 6.607 6.607 0 00-1.65-.198h-6.094zM31.24 14.611l1.364-6.27h4.73c.484 0 .946.037 1.386.11.454.074.85.22 1.188.44.352.206.63.492.836.858.205.352.308.814.308 1.386 0 .616-.132 1.144-.396 1.584a3.3 3.3 0 01-1.034 1.078c-.426.279-.91.484-1.452.616a6.597 6.597 0 01-1.606.198H31.24zm18.898-9.24c.66 0 1.239.14 1.738.418.498.279.909.646 1.232 1.1.337.455.586.976.748 1.562.175.572.264 1.159.264 1.76a6.17 6.17 0 01-.264 1.782 4.703 4.703 0 01-.748 1.54 3.706 3.706 0 01-1.232 1.1c-.5.279-1.078.418-1.738.418-.66 0-1.24-.14-1.738-.418a3.93 3.93 0 01-1.255-1.1 5.366 5.366 0 01-.748-1.54 6.689 6.689 0 01-.241-1.782c0-.601.08-1.188.242-1.76a5.313 5.313 0 01.747-1.562 3.93 3.93 0 011.255-1.1c.498-.278 1.078-.418 1.738-.418zm0-1.166c-.866 0-1.636.162-2.31.484a5.038 5.038 0 00-1.672 1.298 5.6 5.6 0 00-1.035 1.914 7.397 7.397 0 00-.352 2.31c0 .822.118 1.599.352 2.332.235.719.58 1.35 1.035 1.892a5.038 5.038 0 001.672 1.298c.674.308 1.444.462 2.31.462.865 0 1.628-.154 2.288-.462a4.98 4.98 0 001.694-1.298 5.653 5.653 0 001.034-1.892c.234-.733.351-1.51.351-2.332a7.4 7.4 0 00-.352-2.31 5.603 5.603 0 00-1.033-1.914 4.98 4.98 0 00-1.694-1.298c-.66-.322-1.423-.484-2.288-.484zM57.544.18v15.707h1.386V9.265c.015-.557.103-1.07.264-1.54.176-.484.41-.894.704-1.232a3.167 3.167 0 011.1-.814c.44-.205.939-.308 1.496-.308s1.02.088 1.386.264c.381.176.682.418.902.726.22.308.374.675.462 1.1.088.41.132.858.132 1.342v7.084h1.386V8.583a7.74 7.74 0 00-.198-1.826c-.132-.542-.36-.997-.682-1.364-.323-.381-.755-.674-1.298-.88-.528-.205-1.188-.308-1.98-.308-.807 0-1.547.213-2.222.638-.675.41-1.144.96-1.408 1.65h-.044V.18h-1.386zm19.868 9.24H70c.117-.529.3-1.035.55-1.519.249-.484.557-.91.923-1.276a4.493 4.493 0 011.277-.902 3.582 3.582 0 011.584-.352c.968 0 1.723.286 2.266.858.557.572.835 1.342.835 2.31 0 .147-.007.294-.022.44v.44zm-7.59 1.165h8.888c.044-.337.074-.667.089-.99.014-.322.021-.645.021-.968 0-.66-.095-1.261-.285-1.804a3.631 3.631 0 00-.858-1.386 3.557 3.557 0 00-1.343-.902c-.528-.22-1.136-.33-1.826-.33-.968 0-1.833.206-2.596.616a6.106 6.106 0 00-1.936 1.628 7.385 7.385 0 00-1.21 2.31 8.856 8.856 0 00-.395 2.64c0 1.496.388 2.67 1.166 3.52.791.85 1.943 1.276 3.453 1.276 1.365 0 2.472-.337 3.323-1.012.85-.675 1.466-1.657 1.847-2.948h-1.385c-.265.836-.72 1.518-1.365 2.046-.645.513-1.43.77-2.353.77-.558 0-1.05-.088-1.475-.264a3.18 3.18 0 01-1.033-.748 3.265 3.265 0 01-.595-1.144 4.956 4.956 0 01-.197-1.43c0-.322.021-.616.066-.88zm10.968-6.05v11.352h1.387V9.551c0-.601.066-1.151.198-1.65.132-.513.33-.953.594-1.32.278-.381.63-.674 1.056-.88.44-.22.953-.33 1.54-.33.44 0 .814.074 1.122.22.308.147.55.352.726.616.19.25.322.55.396.902.088.338.132.697.132 1.078v7.7h1.386V9.463c0-.528.044-1.034.132-1.518.102-.498.271-.938.506-1.32a2.54 2.54 0 01.946-.902c.396-.234.894-.352 1.496-.352.997 0 1.694.25 2.09.748.396.484.594 1.196.594 2.134v7.634h1.386v-7.7c0-2.654-1.254-3.982-3.762-3.982-.748 0-1.452.184-2.112.55-.66.367-1.159.924-1.496 1.672-.206-.748-.616-1.305-1.232-1.672a3.81 3.81 0 00-2.024-.55c-.924 0-1.687.198-2.288.594-.587.396-1.064.946-1.43 1.65h-.066V4.535H80.79zm26.489 4.885h-7.348a6.53 6.53 0 01.352-1.497 4.5 4.5 0 01.748-1.298 3.353 3.353 0 011.122-.902c.44-.234.946-.352 1.518-.352a3.13 3.13 0 011.496.352c.44.22.814.52 1.122.902.308.367.543.792.704 1.276.176.484.271.99.286 1.518zm-7.348 1.165h8.734a8.88 8.88 0 00-.22-2.332c-.176-.777-.469-1.46-.88-2.046a4.504 4.504 0 00-1.562-1.452c-.645-.366-1.423-.55-2.332-.55-.895 0-1.672.176-2.332.528a4.47 4.47 0 00-1.584 1.364 5.948 5.948 0 00-.924 1.914 8.542 8.542 0 00-.286 2.2c0 .807.095 1.577.286 2.31.205.719.513 1.357.924 1.914.411.543.939.976 1.584 1.298.66.308 1.437.462 2.332.462 1.437 0 2.545-.352 3.322-1.056.792-.704 1.335-1.701 1.628-2.992h-1.386c-.22.88-.616 1.584-1.188 2.112s-1.364.792-2.376.792c-.66 0-1.225-.14-1.694-.418a3.846 3.846 0 01-1.166-1.056 4.45 4.45 0 01-.682-1.43 6.602 6.602 0 01-.198-1.562zM10.934 36.887v-1.276H2.376c.088-.513.308-.982.66-1.408.352-.44.755-.843 1.21-1.21.47-.367.953-.697 1.452-.99.499-.308.931-.587 1.298-.836.513-.323.997-.667 1.452-1.034a8.15 8.15 0 001.232-1.232 5.18 5.18 0 00.858-1.452c.22-.528.33-1.115.33-1.76 0-.718-.125-1.35-.374-1.892a3.43 3.43 0 00-1.012-1.342 4.092 4.092 0 00-1.518-.814 5.88 5.88 0 00-1.87-.286c-.836 0-1.57.14-2.2.418a4.106 4.106 0 00-1.54 1.122 4.816 4.816 0 00-.924 1.738 7.334 7.334 0 00-.264 2.178h1.386a6.532 6.532 0 01.154-1.628c.132-.513.337-.968.616-1.364a3.054 3.054 0 011.078-.946c.455-.235.997-.352 1.628-.352.47 0 .91.073 1.32.22.425.132.792.337 1.1.616.323.264.572.594.748.99.19.381.286.822.286 1.32 0 .616-.11 1.151-.33 1.606-.205.44-.52.873-.946 1.298-.425.425-.91.829-1.452 1.21-.528.367-1.063.734-1.606 1.1-.543.352-1.07.726-1.584 1.122a8.836 8.836 0 00-1.386 1.276c-.41.47-.74.997-.99 1.584-.25.587-.381 1.261-.396 2.024h10.142zm7.406-15.532c-1.114 0-2.023.25-2.727.748a5.07 5.07 0 00-1.65 1.87 8.661 8.661 0 00-.792 2.552 19.89 19.89 0 00-.198 2.772c0 .895.066 1.811.198 2.75.146.939.41 1.79.792 2.552a5.07 5.07 0 001.65 1.87c.704.484 1.613.726 2.728.726 1.129 0 2.038-.242 2.728-.726a4.886 4.886 0 001.628-1.87c.396-.762.66-1.613.792-2.552.146-.938.22-1.862.22-2.772 0-.894-.074-1.811-.22-2.75a7.873 7.873 0 00-.792-2.552 4.886 4.886 0 00-1.628-1.87c-.69-.498-1.6-.748-2.728-.748zm0 1.166c.88 0 1.585.227 2.113.682a4.23 4.23 0 011.188 1.694c.278.675.462 1.408.55 2.2.088.792.132 1.518.132 2.178 0 .675-.044 1.408-.132 2.2a8.344 8.344 0 01-.55 2.2 4.23 4.23 0 01-1.188 1.694c-.528.455-1.232.682-2.112.682-.88 0-1.584-.227-2.112-.682a4.43 4.43 0 01-1.21-1.694 8.936 8.936 0 01-.528-2.2 20.015 20.015 0 01-.132-2.2c0-.66.044-1.386.132-2.178a8.627 8.627 0 01.528-2.2 4.43 4.43 0 011.21-1.694c.528-.454 1.232-.682 2.112-.682zm7.87 4.114h1.385a5.65 5.65 0 01.308-1.584 3.91 3.91 0 01.748-1.298 3.516 3.516 0 011.166-.902c.47-.22.997-.33 1.584-.33.425 0 .829.059 1.21.176.382.103.712.271.99.506.294.22.528.506.704.858.176.337.264.74.264 1.21 0 .675-.147 1.269-.44 1.782a5.155 5.155 0 01-1.122 1.364c-.47.41-1.012.792-1.628 1.144-.601.352-1.217.704-1.848 1.056-.63.352-1.254.726-1.87 1.122a9.208 9.208 0 00-1.672 1.32 6.593 6.593 0 00-1.21 1.672c-.323.616-.506 1.335-.55 2.156h9.944l.242-1.276h-8.602a4.535 4.535 0 01.902-1.518c.41-.44.873-.843 1.386-1.21a16.13 16.13 0 011.672-1.056 66.81 66.81 0 001.738-.99c.587-.322 1.144-.66 1.672-1.012a8.305 8.305 0 001.43-1.21c.41-.44.733-.924.968-1.452.25-.543.374-1.159.374-1.848 0-.645-.117-1.21-.352-1.694a3.56 3.56 0 00-.968-1.254 3.819 3.819 0 00-1.408-.748 5.323 5.323 0 00-1.694-.264c-.763 0-1.466.132-2.112.396-.63.264-1.18.63-1.65 1.1a5.32 5.32 0 00-1.122 1.672 6.16 6.16 0 00-.44 2.112zm12.224 0h1.386a5.65 5.65 0 01.308-1.584c.176-.498.425-.931.748-1.298a3.517 3.517 0 011.166-.902c.47-.22.997-.33 1.584-.33.425 0 .829.059 1.21.176.381.103.711.271.99.506.293.22.528.506.704.858.176.337.264.74.264 1.21 0 .675-.147 1.269-.44 1.782a5.151 5.151 0 01-1.122 1.364c-.47.41-1.012.792-1.628 1.144-.602.352-1.218.704-1.848 1.056-.63.352-1.254.726-1.87 1.122a9.208 9.208 0 00-1.672 1.32 6.593 6.593 0 00-1.21 1.672c-.323.616-.506 1.335-.55 2.156h9.944l.242-1.276h-8.602a4.537 4.537 0 01.902-1.518c.41-.44.873-.843 1.386-1.21a16.14 16.14 0 011.672-1.056 66.81 66.81 0 001.738-.99c.587-.322 1.144-.66 1.672-1.012a8.301 8.301 0 001.43-1.21c.41-.44.733-.924.968-1.452.25-.543.374-1.159.374-1.848 0-.645-.117-1.21-.352-1.694a3.559 3.559 0 00-.968-1.254 3.819 3.819 0 00-1.408-.748 5.323 5.323 0 00-1.694-.264c-.763 0-1.467.132-2.112.396-.63.264-1.18.63-1.65 1.1a5.32 5.32 0 00-1.122 1.672 6.161 6.161 0 00-.44 2.112z" fill="#000"/></svg>