<svg width="529" height="37" fill="none" xmlns="http://www.w3.org/2000/svg"><path d="M.802 28.871V1.243h17.274V4.51h-13.6v7.57h12.672v3.266H4.476v10.26h13.6v3.266H.802zm37.35 0h-3.488v-11.8c0-.953-.05-1.838-.148-2.654-.087-.829-.26-1.49-.52-1.985a2.665 2.665 0 00-1.187-1.15c-.508-.26-1.2-.39-2.078-.39-.866 0-1.763.235-2.691.705a13.624 13.624 0 00-2.69 1.8V28.87h-3.49V8.146h3.489v2.3c1.039-.927 2.065-1.639 3.08-2.133a7.23 7.23 0 013.21-.743c2.04 0 3.636.674 4.787 2.023 1.15 1.336 1.725 3.278 1.725 5.826V28.87zm10.502.501c-1.385 0-2.684-.186-3.896-.557-1.2-.37-2.196-.767-2.988-1.187v-3.915h.186c.297.235.643.495 1.04.78.407.284.945.58 1.613.89.594.272 1.243.513 1.949.724.717.21 1.46.315 2.226.315.557 0 1.15-.062 1.781-.186.631-.136 1.101-.303 1.41-.5.433-.285.743-.588.928-.91.198-.321.297-.804.297-1.447 0-.829-.229-1.454-.686-1.874-.446-.42-1.244-.773-2.394-1.058a45.429 45.429 0 00-1.744-.39 27.58 27.58 0 01-1.985-.482c-1.584-.457-2.734-1.163-3.451-2.115-.718-.965-1.077-2.128-1.077-3.488 0-1.868.705-3.39 2.115-4.565 1.41-1.175 3.285-1.762 5.623-1.762 1.15 0 2.307.142 3.47.426 1.162.285 2.14.644 2.931 1.076v3.73h-.186a10.86 10.86 0 00-2.987-1.67 9.341 9.341 0 00-3.303-.612c-1.15 0-2.121.24-2.913.723-.791.483-1.187 1.213-1.187 2.19 0 .866.235 1.515.705 1.948.47.42 1.224.767 2.264 1.04.52.135 1.094.271 1.725.407a41.44 41.44 0 012.023.446c1.533.383 2.684 1.02 3.45 1.91.78.891 1.17 2.104 1.17 3.637 0 .891-.18 1.738-.538 2.543a5.512 5.512 0 01-1.54 2.04 7.9 7.9 0 01-2.524 1.41c-.928.322-2.096.483-3.507.483zm20.355-.018c-3.303 0-5.87-.928-7.7-2.784-1.819-1.867-2.728-4.515-2.728-7.941 0-3.377.884-6.061 2.653-8.053 1.77-2.004 4.082-3.006 6.94-3.006 1.286 0 2.424.186 3.414.557a6.79 6.79 0 012.598 1.744c.742.792 1.31 1.763 1.707 2.913.395 1.138.593 2.536.593 4.193v1.893H62.125c0 2.412.606 4.255 1.818 5.53 1.213 1.274 2.889 1.91 5.029 1.91a9.69 9.69 0 002.245-.26 10.51 10.51 0 002.004-.667 15.62 15.62 0 001.595-.817c.433-.272.792-.525 1.077-.76h.204v3.803c-.408.161-.916.365-1.522.613-.606.235-1.15.42-1.633.556a21.27 21.27 0 01-1.855.427c-.544.099-1.237.149-2.078.149zm4.082-13.156c-.025-.94-.136-1.75-.334-2.43-.198-.68-.483-1.256-.854-1.726a3.895 3.895 0 00-1.577-1.188c-.63-.272-1.416-.408-2.356-.408-.928 0-1.72.143-2.375.427a5.536 5.536 0 00-1.763 1.206 5.774 5.774 0 00-1.188 1.819c-.272.655-.445 1.422-.519 2.3h10.966zm30.448 12.673V16.885c0-.953-.037-1.831-.111-2.635-.074-.816-.229-1.453-.464-1.911-.248-.495-.6-.86-1.058-1.095-.457-.235-1.076-.352-1.855-.352-.718 0-1.49.222-2.32.668-.816.432-1.663 1.063-2.541 1.892.012.21.024.464.037.76.024.285.037.626.037 1.021v13.638h-3.489V16.885c0-.953-.037-1.831-.11-2.635-.075-.816-.23-1.453-.465-1.911a2.39 2.39 0 00-1.057-1.095c-.458-.235-1.077-.352-1.856-.352-.754 0-1.546.235-2.375.705s-1.633 1.07-2.412 1.8V28.87h-3.488V8.146H83.5v2.3c.915-.915 1.818-1.62 2.709-2.115a5.96 5.96 0 012.969-.76c1.224 0 2.307.278 3.247.834.952.557 1.676 1.472 2.17 2.746 1.052-1.175 2.079-2.065 3.08-2.672a6.194 6.194 0 013.266-.909c.891 0 1.701.143 2.431.427.73.272 1.367.718 1.911 1.336.557.63.984 1.416 1.28 2.357.31.94.464 2.12.464 3.543v13.638h-3.488zm22.173-10.428c0-2.474-.377-4.348-1.132-5.622-.754-1.286-1.967-1.93-3.637-1.93-.952 0-1.917.223-2.894.669a11.265 11.265 0 00-2.635 1.688v11.875c.878.433 1.658.742 2.338.928.68.173 1.429.26 2.245.26 1.781 0 3.179-.631 4.193-1.893 1.015-1.262 1.522-3.253 1.522-5.975zm3.6-.278c0 3.39-.823 6.117-2.468 8.183-1.645 2.065-3.705 3.098-6.179 3.098-1.126 0-2.09-.142-2.894-.427a12.305 12.305 0 01-2.357-1.113l-.223.965h-3.265V0h3.488v10.316a13.074 13.074 0 012.857-1.966c1.027-.52 2.19-.78 3.489-.78 2.338 0 4.181.94 5.529 2.82 1.348 1.868 2.023 4.46 2.023 7.775zm7.18 10.706h-3.488V0h3.488v28.871zm14.12.483c-3.302 0-5.869-.928-7.7-2.784-1.818-1.867-2.727-4.515-2.727-7.941 0-3.377.884-6.061 2.653-8.053 1.769-2.004 4.082-3.006 6.939-3.006 1.287 0 2.425.186 3.414.557.99.371 1.856.952 2.598 1.744.742.792 1.311 1.763 1.707 2.913.396 1.138.594 2.536.594 4.193v1.893h-14.361c0 2.412.606 4.255 1.818 5.53 1.212 1.274 2.888 1.91 5.028 1.91a9.69 9.69 0 002.245-.26 10.58 10.58 0 002.004-.667 15.628 15.628 0 001.596-.817 10.33 10.33 0 001.076-.76h.204v3.803c-.408.161-.915.365-1.521.613-.606.235-1.151.42-1.633.556a21.22 21.22 0 01-1.856.427c-.544.099-1.237.149-2.078.149zm4.082-13.156c-.024-.94-.136-1.75-.334-2.43-.198-.68-.482-1.256-.853-1.726a3.895 3.895 0 00-1.577-1.188c-.631-.272-1.417-.408-2.357-.408-.927 0-1.719.143-2.375.427a5.525 5.525 0 00-1.762 1.206 5.764 5.764 0 00-1.188 1.819c-.272.655-.445 1.422-.519 2.3h10.965zm15.553-.742l2.709-5.845c.359-.767.668-1.274.928-1.521.259-.248.6-.371 1.02-.371.408 0 .742.123 1.002.37.272.248.408.57.408.966 0 .297-.167.798-.501 1.503l-2.282 4.898h3.303c.804 0 1.367.099 1.688.297.322.185.483.507.483.965 0 .618-.272 1.057-.817 1.317-.284.136-.841.204-1.67.204h-3.08c.99 1.868 1.485 3.76 1.485 5.678 0 1.521-.279 3.05-.835 4.583-.557 1.534-1.287 2.9-2.19 4.1-.903 1.213-1.929 2.19-3.08 2.932-1.138.742-2.264 1.114-3.377 1.114-.928 0-1.688-.285-2.282-.854-.606-.557-.909-1.268-.909-2.134 0-.433.068-.866.204-1.299.136-.42.427-1.12.872-2.096l5.622-12.024h-1.058c-.791 0-1.323-.08-1.595-.24-.396-.236-.594-.588-.594-1.059 0-.26.074-.507.223-.742.148-.247.352-.433.612-.556.297-.124.853-.186 1.67-.186h2.041zm.89 5.14l-4.787 10.279a39.714 39.714 0 00-.723 1.596c-.087.26-.13.47-.13.63 0 .372.179.557.538.557.594 0 1.398-.556 2.412-1.67 1.002-1.125 1.806-2.437 2.412-3.933.619-1.51.928-2.926.928-4.25a7.93 7.93 0 00-.149-1.558 9.279 9.279 0 00-.501-1.651zm13.007 6.864l-.259.15c-.965.568-1.763.964-2.394 1.187a5.658 5.658 0 01-1.893.334c-.865 0-1.564-.254-2.096-.76-.532-.508-.798-1.17-.798-1.986 0-.718.352-1.831 1.058-3.34l2.764-5.956c.347-.742.65-1.243.909-1.503.272-.26.619-.39 1.039-.39.421 0 .761.124 1.021.371.26.248.39.563.39.947 0 .284-.167.791-.501 1.521l-2.468 5.307-.167.334c-.421.878-.631 1.472-.631 1.781 0 .371.186.557.557.557.383 0 .853-.167 1.41-.501.569-.334 1.299-.872 2.189-1.615l3.173-6.81c.346-.741.649-1.242.909-1.502.272-.26.619-.39 1.039-.39.421 0 .761.124 1.021.371.26.248.389.563.389.947 0 .284-.167.791-.501 1.521l-2.727 5.863-.241.483c-.26.569-.39.94-.39 1.113 0 .149.062.285.186.408a.645.645 0 00.408.167c.618 0 1.806-.742 3.562-2.226.594-.52 1.083-.78 1.466-.78.359 0 .662.118.909.353.248.223.371.501.371.835 0 .594-.612 1.385-1.836 2.375a12.498 12.498 0 01-2.914 1.818c-1.039.458-1.929.687-2.671.687-.557 0-1.021-.13-1.392-.39-.359-.272-.656-.699-.891-1.28zm2.802-17.366c0 .63-.185 1.156-.557 1.577-.358.408-.828.612-1.41.612-.482 0-.872-.148-1.169-.445-.297-.297-.445-.687-.445-1.17 0-.58.192-1.069.575-1.465a1.94 1.94 0 011.447-.612c.471 0 .848.136 1.132.408.285.272.427.637.427 1.095zm6.94 0c0 .63-.186 1.156-.557 1.577-.359.408-.829.612-1.41.612-.483 0-.872-.148-1.169-.445-.297-.297-.446-.687-.446-1.17 0-.58.192-1.069.576-1.465a1.94 1.94 0 011.447-.612c.47 0 .847.136 1.132.408.284.272.427.637.427 1.095z" fill="#000"/><path d="M196.409 15.456c.124-.012.254-.018.39-.018 1.026 0 1.849.26 2.467.779.631.507.947 1.175.947 2.004 0 .668-.211 1.317-.631 1.948-.408.63-1.144 1.441-2.208 2.43l-1.466 1.355c-.767.693-1.15 1.237-1.15 1.633 0 .235.086.42.259.557.174.136.402.204.687.204.581 0 1.416-.23 2.505-.687a22.38 22.38 0 003.228-1.688c.606-.371 1.002-.6 1.188-.687.185-.086.383-.13.594-.13.346 0 .63.124.853.371.235.235.353.532.353.891 0 .396-.174.78-.52 1.15-.346.371-.94.81-1.781 1.318-1.336.791-2.573 1.367-3.711 1.725-1.126.347-2.239.52-3.34.52-1.237 0-2.214-.279-2.932-.835-.705-.557-1.057-1.311-1.057-2.264 0-.866.377-1.732 1.132-2.597.593-.644 1.49-1.503 2.69-2.58.854-.754 1.361-1.23 1.522-1.428a.966.966 0 00.259-.65c0-.284-.111-.482-.334-.593-.222-.112-.6-.174-1.132-.186-.259.594-.525 1.014-.797 1.262a1.436 1.436 0 01-1.002.37c-.409 0-.749-.123-1.021-.37-.26-.26-.389-.588-.389-.984 0-.284.16-.779.482-1.484l1.076-2.282c.371-.78.68-1.287.928-1.522.247-.247.581-.37 1.002-.37.396 0 .73.123 1.002.37.272.248.408.57.408.965 0 .285-.148.742-.445 1.373l-.056.13zm17.013 9.464l.494.911c.177.152.443.317.798.494.354.152.747.304 1.178.456.456.127.924.228 1.406.304.506.076 1 .114 1.482.114 2.204 0 3.901-.43 5.092-1.292 1.216-.861 1.824-2.115 1.824-3.762 0-.988-.279-1.837-.836-2.546-.532-.71-1.204-1.355-2.014-1.938a26.698 26.698 0 00-2.66-1.672 20.046 20.046 0 01-2.66-1.748A10.084 10.084 0 01215.474 12c-.532-.836-.798-1.837-.798-3.002 0-2.305.874-4.079 2.622-5.32 1.748-1.241 4.306-1.862 7.676-1.862 1.748 0 3.192.127 4.332.38 1.14.228 2.115.532 2.926.912l-.076.304a6.602 6.602 0 00-.152.722 14.16 14.16 0 01-.228 1.064c-.076.38-.152.773-.228 1.178l-.684 3.23h-2.432l.836-4.066-.418-.95c-.431-.203-1.052-.355-1.862-.456a16.45 16.45 0 00-2.546-.19c-1.9 0-3.294.38-4.18 1.14-.887.76-1.33 1.672-1.33 2.736 0 .887.266 1.66.798 2.318.557.633 1.241 1.241 2.052 1.824.81.557 1.697 1.115 2.66 1.672.962.532 1.849 1.14 2.66 1.824a8.813 8.813 0 012.014 2.318c.557.887.836 1.938.836 3.154 0 1.267-.254 2.42-.76 3.458-.507 1.013-1.254 1.887-2.242 2.622-.963.735-2.166 1.305-3.61 1.71s-3.104.608-4.978.608c-.887 0-1.748-.063-2.584-.19a17.299 17.299 0 01-4.066-1.14c-.507-.228-.912-.456-1.216-.684l1.444-6.916h2.432l-.95 4.522zm21.277-13.947h-2.318V8.921h5.662l2.964 15.808v2.09h.304l1.026-1.976c.431-.937.874-1.938 1.33-3.002.456-1.064.9-2.128 1.33-3.192a72.903 72.903 0 001.254-3.116c.38-1.039.697-2.014.95-2.926l-1.064-3.686h4.674v2.052a112.3 112.3 0 01-1.52 3.914 141.412 141.412 0 01-1.938 4.636 161.184 161.184 0 01-2.28 4.902 91.094 91.094 0 01-2.47 4.75 51.93 51.93 0 01-2.47 4.18c-.81 1.267-1.583 2.305-2.318 3.116h-4.37v-3.648h4.218c.355-.43.71-.925 1.064-1.482.38-.557.748-1.38 1.102-2.47h-1.862l-3.268-17.898zm31.039 6.537c.203-.812.38-1.572.532-2.28.152-.736.228-1.445.228-2.129 0-.583-.152-1.077-.456-1.482-.304-.43-.76-.646-1.368-.646-.76 0-1.494.152-2.204.456a9.011 9.011 0 00-1.9 1.14c-.582.43-1.102.887-1.558 1.368-.43.481-.772.9-1.026 1.254l-2.964 13.68h-3.686l3.762-17.898h-2.622V8.921h6.764l-.874 3.952h.19c1.064-1.292 2.255-2.33 3.572-3.116a7.978 7.978 0 014.256-1.216c1.368 0 2.344.342 2.926 1.026.608.659.912 1.52.912 2.584 0 .583-.076 1.317-.228 2.204a21.06 21.06 0 01-.494 2.47l-2.394 9.994h3.116v2.052h-7.03l2.546-11.362zm14.834 1.9h-1.482l-1.938 9.461h-3.724l5.548-26.448h-2.774V.371h6.84l-3.61 17.518h1.216l6.042-6.042V8.921h5.054v1.596l-8.018 6.992 5.168 9.31h2.204v2.052h-5.51l-5.016-9.462zm23.909-6.84c-.253.05-.557.126-.912.227a7.33 7.33 0 00-2.242.95 6.68 6.68 0 00-1.178.95l-3.116 14.174h-3.724l3.914-17.898h-2.622V8.921h6.726l-.912 3.876h.19a13.928 13.928 0 011.862-2.28c.735-.76 1.432-1.292 2.09-1.596h3.04v3.648h-3.116zm18.695 12.653c-.279.507-.659 1-1.14 1.482a8.168 8.168 0 01-1.71 1.292 9.582 9.582 0 01-4.826 1.254c-2.179 0-3.927-.608-5.244-1.824-1.292-1.241-1.938-2.977-1.938-5.206 0-1.9.279-3.686.836-5.358.557-1.672 1.343-3.116 2.356-4.332a11.236 11.236 0 013.648-2.888c1.444-.735 3.04-1.102 4.788-1.102.684 0 1.33.089 1.938.266a4.6 4.6 0 011.596.722c.456.33.811.735 1.064 1.216s.38 1.039.38 1.672c0 1.824-.963 3.293-2.888 4.408-1.925 1.115-5.079 1.824-9.462 2.128-.101.456-.177.887-.228 1.292a9.73 9.73 0 00-.076 1.216c0 1.596.405 2.875 1.216 3.838.836.937 2.052 1.406 3.648 1.406a4.89 4.89 0 001.482-.228 9 9 0 001.444-.57 7.345 7.345 0 001.216-.836c.38-.304.684-.595.912-.874l.988 1.026zm-4.484-14.896c-1.191 0-2.28.532-3.268 1.596-.988 1.039-1.837 2.787-2.546 5.244 2.685-.076 4.737-.52 6.156-1.33 1.444-.81 2.166-1.9 2.166-3.268a2.76 2.76 0 00-.114-.798 1.595 1.595 0 00-.418-.722c-.177-.228-.431-.405-.76-.532-.304-.127-.709-.19-1.216-.19zm8.435-1.406h4.028l1.102-4.37h3.572l-1.026 4.37h5.13v2.052h-5.548l-2.964 11.476a11.92 11.92 0 00-.266 1.368c-.05.405-.076.823-.076 1.254 0 1.165.659 1.748 1.976 1.748.684 0 1.457-.152 2.318-.456a7.372 7.372 0 002.28-1.368l.798 1.52c-.278.304-.671.62-1.178.95-.481.33-1.038.633-1.672.912a11.91 11.91 0 01-2.09.608c-.76.177-1.545.266-2.356.266-1.241 0-2.204-.304-2.888-.912-.684-.608-1.026-1.38-1.026-2.318 0-.405.013-.823.038-1.254.026-.456.102-.925.228-1.406l3.116-12.388h-3.496V8.921zm14.916 2.052V8.921h6.878l-3.952 17.898h3.116v2.052h-7.334l4.066-17.898h-2.774zm2.546-8.208c0-.735.254-1.317.76-1.748.532-.43 1.204-.646 2.014-.646.862 0 1.533.215 2.014.646.507.43.76 1.013.76 1.748 0 .735-.253 1.317-.76 1.748-.481.43-1.152.646-2.014.646-.81 0-1.482-.215-2.014-.646-.506-.43-.76-1.013-.76-1.748zM357.002 27.2c.456 0 .937-.039 1.444-.115a5.114 5.114 0 001.444-.494c.43-.228.785-.532 1.064-.912.278-.405.418-.912.418-1.52a2.52 2.52 0 00-.608-1.672 7.528 7.528 0 00-1.444-1.368 19.86 19.86 0 00-1.938-1.33 18.61 18.61 0 01-1.9-1.444A8.28 8.28 0 01354 16.56c-.38-.659-.57-1.431-.57-2.318 0-.937.215-1.76.646-2.47a5.119 5.119 0 011.748-1.786c.734-.481 1.608-.836 2.622-1.064 1.013-.253 2.09-.38 3.23-.38.532 0 1.051.038 1.558.114.532.076 1.013.177 1.444.304a5.87 5.87 0 011.178.38c.329.152.57.291.722.418l-1.14 4.446h-2.356l.646-3.116c-.203-.152-.57-.266-1.102-.342a6.903 6.903 0 00-1.33-.152c-.406 0-.849.038-1.33.114-.456.05-.887.177-1.292.38a2.617 2.617 0 00-1.026.798c-.254.33-.38.773-.38 1.33 0 .684.19 1.28.57 1.786.405.507.912.975 1.52 1.406.608.43 1.254.861 1.938 1.292.684.43 1.33.912 1.938 1.444a6.273 6.273 0 011.482 1.786c.405.659.608 1.457.608 2.394 0 .963-.254 1.811-.76 2.546-.507.735-1.178 1.355-2.014 1.862-.836.507-1.812.887-2.926 1.14-1.09.253-2.217.38-3.382.38a10.43 10.43 0 01-1.976-.19 16.64 16.64 0 01-1.786-.456 15.476 15.476 0 01-1.406-.608c-.38-.228-.646-.418-.798-.57l1.444-4.522h2.584l-.988 3.154c.278.279.734.545 1.368.798.633.228 1.406.342 2.318.342zm14.466-24.777V.371h6.878l-2.698 11.742h.228a14.766 14.766 0 013.23-2.508c1.191-.71 2.622-1.064 4.294-1.064 2.584 0 3.876 1.52 3.876 4.56 0 .735-.076 1.52-.228 2.356-.126.81-.291 1.596-.494 2.356l-2.318 9.006h3.23v2.052h-7.106l2.394-10.374c.203-.81.38-1.583.532-2.318a8.882 8.882 0 00.266-2.09c0-.937-.202-1.672-.608-2.204-.38-.532-.975-.798-1.786-.798-.582 0-1.152.089-1.71.266a8.791 8.791 0 00-3.002 1.482c-.43.33-.798.659-1.102.988l-3.116 15.048h-3.648l5.624-26.448h-2.736zm34.299 22.8c-.279.507-.659 1-1.14 1.482a8.22 8.22 0 01-1.71 1.292 9.6 9.6 0 01-4.826 1.254c-2.179 0-3.927-.608-5.244-1.824-1.292-1.241-1.938-2.977-1.938-5.206 0-1.9.278-3.686.836-5.358.557-1.672 1.342-3.116 2.356-4.332a11.236 11.236 0 013.648-2.888c1.444-.735 3.04-1.102 4.788-1.102.684 0 1.33.089 1.938.266a4.6 4.6 0 011.596.722 3.5 3.5 0 011.064 1.216c.253.481.38 1.039.38 1.672 0 1.824-.963 3.293-2.888 4.408-1.926 1.115-5.08 1.824-9.462 2.128-.102.456-.178.887-.228 1.292a9.73 9.73 0 00-.076 1.216c0 1.596.405 2.875 1.216 3.838.836.937 2.052 1.406 3.648 1.406.506 0 1-.076 1.482-.228a9.037 9.037 0 001.444-.57 7.345 7.345 0 001.216-.836c.38-.304.684-.595.912-.874l.988 1.026zm-4.484-14.896c-1.191 0-2.28.532-3.268 1.596-.988 1.039-1.837 2.787-2.546 5.244 2.685-.076 4.737-.52 6.156-1.33 1.444-.81 2.166-1.9 2.166-3.268a2.76 2.76 0 00-.114-.798 1.605 1.605 0 00-.418-.722c-.178-.228-.431-.405-.76-.532-.304-.127-.71-.19-1.216-.19zm41.058 18.544h-3.674V5.065l-7.199 16.199h-2.227l-7.143-16.199v23.806h-3.433V1.243h5.01l6.902 15.382 6.661-15.382h5.103v27.628zm15.252.575c-1.621 0-3.037-.21-4.249-.63-1.212-.433-2.245-1.07-3.099-1.912a8.023 8.023 0 01-2.041-3.45c-.396-1.35-.593-3.007-.593-4.974V1.244h3.673v17.238c0 1.274.081 2.35.242 3.228.16.866.476 1.645.946 2.338a4.696 4.696 0 002.004 1.688c.853.384 1.892.576 3.117.576 1.15 0 2.171-.192 3.061-.576.891-.383 1.584-.946 2.079-1.688a6.435 6.435 0 00.927-2.338c.173-.854.26-1.899.26-3.136V1.243h3.674v17.238c0 1.917-.198 3.562-.594 4.935-.383 1.373-1.064 2.536-2.041 3.488a8.448 8.448 0 01-3.08 1.911c-1.163.421-2.591.631-4.286.631zm22.989-.074c-2.004 0-3.711-.204-5.121-.612a25.954 25.954 0 01-3.952-1.54v-4.602h.26a13.434 13.434 0 004.119 2.654c1.534.618 3.012.927 4.434.927 2.029 0 3.563-.42 4.602-1.262 1.039-.853 1.559-1.973 1.559-3.358 0-1.1-.273-1.998-.817-2.69-.544-.693-1.41-1.206-2.597-1.54a42.2 42.2 0 00-2.338-.613 101.1 101.1 0 01-2.654-.65 12.667 12.667 0 01-2.56-.945 7.206 7.206 0 01-2.004-1.503 6.641 6.641 0 01-1.336-2.134c-.309-.829-.464-1.781-.464-2.858 0-2.238.872-4.112 2.616-5.622 1.744-1.521 3.971-2.282 6.68-2.282 1.546 0 3.006.155 4.379.464 1.385.31 2.666.748 3.841 1.317v4.398h-.279c-.878-.804-2.004-1.503-3.377-2.097a10.59 10.59 0 00-4.323-.909c-1.707 0-3.086.402-4.138 1.206-1.051.792-1.577 1.837-1.577 3.136 0 1.175.31 2.109.928 2.802.619.692 1.515 1.2 2.69 1.521.78.21 1.732.452 2.858.724 1.126.26 2.059.5 2.802.723 1.905.582 3.296 1.46 4.174 2.635.879 1.175 1.318 2.623 1.318 4.342a8.12 8.12 0 01-.668 3.191 7.42 7.42 0 01-1.837 2.672 9.649 9.649 0 01-3.024 1.856c-1.114.433-2.512.65-4.194.65zm23.138-.501h-10.725v-2.82h3.526V4.063h-3.526v-2.82h10.725v2.82h-3.526v21.988h3.526v2.82zm24.659 0h-4.769l-10.075-12.858-1.614 1.818v11.04h-3.674V1.243h3.674v12.71l11.318-12.71h4.472l-11.43 12.339 12.098 15.29z" fill="#000"/></svg>