<svg width="492" height="241" fill="none" xmlns="http://www.w3.org/2000/svg"><path d="M61.165 239.697H52.76V185.79l-16.47 36.681h-5.094L14.853 185.79v53.907H7v-62.563h11.461l15.791 34.832 15.24-34.832h11.673v62.563zM96.058 241c-3.708 0-6.948-.476-9.721-1.429-2.773-.98-5.136-2.423-7.089-4.327-2.207-2.185-3.764-4.79-4.67-7.815-.905-3.054-1.358-6.807-1.358-11.261v-39.034h8.405v39.034c0 2.885.184 5.322.552 7.311.368 1.961 1.09 3.725 2.165 5.294 1.132 1.681 2.66 2.955 4.584 3.824 1.953.868 4.33 1.302 7.132 1.302 2.631 0 4.966-.434 7.004-1.302 2.037-.869 3.622-2.143 4.754-3.824a14.48 14.48 0 002.122-5.294c.397-1.933.595-4.3.595-7.101v-39.244h8.405v39.034c0 4.342-.453 8.067-1.359 11.177-.877 3.109-2.434 5.742-4.669 7.899-2.009 1.932-4.358 3.375-7.047 4.327-2.66.953-5.928 1.429-9.805 1.429zm52.594-.168c-4.585 0-8.49-.462-11.716-1.387a59.69 59.69 0 01-9.042-3.487v-10.42h.595a30.765 30.765 0 009.423 6.008c3.509 1.401 6.891 2.101 10.146 2.101 4.641 0 8.15-.952 10.527-2.857 2.377-1.933 3.566-4.468 3.566-7.605 0-2.493-.623-4.524-1.868-6.093-1.245-1.568-3.226-2.731-5.943-3.487a98.182 98.182 0 00-5.349-1.387 248.926 248.926 0 01-6.07-1.47c-2.179-.56-4.131-1.275-5.858-2.143a16.506 16.506 0 01-4.584-3.403c-1.302-1.373-2.321-2.984-3.057-4.832-.707-1.877-1.061-4.034-1.061-6.471 0-5.07 1.995-9.314 5.986-12.731 3.99-3.445 9.084-5.168 15.281-5.168 3.538 0 6.877.35 10.018 1.05 3.17.701 6.099 1.695 8.787 2.984v9.958h-.637c-2.009-1.821-4.584-3.404-7.725-4.748a24.436 24.436 0 00-9.891-2.059c-3.905 0-7.061.91-9.466 2.731-2.406 1.793-3.608 4.16-3.608 7.101 0 2.661.707 4.776 2.122 6.344 1.415 1.569 3.467 2.717 6.155 3.446 1.783.476 3.962 1.022 6.537 1.638 2.576.589 4.712 1.135 6.41 1.639 4.358 1.317 7.542 3.305 9.551 5.966 2.009 2.661 3.014 5.939 3.014 9.832 0 2.437-.509 4.846-1.528 7.227-.991 2.381-2.391 4.398-4.203 6.051a22.088 22.088 0 01-6.919 4.201c-2.547.981-5.745 1.471-9.593 1.471zm52.933-1.135H177.05v-6.386h8.065v-49.79h-8.065v-6.387h24.535v6.387h-8.065v49.79h8.065v6.386zm56.415 0h-10.909l-23.05-29.117-3.693 4.117v25h-8.405v-62.563h8.405v28.782l25.894-28.782h10.23l-26.149 27.942L258 239.697zM7.307 139.88l1.234 2.299c.442.383 1.107.798 1.992 1.245.886.383 1.867.767 2.942 1.15 1.139.319 2.31.574 3.511.766a24.65 24.65 0 003.701.287c5.504 0 9.742-1.085 12.716-3.256 3.036-2.172 4.555-5.333 4.555-9.484 0-2.49-.696-4.629-2.088-6.418-1.328-1.788-3.005-3.416-5.03-4.885a66.437 66.437 0 00-6.642-4.215 50.115 50.115 0 01-6.643-4.406 25.368 25.368 0 01-5.124-5.651c-1.328-2.108-1.993-4.63-1.993-7.568 0-5.811 2.183-10.281 6.548-13.41 4.365-3.13 10.755-4.694 19.169-4.694 4.365 0 7.97.32 10.818.958 2.846.575 5.282 1.341 7.307 2.299l-.19.766a17.403 17.403 0 00-.38 1.82 35.27 35.27 0 01-.57 2.682c-.189.958-.379 1.948-.569 2.97-.506 2.426-1.075 5.14-1.708 8.142H44.79l2.088-10.25-1.044-2.394c-1.076-.511-2.625-.894-4.65-1.15a40.784 40.784 0 00-6.358-.479c-4.745 0-8.224.958-10.438 2.874-2.214 1.916-3.321 4.215-3.321 6.897 0 2.235.664 4.183 1.992 5.843 1.392 1.596 3.1 3.129 5.125 4.598a101.376 101.376 0 006.642 4.215 41.064 41.064 0 016.643 4.597 22.125 22.125 0 015.03 5.844c1.391 2.235 2.087 4.885 2.087 7.95 0 3.193-.633 6.099-1.898 8.717-1.265 2.554-3.132 4.757-5.599 6.609-2.404 1.852-5.409 3.289-9.015 4.311-3.606 1.022-7.75 1.533-12.43 1.533a42.67 42.67 0 01-6.454-.479c-2.024-.32-3.89-.735-5.598-1.246-1.709-.511-3.227-1.053-4.555-1.628-1.266-.575-2.278-1.15-3.037-1.724l3.606-17.434h6.073L7.307 139.88zm53.135-35.155h-5.789v-5.172h14.14l7.401 39.848v5.268h.76l2.562-4.981a321.94 321.94 0 003.32-7.567 432.344 432.344 0 003.322-8.046 185.015 185.015 0 003.132-7.855 98.254 98.254 0 002.372-7.376l-2.657-9.291h11.672v5.172c-1.012 2.81-2.277 6.099-3.796 9.867a366.757 366.757 0 01-4.84 11.686 412.596 412.596 0 01-5.693 12.357 231.636 231.636 0 01-6.168 11.973c-2.025 3.832-4.08 7.344-6.168 10.537-2.025 3.193-3.954 5.811-5.789 7.855H57.31v-9.196h10.534a37.741 37.741 0 002.657-3.736c.948-1.404 1.866-3.48 2.751-6.226h-4.65l-8.16-45.117zm77.511 16.476c.506-2.043.949-3.959 1.328-5.747.38-1.852.57-3.64.57-5.365 0-1.468-.38-2.714-1.139-3.735-.759-1.086-1.898-1.629-3.416-1.629-1.898 0-3.733.383-5.504 1.15a22.447 22.447 0 00-4.745 2.873 29.624 29.624 0 00-3.891 3.449c-1.075 1.213-1.929 2.267-2.562 3.161l-7.402 34.484h-9.204l9.394-45.117h-6.547v-5.172h16.891l-2.183 9.962h.475c2.657-3.257 5.63-5.875 8.92-7.855 3.289-2.043 6.832-3.065 10.628-3.065 3.416 0 5.852.862 7.307 2.586 1.518 1.66 2.277 3.832 2.277 6.514 0 1.469-.19 3.32-.569 5.556a54.05 54.05 0 01-1.234 6.226l-5.978 25.192h7.781v5.173h-17.555l6.358-28.641zm37.042 4.79h-3.701l-4.84 23.851h-9.299l13.854-66.67h-6.927V78h17.081l-9.015 44.159h3.037l15.088-15.231v-7.375h12.621v4.023l-20.023 17.625 12.906 23.468h5.504v5.173h-13.76l-12.526-23.851zm59.708-17.243c-.633.128-1.392.32-2.278.575-.822.192-1.708.479-2.657.862-.949.383-1.929.894-2.942 1.533-1.012.638-1.992 1.437-2.941 2.395l-7.782 35.729h-9.299l9.774-45.117h-6.548v-5.172h16.796l-2.277 9.77h.475c1.265-1.979 2.815-3.895 4.649-5.747 1.835-1.916 3.575-3.257 5.22-4.023h7.591v9.195h-7.781zm46.685 31.898c-.696 1.278-1.645 2.523-2.847 3.736s-2.626 2.299-4.27 3.257c-1.645.958-3.48 1.724-5.504 2.299-2.025.575-4.207.862-6.548.862-5.44 0-9.806-1.533-13.095-4.598-3.227-3.129-4.84-7.503-4.84-13.123 0-4.79.696-9.292 2.088-13.506 1.392-4.215 3.353-7.855 5.883-10.92a28.113 28.113 0 019.11-7.28c3.606-1.852 7.592-2.778 11.957-2.778 1.708 0 3.321.223 4.839.67 1.519.383 2.847.99 3.986 1.82a8.774 8.774 0 012.657 3.066c.633 1.213.949 2.618.949 4.214 0 4.598-2.404 8.302-7.212 11.112-4.808 2.81-12.684 4.598-23.629 5.364a35.331 35.331 0 00-.569 3.257 24.823 24.823 0 00-.19 3.065c0 4.023 1.012 7.248 3.037 9.675 2.087 2.363 5.124 3.544 9.11 3.544 1.265 0 2.498-.191 3.7-.575a22.379 22.379 0 003.606-1.436 18.359 18.359 0 003.037-2.108c.949-.766 1.708-1.501 2.277-2.203l2.468 2.586zm-11.198-37.549c-2.973 0-5.693 1.341-8.161 4.023-2.467 2.618-4.586 7.025-6.358 13.219 6.706-.192 11.831-1.309 15.373-3.353 3.606-2.043 5.409-4.789 5.409-8.238 0-.702-.095-1.373-.284-2.011a4.04 4.04 0 00-1.044-1.82c-.443-.575-1.076-1.022-1.898-1.341-.759-.32-1.771-.479-3.037-.479zm21.065-3.544h10.058l2.752-11.016h8.92l-2.562 11.016h12.811v5.172h-13.855l-7.401 28.929a29.641 29.641 0 00-.665 3.448 25.824 25.824 0 00-.189 3.161c0 2.938 1.644 4.406 4.934 4.406 1.708 0 3.638-.383 5.789-1.149 2.151-.83 4.049-1.98 5.693-3.448l1.993 3.831c-.696.766-1.676 1.565-2.942 2.395-1.202.83-2.593 1.596-4.175 2.299-1.581.638-3.321 1.149-5.219 1.532a25.58 25.58 0 01-5.884.671c-3.099 0-5.503-.766-7.212-2.299-1.708-1.533-2.562-3.48-2.562-5.843 0-1.022.032-2.076.095-3.161.063-1.15.253-2.331.57-3.544l7.781-31.228h-8.73v-5.172zm37.249 5.172v-5.172h17.175l-9.869 45.116h7.782v5.173h-18.315l10.154-45.117h-6.927zm6.357-20.69c0-1.852.633-3.321 1.898-4.407 1.329-1.085 3.005-1.628 5.03-1.628 2.151 0 3.827.543 5.029 1.628 1.265 1.086 1.898 2.555 1.898 4.407 0 1.852-.633 3.32-1.898 4.406-1.202 1.086-2.878 1.629-5.029 1.629-2.025 0-3.701-.543-5.03-1.629-1.265-1.086-1.898-2.554-1.898-4.406zm30.997 61.592a24.06 24.06 0 003.606-.287c1.328-.255 2.53-.671 3.606-1.245a7.755 7.755 0 002.657-2.299c.696-1.022 1.044-2.299 1.044-3.832 0-1.596-.506-3.001-1.519-4.215-.949-1.213-2.151-2.362-3.606-3.448a49.851 49.851 0 00-4.839-3.353 46.543 46.543 0 01-4.745-3.64 20.86 20.86 0 01-3.701-4.502c-.949-1.66-1.423-3.608-1.423-5.843 0-2.363.538-4.438 1.613-6.226a12.867 12.867 0 014.365-4.502c1.835-1.214 4.017-2.108 6.548-2.682 2.53-.639 5.219-.958 8.066-.958 1.328 0 2.625.096 3.891.287 1.328.192 2.53.447 3.606.766 1.138.256 2.119.575 2.941.958.823.383 1.424.735 1.803 1.054l-2.847 11.207h-5.883l1.613-7.854c-.506-.384-1.423-.671-2.752-.862-1.265-.256-2.372-.384-3.321-.384a21.17 21.17 0 00-3.321.288 9.419 9.419 0 00-3.227.958 6.57 6.57 0 00-2.562 2.011c-.633.83-.949 1.948-.949 3.353 0 1.724.475 3.225 1.424 4.502 1.012 1.277 2.277 2.459 3.795 3.544a107.49 107.49 0 004.84 3.257 38.576 38.576 0 014.84 3.64 15.783 15.783 0 013.7 4.502c1.013 1.66 1.519 3.672 1.519 6.035 0 2.427-.633 4.566-1.898 6.418-1.265 1.852-2.942 3.416-5.03 4.693-2.087 1.278-4.523 2.236-7.307 2.874-2.72.639-5.535.958-8.445.958-1.645 0-3.29-.16-4.935-.479a41.33 41.33 0 01-4.46-1.149 38.714 38.714 0 01-3.511-1.533c-.949-.575-1.613-1.054-1.992-1.437l3.606-11.399h6.452l-2.467 7.951c.696.702 1.835 1.373 3.416 2.011 1.582.575 3.511.862 5.789.862zm36.126-62.454V78h17.176l-6.737 29.599h.569a36.85 36.85 0 018.066-6.322c2.974-1.788 6.548-2.682 10.723-2.682 6.453 0 9.679 3.831 9.679 11.494 0 1.852-.189 3.832-.569 5.939a57.812 57.812 0 01-1.233 5.939l-5.789 22.702h8.066v5.173H424.19l5.978-26.15c.506-2.044.949-3.992 1.329-5.844.442-1.852.664-3.608.664-5.268 0-2.363-.506-4.215-1.519-5.556-.948-1.341-2.435-2.011-4.46-2.011-1.455 0-2.878.223-4.27.67a21.41 21.41 0 00-3.985 1.533 21.727 21.727 0 00-3.511 2.203c-1.076.83-1.993 1.66-2.752 2.49l-7.782 37.933h-9.11l14.045-66.67h-6.833zm85.651 57.473c-.696 1.278-1.645 2.523-2.847 3.736s-2.625 2.299-4.27 3.257c-1.645.958-3.48 1.724-5.504 2.299-2.025.575-4.207.862-6.548.862-5.44 0-9.806-1.533-13.095-4.598-3.227-3.129-4.84-7.503-4.84-13.123 0-4.79.696-9.292 2.088-13.506 1.391-4.215 3.353-7.855 5.883-10.92a28.113 28.113 0 019.11-7.28c3.606-1.852 7.592-2.778 11.957-2.778 1.708 0 3.321.223 4.839.67 1.519.383 2.847.99 3.986 1.82a8.774 8.774 0 012.657 3.066c.633 1.213.949 2.618.949 4.214 0 4.598-2.404 8.302-7.212 11.112-4.808 2.81-12.684 4.598-23.629 5.364a35.331 35.331 0 00-.569 3.257 24.823 24.823 0 00-.19 3.065c0 4.023 1.012 7.248 3.037 9.675 2.087 2.363 5.124 3.544 9.11 3.544 1.265 0 2.498-.191 3.7-.575a22.379 22.379 0 003.606-1.436 18.359 18.359 0 003.037-2.108c.949-.766 1.708-1.501 2.278-2.203l2.467 2.586zm-11.198-37.549c-2.973 0-5.693 1.341-8.161 4.023-2.467 2.618-4.586 7.025-6.358 13.219 6.706-.192 11.831-1.309 15.373-3.353 3.606-2.043 5.409-4.789 5.409-8.238 0-.702-.095-1.373-.284-2.011a4.04 4.04 0 00-1.044-1.82c-.443-.575-1.076-1.022-1.898-1.341-.759-.32-1.772-.479-3.037-.479zM7 64.603V2.782h38.94v7.307H15.28v16.94h28.567v7.307H15.281v22.96H45.94v7.307H7zm84.195 0H83.33V38.198c0-2.132-.111-4.11-.334-5.938-.195-1.854-.586-3.335-1.171-4.442-.642-1.163-1.534-2.02-2.677-2.575-1.144-.58-2.705-.871-4.685-.871-1.951 0-3.973.526-6.064 1.577-2.064 1.024-4.085 2.367-6.065 4.028v34.626h-7.863V18.227h7.863v5.148c2.342-2.076 4.657-3.667 6.943-4.774a16.395 16.395 0 017.236-1.661c4.6 0 8.198 1.508 10.79 4.525 2.594 2.99 3.89 7.335 3.89 13.037v30.101zm23.673 1.122c-3.123 0-6.051-.416-8.784-1.246-2.704-.83-4.949-1.716-6.734-2.657v-8.76h.419c.669.525 1.45 1.106 2.342 1.743.92.637 2.133 1.301 3.639 1.993a33.702 33.702 0 004.391 1.62 17.88 17.88 0 005.019.705c1.255 0 2.594-.138 4.016-.415 1.422-.305 2.481-.678 3.178-1.121.976-.637 1.673-1.315 2.092-2.035.446-.72.669-1.799.669-3.238 0-1.855-.516-3.252-1.548-4.194-1.003-.94-2.802-1.73-5.395-2.366-1.004-.25-2.314-.54-3.932-.872a62.6 62.6 0 01-4.475-1.08c-3.569-1.024-6.162-2.601-7.78-4.733-1.617-2.159-2.425-4.76-2.425-7.805 0-4.18 1.589-7.584 4.768-10.214 3.178-2.63 7.403-3.944 12.673-3.944 2.593 0 5.2.318 7.821.955 2.621.636 4.824 1.44 6.608 2.408v8.345h-.418a24.517 24.517 0 00-6.734-3.736c-2.453-.914-4.935-1.37-7.445-1.37-2.593 0-4.782.54-6.566 1.619-1.785 1.08-2.677 2.712-2.677 4.899 0 1.937.53 3.39 1.589 4.36 1.06.94 2.761 1.715 5.103 2.324 1.171.305 2.468.61 3.89.914 1.45.277 2.969.609 4.559.996 3.457.858 6.051 2.284 7.779 4.277 1.757 1.993 2.635 4.705 2.635 8.137 0 1.993-.404 3.89-1.213 5.688-.78 1.772-1.938 3.294-3.471 4.568a17.838 17.838 0 01-5.688 3.155c-2.092.72-4.727 1.08-7.905 1.08zm45.882-.042c-7.445 0-13.231-2.076-17.357-6.228-4.099-4.18-6.149-10.103-6.149-17.77 0-7.556 1.994-13.563 5.981-18.02 3.988-4.483 9.202-6.725 15.643-6.725 2.9 0 5.465.415 7.696 1.245 2.23.83 4.182 2.132 5.855 3.903 1.673 1.772 2.956 3.944 3.848 6.519.893 2.546 1.339 5.674 1.339 9.383v4.235h-32.373c0 5.397 1.366 9.521 4.099 12.372 2.732 2.851 6.511 4.277 11.334 4.277 1.729 0 3.416-.194 5.061-.581 1.673-.388 3.179-.886 4.517-1.495 1.423-.637 2.621-1.246 3.597-1.827.976-.609 1.785-1.176 2.426-1.702h.46v8.511c-.92.36-2.063.817-3.429 1.37a41.694 41.694 0 01-3.681 1.246 48.36 48.36 0 01-4.182.955c-1.227.221-2.789.332-4.685.332zm9.202-29.437c-.056-2.104-.307-3.916-.753-5.439-.446-1.522-1.088-2.81-1.924-3.861-.92-1.163-2.105-2.048-3.555-2.657-1.422-.61-3.193-.914-5.312-.914-2.091 0-3.876.319-5.354.955-1.45.61-2.774 1.509-3.973 2.699a12.903 12.903 0 00-2.677 4.069c-.613 1.467-1.004 3.183-1.171 5.148h24.719zm68.635 28.357v-26.82c0-2.132-.084-4.097-.251-5.896-.167-1.827-.516-3.253-1.045-4.277-.558-1.107-1.353-1.924-2.385-2.45-1.031-.525-2.425-.788-4.182-.788-1.617 0-3.36.498-5.228 1.494-1.841.97-3.751 2.38-5.73 4.235.028.47.055 1.038.083 1.703.056.636.084 1.397.084 2.283v30.516h-7.863v-26.82c0-2.132-.084-4.097-.251-5.896-.167-1.827-.516-3.253-1.046-4.277-.557-1.107-1.352-1.924-2.384-2.45-1.032-.525-2.426-.788-4.182-.788-1.701 0-3.486.526-5.354 1.577-1.868 1.052-3.681 2.395-5.437 4.028v34.626h-7.863V18.227h7.863v5.148c2.063-2.048 4.099-3.626 6.106-4.733 2.036-1.135 4.266-1.702 6.692-1.702 2.761 0 5.201.622 7.32 1.868 2.147 1.246 3.778 3.294 4.893 6.145 2.37-2.63 4.685-4.622 6.943-5.979a14.045 14.045 0 017.362-2.034c2.007 0 3.834.318 5.479.955 1.645.609 3.081 1.605 4.308 2.99 1.254 1.41 2.216 3.168 2.886 5.272.697 2.104 1.045 4.747 1.045 7.93v30.516h-7.863zm49.981-23.333c0-5.536-.85-9.73-2.551-12.58-1.701-2.879-4.433-4.318-8.198-4.318-2.147 0-4.322.498-6.524 1.494a25.418 25.418 0 00-5.94 3.779v26.572c1.98.968 3.737 1.66 5.27 2.076 1.534.387 3.221.58 5.061.58 4.015 0 7.166-1.41 9.453-4.234 2.286-2.823 3.429-7.28 3.429-13.37zm8.115-.623c0 7.584-1.855 13.688-5.563 18.31-3.709 4.622-8.351 6.934-13.928 6.934-2.537 0-4.712-.319-6.525-.955a27.884 27.884 0 01-5.312-2.491l-.502 2.158h-7.361V0h7.863v23.085a29.477 29.477 0 016.441-4.402c2.315-1.162 4.936-1.743 7.864-1.743 5.27 0 9.424 2.103 12.464 6.31 3.039 4.18 4.559 9.979 4.559 17.397zm16.186 23.956h-7.863V0h7.863v64.603zm31.829 1.08c-7.445 0-13.231-2.076-17.357-6.228-4.099-4.18-6.149-10.103-6.149-17.77 0-7.556 1.994-13.563 5.981-18.02 3.988-4.483 9.202-6.725 15.643-6.725 2.9 0 5.465.415 7.696 1.245 2.23.83 4.182 2.132 5.855 3.903 1.673 1.772 2.956 3.944 3.848 6.519.893 2.546 1.339 5.674 1.339 9.383v4.235h-32.373c0 5.397 1.366 9.521 4.099 12.372 2.732 2.851 6.511 4.277 11.334 4.277 1.729 0 3.416-.194 5.061-.581 1.673-.388 3.179-.886 4.517-1.495 1.423-.637 2.622-1.246 3.597-1.827.976-.609 1.785-1.176 2.426-1.702h.46v8.511c-.92.36-2.063.817-3.429 1.37a41.694 41.694 0 01-3.681 1.246 48.36 48.36 0 01-4.182.955c-1.227.221-2.789.332-4.685.332zm9.202-29.437c-.056-2.104-.307-3.916-.753-5.439-.446-1.522-1.088-2.81-1.924-3.861-.92-1.163-2.105-2.048-3.555-2.657-1.422-.61-3.193-.914-5.312-.914-2.091 0-3.876.319-5.354.955-1.45.61-2.774 1.509-3.973 2.699a12.903 12.903 0 00-2.677 4.069c-.613 1.467-1.004 3.183-1.171 5.148H353.9zm35.058-1.661l6.106-13.078c.809-1.716 1.506-2.851 2.091-3.405.586-.553 1.353-.83 2.301-.83.92 0 1.673.277 2.258.83.614.554.921 1.273.921 2.16 0 .664-.377 1.785-1.13 3.362l-5.144 10.961h7.445c1.812 0 3.081.222 3.806.665.725.415 1.087 1.135 1.087 2.159 0 1.384-.613 2.366-1.84 2.947-.641.305-1.896.457-3.764.457h-6.943c2.23 4.18 3.346 8.415 3.346 12.705 0 3.404-.628 6.823-1.882 10.255-1.255 3.432-2.9 6.491-4.936 9.176-2.035 2.712-4.35 4.9-6.943 6.56-2.565 1.66-5.103 2.491-7.612 2.491-2.091 0-3.806-.637-5.145-1.91-1.366-1.245-2.049-2.837-2.049-4.775 0-.968.153-1.937.46-2.906.307-.941.962-2.505 1.966-4.692l12.673-26.904h-2.384c-1.785 0-2.984-.18-3.597-.54-.892-.526-1.339-1.314-1.339-2.366 0-.581.168-1.135.502-1.66A3.156 3.156 0 01380.593 35c.669-.277 1.924-.416 3.764-.416h4.601zm2.007 11.501l-10.791 23.002c-.864 1.826-1.408 3.017-1.631 3.57-.195.582-.293 1.052-.293 1.412 0 .83.405 1.245 1.213 1.245 1.339 0 3.151-1.245 5.438-3.736 2.258-2.52 4.071-5.453 5.437-8.802 1.394-3.377 2.091-6.547 2.091-9.508 0-1.218-.111-2.38-.334-3.488-.223-1.135-.6-2.366-1.13-3.695zm29.32 15.362l-.586.332c-2.175 1.273-3.973 2.16-5.395 2.657a12.83 12.83 0 01-4.266.748c-1.952 0-3.528-.568-4.727-1.703-1.199-1.134-1.798-2.615-1.798-4.442 0-1.605.795-4.096 2.384-7.473l6.232-13.328c.781-1.66 1.464-2.782 2.049-3.363.614-.581 1.395-.872 2.343-.872s1.714.277 2.3.83c.586.554.878 1.26.878 2.118 0 .637-.376 1.771-1.129 3.404l-5.563 11.875-.376.747c-.948 1.965-1.422 3.294-1.422 3.986 0 .83.418 1.246 1.255 1.246.864 0 1.924-.374 3.178-1.121 1.283-.748 2.928-1.952 4.936-3.612l7.152-15.238c.781-1.66 1.464-2.782 2.049-3.363.614-.581 1.394-.872 2.342-.872.949 0 1.715.277 2.301.83.585.554.878 1.26.878 2.118 0 .637-.376 1.771-1.129 3.404l-6.148 13.12-.544 1.08c-.586 1.273-.878 2.104-.878 2.491 0 .332.139.637.418.914.307.249.613.373.92.373 1.394 0 4.071-1.66 8.03-4.982 1.339-1.163 2.44-1.744 3.305-1.744.808 0 1.491.263 2.049.789a2.4 2.4 0 01.837 1.868c0 1.329-1.381 3.1-4.141 5.315a28.218 28.218 0 01-6.567 4.069c-2.342 1.024-4.35 1.536-6.023 1.536-1.254 0-2.3-.29-3.136-.872-.809-.609-1.478-1.564-2.008-2.865zm6.316-38.862c0 1.412-.419 2.588-1.255 3.53-.809.913-1.868 1.37-3.179 1.37-1.087 0-1.966-.333-2.635-.997-.669-.664-1.004-1.536-1.004-2.616 0-1.3.432-2.394 1.297-3.28.892-.913 1.98-1.37 3.262-1.37 1.06 0 1.91.305 2.552.914.641.609.962 1.425.962 2.45zm15.642 0c0 1.412-.418 2.588-1.255 3.53-.808.913-1.868 1.37-3.178 1.37-1.088 0-1.966-.333-2.635-.997-.67-.664-1.004-1.536-1.004-2.616 0-1.3.432-2.394 1.296-3.28.893-.913 1.98-1.37 3.263-1.37 1.059 0 1.91.305 2.551.914.642.609.962 1.425.962 2.45z" fill="#000"/><path d="M447.931 34.585c.279-.027.572-.041.879-.041 2.314 0 4.168.581 5.563 1.744 1.422 1.134 2.133 2.63 2.133 4.484 0 1.494-.474 2.947-1.422 4.36-.921 1.41-2.58 3.224-4.978 5.438l-3.304 3.031c-1.729 1.55-2.593 2.768-2.593 3.654 0 .526.195.94.586 1.245.39.305.906.457 1.547.457 1.311 0 3.193-.512 5.647-1.536a50.668 50.668 0 007.277-3.779c1.366-.83 2.259-1.342 2.677-1.536.418-.193.864-.29 1.338-.29.781 0 1.422.276 1.924.83.53.526.795 1.19.795 1.993 0 .886-.39 1.744-1.171 2.574-.781.83-2.119 1.813-4.015 2.948-3.012 1.771-5.8 3.059-8.365 3.861-2.538.775-5.047 1.163-7.529 1.163-2.788 0-4.991-.623-6.608-1.869-1.59-1.245-2.384-2.934-2.384-5.065 0-1.937.85-3.875 2.551-5.813 1.338-1.439 3.36-3.363 6.065-5.77 1.924-1.69 3.067-2.755 3.429-3.198.391-.442.586-.927.586-1.453 0-.636-.251-1.08-.753-1.328-.502-.25-1.352-.388-2.551-.416-.586 1.329-1.185 2.27-1.799 2.824-.613.553-1.366.83-2.258.83-.921 0-1.687-.277-2.301-.83-.585-.582-.878-1.315-.878-2.2 0-.637.362-1.745 1.087-3.322l2.426-5.107c.837-1.744 1.534-2.879 2.091-3.405.558-.553 1.311-.83 2.259-.83.892 0 1.645.277 2.259.83.613.554.92 1.274.92 2.16 0 .636-.335 1.66-1.004 3.072l-.126.29z" fill="#000"/></svg>