<svg xmlns="http://www.w3.org/2000/svg" viewBox="0 0 158.7 155.3"><path fill="none" d="M0 0h158.7v155.3H0z"/><path d="M8.5 134.2V97.8h6.3v13.4h.1l6.5-13.4h6.2l-6.7 13.5 7.6 22.9h-6.3l-5.1-17H17l-2.2 4.1v12.9zm22.9-36.4h6.3v27.5c0 2.7 1.1 4 3.3 4s3.3-1.3 3.3-4V97.8h6.2V125c0 3.2-.8 5.6-2.5 7.2-1.9 1.7-4.4 2.6-7 2.5-2.6.1-5.1-.8-7-2.5-1.7-1.6-2.5-4.1-2.5-7.2l-.1-27.2zm24.1 36.4V97.8h6.3v30.9h9.8v5.5zm21.7-31h-6v-5.4h18.3v5.4h-6.1v31h-6.2zm16.2-5.4h6.2v27.5c0 2.7 1.1 4 3.3 4s3.3-1.3 3.3-4V97.8h6.2V125c0 3.2-.8 5.6-2.5 7.2-1.9 1.7-4.4 2.6-7 2.5-2.6.1-5.1-.8-7-2.5-1.7-1.6-2.6-4.1-2.6-7.2l.1-27.2zm30.5 36.4h-6.2V97.8h8.8c3.5 0 6.1.8 7.9 2.5 1.8 1.6 2.7 4.4 2.7 8.3 0 1.3-.1 2.5-.4 3.8-.2.9-.5 1.8-1 2.7-.7 1.2-1.7 2.2-3 2.7l5.3 16.5h-6.4l-4.4-15.1c-.5.1-1 .1-1.5.1H124l-.1 14.9zm0-20.1h2.2c.7 0 1.4-.1 2.1-.3.6-.1 1.1-.5 1.4-.9.4-.5.7-1.1.8-1.7.2-.9.3-1.8.2-2.7 0-2.2-.4-3.6-1.1-4.4-1-.9-2.3-1.3-3.6-1.2h-2.2l.2 11.2z" fill="#bfaa90"/><path d="M47.4 62.2c0-.7-.2-1.3-.4-1.9a3.596 3.596 0 00-1.8-1.9c-.3-.1-.7-.2-1-.2-.9-.1-1.7.3-2.3.9-.6.7-.9 1.7-.9 2.6 0 1 .3 2 .9 2.8.7.9 1.5 1.8 2.3 2.6.9.9 1.9 1.7 3 2.6 1.1.9 2.1 1.9 3 2.9.9 1.1 1.7 2.2 2.3 3.5.6 1.4 1 2.8.9 4.3 0 1.4-.2 2.7-.7 4-.4 1.1-1.1 2.1-2 2.9-.9.8-1.9 1.4-3.1 1.8-1.3.4-2.6.6-4 .6-1.3 0-2.6-.3-3.7-.8s-2.1-1.2-2.9-2.2c-.8-.9-1.4-2-1.8-3.2-.4-1.2-.7-2.5-.8-3.8l5.9-.8c0 1.4.4 2.8 1.2 4.1.6.8 1.5 1.3 2.5 1.3.9 0 1.9-.3 2.6-.8.7-.6 1.1-1.5 1-2.4 0-1.1-.3-2.2-.9-3.1-.7-1-1.4-1.9-2.3-2.7-.9-.9-1.9-1.7-3-2.6-1.1-.9-2.1-1.8-3-2.8-.9-1-1.7-2.2-2.3-3.5-.6-1.4-1-3-.9-4.5-.2-2.5.7-4.9 2.5-6.6 1.7-1.5 4-2.3 7.1-2.3 1.2 0 2.3.2 3.4.6 1 .4 1.8 1 2.6 1.8.7.8 1.3 1.7 1.8 2.8.5 1.1.7 2.3.9 3.5l-6.1.5zm14.9-3.4h-5.9v-5.4h18.1v5.4h-6v30.5h-6.2zm17.9 30.5h-6l6.6-35.9h7.7l6.6 35.9h-6l-1.1-8h-6.7l-1.1 8zm2-13.3h5l-2.5-15.4h-.1L82.2 76zm45.1-17.2h-5.9v-5.4h18.1v5.4h-6v30.5h-6.2zM105 89.3h-6.1V53.4h8.7c3.4 0 6 .8 7.8 2.4s2.7 4.3 2.7 8.2c0 1.3-.1 2.5-.4 3.7-.2.9-.5 1.8-1 2.6-.4.7-.8 1.2-1.4 1.7-.5.4-1 .7-1.6 1l5.2 16.3h-6.3l-4.4-14.9c-.5.1-1 .1-1.5.1H105v14.8zm0-19.8h2.2c.7 0 1.4-.1 2.1-.2.6-.1 1-.5 1.4-.9.4-.5.7-1.1.8-1.7.2-.9.3-1.8.3-2.7 0-2.1-.3-3.6-1-4.3-1-.9-2.2-1.3-3.5-1.2H105v11z" fill="#cd3363"/><path d="M72 44.9V8.5h5.8l7.6 20.8h.1V8.5h5.7v36.4h-5.4l-8-22.7h-.1v22.7zm24.3 0V8.5H113V14h-10.4v9.3h8v5.5h-8v10.7h11.2v5.4zM118 8.5h6.2V36c0 2.7 1.1 4 3.3 4s3.3-1.3 3.3-4V8.5h6.2v27.2c0 3.2-.9 5.6-2.6 7.2-4.1 3.3-10 3.3-14.1 0-1.7-1.7-2.5-4.1-2.5-7.2V8.5z" fill="#576164"/><path d="M12.6 89.3H8.5V8.5h55v4H12.6zm137.6 57.5H8.5v-4.2H146V8.5h4.2z" fill="#bec5c9"/></svg>