<svg width="470" height="95" fill="none" xmlns="http://www.w3.org/2000/svg"><path d="M362.959 84.102h-4.536v-29.23l-8.889 19.889h-2.75l-8.82-19.89v29.23h-4.239V50.179h6.186l8.523 18.887 8.225-18.887h6.3v33.924zm18.833.706c-2.001 0-3.75-.258-5.246-.775-1.497-.531-2.773-1.313-3.827-2.346a9.846 9.846 0 01-2.52-4.238c-.488-1.655-.733-3.69-.733-6.106V50.178h4.536v21.165c0 1.565.1 2.886.298 3.965a7.459 7.459 0 001.169 2.87c.611.912 1.436 1.603 2.474 2.073 1.054.471 2.337.707 3.849.707 1.421 0 2.681-.236 3.781-.707 1.099-.47 1.955-1.162 2.566-2.073a7.871 7.871 0 001.145-2.87c.214-1.048.321-2.332.321-3.85v-21.28h4.536v21.165c0 2.355-.244 4.375-.733 6.06-.473 1.686-1.314 3.114-2.52 4.284a10.447 10.447 0 01-3.803 2.346c-1.436.517-3.2.775-5.293.775zm28.387-.091c-2.475 0-4.582-.25-6.324-.752a32.24 32.24 0 01-4.88-1.89v-5.651h.321a16.604 16.604 0 005.086 3.258c1.894.76 3.72 1.139 5.476 1.139 2.505 0 4.399-.516 5.682-1.55 1.283-1.047 1.925-2.422 1.925-4.123 0-1.352-.336-2.453-1.009-3.303-.672-.85-1.741-1.481-3.207-1.891a52.154 52.154 0 00-2.887-.752c-.87-.198-1.963-.463-3.276-.798-1.176-.303-2.23-.69-3.162-1.161a8.905 8.905 0 01-2.474-1.846 8.132 8.132 0 01-1.65-2.62c-.382-1.017-.573-2.187-.573-3.508 0-2.75 1.077-5.05 3.231-6.904 2.154-1.868 4.903-2.802 8.248-2.802 1.909 0 3.711.19 5.407.57a21.8 21.8 0 014.742 1.617v5.4h-.343c-1.085-.987-2.475-1.846-4.17-2.575a13.139 13.139 0 00-5.338-1.116c-2.108 0-3.811.494-5.109 1.48-1.299.973-1.948 2.256-1.948 3.851 0 1.443.382 2.59 1.146 3.44.763.85 1.871 1.474 3.322 1.869.962.258 2.138.554 3.528.888 1.39.319 2.543.615 3.46.889 2.352.713 4.07 1.792 5.155 3.235 1.084 1.443 1.626 3.22 1.626 5.33 0 1.322-.275 2.629-.825 3.92-.534 1.29-1.29 2.384-2.268 3.28a11.901 11.901 0 01-3.734 2.278c-1.375.532-3.101.798-5.178.798zm28.57-.615h-13.243v-3.463h4.353V53.64h-4.353v-3.463h13.243v3.463h-4.353v27h4.353v3.463zm30.449 0h-5.889l-12.44-15.789-1.994 2.233v13.556h-4.536V50.178h4.536v15.606l13.976-15.606h5.522l-14.113 15.15 14.938 18.774zM58.996 78.86l.663 1.252c.238.21.595.435 1.07.679a25.63 25.63 0 001.58.626c.613.174 1.241.313 1.887.417.68.105 1.343.157 1.989.157 2.957 0 5.234-.592 6.831-1.774 1.632-1.183 2.448-2.904 2.448-5.165 0-1.357-.374-2.522-1.122-3.496-.714-.974-1.614-1.86-2.702-2.66a35.562 35.562 0 00-3.57-2.296 26.926 26.926 0 01-3.569-2.4 13.755 13.755 0 01-2.753-3.078c-.714-1.148-1.07-2.522-1.07-4.121 0-3.166 1.172-5.6 3.517-7.305 2.346-1.704 5.778-2.556 10.299-2.556 2.345 0 4.283.174 5.812.522 1.53.313 2.838.73 3.926 1.252l-.102.417a9.596 9.596 0 00-.204.991c-.068.418-.17.905-.306 1.461-.102.522-.204 1.061-.306 1.618-.272 1.321-.578 2.8-.918 4.434h-3.263l1.122-5.582-.56-1.304c-.578-.279-1.411-.487-2.499-.627a21.62 21.62 0 00-3.416-.26c-2.549 0-4.418.521-5.608 1.565-1.19 1.043-1.785 2.295-1.785 3.756 0 1.217.357 2.278 1.071 3.183.748.87 1.666 1.704 2.753 2.504a54.356 54.356 0 003.57 2.295 22.056 22.056 0 013.568 2.505 12.007 12.007 0 012.702 3.182c.748 1.217 1.122 2.66 1.122 4.33 0 1.74-.34 3.322-1.02 4.748-.68 1.391-1.682 2.591-3.008 3.6-1.291 1.008-2.906 1.791-4.843 2.348-1.938.556-4.164.834-6.68.834a22.6 22.6 0 01-3.466-.26c-1.088-.174-2.09-.4-3.008-.679a22.06 22.06 0 01-2.447-.887c-.68-.313-1.224-.626-1.632-.939l1.938-9.495h3.262l-1.274 6.208zm28.548-19.147h-3.11v-2.817h7.596L96.007 78.6v2.869h.408l1.376-2.713c.578-1.287 1.173-2.66 1.785-4.121a237.037 237.037 0 001.784-4.383c.612-1.46 1.173-2.887 1.683-4.278a54.03 54.03 0 001.274-4.017l-1.427-5.06h6.271v2.816a158.463 158.463 0 01-2.04 5.374 198.361 198.361 0 01-2.6 6.365 223.43 223.43 0 01-3.059 6.73 126.297 126.297 0 01-3.314 6.522 71.93 71.93 0 01-3.314 5.739c-1.087 1.739-2.124 3.165-3.11 4.278h-5.863v-5.009h5.66c.475-.591.951-1.27 1.427-2.035.51-.765 1.003-1.895 1.479-3.39h-2.499l-4.384-24.574zm41.644 8.974c.272-1.113.51-2.156.714-3.13a14.73 14.73 0 00.306-2.922c0-.8-.204-1.478-.612-2.035-.408-.591-1.02-.887-1.836-.887a7.293 7.293 0 00-2.957.626 12.08 12.08 0 00-2.549 1.566 15.936 15.936 0 00-2.09 1.878 20.792 20.792 0 00-1.377 1.721l-3.977 18.782h-4.945l5.047-24.573h-3.517v-2.817h9.075l-1.173 5.426h.255c1.427-1.774 3.025-3.2 4.792-4.278 1.768-1.113 3.671-1.67 5.711-1.67 1.835 0 3.144.47 3.925 1.409.816.904 1.224 2.087 1.224 3.548 0 .8-.102 1.808-.306 3.026a29.81 29.81 0 01-.663 3.39l-3.212 13.722h4.181v2.817h-9.432l3.416-15.6zm19.902 2.609h-1.989l-2.6 12.99h-4.996l7.443-36.311h-3.722v-2.818h9.177L147.56 69.21h1.632l8.106-8.296v-4.017h6.781v2.191l-10.758 9.6 6.934 12.782h2.957v2.817h-7.393l-6.729-12.99zm32.079-9.391c-.34.07-.748.173-1.224.313-.442.104-.918.26-1.427.47a9.94 9.94 0 00-1.581.834 8.968 8.968 0 00-1.58 1.304l-4.181 19.46h-4.996l5.251-24.573h-3.518v-2.817h9.024l-1.224 5.322h.255a18.971 18.971 0 012.499-3.13c.985-1.044 1.92-1.775 2.804-2.192h4.078v5.009h-4.18zm25.082 17.373c-.374.695-.883 1.374-1.529 2.034a11.012 11.012 0 01-2.295 1.774 12.62 12.62 0 01-2.957 1.252c-1.087.314-2.26.47-3.518.47-2.923 0-5.268-.835-7.035-2.504-1.734-1.705-2.601-4.087-2.601-7.148 0-2.608.374-5.06 1.122-7.356.748-2.296 1.802-4.278 3.161-5.948a15.145 15.145 0 014.895-3.965c1.937-1.008 4.078-1.513 6.424-1.513a9.05 9.05 0 012.6.366 6.11 6.11 0 012.141.99 4.763 4.763 0 011.428 1.67c.34.661.509 1.426.509 2.296 0 2.504-1.291 4.521-3.874 6.052-2.583 1.53-6.815 2.504-12.695 2.921a19.563 19.563 0 00-.306 1.774 13.752 13.752 0 00-.102 1.67c0 2.191.544 3.947 1.631 5.27 1.122 1.286 2.753 1.93 4.895 1.93.68 0 1.342-.105 1.988-.314a11.94 11.94 0 001.938-.782 9.874 9.874 0 001.631-1.148c.51-.417.918-.817 1.224-1.2l1.325 1.409zm-6.016-20.452c-1.597 0-3.059.73-4.385 2.192-1.325 1.426-2.464 3.826-3.415 7.2 3.602-.105 6.356-.714 8.259-1.827 1.937-1.113 2.906-2.608 2.906-4.486 0-.383-.051-.748-.153-1.096a2.207 2.207 0 00-.561-.991c-.238-.313-.578-.557-1.019-.73-.408-.175-.952-.261-1.632-.261zm11.317-1.93h5.405l1.478-6h4.793l-1.377 6h6.883v2.817h-7.444l-3.976 15.756a16.37 16.37 0 00-.357 1.878 14.19 14.19 0 00-.102 1.722c0 1.6.883 2.4 2.651 2.4.918 0 1.954-.209 3.11-.626a9.87 9.87 0 003.059-1.878l1.071 2.087c-.374.417-.901.852-1.581 1.304-.646.452-1.394.87-2.243 1.252-.85.348-1.785.626-2.804.835-1.02.243-2.074.365-3.161.365-1.666 0-2.957-.417-3.875-1.252-.918-.835-1.377-1.896-1.377-3.183 0-.556.017-1.13.051-1.721.034-.626.136-1.27.306-1.93l4.181-17.009h-4.691v-2.817zm20.013 2.817v-2.817h9.228l-5.302 24.573h4.18v2.817h-9.839l5.455-24.573h-3.722zm3.416-11.269c0-1.008.34-1.808 1.02-2.4.713-.59 1.614-.886 2.702-.886 1.155 0 2.056.295 2.702.886.68.592 1.02 1.392 1.02 2.4 0 1.009-.34 1.809-1.02 2.4-.646.591-1.547.887-2.702.887-1.088 0-1.989-.296-2.702-.887-.68-.591-1.02-1.391-1.02-2.4zm16.653 33.546c.612 0 1.258-.051 1.938-.156a6.747 6.747 0 001.937-.678 4.18 4.18 0 001.428-1.252c.374-.557.561-1.252.561-2.087 0-.87-.272-1.635-.816-2.296-.51-.66-1.156-1.287-1.938-1.878a26.565 26.565 0 00-2.6-1.826 25.24 25.24 0 01-2.549-1.982 11.338 11.338 0 01-1.988-2.452c-.51-.905-.765-1.965-.765-3.183 0-1.287.289-2.417.867-3.391a6.957 6.957 0 012.345-2.452c.986-.66 2.158-1.148 3.518-1.46a17.425 17.425 0 014.333-.523c.714 0 1.411.053 2.091.157.714.104 1.359.243 1.937.417.612.14 1.139.313 1.581.522.442.209.764.4.968.574l-1.529 6.104h-3.161l.867-4.278c-.272-.209-.765-.365-1.479-.47-.68-.139-1.275-.208-1.784-.208-.544 0-1.139.052-1.785.156a5.014 5.014 0 00-1.733.522 3.539 3.539 0 00-1.377 1.096c-.34.452-.51 1.06-.51 1.825 0 .94.255 1.757.765 2.453.544.695 1.224 1.339 2.039 1.93a57.477 57.477 0 002.601 1.774 20.758 20.758 0 012.6 1.982 8.568 8.568 0 011.988 2.452c.544.905.816 2 .816 3.287 0 1.322-.34 2.487-1.02 3.496-.68 1.008-1.58 1.86-2.702 2.556-1.122.696-2.43 1.217-3.926 1.565a19.53 19.53 0 01-4.537.522c-.884 0-1.768-.087-2.651-.26a21.998 21.998 0 01-2.397-.627 20.677 20.677 0 01-1.886-.835c-.51-.313-.867-.574-1.071-.782l1.938-6.209h3.467l-1.326 4.33c.374.383.986.748 1.835 1.096.85.313 1.887.47 3.11.47zm19.41-34.015v-2.818h9.228l-3.62 16.122h.306a19.849 19.849 0 014.334-3.444c1.597-.974 3.518-1.46 5.761-1.46 3.467 0 5.2 2.086 5.2 6.26 0 1.009-.102 2.087-.306 3.235a31.654 31.654 0 01-.662 3.234l-3.11 12.365h4.333v2.817h-9.534l3.212-14.243c.272-1.113.51-2.173.714-3.182a12.51 12.51 0 00.357-2.87c0-1.286-.272-2.295-.816-3.026-.51-.73-1.308-1.095-2.396-1.095-.782 0-1.547.122-2.294.365-.748.209-1.462.487-2.142.835-.679.348-1.308.748-1.886 1.2-.578.452-1.071.904-1.479 1.356l-4.18 20.66h-4.895l7.546-36.311h-3.671zm46.017 31.303c-.373.695-.883 1.374-1.529 2.034a11.031 11.031 0 01-2.294 1.774c-.884.522-1.87.94-2.957 1.252-1.088.314-2.261.47-3.518.47-2.923 0-5.269-.835-7.036-2.504-1.734-1.705-2.6-4.087-2.6-7.148 0-2.608.374-5.06 1.121-7.356.748-2.296 1.802-4.278 3.161-5.948a15.145 15.145 0 014.895-3.965c1.937-1.008 4.079-1.513 6.424-1.513.918 0 1.784.122 2.6.366a6.11 6.11 0 012.141.99 4.763 4.763 0 011.428 1.67c.34.661.51 1.426.51 2.296 0 2.504-1.292 4.521-3.875 6.052-2.583 1.53-6.815 2.504-12.695 2.921a19.563 19.563 0 00-.306 1.774 13.752 13.752 0 00-.102 1.67c0 2.191.544 3.947 1.632 5.27 1.121 1.286 2.753 1.93 4.894 1.93a6.42 6.42 0 001.988-.314 11.94 11.94 0 001.938-.782 9.832 9.832 0 001.631-1.148c.51-.417.918-.817 1.224-1.2l1.325 1.409zm-6.016-20.452c-1.597 0-3.059.73-4.384 2.192-1.326 1.426-2.464 3.826-3.416 7.2 3.603-.105 6.356-.714 8.259-1.827 1.938-1.113 2.906-2.608 2.906-4.486 0-.383-.051-.748-.153-1.096a2.215 2.215 0 00-.56-.991c-.238-.313-.578-.557-1.02-.73-.408-.175-.952-.261-1.632-.261zM5.507 38.876V1.674h22.862v4.397h-18v10.194h16.772v4.397H10.37V34.48h18v4.397H5.507zm49.433 0h-4.617v-15.89c0-1.283-.066-2.474-.197-3.573-.114-1.116-.344-2.007-.688-2.673-.376-.7-.9-1.216-1.571-1.55-.671-.35-1.588-.524-2.75-.524-1.146 0-2.333.316-3.561.95-1.212.616-2.398 1.424-3.56 2.423v20.837h-4.617V10.968h4.616v3.098c1.375-1.249 2.734-2.207 4.077-2.873a9.432 9.432 0 014.248-1c2.701 0 4.813.909 6.335 2.724 1.523 1.799 2.284 4.414 2.284 7.845v18.114zm13.898.674c-1.833 0-3.552-.25-5.157-.749-1.588-.5-2.906-1.033-3.953-1.599V31.93h.245c.393.317.852.666 1.375 1.05.54.383 1.253.783 2.137 1.199a19.5 19.5 0 002.578.974c.95.283 1.932.425 2.947.425.737 0 1.522-.083 2.357-.25.835-.183 1.457-.408 1.867-.674.573-.384.982-.792 1.228-1.225.261-.433.392-1.082.392-1.949 0-1.115-.302-1.957-.908-2.523-.59-.566-1.645-1.04-3.168-1.424-.59-.15-1.359-.325-2.308-.525-.95-.2-1.826-.416-2.628-.65-2.095-.616-3.618-1.565-4.567-2.848-.95-1.299-1.425-2.864-1.425-4.697 0-2.515.934-4.563 2.8-6.146 1.866-1.582 4.346-2.373 7.44-2.373 1.523 0 3.054.191 4.593.574 1.538.383 2.832.866 3.88 1.45v5.021h-.246a14.304 14.304 0 00-3.954-2.248 12.174 12.174 0 00-4.37-.825c-1.523 0-2.808.325-3.856.975-1.048.65-1.572 1.632-1.572 2.948 0 1.166.311 2.04.933 2.623.623.566 1.621 1.033 2.996 1.4.688.183 1.45.366 2.284.549.851.166 1.744.366 2.677.6 2.03.516 3.552 1.374 4.567 2.573 1.032 1.2 1.547 2.832 1.547 4.897 0 1.2-.237 2.34-.712 3.423a7.413 7.413 0 01-2.038 2.748 10.403 10.403 0 01-3.34 1.899c-1.228.433-2.775.65-4.64.65zm26.939-.024c-4.371 0-7.769-1.25-10.191-3.748-2.407-2.515-3.61-6.08-3.61-10.694 0-4.547 1.17-8.161 3.511-10.843 2.342-2.698 5.403-4.047 9.184-4.047 1.703 0 3.21.25 4.519.75a8.976 8.976 0 013.438 2.348c.982 1.066 1.735 2.373 2.259 3.922.524 1.533.786 3.415.786 5.647v2.548H86.666c0 3.248.802 5.73 2.407 7.446 1.604 1.715 3.822 2.573 6.655 2.573 1.015 0 2.005-.116 2.97-.35a13.837 13.837 0 002.653-.9 20.58 20.58 0 002.112-1.098 13.81 13.81 0 001.424-1.025h.27v5.122c-.54.217-1.211.491-2.013.825-.803.316-1.523.566-2.161.75-.901.249-1.72.44-2.456.574-.72.133-1.637.2-2.75.2zm5.402-17.715c-.033-1.265-.18-2.356-.442-3.273-.262-.916-.638-1.69-1.13-2.323a5.164 5.164 0 00-2.087-1.599c-.835-.367-1.874-.55-3.119-.55-1.227 0-2.275.192-3.143.575a7.32 7.32 0 00-2.333 1.624 7.789 7.789 0 00-1.571 2.448c-.36.883-.59 1.916-.688 3.098h14.513zm40.297 17.065v-16.14c0-1.283-.049-2.465-.147-3.548-.098-1.1-.303-1.957-.614-2.573-.328-.666-.794-1.158-1.4-1.474-.606-.317-1.424-.475-2.455-.475-.95 0-1.973.3-3.07.9-1.081.582-2.202 1.432-3.364 2.548.016.283.032.624.049 1.024.033.383.049.841.049 1.374v18.364h-4.617v-16.14c0-1.283-.049-2.465-.147-3.548-.098-1.1-.303-1.957-.614-2.573-.327-.666-.794-1.158-1.4-1.474-.605-.317-1.424-.475-2.455-.475-.999 0-2.047.316-3.144.95-1.096.632-2.16 1.44-3.192 2.423v20.837h-4.616V10.968h4.616v3.098c1.212-1.232 2.407-2.182 3.585-2.848 1.195-.683 2.505-1.024 3.929-1.024 1.621 0 3.054.374 4.298 1.124 1.26.75 2.218 1.982 2.873 3.698 1.391-1.583 2.75-2.782 4.076-3.598a8.094 8.094 0 014.322-1.224c1.179 0 2.251.191 3.217.574.966.367 1.809.966 2.529 1.8.737.849 1.302 1.906 1.695 3.172.409 1.266.614 2.857.614 4.772v18.364h-4.617zm29.345-14.041c0-3.332-.499-5.855-1.498-7.57-.998-1.733-2.603-2.6-4.813-2.6-1.26 0-2.537.3-3.831.9a14.876 14.876 0 00-3.487 2.274v15.99c1.163.583 2.194 1 3.094 1.25.901.233 1.891.35 2.972.35 2.357 0 4.207-.85 5.549-2.55 1.343-1.698 2.014-4.38 2.014-8.044zm4.764-.375c0 4.564-1.089 8.236-3.266 11.018s-4.903 4.172-8.177 4.172c-1.49 0-2.767-.191-3.831-.574a16.197 16.197 0 01-3.119-1.5l-.294 1.3h-4.322V0h4.616v13.891a17.296 17.296 0 013.782-2.648c1.359-.7 2.898-1.05 4.617-1.05 3.094 0 5.533 1.267 7.317 3.798 1.785 2.515 2.677 6.005 2.677 10.469zm9.503 14.416h-4.616V0h4.616v38.876zm18.688.65c-4.371 0-7.768-1.25-10.191-3.748-2.407-2.515-3.61-6.08-3.61-10.694 0-4.547 1.171-8.161 3.512-10.843 2.341-2.698 5.402-4.047 9.184-4.047 1.702 0 3.209.25 4.518.75a8.976 8.976 0 013.438 2.348c.982 1.066 1.735 2.373 2.259 3.922.524 1.533.786 3.415.786 5.647v2.548h-19.007c0 3.248.803 5.73 2.407 7.446 1.604 1.715 3.823 2.573 6.655 2.573 1.015 0 2.005-.116 2.971-.35a13.84 13.84 0 002.652-.9 20.58 20.58 0 002.112-1.098 13.7 13.7 0 001.424-1.025h.27v5.122c-.54.217-1.211.491-2.013.825a24.1 24.1 0 01-2.161.75 27.77 27.77 0 01-2.456.574c-.72.133-1.637.2-2.75.2zm5.402-17.715c-.032-1.265-.18-2.356-.442-3.273-.262-.916-.638-1.69-1.129-2.323a5.167 5.167 0 00-2.088-1.599c-.835-.367-1.874-.55-3.118-.55-1.228 0-2.276.192-3.143.575a7.314 7.314 0 00-2.333 1.624 7.78 7.78 0 00-1.572 2.448c-.36.883-.589 1.916-.688 3.098h14.513zM9.69 66.808l3.282-7.203c.434-.945.81-1.57 1.124-1.875.315-.305.727-.457 1.236-.457.495 0 .9.152 1.214.457.33.305.495.701.495 1.19 0 .365-.203.982-.607 1.851l-2.765 6.037h4.001c.974 0 1.656.121 2.046.365.39.229.585.625.585 1.19 0 .761-.33 1.302-.99 1.623-.344.167-1.019.251-2.023.251h-3.732c1.2 2.302 1.799 4.634 1.799 6.997 0 1.875-.338 3.757-1.012 5.647-.674 1.89-1.559 3.575-2.653 5.053-1.094 1.494-2.338 2.698-3.732 3.613-1.378.915-2.742 1.372-4.091 1.372-1.124 0-2.046-.35-2.765-1.052C.367 91.181 0 90.305 0 89.237c0-.533.082-1.066.247-1.6.165-.518.517-1.38 1.057-2.584l6.812-14.816H6.834c-.959 0-1.603-.099-1.933-.297-.48-.29-.72-.724-.72-1.303 0-.32.09-.625.27-.915a1.71 1.71 0 01.742-.686c.36-.152 1.034-.228 2.024-.228h2.472zm1.079 6.333l-5.8 12.667c-.465 1.006-.757 1.661-.877 1.966-.105.32-.158.58-.158.778 0 .457.218.686.652.686.72 0 1.694-.686 2.923-2.058 1.214-1.387 2.188-3.003 2.922-4.848.75-1.86 1.124-3.604 1.124-5.235 0-.671-.06-1.311-.18-1.921a11.776 11.776 0 00-.607-2.035zM26.528 81.6l-.315.184c-1.169.7-2.136 1.189-2.9 1.463a6.748 6.748 0 01-2.293.412c-1.05 0-1.896-.313-2.54-.938-.645-.625-.967-1.44-.967-2.446 0-.884.427-2.256 1.281-4.116l3.35-7.34c.42-.914.787-1.531 1.102-1.852.33-.32.749-.48 1.259-.48.51 0 .921.153 1.236.458.315.305.472.693.472 1.166 0 .35-.202.975-.607 1.875l-2.99 6.539-.202.411c-.51 1.083-.765 1.814-.765 2.195 0 .458.225.686.675.686.464 0 1.034-.205 1.708-.617.69-.412 1.574-1.075 2.653-1.99l3.845-8.39c.42-.915.787-1.532 1.101-1.852.33-.32.75-.48 1.26-.48.509 0 .92.152 1.236.457.314.305.472.693.472 1.166 0 .35-.203.975-.607 1.875l-3.305 7.225-.292.594c-.315.701-.472 1.159-.472 1.372 0 .183.075.35.224.503.165.137.33.206.495.206.75 0 2.188-.915 4.316-2.744.72-.64 1.312-.96 1.776-.96.435 0 .802.145 1.102.434.3.275.45.618.45 1.03 0 .73-.742 1.707-2.226 2.926a15.107 15.107 0 01-3.53 2.24c-1.259.565-2.338.847-3.237.847-.674 0-1.236-.16-1.686-.48-.435-.336-.794-.862-1.08-1.578zm3.395-21.4c0 .777-.225 1.425-.675 1.943-.434.503-1.004.755-1.708.755-.585 0-1.057-.183-1.417-.55-.36-.365-.54-.845-.54-1.44 0-.716.233-1.318.698-1.806a2.331 2.331 0 011.753-.754c.57 0 1.027.167 1.372.503.344.335.517.785.517 1.349zm8.408 0c0 .777-.225 1.425-.675 1.943-.434.503-1.004.755-1.708.755-.585 0-1.057-.183-1.417-.55-.36-.365-.54-.845-.54-1.44 0-.716.233-1.318.698-1.806a2.331 2.331 0 011.753-.754c.57 0 1.027.167 1.371.503.345.335.518.785.518 1.349z" fill="#000"/><path d="M41.388 66.808a4.65 4.65 0 01.472-.023c1.244 0 2.24.32 2.99.96.765.625 1.147 1.448 1.147 2.47 0 .822-.255 1.623-.765 2.4-.494.778-1.386 1.776-2.675 2.995l-1.776 1.67c-.93.853-1.394 1.524-1.394 2.011 0 .29.105.519.315.687.21.167.487.251.832.251.704 0 1.716-.282 3.035-.846a26.985 26.985 0 003.911-2.08c.735-.458 1.215-.74 1.44-.847.224-.106.464-.16.719-.16.42 0 .764.153 1.034.458.285.29.427.655.427 1.097 0 .488-.21.96-.63 1.418-.42.457-1.139.998-2.158 1.623-1.618.976-3.117 1.684-4.496 2.126-1.364.427-2.713.64-4.047.64-1.498 0-2.682-.342-3.552-1.028-.854-.686-1.281-1.616-1.281-2.79 0-1.067.457-2.134 1.371-3.2.72-.793 1.806-1.853 3.26-3.179 1.034-.93 1.649-1.517 1.843-1.76.21-.244.315-.511.315-.8 0-.351-.135-.595-.404-.732-.27-.138-.727-.214-1.372-.23-.314.733-.637 1.25-.966 1.556-.33.305-.735.457-1.214.457-.495 0-.907-.152-1.237-.457-.315-.32-.472-.724-.472-1.212 0-.35.195-.96.584-1.83l1.304-2.812c.45-.96.825-1.585 1.124-1.875.3-.304.705-.457 1.214-.457.48 0 .885.153 1.215.458.33.304.494.7.494 1.188 0 .351-.18.915-.54 1.692l-.067.16z" fill="#000"/></svg>