<svg xmlns="http://www.w3.org/2000/svg" viewBox="0 0 482.9 110"><path d="M12.5 45.4v-38h23.8v4.5H17.5v10.4H35v4.5H17.5v14.1h18.7v4.5H12.5zm50.1 0h-4.8V29.1c0-1.3-.1-2.5-.2-3.7-.1-1.1-.4-2-.7-2.7-.4-.7-.9-1.2-1.6-1.6-.7-.3-1.7-.5-2.9-.5s-2.4.3-3.7 1-2.5 1.5-3.7 2.5v21.3h-4.8V16.8H45V20c1.4-1.3 2.8-2.3 4.2-2.9 1.4-.7 2.9-1 4.4-1 2.8 0 5 .9 6.6 2.8 1.6 1.8 2.4 4.5 2.4 8v18.5zm13.2.7c-1.9 0-3.7-.3-5.4-.8-1.7-.5-3-1.1-4.1-1.6v-5.4h.3c.4.3.9.7 1.4 1.1.6.4 1.3.8 2.2 1.2.8.4 1.7.7 2.7 1 1 .3 2 .4 3.1.4.8 0 1.6-.1 2.5-.3s1.5-.4 1.9-.7c.6-.4 1-.8 1.3-1.3.3-.4.4-1.1.4-2 0-1.1-.3-2-.9-2.6-.6-.6-1.7-1.1-3.3-1.5-.6-.2-1.4-.3-2.4-.5s-1.9-.4-2.7-.7c-2.2-.6-3.8-1.6-4.8-2.9-1-1.3-1.5-2.9-1.5-4.8 0-2.6 1-4.7 2.9-6.3 1.9-1.6 4.5-2.4 7.7-2.4 1.6 0 3.2.2 4.8.6 1.6.4 2.9.9 4 1.5v5.1h-.3c-1.2-1-2.6-1.7-4.1-2.3-1.5-.6-3-.8-4.6-.8-1.6 0-2.9.3-4 1s-1.6 1.7-1.6 3c0 1.2.3 2.1 1 2.7.6.6 1.7 1.1 3.1 1.4.7.2 1.5.4 2.4.5.9.2 1.8.4 2.8.6 2.1.5 3.7 1.4 4.8 2.6s1.6 2.9 1.6 5c0 1.2-.2 2.4-.7 3.5-.5 1.1-1.2 2-2.1 2.8-1 .9-2.2 1.5-3.5 1.9s-3 1-4.9 1zm26.7-.1c-4.5 0-8.1-1.3-10.6-3.8-2.5-2.6-3.8-6.2-3.8-10.9 0-4.6 1.2-8.3 3.7-11.1 2.4-2.8 5.6-4.1 9.6-4.1 1.8 0 3.3.3 4.7.8 1.4.5 2.6 1.3 3.6 2.4 1 1.1 1.8 2.4 2.4 4s.8 3.5.8 5.8v2.6H93c0 3.3.8 5.9 2.5 7.6 1.7 1.8 4 2.6 6.9 2.6 1.1 0 2.1-.1 3.1-.4 1-.2 1.9-.5 2.7-.9.9-.4 1.6-.8 2.2-1.1.6-.4 1.1-.7 1.5-1h.3v5.2c-.6.2-1.3.5-2.1.8-.8.3-1.6.6-2.2.8-.9.3-1.8.5-2.5.6-.8.1-1.7.1-2.9.1zm5.6-18.1c0-1.3-.2-2.4-.5-3.3-.3-.9-.7-1.7-1.2-2.4-.6-.7-1.3-1.3-2.2-1.6-.9-.4-2-.6-3.3-.6-1.3 0-2.4.2-3.3.6-.9.4-1.7.9-2.4 1.7-.7.7-1.3 1.6-1.6 2.5-.4.9-.6 2-.7 3.2h15.2zm40.6 17.5V28.9c0-1.3-.1-2.5-.2-3.6s-.3-2-.6-2.6c-.3-.7-.8-1.2-1.5-1.5-.6-.3-1.5-.5-2.6-.5-1 0-2 .3-3.2.9-1.1.6-2.3 1.5-3.5 2.6 0 .3 0 .6.1 1v20.2h-4.8V28.9c0-1.3-.1-2.5-.2-3.6s-.3-2-.6-2.6c-.3-.7-.8-1.2-1.5-1.5-.6-.3-1.5-.5-2.6-.5-1 0-2.1.3-3.3 1-1.1.6-2.2 1.5-3.3 2.5v21.3h-4.8V16.8h4.8V20c1.3-1.3 2.5-2.2 3.7-2.9 1.2-.7 2.6-1 4.1-1 1.7 0 3.2.4 4.5 1.1s2.3 2 3 3.8c1.4-1.6 2.9-2.8 4.2-3.7 1.4-.8 2.9-1.3 4.5-1.3 1.2 0 2.3.2 3.3.6 1 .4 1.9 1 2.6 1.9.8.9 1.4 2 1.8 3.2s.6 2.9.6 4.9v18.8h-4.5zM183 30.6c0 4.7-1.1 8.4-3.4 11.3-2.3 2.8-5.1 4.3-8.5 4.3-1.5 0-2.9-.2-4-.6-1.1-.4-2.2-.9-3.3-1.5l-.3 1.3H159V5.6h4.8v14.2c1.2-1.1 2.5-2 3.9-2.7 1.4-.7 3-1.1 4.8-1.1 3.2 0 5.8 1.3 7.6 3.9 1.9 2.6 2.9 6.2 2.9 10.7zm-5 .4c0-3.4-.5-6-1.6-7.8s-2.7-2.6-5-2.6c-1.3 0-2.6.3-4 .9-1.3.6-2.6 1.4-3.6 2.3v16.4c1.2.6 2.3 1 3.2 1.3s2 .4 3.1.4c2.5 0 4.4-.9 5.8-2.6 1.4-1.8 2.1-4.5 2.1-8.3zm13.6 14.4h-4.8V5.6h4.8v39.8zm18.2.6c-4.5 0-8.1-1.3-10.6-3.8-2.5-2.6-3.8-6.2-3.8-10.9 0-4.6 1.2-8.3 3.7-11.1 2.4-2.8 5.6-4.1 9.6-4.1 1.8 0 3.3.3 4.7.8 1.4.5 2.6 1.3 3.6 2.4 1 1.1 1.8 2.4 2.4 4s.8 3.5.8 5.8v2.6h-19.8c0 3.3.8 5.9 2.5 7.6 1.7 1.8 4 2.6 6.9 2.6 1.1 0 2.1-.1 3.1-.4 1-.2 1.9-.5 2.7-.9.9-.4 1.6-.8 2.2-1.1.6-.4 1.1-.7 1.5-1h.3v5.2c-.6.2-1.3.5-2.1.8-.8.3-1.6.6-2.2.8-.9.3-1.8.5-2.5.6-.9.1-1.9.1-3 .1zm5.6-18.1c0-1.3-.2-2.4-.5-3.3-.3-.9-.7-1.7-1.2-2.4-.6-.7-1.3-1.3-2.2-1.6-.9-.4-2-.6-3.3-.6-1.3 0-2.4.2-3.3.6-.9.4-1.7.9-2.4 1.7-.7.7-1.3 1.6-1.6 2.5-.4.9-.6 2-.7 3.2h15.2zM13 73.4l3.4-7.3c.4-1 .8-1.6 1.2-1.9.3-.3.8-.5 1.3-.5s.9.2 1.3.5c.3.3.5.7.5 1.2 0 .4-.2 1-.6 1.9l-2.9 6.1h4.1c1 0 1.7.1 2.1.4.4.2.6.6.6 1.2 0 .8-.3 1.3-1 1.6-.4.2-1.1.3-2.1.3H17c1.2 2.3 1.9 4.7 1.9 7.1 0 1.9-.3 3.8-1 5.7-.7 1.9-1.6 3.6-2.7 5.1-1.1 1.5-2.4 2.7-3.8 3.7-1.4.9-2.8 1.4-4.2 1.4-1.2 0-2.1-.4-2.9-1.1-.9-.6-1.3-1.5-1.3-2.6 0-.5.1-1.1.3-1.6.2-.5.5-1.4 1.1-2.6l7-15h-1.3c-1 0-1.7-.1-2-.3-.5-.3-.7-.7-.7-1.3 0-.3.1-.6.3-.9s.4-.5.8-.7c.4-.2 1.1-.2 2.1-.2H13zm1.1 6.5l-6 12.9c-.5 1-.8 1.7-.9 2-.1.3-.2.6-.2.8 0 .5.2.7.7.7.7 0 1.7-.7 3-2.1 1.3-1.4 2.3-3.1 3-4.9.8-1.9 1.1-3.6 1.1-5.3 0-.7-.1-1.3-.2-2 0-.7-.2-1.4-.5-2.1zm16.3 8.5l-.3.2c-1.2.7-2.2 1.2-3 1.5-.8.3-1.6.4-2.4.4-1.1 0-2-.3-2.6-1-.7-.6-1-1.5-1-2.5 0-.9.4-2.3 1.3-4.2l3.5-7.4c.4-.9.8-1.6 1.1-1.9.3-.3.8-.5 1.3-.5s1 .2 1.3.5c.3.3.5.7.5 1.2 0 .4-.2 1-.6 1.9l-3.1 6.6-.2.4c-.5 1.1-.8 1.8-.8 2.2 0 .5.2.7.7.7.5 0 1.1-.2 1.8-.6.7-.4 1.6-1.1 2.7-2l4-8.5c.4-.9.8-1.6 1.1-1.9.3-.3.8-.5 1.3-.5s1 .2 1.3.5c.3.3.5.7.5 1.2 0 .4-.2 1-.6 1.9L34.7 84l-.3.6c-.3.7-.5 1.2-.5 1.4 0 .2.1.4.2.5.2.1.3.2.5.2.8 0 2.3-.9 4.5-2.8.7-.6 1.4-1 1.8-1 .4 0 .8.1 1.1.4s.5.6.5 1.1c0 .7-.8 1.7-2.3 3-1.1.9-2.3 1.7-3.6 2.3-1.3.6-2.4.9-3.4.9-.7 0-1.3-.2-1.7-.5-.4-.4-.8-.9-1.1-1.7zm3.5-21.7c0 .8-.2 1.4-.7 2-.5.5-1 .8-1.8.8-.6 0-1.1-.2-1.5-.6-.4-.4-.6-.9-.6-1.5 0-.7.2-1.3.7-1.8.5-.5 1.1-.8 1.8-.8.6 0 1.1.2 1.4.5.5.4.7.9.7 1.4zm8.7 0c0 .8-.2 1.4-.7 2-.5.5-1 .8-1.8.8-.6 0-1.1-.2-1.5-.6-.4-.4-.6-.9-.6-1.5 0-.7.2-1.3.7-1.8.5-.5 1.1-.8 1.8-.8.6 0 1.1.2 1.4.5.5.4.7.9.7 1.4z"/><path d="M45.7 73.4h.5c1.3 0 2.3.3 3.1 1 .8.6 1.2 1.5 1.2 2.5 0 .8-.3 1.6-.8 2.4-.5.8-1.4 1.8-2.8 3L45.1 84c-1 .9-1.4 1.5-1.4 2 0 .3.1.5.3.7.2.2.5.3.9.3.7 0 1.8-.3 3.1-.9s2.7-1.3 4-2.1c.8-.5 1.3-.8 1.5-.9.2-.1.5-.2.7-.2.4 0 .8.2 1.1.5.3.3.4.7.4 1.1 0 .5-.2 1-.6 1.4-.4.5-1.2 1-2.2 1.6-1.7 1-3.2 1.7-4.6 2.1-1.4.4-2.8.7-4.2.7-1.5 0-2.8-.3-3.7-1s-1.3-1.6-1.3-2.8c0-1.1.5-2.2 1.4-3.2.7-.8 1.9-1.9 3.4-3.2 1.1-.9 1.7-1.5 1.9-1.8.2-.2.3-.5.3-.8 0-.4-.1-.6-.4-.7-.3-.1-.8-.2-1.4-.2-.3.7-.7 1.3-1 1.6-.3.3-.8.5-1.3.5s-.9-.2-1.3-.5-.5-.7-.5-1.2c0-.4.2-1 .6-1.9l1.3-2.9c.5-1 .9-1.6 1.2-1.9.3-.3.7-.5 1.3-.5.5 0 .9.2 1.3.5.3.3.5.7.5 1.2 0 .4-.2.9-.6 1.7l-.1.2zm22.2 11.9l.6 1.1c.2.2.6.4 1 .6.4.2.9.4 1.5.6.6.2 1.1.3 1.8.4.6.1 1.2.1 1.8.1 2.8 0 4.9-.5 6.4-1.6s2.3-2.6 2.3-4.7c0-1.2-.3-2.3-1-3.2-.7-.9-1.5-1.7-2.5-2.4s-2.1-1.4-3.3-2.1c-1.2-.7-2.3-1.4-3.3-2.2-1-.8-1.9-1.7-2.5-2.8-.7-1-1-2.3-1-3.8 0-2.9 1.1-5.1 3.3-6.7 2.2-1.6 5.4-2.3 9.6-2.3 2.2 0 4 .2 5.4.5s2.6.7 3.7 1.2c-.1.5-.2.9-.3 1.3-.1.4-.2.8-.3 1.3l-.3 1.5c-.3 1.2-.5 2.6-.9 4h-3l1-5.1-.5-1.2c-.5-.3-1.3-.5-2.3-.6-1-.1-2.1-.2-3.2-.2-2.4 0-4.1.5-5.2 1.4-1.1 1-1.7 2.1-1.7 3.4 0 1.1.3 2.1 1 2.9.7.8 1.5 1.6 2.5 2.3 1 .7 2.1 1.4 3.3 2.1 1.2.7 2.3 1.4 3.3 2.3 1 .8 1.9 1.8 2.5 2.9.7 1.1 1 2.4 1 3.9 0 1.6-.3 3-1 4.3-.6 1.4-1.6 2.5-2.8 3.4-1.2.9-2.7 1.6-4.5 2.1-1.8.5-3.9.8-6.2.8-1.1 0-2.2-.1-3.2-.2-1-.2-2-.4-2.8-.6-.9-.3-1.6-.5-2.3-.8-.6-.3-1.2-.6-1.5-.9l1.8-8.7h3l-1.2 5.7zm26.3-17.5h-2.9v-2.6h7.1l3.7 19.8v2.6h.4l1.3-2.5c.5-1.2 1.1-2.4 1.7-3.8.6-1.3 1.1-2.7 1.7-4 .6-1.3 1.1-2.6 1.5-3.9.5-1.3.9-2.5 1.2-3.6l-1.4-4.6h5.9v2.6c-.5 1.4-1.1 3-1.9 4.9s-1.6 3.8-2.5 5.8c-.9 2-1.8 4.1-2.9 6.2-1 2.1-2 4.1-3.1 6-1 1.9-2.1 3.6-3.1 5.2s-2 2.9-2.9 3.9h-5.5v-4.6H98c.5-.5.9-1.2 1.4-1.9.5-.7.9-1.7 1.4-3.1h-2.3l-4.3-22.4zm38.6 8.2c.3-1 .5-2 .7-2.9.2-.9.3-1.8.3-2.6 0-.7-.2-1.4-.6-1.9s-.9-.8-1.7-.8c-.9 0-1.9.2-2.7.6s-1.7.8-2.4 1.4-1.4 1.1-1.9 1.7c-.6.6-1 1.1-1.3 1.6l-3.7 17.1h-4.7l4.7-22.4h-3.3v-2.6h8.5l-1.1 4.9h.2c1.3-1.6 2.8-2.9 4.5-3.9s3.4-1.5 5.3-1.5c1.7 0 2.9.4 3.7 1.3.7.8 1.1 1.9 1.1 3.3 0 .7-.1 1.6-.3 2.8-.2 1.1-.4 2.1-.6 3.1l-3 12.5h3.9v2.6h-8.8l3.2-14.3zm18.3 2.4h-1.9l-2.4 11.8h-4.7l6.9-33.1h-3.5v-2.6h8.6l-4.5 21.9h1.5l7.6-7.6v-3.7h6.3v2l-10 8.7 6.5 11.6h2.8V90h-6.9l-6.3-11.6zm29.7-8.6c-.3.1-.7.2-1.1.3s-.9.3-1.4.5c-.5.2-1 .4-1.5.8s-1 .7-1.5 1.2l-3.9 17.7h-4.7l4.9-22.4h-3.3v-2.6h8.4l-1.1 4.8h.2c.6-1 1.4-1.9 2.3-2.9s1.8-1.6 2.6-2h3.8v4.6h-3.7zm23.1 15.8c-.3.6-.8 1.3-1.4 1.9-.6.6-1.3 1.1-2.1 1.6s-1.7.9-2.8 1.1-2.1.4-3.3.4c-2.7 0-4.9-.8-6.5-2.3-1.6-1.5-2.4-3.7-2.4-6.5 0-2.4.3-4.6 1-6.7.7-2.1 1.7-3.9 2.9-5.4 1.3-1.5 2.8-2.7 4.6-3.6 1.8-.9 3.8-1.4 6-1.4.9 0 1.7.1 2.4.3.8.2 1.4.5 2 .9s1 .9 1.3 1.5c.3.6.5 1.3.5 2.1 0 2.3-1.2 4.1-3.6 5.5-2.4 1.4-6.4 2.3-11.8 2.7-.1.6-.2 1.1-.3 1.6s-.1 1-.1 1.5c0 2 .5 3.6 1.5 4.8s2.5 1.8 4.5 1.8c.6 0 1.3-.1 1.9-.3.6-.2 1.2-.4 1.8-.7s1.1-.6 1.5-1c.5-.4.8-.7 1.1-1.1l1.3 1.3zM198.3 67c-1.5 0-2.9.7-4.1 2-1.2 1.3-2.3 3.5-3.2 6.6 3.4-.1 5.9-.6 7.7-1.7 1.8-1 2.7-2.4 2.7-4.1 0-.3 0-.7-.1-1-.1-.3-.3-.6-.5-.9-.2-.3-.6-.5-1-.6-.3-.2-.8-.3-1.5-.3zm10.3-1.7h5l1.4-5.5h4.4l-1.3 5.5h6.5v2.6h-7L214 82.2c-.2.6-.3 1.2-.3 1.7-.1.5-.1 1-.1 1.6 0 1.5.8 2.2 2.5 2.2.9 0 1.8-.2 2.9-.6 1.1-.4 2-1 2.9-1.7l1 1.9c-.3.4-.8.8-1.4 1.2-.6.4-1.3.8-2.1 1.1s-1.7.6-2.6.8c-1 .2-1.9.3-2.9.3-1.6 0-2.8-.4-3.6-1.1-.9-.8-1.3-1.7-1.3-2.9v-1.6c0-.6.1-1.1.3-1.7l3.9-15.5h-4.4v-2.6zm18.5 2.5v-2.6h8.6l-4.9 22.4h3.8v2.6h-9.2l5.1-22.4h-3.4zm3.2-10.2c0-.9.3-1.6 1-2.2.6-.5 1.5-.8 2.5-.8 1.1 0 1.9.3 2.5.8.6.5.9 1.3.9 2.2s-.3 1.6-.9 2.2c-.6.5-1.5.8-2.5.8s-1.8-.3-2.5-.8-1-1.3-1-2.2zm15.3 30.5c.6 0 1.2-.1 1.8-.2.6-.1 1.2-.3 1.8-.6.5-.3 1-.7 1.3-1.2s.5-1.1.5-1.9c0-.8-.2-1.5-.7-2.1-.5-.6-1.1-1.2-1.8-1.7-.7-.6-1.5-1.1-2.4-1.7-.9-.6-1.7-1.2-2.4-1.8s-1.3-1.4-1.8-2.2c-.5-.8-.7-1.8-.7-2.9 0-1.2.3-2.2.8-3.1.5-.9 1.3-1.6 2.2-2.2.9-.6 2-1 3.3-1.3s2.6-.5 4-.5c.7 0 1.3 0 2 .1.6.1 1.3.2 1.8.4.6.1 1 .3 1.4.5.4.2.7.4.9.5l-1.4 5.6h-3l.8-3.9c-.3-.2-.7-.3-1.3-.5-.6-.1-1.2-.2-1.7-.2s-1 0-1.6.1c-.6.1-1.1.2-1.6.5-.5.2-.9.6-1.2 1s-.5 1-.5 1.7c0 .9.2 1.6.7 2.2s1.1 1.2 1.9 1.8c.8.5 1.6 1.1 2.4 1.6.9.5 1.7 1.1 2.4 1.8.8.6 1.4 1.4 1.9 2.2.5.8.7 1.8.7 3s-.3 2.3-1 3.2c-.6.9-1.5 1.7-2.5 2.3-1 .6-2.3 1.1-3.6 1.4-1.4.3-2.8.5-4.3.5-.8 0-1.6-.1-2.4-.2-.8-.2-1.6-.4-2.2-.6-.7-.2-1.3-.5-1.8-.8-.5-.3-.8-.5-1-.7l1.8-5.7h3.2l-1.2 3.9c.3.3.9.7 1.7 1 .7.6 1.6.7 2.8.7zm33.3-2.6c-.9 1.6-2.2 2.9-3.8 3.8-1.7.9-3.7 1.4-6.1 1.4-1.4 0-2.6-.2-3.7-.7-1.1-.5-2-1.1-2.8-2s-1.3-1.8-1.7-2.9c-.4-1.1-.6-2.3-.6-3.5 0-2.5.3-4.7 1-6.8s1.6-3.8 2.9-5.3c1.3-1.5 2.9-2.6 4.7-3.4 1.8-.8 3.9-1.2 6.3-1.2 1.3 0 2.6.2 3.7.5s2 .8 2.4 1.3l-1.4 5.7h-3.4l1-4.3c-.3-.2-.7-.4-1.3-.5-.6-.1-1.1-.1-1.6-.1-1.4 0-2.7.3-3.9.9-1.2.6-2.2 1.5-3 2.6-.8 1.1-1.5 2.4-1.9 4-.4 1.6-.7 3.3-.7 5.3 0 2.3.5 4.1 1.6 5.4 1.1 1.3 2.4 2 4.2 2 1.4 0 2.7-.3 3.8-.9 1.1-.6 2-1.4 2.7-2.3l1.6 1zm5.8-28.4v-2.6h8.7L290 69.2h.3c1.2-1.2 2.5-2.3 4-3.2 1.5-.9 3.3-1.3 5.3-1.3 3.2 0 4.8 1.9 4.8 5.7 0 .9-.1 1.9-.3 2.9l-.6 3-2.9 11.3h4v2.6h-8.9l3-13c.3-1 .5-2 .7-2.9.2-.9.3-1.8.3-2.6 0-1.2-.2-2.1-.7-2.8-.5-.7-1.2-1-2.2-1-.7 0-1.4.1-2.1.3-.7.2-1.4.5-2 .8-.6.3-1.2.7-1.7 1.1-.5.4-1 .8-1.4 1.2l-3.9 18.8H281l7-33.1h-3.3zm42.7 28.5c-.3.6-.8 1.3-1.4 1.9-.6.6-1.3 1.1-2.1 1.6s-1.7.9-2.8 1.1-2.1.4-3.3.4c-2.7 0-4.9-.8-6.5-2.3-1.6-1.5-2.4-3.7-2.4-6.5 0-2.4.3-4.6 1-6.7.7-2.1 1.7-3.9 2.9-5.4 1.3-1.5 2.8-2.7 4.6-3.6 1.8-.9 3.8-1.4 6-1.4.9 0 1.7.1 2.4.3.8.2 1.4.5 2 .9s1 .9 1.3 1.5c.3.6.5 1.3.5 2.1 0 2.3-1.2 4.1-3.6 5.5-2.4 1.4-6.4 2.3-11.8 2.7-.1.6-.2 1.1-.3 1.6s-.1 1-.1 1.5c0 2 .5 3.6 1.5 4.8s2.5 1.8 4.5 1.8c.6 0 1.3-.1 1.9-.3.6-.2 1.2-.4 1.8-.7s1.1-.6 1.5-1c.5-.4.8-.7 1.1-1.1l1.3 1.3zM321.7 67c-1.5 0-2.9.7-4.1 2-1.2 1.3-2.3 3.5-3.2 6.6 3.4-.1 5.9-.6 7.7-1.7 1.8-1 2.7-2.4 2.7-4.1 0-.3 0-.7-.1-1-.1-.3-.3-.6-.5-.9-.2-.3-.6-.5-1-.6-.3-.2-.8-.3-1.5-.3zm52.2 23.2h-4.6V60.4l-9 20.3h-2.8l-8.9-20.3v29.8h-4.3V55.7h6.3l8.6 19.2 8.3-19.2h6.4v34.5zm17.9.7c-2 0-3.8-.3-5.3-.8s-2.8-1.3-3.9-2.4c-1.2-1.2-2.1-2.6-2.6-4.3-.5-1.7-.7-3.7-.7-6.2V55.7h4.6v21.6c0 1.6.1 2.9.3 4 .2 1.1.6 2.1 1.2 2.9.6.9 1.5 1.6 2.5 2.1 1.1.5 2.4.7 3.9.7 1.4 0 2.7-.2 3.8-.7 1.1-.5 2-1.2 2.6-2.1.6-.9 1-1.9 1.2-2.9.2-1.1.3-2.4.3-3.9V55.7h4.6v21.6c0 2.4-.2 4.5-.7 6.2-.5 1.7-1.3 3.2-2.6 4.4-1.1 1.1-2.4 1.9-3.8 2.4-1.5.4-3.2.6-5.4.6zm27.6-.1c-2.5 0-4.6-.3-6.4-.8-1.8-.5-3.4-1.2-5-1.9v-5.8h.3c1.5 1.4 3.2 2.5 5.2 3.3 1.9.8 3.8 1.2 5.5 1.2 2.5 0 4.5-.5 5.8-1.6 1.3-1.1 1.9-2.5 1.9-4.2 0-1.4-.3-2.5-1-3.4-.7-.9-1.8-1.5-3.2-1.9-1.1-.3-2-.6-2.9-.8s-2-.5-3.3-.8c-1.2-.3-2.3-.7-3.2-1.2-.9-.5-1.8-1.1-2.5-1.9-.7-.8-1.3-1.7-1.7-2.7s-.6-2.2-.6-3.6c0-2.8 1.1-5.1 3.3-7 2.2-1.9 5-2.8 8.4-2.8 1.9 0 3.8.2 5.5.6 1.7.4 3.3.9 4.8 1.6v5.5h-.3c-1.1-1-2.5-1.9-4.2-2.6-1.7-.8-3.5-1.1-5.4-1.1-2.1 0-3.9.5-5.2 1.5-1.3 1-2 2.3-2 3.9 0 1.5.4 2.6 1.2 3.5.8.9 1.9 1.5 3.4 1.9 1 .3 2.2.6 3.6.9 1.4.3 2.6.6 3.5.9 2.4.7 4.1 1.8 5.2 3.3s1.6 3.3 1.6 5.4c0 1.3-.3 2.7-.8 4-.5 1.3-1.3 2.4-2.3 3.3-1.1 1-2.4 1.8-3.8 2.3s-3.3 1-5.4 1zm27.8-.6h-13.4v-3.5h4.4V59.2h-4.4v-3.5h13.4v3.5h-4.4v27.5h4.4v3.5zm29.6 0h-6l-12.6-16.1-2 2.3v13.8h-4.6V55.7h4.6v15.9l14.2-15.9h5.6l-14.3 15.4 15.1 19.1z"/></svg>