<svg width="275" height="93" fill="none" xmlns="http://www.w3.org/2000/svg"><path d="M.089 40.195V.726h3.845v36.29H25.76v3.179H.09zM48.91 25.284a17.047 17.047 0 01-4.354 1.152 90.04 90.04 0 01-4.41.438c-2.602.183-4.638.75-6.108 1.7-1.432.95-2.148 2.393-2.148 4.33 0 .877.17 1.644.508 2.302a5.8 5.8 0 001.414 1.59 7.339 7.339 0 002.036.932 10.53 10.53 0 002.375.274 15.86 15.86 0 003.958-.493c1.282-.33 2.413-.823 3.393-1.48a8.032 8.032 0 002.431-2.577c.603-1.06.905-2.302.905-3.727v-4.44zm-5.711-1.644c.64-.073 1.395-.183 2.262-.33.904-.145 1.64-.346 2.205-.602.565-.256.905-.676 1.018-1.26a7.26 7.26 0 00.226-1.7c0-1.681-.566-3.052-1.696-4.112-1.094-1.096-2.96-1.644-5.599-1.644-1.168 0-2.242.11-3.223.329-.98.183-1.847.53-2.6 1.041-.717.476-1.32 1.133-1.81 1.974-.453.804-.754 1.827-.905 3.07h-3.45c.114-1.681.51-3.107 1.188-4.276.679-1.206 1.546-2.174 2.601-2.905 1.094-.768 2.338-1.316 3.732-1.645a18.238 18.238 0 014.524-.548c1.47 0 2.846.164 4.128.493 1.32.293 2.45.786 3.393 1.48.98.658 1.734 1.553 2.262 2.686.565 1.133.848 2.522.848 4.167v15.458c0 1.279.226 2.101.678 2.467.49.329 1.451.237 2.884-.274v2.576l-1.187.329c-.49.146-.98.22-1.47.22a6.976 6.976 0 01-1.527-.165c-.566-.073-1.018-.238-1.357-.494a4.256 4.256 0 01-.849-.986 4.92 4.92 0 01-.395-1.261 9.433 9.433 0 01-.114-1.48c-1.432 1.535-3.072 2.704-4.919 3.508-1.847.804-3.845 1.206-5.994 1.206-1.282 0-2.526-.164-3.732-.493a9.102 9.102 0 01-3.11-1.535 7.767 7.767 0 01-2.149-2.522c-.527-1.023-.791-2.229-.791-3.618 0-4.824 3.411-7.674 10.234-8.551l4.694-.603zm32.477 13.375h9.782c2.111 0 3.959-.091 5.542-.274 1.62-.182 3.016-.548 4.184-1.096 1.169-.585 2.111-1.389 2.827-2.412.717-1.06 1.263-2.449 1.64-4.166.34-1.645.34-2.96 0-3.947a4.158 4.158 0 00-1.922-2.357c-.905-.548-2.074-.914-3.506-1.097-1.433-.219-3.054-.329-4.863-.329H79.125l-3.45 15.678zm4.128-18.857h9.726c1.998 0 3.713-.164 5.145-.493 1.433-.33 2.639-.804 3.62-1.425.98-.658 1.752-1.444 2.318-2.358.565-.95.98-2.028 1.244-3.234.263-1.242.282-2.284.056-3.124-.226-.878-.735-1.572-1.527-2.083-.791-.549-1.885-.932-3.28-1.152-1.394-.255-3.147-.383-5.258-.383H82.97l-3.166 14.252zm-8.652 22.037L79.804.726h14.702c2.374 0 4.354.238 5.937.713 1.621.475 2.865 1.151 3.732 2.028a5.925 5.925 0 011.64 3.18c.264 1.205.226 2.54-.113 4.001a11.377 11.377 0 01-1.366 3.49c-.603.987-1.273 1.955-2.027 2.65a10.254 10.254 0 01-2.432 1.59c-.867.365-1.715.62-2.544.767l-.057.11c2.715.402 4.562 1.48 5.542 3.234 1.018 1.754 1.244 3.947.678 6.578-.452 2.046-1.168 3.782-2.148 5.207a11.541 11.541 0 01-3.506 3.454c-1.357.877-2.903 1.517-4.637 1.919-1.696.365-3.506.548-5.428.548H71.152zm51.205.767c-1.884-.036-3.656-.365-5.315-.987a12.197 12.197 0 01-4.297-2.795c-1.207-1.243-2.168-2.796-2.884-4.66-.716-1.864-1.075-4.038-1.075-6.523 0-2.083.283-4.02.849-5.81.565-1.828 1.413-3.418 2.544-4.77 1.131-1.352 2.545-2.412 4.241-3.18 1.697-.803 3.676-1.205 5.937-1.205 2.3 0 4.298.402 5.994 1.206 1.697.767 3.11 1.827 4.241 3.18 1.131 1.315 1.961 2.886 2.488 4.713.566 1.828.848 3.783.848 5.866 0 2.266-.32 4.312-.961 6.14-.641 1.827-1.564 3.398-2.771 4.714-1.168 1.315-2.601 2.339-4.297 3.07-1.659.694-3.506 1.041-5.542 1.041zm9.953-14.965c0-1.681-.189-3.253-.566-4.714-.377-1.462-.961-2.723-1.753-3.783a8.242 8.242 0 00-3.053-2.576c-1.244-.621-2.771-.932-4.581-.932-1.771 0-3.298.347-4.58 1.041a8.526 8.526 0 00-3.053 2.687c-.792 1.096-1.376 2.375-1.753 3.837a17.29 17.29 0 00-.566 4.44c0 1.754.208 3.38.622 4.879.453 1.461 1.094 2.722 1.923 3.782a8.453 8.453 0 003.11 2.467c1.244.585 2.676.877 4.297.877 1.772 0 3.28-.329 4.524-.987 1.282-.694 2.319-1.608 3.11-2.74.792-1.133 1.376-2.413 1.753-3.838.377-1.425.566-2.905.566-4.44zm8.777 14.198V.726h3.393v15.02c1.357-1.389 2.752-2.521 4.184-3.399 1.47-.877 3.223-1.315 5.259-1.315 1.809 0 3.487.31 5.032.932 1.546.585 2.847 1.626 3.902 3.124.716 1.024 1.131 2.083 1.244 3.18.151 1.06.226 2.174.226 3.344v18.583h-3.393V21.666c0-2.558-.584-4.476-1.752-5.755-1.169-1.28-3.11-1.919-5.825-1.919-1.055 0-2.016.164-2.883.493a8.995 8.995 0 00-2.375 1.206 8.695 8.695 0 00-1.753 1.754 8.063 8.063 0 00-1.131 2.084c-.339.913-.547 1.79-.622 2.63a30.604 30.604 0 00-.113 2.742v15.294h-3.393zm52.318-16.171c.301-1.39.377-2.687.226-3.893-.113-1.242-.453-2.302-1.018-3.179-.566-.914-1.376-1.626-2.432-2.138-1.055-.548-2.337-.822-3.845-.822s-2.902.274-4.184.822a12.74 12.74 0 00-3.393 2.193 14.742 14.742 0 00-2.657 3.18 17.944 17.944 0 00-1.81 3.837h19.113zm-19.735 2.74c-.339 1.535-.452 2.997-.339 4.386.113 1.352.471 2.54 1.074 3.563.603.987 1.452 1.79 2.545 2.412 1.131.585 2.507.877 4.128.877 2.224 0 4.241-.567 6.05-1.7 1.847-1.132 3.261-2.74 4.241-4.823h3.789a23.678 23.678 0 01-2.489 3.782 16.264 16.264 0 01-3.166 3.015c-1.206.84-2.563 1.498-4.071 1.973-1.508.476-3.186.713-5.033.713-2.337 0-4.279-.384-5.824-1.151-1.508-.767-2.677-1.809-3.506-3.125-.792-1.352-1.244-2.923-1.357-4.714-.113-1.827.056-3.782.509-5.865a21.232 21.232 0 012.205-5.866c1.018-1.827 2.243-3.417 3.676-4.769a16.509 16.509 0 014.919-3.234c1.847-.804 3.826-1.206 5.937-1.206 4.034 0 6.899 1.352 8.595 4.056 1.734 2.668 2.017 6.56.849 11.676H173.67zm8.369-25.654h4.41l4.581 7.62h-2.884l-6.107-7.62zm23.875 39.085h-3.393V11.799h3.393v4.276h.113c.867-1.644 2.111-2.887 3.732-3.727 1.621-.878 3.393-1.316 5.315-1.316 1.358 0 2.507.146 3.45.438.942.293 1.734.695 2.375 1.206a5.922 5.922 0 011.639 1.7c.453.658.83 1.37 1.131 2.138.981-1.864 2.281-3.235 3.902-4.112 1.659-.913 3.544-1.37 5.655-1.37 1.998 0 3.581.329 4.749.987 1.207.62 2.13 1.461 2.771 2.521.641 1.023 1.056 2.211 1.244 3.563.226 1.352.339 2.741.339 4.166v17.926h-3.392V20.57c0-2.046-.453-3.654-1.357-4.824-.867-1.17-2.507-1.754-4.92-1.754-1.244 0-2.45.274-3.619.822-1.131.512-2.13 1.316-2.997 2.412a6.772 6.772 0 00-.961 1.7 15.08 15.08 0 00-.565 1.973 20.073 20.073 0 00-.34 2.083 36.289 36.289 0 00-.056 1.919v15.294h-3.393V20.57c0-2.046-.452-3.654-1.357-4.824-.867-1.17-2.507-1.754-4.92-1.754-1.244 0-2.45.274-3.619.822-1.13.512-2.129 1.316-2.996 2.412a6.774 6.774 0 00-.962 1.7 15.237 15.237 0 00-.565 1.973 19.805 19.805 0 00-.339 2.083 35.306 35.306 0 00-.057 1.919v15.294zm64.89-16.171c0-1.39-.207-2.687-.622-3.893-.377-1.242-.961-2.302-1.753-3.179-.754-.914-1.715-1.626-2.884-2.138-1.168-.548-2.506-.822-4.014-.822-1.508 0-2.846.274-4.015.822a9.556 9.556 0 00-2.94 2.193 11.305 11.305 0 00-1.923 3.18 14.38 14.38 0 00-.961 3.837h19.112zm-19.112 2.74c0 1.535.207 2.997.622 4.386.414 1.352 1.018 2.54 1.809 3.563.83.987 1.866 1.79 3.11 2.412 1.244.585 2.677.877 4.298.877 2.224 0 4.128-.567 5.711-1.7 1.583-1.132 2.639-2.74 3.166-4.823h3.789a18.046 18.046 0 01-1.64 3.782 12.312 12.312 0 01-2.544 3.015c-1.018.84-2.225 1.498-3.619 1.973-1.395.476-3.016.713-4.863.713-2.337 0-4.354-.384-6.051-1.151-1.696-.767-3.091-1.809-4.184-3.125-1.093-1.352-1.904-2.923-2.432-4.714-.527-1.827-.791-3.782-.791-5.865s.301-4.039.905-5.866c.64-1.827 1.526-3.417 2.657-4.769a12.133 12.133 0 014.241-3.234c1.659-.804 3.544-1.206 5.655-1.206 4.033 0 7.2 1.352 9.499 4.056 2.3 2.668 3.431 6.56 3.393 11.676h-22.731zM1.24 64.862c0-1.94.292-3.693.877-5.26.585-1.604 1.426-2.966 2.522-4.085a10.712 10.712 0 013.947-2.63c1.572-.635 3.308-.952 5.209-.952 1.937 0 3.637.299 5.099.896 1.498.56 2.74 1.324 3.728 2.294a9.255 9.255 0 012.302 3.47c.512 1.343.768 2.76.768 4.253 0 1.753-.292 3.302-.877 4.645a12.033 12.033 0 01-2.248 3.581 16.623 16.623 0 01-3.18 2.798 60.635 60.635 0 01-3.618 2.35 406.716 406.716 0 01-3.674 2.071 24.629 24.629 0 00-3.234 2.126 23.786 23.786 0 00-1.81 1.567 11.969 11.969 0 00-1.59 1.735 8.453 8.453 0 00-1.15 2.127c-.293.746-.458 1.585-.494 2.518h21.546v3.022H.09c.036-1.903.237-3.619.603-5.148.365-1.53 1.17-3.022 2.412-4.477 1.352-1.567 2.741-2.91 4.167-4.03a52.18 52.18 0 014.276-2.966 85.551 85.551 0 013.947-2.406 21.087 21.087 0 003.29-2.406 9.988 9.988 0 002.248-2.91c.548-1.082.822-2.407.822-3.973 0-1.269-.22-2.407-.658-3.414a7.568 7.568 0 00-1.809-2.574 7.231 7.231 0 00-2.686-1.567c-1.024-.373-2.139-.56-3.345-.56-1.279 0-2.449.28-3.509.84a8.756 8.756 0 00-2.686 2.126c-.731.896-1.298 1.94-1.7 3.134-.402 1.194-.566 2.462-.493 3.805H1.24zm53.107 7.108a49.26 49.26 0 00-.383-6.212c-.22-2.052-.677-3.88-1.371-5.484-.695-1.605-1.681-2.892-2.96-3.862-1.243-.97-2.888-1.455-4.935-1.455-1.937 0-3.527.504-4.77 1.511-1.206.97-2.156 2.276-2.85 3.917-.695 1.642-1.189 3.507-1.481 5.597a52.45 52.45 0 00-.384 6.38c0 2.536.146 4.85.439 6.938.329 2.052.859 3.806 1.59 5.26.73 1.456 1.7 2.593 2.906 3.414 1.242.784 2.796 1.175 4.66 1.175 2.083 0 3.746-.522 4.989-1.567 1.28-1.044 2.248-2.387 2.906-4.029.657-1.641 1.096-3.488 1.315-5.54.22-2.052.33-4.066.33-6.044zm-9.54-20.035c1.901 0 3.546.299 4.935.896 1.389.56 2.559 1.343 3.509 2.35a11.608 11.608 0 012.357 3.526 20.484 20.484 0 011.426 4.309 31.53 31.53 0 01.658 4.644c.11 1.605.164 3.172.164 4.701 0 2.612-.183 5.111-.548 7.499-.365 2.388-1.042 4.495-2.029 6.323-.95 1.828-2.266 3.283-3.947 4.365-1.681 1.082-3.856 1.623-6.524 1.623s-4.861-.54-6.58-1.623c-1.68-1.082-3.015-2.537-4.002-4.365-.95-1.865-1.608-4.01-1.973-6.435a52.972 52.972 0 01-.549-7.779c0-2.5.165-4.943.494-7.33.329-2.388.95-4.515 1.864-6.38.95-1.903 2.284-3.432 4.002-4.589 1.718-1.156 3.966-1.735 6.744-1.735zm22.451 12.927c.402-1.94 1.06-3.693 1.974-5.26.913-1.604 2.028-2.966 3.344-4.085a14.308 14.308 0 014.55-2.63c1.682-.635 3.473-.952 5.373-.952 1.938 0 3.582.299 4.935.896 1.389.56 2.467 1.324 3.234 2.294.804.97 1.316 2.127 1.535 3.47.256 1.343.22 2.76-.11 4.253-.365 1.753-.968 3.302-1.808 4.645a17.406 17.406 0 01-2.961 3.581 22.285 22.285 0 01-3.783 2.798 90.181 90.181 0 01-4.112 2.35 419.15 419.15 0 01-4.112 2.071 31.155 31.155 0 00-3.673 2.126 39.9 39.9 0 00-2.193 1.567 14.32 14.32 0 00-1.919 1.735 13.298 13.298 0 00-1.59 2.127 10.347 10.347 0 00-1.042 2.518h21.547l-.603 3.022H60.569c.402-1.903.95-3.619 1.645-5.148.73-1.53 1.864-3.022 3.4-4.477 1.68-1.567 3.362-2.91 5.043-4.03a73.166 73.166 0 014.825-2.966 110.27 110.27 0 014.44-2.406c1.426-.746 2.687-1.548 3.784-2.406a13.313 13.313 0 002.85-2.91c.805-1.082 1.371-2.407 1.7-3.973.256-1.269.256-2.407 0-3.414-.22-1.007-.64-1.865-1.261-2.574-.621-.709-1.407-1.231-2.358-1.567-.95-.373-2.028-.56-3.234-.56a8.41 8.41 0 00-3.674.84 11.659 11.659 0 00-3.124 2.126 13.43 13.43 0 00-2.358 3.134 12.579 12.579 0 00-1.261 3.805h-3.728zm30.863 0c.402-1.94 1.06-3.693 1.974-5.26.914-1.604 2.028-2.966 3.344-4.085a14.31 14.31 0 014.551-2.63c1.681-.635 3.472-.952 5.373-.952 1.937 0 3.582.299 4.934.896 1.389.56 2.467 1.324 3.235 2.294.804.97 1.315 2.127 1.535 3.47.256 1.343.219 2.76-.11 4.253-.365 1.753-.968 3.302-1.809 4.645a17.417 17.417 0 01-2.961 3.581 22.277 22.277 0 01-3.783 2.798 89.97 89.97 0 01-4.112 2.35 412.505 412.505 0 01-4.111 2.071 31.158 31.158 0 00-3.674 2.126 39.9 39.9 0 00-2.193 1.567 14.382 14.382 0 00-1.919 1.735 13.298 13.298 0 00-1.59 2.127 10.347 10.347 0 00-1.041 2.518h21.546l-.603 3.022H91.432c.403-1.903.95-3.619 1.645-5.148.731-1.53 1.864-3.022 3.4-4.477 1.68-1.567 3.362-2.91 5.043-4.03a73.405 73.405 0 014.825-2.966 110.475 110.475 0 014.441-2.406c1.425-.746 2.686-1.548 3.783-2.406a13.327 13.327 0 002.851-2.91c.804-1.082 1.37-2.407 1.699-3.973.256-1.269.256-2.407 0-3.414-.219-1.007-.639-1.865-1.261-2.574-.621-.709-1.407-1.231-2.357-1.567-.95-.373-2.029-.56-3.235-.56-1.279 0-2.504.28-3.673.84a11.654 11.654 0 00-3.125 2.126 13.43 13.43 0 00-2.358 3.134 12.609 12.609 0 00-1.261 3.805h-3.728z" fill="#000"/></svg>