<svg width="370" height="71" fill="none" xmlns="http://www.w3.org/2000/svg"><path d="M2.78 29V1.59h17.138v3.24H6.424v7.51h12.573v3.24H6.424v10.18h13.494V29H2.78zm37.055 0h-3.46V17.292c0-.945-.05-1.822-.148-2.632-.086-.822-.257-1.479-.515-1.97a2.645 2.645 0 00-1.178-1.141c-.503-.258-1.19-.386-2.062-.386-.859 0-1.749.233-2.67.699a13.505 13.505 0 00-2.668 1.786V29h-3.461V8.438h3.46v2.283c1.032-.92 2.05-1.626 3.056-2.117a7.172 7.172 0 013.185-.737c2.025 0 3.608.67 4.75 2.007 1.14 1.325 1.711 3.252 1.711 5.78V29zm10.42.497c-1.375 0-2.664-.184-3.866-.552-1.19-.368-2.179-.761-2.964-1.178v-3.884h.184c.295.233.638.49 1.03.773.406.282.94.577 1.602.883.59.27 1.234.51 1.933.718a7.814 7.814 0 002.21.313c.551 0 1.14-.061 1.766-.184.626-.135 1.093-.3 1.4-.497.429-.282.736-.583.92-.902.196-.32.294-.798.294-1.436 0-.822-.227-1.442-.68-1.86-.443-.416-1.234-.766-2.375-1.048-.442-.11-1.019-.24-1.73-.387a27.419 27.419 0 01-1.97-.479c-1.571-.454-2.712-1.153-3.424-2.098-.712-.957-1.068-2.11-1.068-3.46 0-1.854.7-3.363 2.098-4.53 1.4-1.165 3.259-1.748 5.578-1.748 1.142 0 2.289.141 3.443.423 1.153.283 2.123.639 2.908 1.068v3.7h-.184a10.774 10.774 0 00-2.964-1.657 9.267 9.267 0 00-3.276-.607c-1.142 0-2.105.24-2.89.718-.786.479-1.179 1.203-1.179 2.172 0 .86.233 1.503.7 1.933.466.417 1.215.76 2.246 1.03.515.136 1.086.27 1.712.406.638.122 1.307.27 2.006.442 1.522.38 2.663 1.012 3.424 1.896.773.883 1.16 2.086 1.16 3.608a6.12 6.12 0 01-.534 2.521 5.47 5.47 0 01-1.528 2.025 7.836 7.836 0 01-2.504 1.4c-.92.319-2.08.478-3.479.478zm20.193-.018c-3.276 0-5.823-.92-7.64-2.762-1.803-1.853-2.705-4.479-2.705-7.878 0-3.35.877-6.014 2.632-7.99 1.755-1.988 4.05-2.982 6.885-2.982 1.276 0 2.405.184 3.387.553.982.368 1.84.945 2.577 1.73.736.785 1.3 1.749 1.694 2.89.392 1.13.589 2.516.589 4.16v1.878H63.619c0 2.393.601 4.222 1.804 5.486 1.202 1.264 2.865 1.896 4.988 1.896.761 0 1.504-.086 2.228-.258a10.503 10.503 0 001.988-.663 15.54 15.54 0 001.583-.81c.43-.27.785-.521 1.068-.754h.202v3.773c-.405.16-.908.362-1.51.608-.6.233-1.14.417-1.62.552-.674.184-1.288.325-1.84.423-.54.099-1.227.148-2.062.148zm4.05-13.052c-.025-.932-.135-1.736-.331-2.411-.197-.675-.479-1.246-.847-1.712a3.864 3.864 0 00-1.565-1.178c-.626-.27-1.405-.405-2.338-.405-.92 0-1.706.14-2.356.423a5.49 5.49 0 00-1.749 1.197 5.727 5.727 0 00-1.178 1.804c-.27.65-.442 1.41-.515 2.282h10.879zM104.706 29V17.108c0-.945-.037-1.816-.111-2.614-.073-.81-.227-1.442-.46-1.896a2.368 2.368 0 00-1.049-1.086c-.454-.233-1.068-.35-1.841-.35-.712 0-1.479.221-2.3.663-.81.43-1.651 1.056-2.523 1.878.012.208.025.46.037.755.025.282.037.62.037 1.012V29h-3.46V17.108c0-.945-.038-1.816-.111-2.614-.074-.81-.227-1.442-.46-1.896a2.37 2.37 0 00-1.05-1.086c-.454-.233-1.068-.35-1.84-.35-.75 0-1.535.234-2.357.7a12.627 12.627 0 00-2.393 1.786V29h-3.46V8.438h3.46v2.283c.908-.908 1.804-1.608 2.688-2.099a5.912 5.912 0 012.945-.755c1.215 0 2.289.277 3.221.829.945.552 1.663 1.46 2.154 2.724 1.043-1.166 2.062-2.05 3.056-2.65a6.146 6.146 0 013.24-.903c.883 0 1.687.142 2.411.424a4.68 4.68 0 011.896 1.325c.552.626.976 1.405 1.27 2.338.307.933.461 2.105.461 3.516V29h-3.461zm21.998-10.345c0-2.455-.375-4.314-1.123-5.578-.749-1.276-1.952-1.915-3.608-1.915-.945 0-1.902.221-2.872.663-.957.442-1.828 1-2.614 1.675v11.782c.871.43 1.645.736 2.32.92a9.02 9.02 0 002.227.258c1.767 0 3.154-.626 4.16-1.878 1.007-1.252 1.51-3.227 1.51-5.927zm3.571-.277c0 3.363-.816 6.069-2.448 8.119-1.633 2.049-3.676 3.074-6.13 3.074-1.117 0-2.074-.142-2.872-.424a12.233 12.233 0 01-2.338-1.104l-.221.957h-3.24V.357h3.461v10.235a12.946 12.946 0 012.835-1.951c1.019-.516 2.172-.774 3.461-.774 2.319 0 4.148.933 5.485 2.798 1.338 1.854 2.007 4.425 2.007 7.713zM137.399 29h-3.461V.357h3.461V29zm14.008.479c-3.276 0-5.823-.92-7.639-2.762-1.804-1.853-2.706-4.479-2.706-7.878 0-3.35.878-6.014 2.632-7.99 1.755-1.988 4.05-2.982 6.885-2.982 1.276 0 2.405.184 3.387.553a6.732 6.732 0 012.577 1.73c.737.785 1.301 1.749 1.694 2.89.393 1.13.589 2.516.589 4.16v1.878h-14.248c0 2.393.601 4.222 1.804 5.486 1.203 1.264 2.866 1.896 4.989 1.896a9.61 9.61 0 002.227-.258 10.507 10.507 0 001.988-.663 15.454 15.454 0 001.583-.81c.43-.27.786-.521 1.068-.754h.202v3.773c-.405.16-.908.362-1.509.608a18.16 18.16 0 01-1.62.552c-.675.184-1.289.325-1.841.423-.54.099-1.227.148-2.062.148zm4.05-13.052c-.024-.932-.135-1.736-.331-2.411s-.479-1.246-.847-1.712a3.86 3.86 0 00-1.565-1.178c-.625-.27-1.405-.405-2.337-.405-.921 0-1.706.14-2.357.423a5.482 5.482 0 00-1.748 1.197 5.72 5.72 0 00-1.179 1.804c-.27.65-.441 1.41-.515 2.282h10.879zM8.899 49.691l2.688-5.799c.356-.76.663-1.264.92-1.51.258-.245.595-.367 1.013-.367.405 0 .736.122.994.368.27.245.405.564.405.957 0 .295-.166.792-.497 1.491l-2.264 4.86h3.276c.798 0 1.356.098 1.675.294.32.184.479.504.479.958 0 .613-.27 1.049-.81 1.307-.282.135-.834.202-1.657.202h-3.056c.982 1.853 1.473 3.73 1.473 5.633 0 1.51-.276 3.025-.828 4.547-.553 1.522-1.277 2.878-2.172 4.068-.896 1.203-1.915 2.172-3.056 2.909-1.13.736-2.246 1.104-3.35 1.104-.92 0-1.676-.282-2.265-.847-.601-.552-.902-1.258-.902-2.117 0-.43.068-.859.203-1.288.135-.418.423-1.11.865-2.08l5.578-11.929H6.56c-.785 0-1.313-.08-1.583-.24-.392-.232-.589-.582-.589-1.049 0-.257.074-.503.221-.736.147-.245.35-.43.608-.552.294-.123.846-.184 1.656-.184H8.9zm.884 5.099l-4.75 10.198c-.38.81-.62 1.338-.717 1.583-.086.258-.13.466-.13.626 0 .368.179.552.535.552.589 0 1.386-.552 2.393-1.656.994-1.117 1.791-2.418 2.393-3.903.613-1.497.92-2.902.92-4.215a7.87 7.87 0 00-.147-1.547 9.37 9.37 0 00-.497-1.638zm12.904 6.81l-.258.147c-.957.565-1.748.958-2.374 1.178a5.61 5.61 0 01-1.878.332c-.86 0-1.552-.252-2.08-.755s-.792-1.16-.792-1.97c0-.712.35-1.816 1.05-3.313l2.742-5.91c.344-.736.645-1.233.902-1.49.27-.258.614-.387 1.031-.387.418 0 .755.123 1.013.368.257.246.386.559.386.94 0 .281-.165.785-.497 1.509l-2.448 5.264-.166.332c-.417.871-.626 1.46-.626 1.767 0 .368.184.552.553.552.38 0 .846-.166 1.399-.497.564-.331 1.288-.865 2.172-1.601l3.148-6.756c.343-.736.644-1.234.902-1.491.27-.258.613-.387 1.03-.387.418 0 .755.123 1.013.368.258.246.387.559.387.94 0 .281-.166.785-.497 1.509l-2.706 5.817-.24.478c-.258.565-.386.933-.386 1.105 0 .147.061.282.184.405a.64.64 0 00.405.165c.613 0 1.791-.736 3.534-2.209.59-.515 1.074-.773 1.454-.773.356 0 .657.117.902.35.246.22.369.497.369.828 0 .59-.608 1.375-1.823 2.357a12.4 12.4 0 01-2.89 1.804c-1.03.454-1.915.68-2.65.68-.553 0-1.013-.128-1.381-.386-.356-.27-.65-.693-.884-1.27zm2.78-17.23c0 .626-.184 1.147-.553 1.565-.356.405-.822.607-1.399.607-.478 0-.865-.147-1.16-.442-.294-.294-.441-.68-.441-1.16 0-.576.19-1.061.57-1.454a1.924 1.924 0 011.436-.607c.467 0 .841.135 1.123.405.283.27.424.632.424 1.086zm6.884 0c0 .626-.184 1.147-.552 1.565-.356.405-.822.607-1.399.607-.479 0-.865-.147-1.16-.442-.294-.294-.441-.68-.441-1.16 0-.576.19-1.061.57-1.454a1.924 1.924 0 011.436-.607c.466 0 .84.135 1.123.405.282.27.423.632.423 1.086zm2.504 5.32a3.88 3.88 0 01.386-.019c1.019 0 1.835.258 2.449.774.626.503.939 1.166.939 1.988 0 .662-.21 1.307-.626 1.933-.405.625-1.136 1.43-2.19 2.411l-1.455 1.344c-.761.687-1.141 1.227-1.141 1.62 0 .233.085.417.257.552.172.135.4.203.681.203.577 0 1.405-.228 2.485-.682a22.23 22.23 0 003.203-1.675c.602-.368.994-.595 1.179-.68.184-.087.38-.13.589-.13.343 0 .626.123.846.368.234.234.35.528.35.884 0 .393-.172.773-.515 1.141-.344.369-.933.804-1.767 1.307-1.326.786-2.553 1.356-3.682 1.712a11.224 11.224 0 01-3.314.516c-1.227 0-2.196-.276-2.908-.829-.7-.552-1.05-1.3-1.05-2.245 0-.86.375-1.719 1.124-2.578.589-.638 1.478-1.49 2.669-2.558.847-.749 1.35-1.221 1.51-1.418a.958.958 0 00.257-.644c0-.282-.11-.479-.331-.59-.221-.11-.596-.17-1.123-.183-.258.589-.522 1.006-.792 1.252-.27.245-.601.368-.994.368-.405 0-.742-.123-1.012-.368-.258-.258-.387-.583-.387-.976 0-.282.16-.773.479-1.473l1.067-2.264c.369-.773.675-1.276.92-1.51.246-.245.578-.368.995-.368.392 0 .724.123.994.369.27.245.405.564.405.957 0 .282-.147.736-.442 1.362l-.055.129zm15.144 9.614l.679.905c.452.327 1.068.603 1.847.83.804.2 1.684.301 2.639.301.905 0 1.734-.088 2.488-.264.78-.2 1.458-.49 2.036-.867a4.106 4.106 0 001.357-1.432c.327-.578.49-1.27.49-2.074 0-1.03-.352-1.885-1.055-2.563-.679-.68-1.533-1.282-2.564-1.81a47.146 47.146 0 00-3.355-1.546 20.232 20.232 0 01-3.356-1.772 10.09 10.09 0 01-2.6-2.45c-.68-.955-1.019-2.162-1.019-3.62 0-2.136.805-3.794 2.413-4.976 1.634-1.206 3.833-1.81 6.597-1.81 1.735 0 3.23.114 4.487.34 1.257.226 2.325.528 3.204.905v6.484h-2.413v-4.072l-.603-.942c-.477-.201-1.168-.352-2.073-.452-.905-.1-1.797-.151-2.677-.151-1.508 0-2.69.352-3.544 1.055-.854.679-1.281 1.647-1.281 2.903 0 1.03.339 1.898 1.017 2.602.704.678 1.571 1.294 2.602 1.847a46.674 46.674 0 003.355 1.621 20.228 20.228 0 013.355 1.772 9.293 9.293 0 012.564 2.375c.704.93 1.055 2.086 1.055 3.468 0 2.438-.942 4.31-2.827 5.618-1.885 1.282-4.461 1.922-7.728 1.922-1.785 0-3.33-.188-4.638-.565-1.306-.377-2.262-.78-2.865-1.206v-6.862H50v4.486zm20.196-14.062h-2.3v-2.035h5.618l2.94 15.683v2.073h.302l1.018-1.96c.427-.93.867-1.923 1.32-2.978.452-1.056.891-2.112 1.319-3.167a72.328 72.328 0 001.244-3.092c.377-1.03.691-1.998.942-2.903l-1.055-3.656h4.637v2.035c-.402 1.106-.905 2.4-1.508 3.883a142.955 142.955 0 01-1.923 4.6 161.363 161.363 0 01-2.262 4.863 90.835 90.835 0 01-2.45 4.713 51.696 51.696 0 01-2.45 4.147c-.805 1.256-1.572 2.287-2.3 3.091H68.95v-3.62h4.185c.352-.427.703-.917 1.055-1.47.377-.552.742-1.37 1.093-2.45h-1.847l-3.242-17.757zm30.417 6.485c.201-.805.377-1.559.528-2.262.15-.73.226-1.433.226-2.111 0-.579-.151-1.069-.453-1.47-.301-.428-.754-.642-1.357-.642-.754 0-1.483.151-2.186.453a8.93 8.93 0 00-1.885 1.13c-.578.428-1.094.88-1.546 1.358-.427.477-.767.892-1.018 1.244L89.981 63h-3.657l3.732-17.757h-2.601v-2.035h6.71l-.867 3.92h.189c1.055-1.282 2.236-2.312 3.543-3.091a7.913 7.913 0 014.223-1.206c1.357 0 2.325.339 2.903 1.017.603.654.904 1.508.904 2.564 0 .578-.075 1.307-.226 2.187-.125.88-.289 1.696-.49 2.45l-2.375 9.915h3.091V63h-6.974l2.526-11.272zm14.339 1.885h-1.47L111.558 63h-3.694l5.504-26.24h-2.752v-2.035h6.786l-3.582 17.38h1.207l5.994-5.995v-2.902h5.014v1.583l-7.955 6.937 5.127 9.236h2.187V63h-5.466l-4.977-9.387zm23.344-6.786c-.251.05-.553.125-.905.226a7.282 7.282 0 00-2.224.942 6.635 6.635 0 00-1.169.943L130.906 63h-3.695l3.883-17.757h-2.601v-2.035h6.673l-.905 3.845h.189a13.723 13.723 0 011.847-2.262c.729-.754 1.42-1.282 2.073-1.583h3.016v3.619h-3.091zm18.17 12.554a6.558 6.558 0 01-1.131 1.47 8.115 8.115 0 01-1.696 1.282 9.524 9.524 0 01-4.788 1.244c-2.162 0-3.896-.603-5.203-1.81-1.281-1.231-1.922-2.953-1.922-5.164 0-1.886.276-3.657.829-5.316.553-1.659 1.332-3.092 2.337-4.298a11.158 11.158 0 013.62-2.865c1.432-.73 3.016-1.093 4.75-1.093.678 0 1.319.087 1.923.263a4.56 4.56 0 011.583.717c.452.326.804.729 1.056 1.206.251.478.377 1.03.377 1.659 0 1.81-.956 3.267-2.866 4.373-1.91 1.106-5.039 1.81-9.387 2.111-.101.453-.176.88-.226 1.282a9.77 9.77 0 00-.076 1.206c0 1.584.403 2.853 1.207 3.808.829.93 2.036 1.395 3.619 1.395.503 0 .993-.075 1.47-.226.503-.15.981-.34 1.433-.566a7.292 7.292 0 001.206-.829c.377-.302.679-.59.905-.867l.98 1.018zm-4.448-14.779c-1.182 0-2.262.528-3.242 1.584-.981 1.03-1.823 2.764-2.526 5.202 2.664-.075 4.7-.515 6.107-1.32 1.433-.803 2.149-1.884 2.149-3.241 0-.277-.038-.54-.113-.792a1.592 1.592 0 00-.415-.716c-.176-.227-.427-.402-.754-.528-.301-.126-.704-.189-1.206-.189zm7.991-1.394h3.996l1.094-4.336h3.544l-1.018 4.336h5.089v2.035h-5.504l-2.941 11.386c-.125.502-.213.955-.264 1.357-.05.402-.075.817-.075 1.244 0 1.156.653 1.734 1.96 1.734.679 0 1.446-.15 2.3-.452a7.319 7.319 0 002.262-1.357l.792 1.508c-.277.301-.666.615-1.169.942a10.19 10.19 0 01-1.659.905 11.81 11.81 0 01-2.073.603 10.25 10.25 0 01-2.338.264c-1.231 0-2.186-.302-2.865-.905-.678-.603-1.018-1.37-1.018-2.3 0-.402.013-.816.038-1.244.025-.452.101-.917.226-1.395l3.092-12.29h-3.469v-2.035zm14.422 2.035v-2.035h6.823l-3.92 17.756h3.091V63h-7.276l4.034-17.757h-2.752zm2.526-8.143c0-.729.251-1.307.754-1.734.527-.427 1.193-.641 1.998-.641.854 0 1.52.214 1.998.64.502.428.754 1.006.754 1.735 0 .729-.252 1.307-.754 1.734-.478.428-1.144.641-1.998.641-.805 0-1.471-.213-1.998-.64-.503-.428-.754-1.006-.754-1.735zm11.937 24.241c.452 0 .93-.038 1.433-.113a5.072 5.072 0 001.432-.49 3.079 3.079 0 001.056-.905c.276-.402.414-.905.414-1.508a2.5 2.5 0 00-.603-1.659 7.447 7.447 0 00-1.432-1.357 19.71 19.71 0 00-1.923-1.32 18.485 18.485 0 01-1.885-1.432 8.23 8.23 0 01-1.47-1.772c-.377-.653-.566-1.42-.566-2.3 0-.93.214-1.746.641-2.45a5.083 5.083 0 011.734-1.772c.729-.477 1.596-.83 2.602-1.055a13.17 13.17 0 013.204-.377c.528 0 1.043.037 1.546.113a10.09 10.09 0 011.432.301c.453.1.842.226 1.169.377.327.151.566.29.716.415l-1.131 4.41h-2.337l.641-3.09c-.201-.151-.566-.264-1.093-.34-.503-.1-.943-.15-1.32-.15-.402 0-.842.037-1.319.112-.453.05-.88.176-1.282.377-.402.176-.742.44-1.018.792-.252.327-.377.767-.377 1.32 0 .678.188 1.269.565 1.771a7.36 7.36 0 001.508 1.395 41.95 41.95 0 001.923 1.282c.679.428 1.32.905 1.923 1.433a6.226 6.226 0 011.47 1.772c.402.653.603 1.445.603 2.375 0 .955-.251 1.797-.754 2.526-.502.729-1.168 1.344-1.998 1.847-.829.503-1.797.88-2.903 1.131a14.767 14.767 0 01-3.355.377 10.32 10.32 0 01-1.96-.189 16.534 16.534 0 01-1.772-.452 15.356 15.356 0 01-1.395-.603c-.377-.226-.641-.415-.792-.566l1.433-4.486h2.563l-.98 3.13c.276.276.729.54 1.357.79.629.227 1.395.34 2.3.34zm26.153-2.073a7.515 7.515 0 01-3.016 3.053c-1.307.704-2.916 1.056-4.826 1.056-1.081 0-2.048-.189-2.903-.566a6.99 6.99 0 01-2.187-1.583 6.872 6.872 0 01-1.394-2.3 8.871 8.871 0 01-.453-2.827c0-1.96.264-3.758.792-5.391.528-1.634 1.294-3.029 2.3-4.185a10.287 10.287 0 013.732-2.714c1.458-.654 3.116-.98 4.976-.98 1.056 0 2.036.138 2.941.414.905.252 1.546.59 1.923 1.018L215.8 48.75h-2.639l.791-3.393c-.201-.175-.54-.301-1.018-.377a7.61 7.61 0 00-1.244-.113c-1.131 0-2.161.252-3.091.754-.905.478-1.697 1.156-2.375 2.036-.654.88-1.156 1.948-1.508 3.205-.352 1.231-.528 2.614-.528 4.147 0 1.81.415 3.242 1.244 4.297.829 1.03 1.923 1.546 3.28 1.546 1.131 0 2.124-.239 2.978-.716.88-.503 1.584-1.119 2.111-1.847l1.245.98zm4.474-22.507v-2.036h6.823l-2.676 11.65h.226a14.65 14.65 0 013.204-2.489c1.182-.704 2.602-1.056 4.261-1.056 2.563 0 3.845 1.509 3.845 4.525 0 .728-.075 1.508-.226 2.337a22.72 22.72 0 01-.49 2.337l-2.3 8.935h3.204V63h-7.049l2.375-10.292c.201-.804.377-1.57.527-2.3.176-.729.264-1.42.264-2.073 0-.93-.201-1.66-.603-2.187-.377-.528-.967-.792-1.772-.792-.578 0-1.143.088-1.696.264a8.74 8.74 0 00-2.979 1.47 8.605 8.605 0 00-1.093.98L220.274 63h-3.619l5.579-26.24h-2.714zm33.65 22.62a6.558 6.558 0 01-1.131 1.47 8.115 8.115 0 01-1.696 1.282 9.524 9.524 0 01-4.788 1.244c-2.162 0-3.896-.603-5.203-1.81-1.282-1.231-1.922-2.953-1.922-5.164 0-1.886.276-3.657.829-5.316.553-1.659 1.332-3.092 2.337-4.298a11.158 11.158 0 013.62-2.865c1.432-.73 3.016-1.093 4.75-1.093a6.83 6.83 0 011.922.263c.604.151 1.131.39 1.584.717a3.46 3.46 0 011.055 1.206c.252.478.377 1.03.377 1.659 0 1.81-.955 3.267-2.865 4.373-1.91 1.106-5.039 1.81-9.387 2.111-.101.453-.176.88-.226 1.282a9.579 9.579 0 00-.076 1.206c0 1.584.402 2.853 1.207 3.808.829.93 2.036 1.395 3.619 1.395.503 0 .993-.075 1.47-.226.503-.15.98-.34 1.433-.566a7.292 7.292 0 001.206-.829c.377-.302.679-.59.905-.867l.98 1.018zm-4.448-14.779c-1.182 0-2.262.528-3.243 1.584-.98 1.03-1.822 2.764-2.525 5.202 2.664-.075 4.699-.515 6.107-1.32 1.433-.803 2.149-1.884 2.149-3.241 0-.277-.038-.54-.113-.792a1.592 1.592 0 00-.415-.716c-.176-.227-.427-.402-.754-.528-.302-.126-.704-.189-1.206-.189zM285.485 63h-3.644V39.382l-7.143 16.07h-2.209l-7.087-16.07V63h-3.405V35.59h4.97l6.848 15.26 6.608-15.26h5.062V63zm14.755.57c-1.608 0-3.013-.208-4.215-.625-1.203-.43-2.228-1.062-3.075-1.896a7.965 7.965 0 01-2.025-3.424c-.392-1.338-.589-2.982-.589-4.934v-17.1h3.645v17.1c0 1.264.08 2.332.24 3.203.159.86.472 1.633.938 2.32a4.66 4.66 0 001.988 1.675c.847.38 1.878.57 3.093.57 1.141 0 2.154-.19 3.037-.57.884-.38 1.571-.939 2.062-1.675.454-.7.761-1.473.92-2.32.172-.846.258-1.883.258-3.11V35.59h3.645v17.101c0 1.903-.196 3.535-.589 4.897-.38 1.362-1.055 2.516-2.025 3.46a8.38 8.38 0 01-3.056 1.897c-1.153.417-2.571.626-4.252.626zm22.431-.073c-1.988 0-3.682-.203-5.081-.607a25.754 25.754 0 01-3.921-1.528v-4.566h.258a13.334 13.334 0 004.087 2.633c1.521.613 2.988.92 4.399.92 2.013 0 3.534-.417 4.565-1.252 1.031-.846 1.547-1.957 1.547-3.331 0-1.093-.27-1.982-.81-2.67-.54-.687-1.399-1.196-2.578-1.527a41.543 41.543 0 00-2.319-.608 106.76 106.76 0 01-2.632-.644 12.584 12.584 0 01-2.541-.94 7.173 7.173 0 01-1.988-1.49 6.59 6.59 0 01-1.325-2.117c-.307-.822-.46-1.767-.46-2.835 0-2.221.865-4.08 2.595-5.578 1.731-1.51 3.94-2.264 6.627-2.264 1.534 0 2.982.154 4.345.46 1.374.307 2.644.743 3.81 1.307v4.363h-.276c-.871-.798-1.988-1.491-3.35-2.08a10.51 10.51 0 00-4.29-.902c-1.693 0-3.061.399-4.105 1.197-1.043.785-1.564 1.822-1.564 3.11 0 1.166.307 2.093.92 2.78.614.687 1.503 1.19 2.669 1.51.773.208 1.718.447 2.835.718 1.117.257 2.044.497 2.78.717 1.89.577 3.27 1.448 4.142 2.614.871 1.166 1.307 2.602 1.307 4.308a8.05 8.05 0 01-.663 3.166 7.373 7.373 0 01-1.822 2.65 9.564 9.564 0 01-3.001 1.842c-1.104.43-2.491.644-4.16.644zM345.249 63h-10.64v-2.798h3.497V38.388h-3.497V35.59h10.64v2.798h-3.498v21.814h3.498V63zm24.087 0h-4.731l-9.995-12.757-1.602 1.804V63h-3.645V35.59h3.645V48.2l11.229-12.61h4.437l-11.34 12.242L369.336 63z" fill="#000"/></svg>