<svg width="129" height="47" fill="none" xmlns="http://www.w3.org/2000/svg"><g clip-path="url(#clip0_185_301)"><path d="M8.874 21.36c.667 0 1.268-.264 1.535-.594.2-.132.267-.33.334-.528l-.267-.066c-.067.198-.134.264-.267.396-.267.264-.801.528-1.469.528-.534 0-1-.198-1.335-.396-.2-.132-.4-.264-.467-.528l-.2.132c.067.264.267.528.534.66.334.198.734.396 1.335.396v2.836H7.005v.263H8.54v5.08h.334v-5.08h1.668v-.263H8.874V21.36zm-.801-4.551c.467 0 1.535.066 2.002.263.534.264.868.462 1.202 1.056.2.33.267.461.333.923-.6 0-2.002-.132-1.735.462.067.066.467.527 1.001.593.734.132 1.736 0 2.537-.263.266-.132-.067-.462.133-.528 0 0 .133-.066.334-.198-.067-.132-.134-.198-.134-.33l1.001-.527.735 1.517-1.068.527-.334-.791c.2-.132.2-.132.534-.396 0-.066-.067-.066-.067-.132-.133.066-.6.33-.667.396-.067.132.066.264 0 .396-.067.197-.2.264-.4.33 0 .065 0 .131.066.131.267-.066.4-.132.534-.395.133.131.133.263.2.33l-.867.593v-.791c-.067 0-.134.066-.2.066v9.827c-.334-.066-1.002-.198-1.269-.528-.267-.395-.2-.857-.2-1.517 0-.066.067-4.089-.067-4.55-.133-.396-.267-.528-.4-.726-.134-.198-.4-.33-.601-.462v7.585H6.805v-7.387c-.267.066-.4.132-.601.33-.267.198-.4.527-.4.725v4.551c0 .924-.134 1.122-.2 1.188-.334.527-.802.725-1.336.725V20.7c0-.33.067-.66-.2-.726v.66l-1.535-.857c0-.066.067-.066.067-.198.2.066.267.132.467.198l.067-.132s-.267-.132-.4-.132c.066-.066 0-.066.066-.132.133-.066.267.066.467.132v-.132c-.067-.066-.267-.066-.4-.198-.067-.066-.334-.198-.668-.396 0-.066 0-.066.067-.132.067.066.467.33.667.396L3 18.92c-.133-.132-.334-.198-.667-.462.066-.066.066-.066.066-.131.267.131.401.33.668.461.133.198.2.198.334.33.133.198-.067.66.467.857v-.131c-.334-.198-.2-.528-.334-.726-.067-.132-.534-.33-.334-.594.267.198.868.66.868.726.067.132-.133.396.134.594.267.198 1.535.461 1.935.395.668-.066 1.402-.197 1.87-.725.066.132.266.33.266.395l.467-.131s.067-.528.067-1.056c0-.857 0-.989-.067-1.253-.133-.396-.2-.462-.667-.66z" fill="#000"/><path d="M7.405 29.934h.601v.791c-.067.066-.2.066-.6.33-.468.33-.668.462-1.135.792 0-.858.667-1.254.867-1.451.134-.132.2-.396.267-.462zm2.003 0h.6s.267.528.468.66c.333.395.534.33.6 1.253-.4-.198-.6-.396-1-.66-.401-.33-.602-.33-.668-.462v-.791z" fill="#000" stroke="#000" stroke-width=".086" stroke-miterlimit="3.864"/><path fill-rule="evenodd" clip-rule="evenodd" d="M7.539 17.996c.267.132.267.132.534 0-.067-.132-.2-.264-.4-.198-.067 0-.067.066-.134.198zm-.067-.858c-.067.198 0 .264.134.396 0-.198.066-.198-.134-.396zm.2 0c-.066.198 0 .264.134.396.067-.198.067-.198-.134-.396zm.2.066c-.066.198 0 .198.134.396.067-.264.067-.264-.133-.396zm.268-.066c-.067.198 0 .264.133.396 0-.198 0-.198-.133-.396zm-.601-.264c.133-.065.334.067.534.133.2.131.467.395.534.593.067.132 0 2.11 0 2.11H8.54s-.2-.395-.334-.527c-.066 0-.333.066-.867 0-.067-.198-.067-.33-.067-.528-.067 0-.134 0-.2-.066.2-.857-.134-1.45.467-1.714z" fill="#000"/><path d="M34.504 22.679v-8.575h.8v7.85h4.34v.725h-5.14zm9.812-4.156a1.3 1.3 0 00-.134-.593c-.067-.132-.133-.264-.267-.396a.61.61 0 00-.467-.198c-.2-.066-.334-.066-.6-.066-.201 0-.401 0-.535.066a.61.61 0 00-.467.198.8.8 0 00-.334.33c-.066.132-.133.33-.133.527h-.801c.066-.33.133-.593.267-.791.133-.198.267-.396.467-.528.2-.131.4-.263.668-.263.266-.066.533-.066.8-.066.668 0 1.202.132 1.535.461.401.33.601.792.601 1.451v3.562c0 .198 0 .462.067.66h-.734v-.858l-.067.066c-.133.264-.334.462-.667.66-.334.197-.735.264-1.202.264-.267 0-.534-.067-.8-.132-.268-.066-.468-.198-.668-.33a.96.96 0 01-.4-.594c-.134-.198-.134-.462-.134-.791 0-.396.133-.726.334-1.056.2-.263.533-.527.867-.66.2-.065.4-.131.668-.197.2-.066.467-.066.667-.066h1.403v-.66h.066zm-3.138 2.507c0 .395.134.725.401.923.267.198.6.264.934.264.334 0 .668-.066.868-.198.2-.132.4-.264.534-.462.134-.197.267-.395.267-.66.067-.263.067-.527.067-.79v-.396h-.869c-.267 0-.534 0-.8.066-.268.066-.535.131-.735.197-.2.066-.4.264-.534.396a1.64 1.64 0 00-.133.66zm6.475 1.649h-.734v-5.277c0-.198 0-.462-.067-.66h.734l.067.858c.2-.396.467-.66.8-.791.334-.198.668-.264 1.069-.264.333 0 .6.066.867.132.2.066.4.198.601.33.133.131.267.33.4.461.067.198.2.33.2.528.067.198.067.33.067.527v4.156h-.734v-3.826c0-.527-.133-.923-.4-1.187s-.668-.396-1.135-.396c-.267 0-.534.066-.8.198-.201.132-.401.264-.535.462-.133.198-.267.396-.334.66-.066.263-.133.527-.133.79v3.299h.067zm10.145-.858c-.267.33-.6.594-.934.792-.334.198-.734.264-1.135.264-.467 0-.801-.066-1.135-.264a2.833 2.833 0 01-.8-.726c-.2-.33-.334-.66-.401-1.055-.067-.396-.134-.726-.134-1.121 0-.396.067-.792.134-1.122.067-.395.2-.725.4-.989.2-.33.468-.528.801-.725.334-.198.668-.264 1.135-.264.4 0 .8.066 1.201.264.4.197.668.461.868.791V14.17h.734v7.916c0 .197 0 .46.067.659h-.734l-.067-.924zm-.067-2.242c0-.33-.066-.594-.133-.858a2.424 2.424 0 00-.334-.725 1.57 1.57 0 00-.6-.528 1.866 1.866 0 00-.868-.198c-.334 0-.601.066-.868.198-.2.132-.4.33-.534.528a2.188 2.188 0 00-.334.791c-.066.264-.066.594-.066.858s0 .593.066.857c.067.33.134.594.267.858.134.263.334.461.534.66.2.197.534.263.868.263.4 0 .734-.066 1.001-.198.267-.132.467-.33.6-.594.134-.263.268-.527.335-.857.066-.396.066-.725.066-1.055zm3.004.33c0 .33.067.593.133.923.067.264.2.528.4.725.201.198.401.396.668.528s.601.198.935.198c.2 0 .4-.066.6-.132.2-.066.334-.198.534-.33.134-.132.267-.264.4-.461.134-.198.201-.396.201-.594h.734c-.2.726-.534 1.253-.934 1.583-.467.33-1.068.528-1.802.528-.468 0-.868-.066-1.202-.264-.333-.198-.6-.396-.8-.726-.2-.264-.401-.66-.468-.99-.133-.395-.133-.79-.133-1.186 0-.396.066-.792.2-1.188.133-.395.267-.725.534-.989.2-.264.534-.528.868-.725.333-.198.734-.264 1.201-.264.534 0 .934.066 1.268.264.334.197.6.395.868.725.2.33.4.66.467 1.055.067.396.133.858.133 1.32h-4.805zm3.871-.66a1.74 1.74 0 00-.2-.791c-.067-.264-.2-.462-.4-.66a.974.974 0 00-.601-.396c-.267-.132-.534-.132-.801-.132s-.534.066-.801.198c-.2.132-.4.264-.6.462-.134.198-.268.396-.401.66 0 .131 0 .395-.067.659h3.871zm2.203-1.055c0-.33.066-.594.2-.792a2.02 2.02 0 01.534-.527c.2-.132.467-.198.734-.264.267-.066.534-.066.801-.066s.534 0 .801.066.467.132.667.264c.2.131.334.263.468.527.133.198.2.462.2.792h-.801c0-.198-.067-.33-.133-.462-.067-.132-.2-.198-.334-.33a3.276 3.276 0 00-.468-.198c-.2-.066-.333-.066-.533-.066s-.334 0-.468.066c-.133.066-.333.066-.4.198-.134.066-.2.198-.334.33-.067.132-.133.264-.133.462s.066.395.2.527c.133.132.334.198.6.264.268.066.535.132.868.264.334.066.734.198 1.135.33.334.132.534.264.734.527.2.264.267.528.267.858 0 .33-.067.593-.2.857a1.302 1.302 0 01-.6.594c-.268.132-.535.264-.802.33-.334.066-.6.132-.934.132-.267 0-.534 0-.801-.066a2.482 2.482 0 01-.734-.33c-.2-.132-.4-.33-.534-.528s-.2-.527-.2-.857h.8c0 .198.067.395.2.527.134.132.2.264.401.33.134.066.334.132.534.198s.4.066.6.066c.201 0 .401 0 .602-.066.2-.066.333-.132.534-.198a.678.678 0 00.333-.396c.067-.131.134-.33.134-.527 0-.198-.067-.396-.134-.528-.133-.132-.267-.264-.4-.33l-.601-.198a2.423 2.423 0 00-.734-.131c-.267-.066-.467-.132-.734-.198-.2-.066-.4-.198-.601-.264-.2-.132-.334-.264-.4-.462-.334-.198-.334-.396-.334-.725zm6.874-.528c.2-.396.534-.66.801-.791.334-.198.668-.264 1.068-.264.334 0 .601.066.868.132.2.066.4.198.6.33.134.131.268.33.401.461.067.198.2.33.2.528.067.198.067.33.067.527v4.156h-.734v-3.826c0-.527-.133-.923-.4-1.187s-.668-.396-1.135-.396c-.267 0-.534.066-.801.198-.2.132-.4.264-.534.462s-.267.396-.334.66c-.067.263-.133.527-.133.79v3.43h-.735v-8.574h.735v3.364h.066zm9.412.857a1.3 1.3 0 00-.134-.593c-.067-.132-.133-.264-.267-.396a.61.61 0 00-.467-.198c-.2-.066-.334-.066-.6-.066-.201 0-.401 0-.535.066a.61.61 0 00-.467.198.799.799 0 00-.334.33 1.23 1.23 0 00-.133.527h-.801c.067-.33.133-.593.267-.791.133-.198.267-.396.467-.528.2-.131.4-.263.668-.263.266-.066.533-.066.8-.066.668 0 1.202.132 1.536.461.4.33.6.792.6 1.451v3.562c0 .198 0 .462.067.66h-.734v-.858l-.067.066c-.133.264-.334.462-.667.66-.334.197-.735.264-1.202.264-.267 0-.534-.067-.8-.132-.268-.066-.468-.198-.668-.33a.96.96 0 01-.4-.594c-.134-.198-.134-.462-.134-.791 0-.396.133-.726.334-1.056.2-.263.533-.527.867-.66.2-.065.4-.131.668-.197.2-.066.467-.066.667-.066h1.402v-.66h.067zM79.89 21.03c0 .395.133.725.4.923.267.198.601.264.935.264.333 0 .667-.066.867-.198.2-.132.4-.264.534-.462.134-.197.267-.395.267-.66.067-.263.067-.527.067-.79v-.396h-.867c-.267 0-.534 0-.8.066-.268.066-.535.131-.735.197-.2.066-.4.264-.534.396 0 .132-.133.396-.133.66zm9.812-4.287h.734v5.277c0 .197 0 .46.067.659h-.734l-.067-.858c-.2.396-.467.66-.8.792-.334.198-.668.264-1.069.264-.333 0-.6-.066-.867-.132-.2-.066-.4-.198-.6-.33a2.881 2.881 0 01-.401-.462c-.067-.198-.2-.33-.2-.527-.067-.198-.067-.33-.067-.528v-4.156h.734v3.826c0 .528.133.923.4 1.187s.668.396 1.135.396c.267 0 .534-.066.8-.198.201-.132.401-.264.535-.462.133-.197.267-.395.334-.66.066-.263.133-.527.133-.79v-3.298h-.067zm3.271 8.244h-.734v-7.585c0-.198 0-.462-.067-.66h.734l.067.858c.2-.33.534-.594.868-.791.4-.198.8-.264 1.201-.264.467 0 .8.066 1.135.264.333.197.6.395.8.725.2.33.334.66.401.99.067.395.133.725.133 1.12 0 .396-.066.726-.133 1.122-.067.396-.2.726-.4 1.055-.2.33-.468.528-.735.726-.333.198-.667.264-1.134.264-.468 0-.868-.066-1.202-.264a3.503 3.503 0 01-.934-.792v3.232zm0-5.408c0 .33.067.66.133.99.067.329.2.593.334.857.134.263.334.461.6.593.268.132.601.198 1.002.198.334 0 .6-.066.868-.264.2-.198.4-.396.534-.66.133-.263.2-.527.267-.857.066-.33.066-.593.066-.857s0-.594-.066-.858c-.067-.264-.2-.527-.334-.791a2.021 2.021 0 00-.534-.528c-.2-.132-.534-.198-.868-.198-.334 0-.667.066-.867.198a1.57 1.57 0 00-.601.528 2.424 2.424 0 00-.334.725c-.2.33-.2.594-.2.924zm6.607-2.177h-1.2v-.66h1.2V15.49l.735-.33v1.584h1.402v.66h-1.402v3.957c0 .593.267.857.801.857h.334c.133 0 .2 0 .267-.066v.594c-.134 0-.201.066-.334.066h-.401c-.4 0-.667-.066-.867-.132-.2-.132-.334-.264-.4-.396-.068-.198-.134-.396-.134-.594v-4.287zm3.271.792c0-.33.067-.594.2-.792a2.03 2.03 0 01.534-.527c.201-.132.468-.198.735-.264.267-.066.534-.066.801-.066.266 0 .533 0 .8.066s.468.132.668.264c.2.131.334.263.467.527.134.198.2.462.2.792h-.801c0-.198-.066-.33-.133-.462s-.2-.198-.334-.33a3.258 3.258 0 00-.467-.198c-.2-.066-.334-.066-.534-.066s-.334 0-.467.066c-.134.066-.334.066-.401.198-.133.066-.2.198-.333.33-.067.132-.134.264-.134.462s.067.395.2.527c.134.132.334.198.601.264.267.066.534.132.868.264.333.066.734.198 1.134.33.334.132.534.264.735.527.2.264.267.528.267.858a1.8 1.8 0 01-.201.857 1.298 1.298 0 01-.6.594c-.267.132-.534.264-.801.33-.334.066-.601.132-.935.132-.267 0-.534 0-.801-.066a2.479 2.479 0 01-.734-.33c-.2-.132-.4-.33-.534-.528-.133-.198-.2-.527-.2-.857h.801c0 .198.067.395.2.527.134.132.2.264.401.33.133.066.333.132.534.198.2.066.4.066.6.066.2 0 .401 0 .601-.066.2-.066.334-.132.534-.198a.68.68 0 00.334-.396c.066-.131.133-.33.133-.527 0-.198-.067-.396-.133-.528-.134-.132-.267-.264-.401-.33l-.601-.198a2.42 2.42 0 00-.734-.131c-.267-.066-.467-.132-.734-.198-.2-.066-.4-.198-.601-.264-.2-.132-.333-.264-.4-.462-.267-.198-.334-.396-.334-.725zm6.741-.792h-1.201v-.66h1.201V15.49l.735-.33v1.584h1.401v.66h-1.401v3.957c0 .593.267.857.801.857h.333c.134 0 .201 0 .267-.066v.594c-.133 0-.2.066-.333.066h-.401c-.4 0-.667-.066-.868-.132-.2-.132-.333-.264-.4-.396-.067-.198-.134-.396-.134-.594v-4.287zm6.875 1.121c0-.263-.067-.461-.133-.593-.067-.132-.134-.264-.267-.396a.61.61 0 00-.467-.198c-.201-.066-.334-.066-.601-.066-.2 0-.401 0-.534.066-.2 0-.334.066-.467.198a.799.799 0 00-.334.33c-.067.132-.134.33-.134.527h-.801c.067-.33.134-.593.267-.791.134-.198.267-.396.468-.528.2-.131.4-.263.667-.263.267-.066.534-.066.801-.066.668 0 1.201.132 1.535.461.401.33.601.792.601 1.451v3.562c0 .198 0 .462.067.66h-.735v-.858l-.066.066c-.134.264-.334.462-.668.66-.333.197-.734.264-1.201.264-.267 0-.534-.067-.801-.132-.267-.066-.467-.198-.668-.33a.962.962 0 01-.4-.594c-.133-.198-.134-.462-.134-.791 0-.396.134-.726.334-1.056.2-.263.534-.527.868-.66.2-.065.4-.131.667-.197.201-.066.468-.066.668-.066h1.401v-.66h.067zm-3.137 2.507c0 .395.134.725.401.923.267.198.6.264.934.264.334 0 .668-.066.868-.198.2-.132.4-.264.534-.462.133-.197.267-.395.267-.66.066-.263.066-.527.066-.79v-.396h-.867c-.267 0-.534 0-.801.066s-.534.131-.734.197c-.201.066-.401.264-.534.396a1.633 1.633 0 00-.134.66zm9.878.791c-.266.33-.6.594-.934.792-.334.198-.734.264-1.135.264-.467 0-.801-.066-1.134-.264a2.827 2.827 0 01-.801-.726c-.2-.33-.334-.66-.401-1.055-.066-.396-.133-.726-.133-1.121 0-.396.067-.792.133-1.122.067-.395.201-.725.401-.989.2-.33.467-.528.801-.725.333-.198.667-.264 1.134-.264.401 0 .801.066 1.202.264.4.197.667.461.867.791V14.17h.735v7.916c0 .197 0 .46.066.659h-.734l-.067-.924zm0-2.242c0-.33-.066-.594-.133-.858a2.42 2.42 0 00-.334-.725 1.564 1.564 0 00-.6-.528 1.866 1.866 0 00-.868-.198c-.334 0-.601.066-.868.198-.2.132-.4.33-.534.528a1.407 1.407 0 00-.267.791c-.067.264-.067.594-.067.858s0 .593.067.857c.067.33.134.594.267.858.134.263.334.461.534.66.2.197.534.263.868.263.4 0 .734-.066 1.001-.198.267-.132.467-.33.601-.594.133-.263.267-.527.333-.857-.066-.396 0-.725 0-1.055zm3.071-2.177h-1.202v-.66h1.202V15.49l.734-.33v1.584h1.402v.66h-1.402v3.957c0 .593.267.857.801.857h.334c.133 0 .2 0 .267-.066v.594c-.134 0-.201.066-.334.066h-.401c-.4 0-.667-.066-.867-.132-.201-.132-.334-.264-.401-.396-.066-.198-.133-.396-.133-.594v-4.287zM34.57 34.221v-8.574h1.269l3.27 7.453 3.338-7.453h1.201v8.574h-.8v-7.915l-3.338 7.915h-.801l-3.337-7.915v7.915h-.801zm15.219-5.936h.734v5.277c0 .197 0 .461.067.66h-.735l-.066-.858c-.2.395-.468.66-.801.791-.334.198-.668.264-1.068.264-.334 0-.6-.066-.868-.132-.2-.066-.4-.198-.6-.33a2.881 2.881 0 01-.401-.461c-.067-.198-.2-.33-.2-.528-.067-.198-.067-.33-.067-.528v-4.155h.734v3.826c0 .527.134.923.4 1.187.268.264.668.395 1.135.395.267 0 .534-.066.801-.197.2-.132.4-.264.534-.462s.267-.396.334-.66.133-.527.133-.791v-3.298h-.066zm-3.004-1.649v-.923h.801v.923h-.8zm2.003 0v-.923h.8v.923h-.8zm4.338 7.585h-.734v-5.277c0-.197 0-.461-.067-.659h.734l.067.857c.2-.395.467-.66.8-.791.335-.198.668-.264 1.069-.264.334 0 .6.066.867.132.2.066.401.198.601.33.134.132.267.33.4.462.067.197.2.33.2.527.068.198.068.33.068.528v4.156h-.735v-3.826c0-.528-.133-.924-.4-1.188-.267-.263-.668-.395-1.135-.395-.267 0-.534.066-.8.198-.2.131-.401.263-.535.461-.133.198-.267.396-.333.66-.067.264-.134.527-.134.791v3.298h.067zm9.744-4.089c0-.462-.2-.792-.466-.99-.268-.197-.668-.33-1.202-.33-.267 0-.534.067-.734.198-.2.132-.4.33-.534.528a2.186 2.186 0 00-.334.792c-.067.33-.133.593-.133.989 0 .33.066.66.133.99.067.33.2.593.334.79.133.199.334.397.534.529.2.131.467.197.734.197.467 0 .868-.132 1.135-.395.267-.264.467-.594.467-.99h.8c-.2 1.385-1 2.045-2.335 2.045-.467 0-.868-.066-1.202-.264-.333-.198-.6-.396-.8-.725-.2-.264-.401-.66-.468-.99-.133-.395-.133-.791-.133-1.187s.067-.791.2-1.187.267-.726.534-.99c.2-.263.534-.527.868-.725.333-.198.734-.264 1.201-.264.334 0 .6.066.868.132.267.066.534.198.734.396.2.198.4.395.467.66.134.263.2.527.2.857h-.867v-.066zm2.938-.924c.2-.395.533-.66.8-.791.334-.198.668-.264 1.068-.264.334 0 .601.066.868.132.2.066.4.198.6.33.134.132.268.33.401.462.067.197.2.33.2.527.067.198.067.33.067.528v4.155h-.734v-3.825c0-.528-.133-.924-.4-1.188-.267-.264-.668-.395-1.135-.395-.267 0-.534.066-.801.197-.2.132-.4.264-.534.462-.133.198-.267.396-.334.66-.066.264-.133.527-.133.791v3.43h-.734v-8.574h.734v3.363h.067zm6.407 2.242c0 .33.067.595.134.924.066.264.2.528.4.726.2.198.4.396.668.527.266.132.6.198.934.198.2 0 .4-.066.6-.132.2-.066.334-.197.535-.33.133-.131.267-.263.4-.461s.2-.396.2-.594h.734c-.2.726-.533 1.254-.934 1.583-.467.33-1.068.528-1.802.528-.467 0-.868-.066-1.202-.264-.333-.198-.6-.396-.8-.725-.2-.264-.4-.66-.468-.99-.133-.395-.133-.791-.133-1.187s.067-.791.2-1.187c.134-.396.267-.726.534-.99.2-.263.534-.527.868-.725.334-.198.734-.264 1.201-.264.534 0 .935.066 1.268.264.334.198.601.396.868.726.2.33.4.66.467 1.055.067.395.134.857.134 1.319h-4.806zm3.871-.659a1.74 1.74 0 00-.2-.791c-.067-.264-.2-.462-.4-.66a.972.972 0 00-.601-.395c-.267-.132-.534-.132-.801-.132s-.534.066-.801.198c-.2.131-.4.263-.6.461-.134.198-.268.396-.401.66-.067.264-.134.461-.2.725h4.004v-.066zm3.071 3.43h-.735v-5.277c0-.197 0-.461-.066-.659h.734l.067.857c.2-.395.467-.66.8-.791.334-.198.668-.264 1.069-.264.333 0 .6.066.867.132.2.066.4.198.6.33.134.132.268.33.401.462.067.197.2.33.2.527.067.198.067.33.067.528v4.156h-.734v-3.826c0-.528-.133-.924-.4-1.188-.267-.263-.668-.395-1.135-.395-.267 0-.534.066-.801.198-.2.131-.4.263-.534.461-.133.198-.267.396-.334.66-.066.264-.133.527-.133.791v3.298h.067zm-44.453 3.298h1.87v3.694l2.936-3.694h2.203l-3.204 3.825 3.47 4.75h-2.336l-3.07-4.354v4.353h-1.869V37.52zm9.545 2.572v3.959c0 .132.066.263.133.395s.134.264.267.33c.134.066.334.132.534.132.267 0 .534-.066.668-.132.133-.066.267-.264.333-.396.067-.197.134-.395.134-.593V40.09h1.802v6.003h-1.735l-.067-.791a.911.911 0 00-.2.264c-.067.131-.2.197-.334.33-.134.131-.334.197-.534.263s-.467.132-.734.132c-.4 0-.801-.066-1.068-.264-.334-.132-.534-.33-.734-.593-.067-.132-.2-.264-.2-.396-.067-.132-.067-.33-.134-.462 0-.132-.067-.264-.067-.395v-4.09h1.936zm5.673-2.572h1.802v8.574h-1.802V37.52zm6.942 8.508c-.267.066-.534.132-.801.132s-.468.066-.601.066c-.467 0-.8-.066-1.068-.198a1.232 1.232 0 01-.534-.461c-.133-.198-.2-.33-.2-.528v-3.76h-1.135v-1.187h1.135v-1.187l1.802-.66v1.781h1.468v1.188h-1.468v3.231c0 .132.067.198.067.264a.903.903 0 00.267.198c.133.066.267.066.467.066h.601v1.055zm2.669-5.936v3.959c0 .132.067.263.134.395s.133.264.267.33c.133.066.334.132.534.132.267 0 .534-.066.667-.132.134-.066.267-.264.334-.396.067-.197.134-.395.134-.593V40.09h1.868v6.003h-1.735l-.067-.791c-.066.066-.133.132-.2.264-.067.131-.2.197-.334.33-.133.131-.333.197-.534.263a2.42 2.42 0 01-.734.132c-.4 0-.8-.066-1.068-.264-.334-.132-.534-.33-.734-.593-.067-.132-.2-.264-.2-.396-.067-.132-.067-.33-.134-.462 0-.132-.066-.264-.066-.395v-4.09h1.868zm5.607 1.517v-1.517h1.669l.067 1.121.2-.395c.066-.132.2-.264.333-.396.134-.132.334-.198.601-.264.134-.066.467-.066.801-.066v1.583a2.63 2.63 0 00-1.068.066 1.296 1.296 0 00-.6.33c-.134.132-.2.33-.267.527 0 .198-.067.396-.067.594v2.968h-1.802v-4.55h.133zm4.405 0v-1.517h1.669l.067 1.121.2-.395c.067-.132.2-.264.334-.396.133-.132.333-.198.6-.264.267-.066.534-.132.868-.066v1.583c-.467-.066-.8 0-1.068.066a1.295 1.295 0 00-.6.33c-.134.132-.2.33-.268.528 0 .197-.066.395-.066.593v2.968h-1.803v-4.55h.067zm6.075 1.979v.396c0 .198.066.33.133.527.066.198.2.33.333.462.134.132.4.198.734.198.2 0 .468-.066.601-.198.2-.132.334-.33.4-.66h1.603v.264c0 .132-.067.198-.067.33-.067.132-.067.198-.2.33-.067.132-.2.264-.267.396-.2.197-.534.395-.868.527-.4.132-.801.198-1.202.198h-.467c-.2 0-.4-.066-.534-.132l-.6-.198c-.2-.066-.4-.198-.534-.395a2.48 2.48 0 01-.601-.99 4.207 4.207 0 01-.2-1.319c0-.264 0-.528.066-.791l.2-.792c.067-.264.2-.462.401-.725.134-.198.4-.396.668-.594.267-.132.467-.264.8-.396.267-.066.601-.132.935-.132.2 0 .467 0 .667.066s.468.132.668.264.4.264.6.462c.2.198.334.395.468.725.133.198.2.396.267.594.067.198.067.396.133.593v.99H75.62zm2.268-1.121v-.33c0-.132-.066-.264-.133-.462-.067-.132-.2-.264-.334-.396-.133-.131-.334-.197-.6-.197-.2 0-.334.066-.468.131a.8.8 0 00-.333.33l-.2.396c-.067.132-.067.33-.067.528h2.135zm3.404-1.122h-.867v-1.253h.867V39.3c0-.264 0-.528.067-.726.067-.264.134-.462.334-.593.133-.198.4-.33.667-.396.267-.132.601-.132 1.068-.132h.334c.133 0 .4 0 .6.066v1.187h-.4c-.2 0-.4 0-.534.066-.133.066-.2.132-.267.198-.066.066-.066.198-.133.264v.857h1.134v1.253h-1.134v4.75h-1.802v-4.75h.066zm5.207 2.243v.396c0 .198.066.33.133.527.067.198.2.33.334.462.133.132.4.198.734.198.2 0 .467-.066.6-.198.2-.132.334-.33.401-.66h1.602v.264c0 .132-.067.198-.067.33-.066.132-.066.198-.2.33-.067.132-.2.264-.267.396-.2.197-.534.395-.868.527-.4.132-.8.198-1.201.198h-.467c-.2 0-.4-.066-.534-.132l-.6-.198a1.042 1.042 0 01-.535-.395 2.478 2.478 0 01-.6-.99 4.207 4.207 0 01-.2-1.319c0-.264 0-.528.066-.791l.2-.792c.067-.264.2-.462.4-.725.134-.198.401-.396.668-.594.267-.132.467-.264.801-.396.267-.066.6-.132.934-.132.2 0 .468 0 .668.066s.467.132.667.264.4.264.601.462c.2.198.334.395.467.725.134.198.2.396.267.594.067.198.067.396.134.593v.99h-4.138zm2.269-1.121v-.33c0-.132-.067-.264-.134-.462-.066-.132-.2-.264-.333-.396-.134-.131-.334-.197-.601-.197-.2 0-.334.066-.467.131a.8.8 0 00-.334.33l-.2.396c-.067.132-.067.33-.067.528h2.136zm3.07-.858v-1.517h1.669l.067 1.121.2-.395c.067-.132.2-.264.334-.396.133-.132.333-.198.6-.264.267-.066.534-.132.935-.066v1.583a2.63 2.63 0 00-1.068.066 1.295 1.295 0 00-.601.33.744.744 0 00-.2.528c0 .197-.067.395-.067.593v2.968h-1.802v-4.55h-.067zm8.277 4.485c0-.198-.067-.33-.067-.462v-.33c-.2.265-.334.396-.534.528s-.334.198-.534.264c-.133.066-.334.066-.467.132h-.334c-.467 0-.8-.066-1.001-.132-.2-.132-.4-.198-.534-.33-.2-.197-.334-.395-.4-.593a2.344 2.344 0 01-.134-.726c0-.132 0-.264.067-.395 0-.132.066-.33.2-.528.067-.198.2-.33.4-.528s.4-.33.668-.461l.6-.198c.2-.066.468-.066.668-.132.2 0 .4 0 .6-.066h.535v-.462c0-.132 0-.198-.067-.33s-.067-.197-.2-.264c-.067-.065-.134-.131-.2-.131-.067-.066-.134-.066-.2-.066h-.201c-.133 0-.267 0-.4.066-.134.066-.2.132-.334.263-.067.132-.134.198-.134.264v.264h-1.735v-.264c0-.132.067-.264.067-.395l.2-.396a.681.681 0 01.4-.33c.267-.198.601-.33.935-.396.334-.066.667-.066.934-.066h.467c.2 0 .4.066.601.132.2.066.401.132.601.264.2.066.4.264.534.396.133.132.2.264.267.395.067.132.067.264.133.396 0 .132.067.264.067.396v3.496c0 .264.067.527.134.791h-1.602v-.066zm-.267-2.836h-.801c-.267 0-.468.066-.601.198a.681.681 0 00-.4.33c-.067.132-.134.264-.134.461 0 .132 0 .198.067.33.067.066.067.198.133.264a.931.931 0 00.267.198c.134.066.267.066.4.066.134 0 .334-.066.401-.132.134-.066.267-.132.334-.264.133-.198.267-.396.267-.66.067-.131.067-.461.067-.79zm7.008 2.77c-.267.066-.534.132-.801.132s-.467.066-.601.066c-.467 0-.801-.066-1.068-.198a1.235 1.235 0 01-.534-.461c-.133-.198-.2-.33-.2-.528v-3.76h-1.135v-1.187h1.135v-1.187l1.802-.66v1.781h1.469v1.188h-1.469v3.231c0 .132.067.198.067.264.067.066.133.132.267.198.133.066.267.066.467.066h.601v1.055z" fill="#000"/><path d="M.33 14.368h16.753V26.9c0 4.617-3.737 8.244-8.41 8.244C4.069 35.21.33 31.451.33 26.9V14.368z" stroke="#000" stroke-width=".714" stroke-miterlimit="3.864"/><path d="M1.599.583c.8 0 1.468.198 1.935.594.467.396.668 1.055.668 1.847 0 .791-.2 1.45-.668 1.846-.467.462-1.068.66-1.935.66H.264V.583h1.335zm.133 4.551c.334 0 .667-.066.934-.132s.468-.263.601-.395c.134-.198.267-.396.334-.66s.133-.528.133-.857c0-.396-.066-.66-.133-.924a1.381 1.381 0 00-.534-.66c-.2-.197-.4-.33-.668-.395-.333-.066-.6-.132-1-.132H.73v4.155h1.001zm3.871-4.023H5.07V.583h.467v.528h.067zm-.067.99V5.53h-.4V2.1h.4zm1.335 1.846c0 .198 0 .33.067.528.067.132.134.33.2.461.067.132.2.198.4.264.134.066.335.132.535.132.133 0 .267 0 .334-.066.133-.066.2-.066.267-.198.066-.066.133-.132.2-.264.066-.131.133-.197.133-.33h.467c-.133.396-.267.726-.534.924-.266.198-.6.264-1 .264-.268 0-.468-.066-.668-.132a2.893 2.893 0 01-.467-.396c-.2-.198-.267-.395-.334-.593-.067-.264-.067-.462-.067-.726 0-.264 0-.462.067-.66.067-.197.133-.395.267-.593.133-.198.267-.33.467-.396.2-.132.4-.132.668-.132.267 0 .534.066.734.132.2.066.334.264.467.396.2.198.334.396.4.594.067.197.067.461.067.725h-2.67v.066zm2.203-.396c0-.132-.067-.33-.067-.461l-.2-.396c-.067-.132-.2-.198-.334-.264-.133-.066-.267-.066-.467-.066s-.334 0-.467.066c-.134.066-.267.132-.334.264l-.2.396c-.067.132-.067.263-.134.461h2.203zm1.201-.593c0-.198.067-.33.134-.462s.2-.198.267-.264c.133-.066.267-.132.4-.132.134-.066.334-.066.468-.066.133 0 .333 0 .467.066.133 0 .267.066.4.132.134.066.2.198.267.264.067.132.134.264.134.462h-.467c0-.132-.067-.198-.067-.264l-.2-.198c-.067-.066-.2-.066-.268-.066h-.6c-.067 0-.2.066-.267.066l-.2.198v.264c0 .132 0 .198.066.264.067.065.2.131.334.197s.334.066.534.132.4.132.668.198c.2.066.333.132.4.264.134.132.134.33.134.462 0 .198-.067.33-.134.527a.8.8 0 01-.334.33 3.272 3.272 0 01-.467.198c-.2.066-.334.066-.534.066-.133 0-.334 0-.467-.066-.134-.066-.267-.066-.4-.198-.134-.066-.2-.198-.334-.33-.067-.132-.134-.263-.134-.461h.467a.5.5 0 00.134.33.518.518 0 00.267.263c.067.066.2.066.267.132h.334c.133 0 .2 0 .333-.066.134 0 .2-.066.267-.132l.2-.198c.067-.066.067-.197.067-.33 0-.131 0-.197-.066-.33a.92.92 0 00-.268-.197c-.133-.066-.2-.066-.333-.132-.134 0-.267-.066-.4-.066h-.401c-.134-.066-.267-.066-.334-.132a.518.518 0 01-.267-.264c-.067-.132-.067-.263-.067-.461zm3.738.989c0 .198 0 .33.067.528.067.132.133.33.2.461.067.132.2.198.4.264.134.066.334.132.535.132.133 0 .267 0 .333-.066.067-.066.2-.066.267-.198.134-.066.267-.198.267-.263.067-.132.134-.198.134-.33h.467c-.134.395-.267.725-.534.923-.267.198-.6.264-1.001.264-.267 0-.467-.066-.668-.132-.2-.132-.333-.264-.467-.396a2.352 2.352 0 01-.267-.593c-.067-.198-.067-.462-.067-.66 0-.264 0-.462.067-.66.067-.197.134-.395.267-.593.134-.198.267-.33.467-.396.2-.132.4-.132.668-.132.267 0 .534.066.734.132.2.066.334.264.467.396.134.198.2.396.267.594.067.197.134.461.134.725h-2.737zm2.27-.396c0-.132-.067-.33-.067-.461l-.2-.396c-.067-.132-.2-.198-.334-.264s-.267-.066-.467-.066-.334 0-.468.066c-.133.066-.267.132-.333.264l-.2.396c-.134.132-.134.33-.2.461h2.268zm4.204 1.583L22.09.584h.468L20.753 5.53h-.534l-1.8-4.947h.468l1.601 4.551zm2.336-1.187c0 .198 0 .33.067.528.067.132.134.33.2.461.067.132.2.198.401.264.134.066.334.132.534.132.133 0 .267 0 .334-.066.133-.066.2-.066.267-.198.066-.066.133-.132.2-.263.067-.132.133-.198.133-.33h.468c-.134.395-.267.725-.534.923-.267.198-.601.264-1.002.264-.266 0-.467-.066-.667-.132a2.88 2.88 0 01-.467-.396c-.134-.198-.2-.395-.267-.593-.067-.198-.067-.462-.067-.66 0-.264 0-.462.067-.66.067-.197.133-.395.267-.593.133-.198.267-.33.467-.396.2-.132.4-.132.668-.132.266 0 .533.066.734.132.2.066.333.264.467.396.2.132.267.33.334.528.066.197.066.461.066.725h-2.67v.066zm2.203-.396c0-.132-.067-.33-.067-.461l-.2-.396c-.067-.132-.2-.198-.334-.264-.133-.066-.267-.066-.467-.066s-.333 0-.467.066c-.133.066-.267.132-.334.264l-.2.396c-.067.132-.067.263-.134.461h2.203zm1.736 1.979h-.401V2.1h.4v.528c.067-.198.2-.33.334-.462s.334-.198.6-.198h.268v.396h-.267c-.334 0-.534.132-.734.33-.067.198-.2.462-.2.791V5.53zm3.804-2.374c0-.132 0-.264-.067-.33-.066-.066-.066-.198-.2-.198 0-.132-.133-.198-.2-.198s-.2-.066-.334-.066h-.334c-.066 0-.2.066-.267.066l-.2.198c-.067.066-.067.198-.067.264h-.467c0-.198.067-.33.134-.462.066-.132.2-.198.267-.33l.4-.198c.134-.066.334-.066.467-.066.4 0 .668.066.935.264.2.198.333.462.333.858v2.44h-.4V4.87v.066c-.067.132-.2.264-.4.396s-.401.198-.735.198c-.133 0-.333 0-.467-.066l-.4-.198c-.134-.066-.2-.198-.267-.33-.067-.131-.067-.263-.067-.461 0-.264.067-.462.2-.594.2-.066.334-.198.534-.264.134-.066.267-.066.4-.132.134 0 .267-.066.401-.066h.801v-.263zm-1.802 1.45c0 .264.067.396.2.528a.763.763 0 00.534.198c.2 0 .4-.066.534-.132s.267-.132.334-.264l.2-.395c0-.132.067-.33.067-.462v-.264h-.467c-.134 0-.334 0-.468.066-.133 0-.333.066-.4.132-.134.066-.2.132-.334.264-.2 0-.2.132-.2.33zm3.671.924h-.4V2.1h.4v.528c.133-.198.267-.396.467-.462.2-.132.4-.132.6-.132.201 0 .334 0 .468.066.133.066.267.132.334.198.066.066.133.198.2.264.067.132.067.198.133.33 0 .132.067.198.067.33v2.44h-.4V3.353c0-.33-.067-.527-.267-.725a1.026 1.026 0 00-.668-.264c-.2 0-.334 0-.467.132-.133.066-.2.132-.334.264l-.2.396c-.067.131-.067.263-.067.461V5.53h.134zm3.27-2.572c0-.198.067-.33.134-.462s.2-.198.267-.264c.133-.066.267-.132.4-.132.134-.066.334-.066.468-.066.133 0 .333 0 .467.066.133 0 .267.066.4.132.067.066.2.132.267.264s.134.264.134.462h-.467c0-.132-.067-.198-.067-.264l-.2-.198c-.067-.066-.2-.066-.268-.066h-.6c-.067 0-.2.066-.267.066l-.2.198c0 .066-.067.132-.067.264s.067.198.133.264c.067.065.2.131.334.197.133.066.334.066.534.132s.4.132.668.198c.2.066.333.198.4.33.133.132.133.33.133.462 0 .198-.066.33-.133.527a.8.8 0 01-.334.33 3.277 3.277 0 01-.467.198c-.2.066-.334.066-.534.066-.134 0-.334 0-.467-.066-.134-.066-.267-.066-.4-.198-.134-.066-.2-.198-.334-.33-.067-.132-.134-.264-.134-.461h.467a.5.5 0 00.134.33l.2.197c.067.066.2.066.267.132h.334c.133 0 .2 0 .334-.066.133 0 .2-.066.267-.132l.2-.198c.067-.066.067-.197.067-.33 0-.131 0-.197-.067-.33a.92.92 0 00-.267-.197c-.134-.066-.2-.066-.334-.132-.133 0-.267-.066-.4-.066-.134 0-.267-.066-.4-.132-.134-.066-.268-.066-.335-.132a.518.518 0 01-.267-.264v-.33zm3.805-.462h-.668V2.1h.668v-.725l.4-.198V2.1h.801v.396h-.8v2.308c0 .33.133.462.467.462h.2c.066 0 .133 0 .2-.066v.33c-.067 0-.133 0-.2.066h-.2c-.2 0-.4 0-.534-.066a.518.518 0 01-.267-.264c-.067-.132-.067-.198-.067-.33v-2.44zm3.871.66c0-.132 0-.264-.067-.33-.066-.066-.066-.198-.2-.198-.067-.066-.133-.132-.267-.132-.067 0-.2-.066-.334-.066h-.333c-.067 0-.2.066-.267.066l-.2.198c-.067.066-.067.198-.067.264h-.468c0-.198.067-.33.134-.462s.2-.198.267-.33l.4-.198c.134-.066.334-.066.468-.066.4 0 .667.066.934.264.2.198.334.462.334.858v2.44h-.267v-.528.066c-.067.132-.2.264-.4.396s-.401.198-.735.198c-.133 0-.334 0-.467-.066l-.4-.198c-.134-.066-.2-.198-.267-.33s-.067-.263-.067-.461c0-.264.066-.462.2-.594.134-.132.334-.264.534-.33.133-.066.267-.066.4-.132.134 0 .267-.066.4-.066h.801v-.263h-.066zm-1.802 1.45c0 .264.067.396.2.528a.763.763 0 00.534.198c.2 0 .4-.066.534-.132s.267-.132.334-.264l.2-.395c0-.132.067-.33.067-.462v-.264h-1.001c-.134 0-.334.066-.4.132-.134.066-.201.132-.334.264-.067.066-.134.198-.134.396zm3.671.924h-.4V.583h.4V5.53zm1.335-3.034h-.668V2.1h.668v-.725l.467-.198V2.1h.801v.396h-.8v2.308c0 .33.133.462.466.462h.2c.067 0 .134 0 .2-.066v.33c-.066 0-.133 0-.2.066h-.2c-.2 0-.4 0-.534-.066a.518.518 0 01-.267-.264c-.066-.132-.066-.198-.066-.33v-2.44h-.067zm4.272-.396h.4v3.43h-.4v-.528c-.134.198-.267.396-.468.462-.2.132-.4.132-.6.132-.2 0-.334 0-.468-.066-.133-.066-.267-.132-.333-.198-.134 0-.2-.132-.267-.198-.067-.132-.067-.198-.134-.33 0-.131-.067-.197-.067-.263V2.1h.4v2.243c0 .33.068.527.268.725.133.132.4.264.667.264.2 0 .334 0 .468-.132.133-.066.2-.132.333-.264l.2-.395c.067-.132.067-.264.067-.462V2.1h-.066zm1.868 3.43h-.4V2.1h.4v.528c.134-.198.267-.396.468-.462.2-.132.4-.132.6-.132.2 0 .334 0 .468.066.133.066.267.132.333.198.067.066.134.198.2.264.067.132.067.198.134.33 0 .132.067.198.067.33v2.44h-.4V3.353c0-.33-.067-.527-.268-.725a1.026 1.026 0 00-.667-.264c-.2 0-.334 0-.467.132-.134.132-.2.132-.334.264 0 .066-.067.198-.067.396-.067.131-.067.263-.067.461V5.53zm5.807-3.43h.4v3.364c0 .198 0 .33-.066.462a3.185 3.185 0 00-.2.461c-.067.132-.267.264-.467.33-.134.066-.267.132-.4.132h-.401c-.134 0-.334 0-.468-.066-.133 0-.333-.066-.467-.132-.133-.066-.267-.198-.334-.264-.066-.131-.133-.263-.133-.461h.467c0 .132.067.198.134.264l.2.197c.067 0 .2.066.334.066h.333c.134 0 .267 0 .4-.066.134-.065.268-.131.335-.197.066-.066.2-.198.267-.33.066-.132.066-.264.066-.396v-.66c-.133.198-.267.396-.467.462-.2.132-.4.198-.667.198s-.468-.066-.668-.132-.334-.198-.467-.396c-.134-.131-.2-.33-.267-.527-.067-.198-.067-.462-.067-.66 0-.264 0-.461.067-.66.067-.197.133-.395.267-.593.133-.132.267-.33.467-.396.2-.132.4-.132.668-.132.267 0 .467.066.667.198s.334.264.467.462V2.1zm-.066 1.65c0-.133 0-.33-.067-.462s-.134-.33-.2-.462a.8.8 0 00-.334-.33 1.249 1.249 0 00-.467-.132c-.2 0-.334.066-.468.132a.8.8 0 00-.333.33 3.195 3.195 0 00-.2.462c-.067.131-.067.33-.067.461 0 .132 0 .33.066.462.067.132.134.33.2.462a.8.8 0 00.334.33c.134.131.267.131.468.131.2 0 .4-.066.534-.132a.8.8 0 00.333-.33c.067-.131.134-.263.2-.461v-.462zm4.338 1.252L63.872 2.1h.467l1.001 2.902L66.341 2.1h.468L65.54 5.53h-.4l-1.068-2.968-1.068 2.968h-.4L61.336 2.1h.467l1.001 2.902zm5.139-3.891h-.467V.583h.467v.528zm-.066.99V5.53h-.4V2.1h.4zm1.468 3.429h-.4V2.1h.4v.528c.067-.198.2-.33.334-.462.133-.132.333-.198.6-.198h.267v.396h-.267c-.333 0-.533.132-.734.33a1.403 1.403 0 00-.267.791V5.53h.067zm4.205-.462c-.134.198-.334.33-.534.462s-.4.132-.668.132c-.266 0-.467-.066-.667-.132a2.887 2.887 0 01-.467-.396 2.327 2.327 0 01-.267-.593c-.067-.198-.067-.462-.067-.66s0-.462.067-.66c.067-.197.133-.395.267-.593.133-.198.267-.33.467-.396.2-.132.4-.132.668-.132.2 0 .467.066.667.132.2.132.4.264.534.462V.584h.4V5.53h-.4v-.462zm0-1.319c0-.198 0-.33-.067-.527-.067-.132-.133-.33-.2-.462s-.2-.198-.334-.33a1.27 1.27 0 00-.534-.132c-.2 0-.334.066-.467.132a.8.8 0 00-.334.33c-.066.132-.133.264-.2.462-.067.131-.067.33-.067.461 0 .132 0 .33.067.528 0 .198.067.33.134.462.066.132.2.263.333.395.134.066.267.132.468.132.2 0 .4-.066.6-.132a.8.8 0 00.334-.33c.067-.131.133-.33.2-.461.067-.132.067-.33.067-.528zM79.223 2.1h.4v3.364c0 .198 0 .33-.066.462a3.233 3.233 0 00-.2.461c-.067.132-.267.264-.467.33-.134.066-.267.132-.4.132h-.401c-.134 0-.334 0-.468-.066-.133 0-.333-.066-.467-.132a1.452 1.452 0 01-.334-.264c-.066-.131-.133-.263-.133-.461h.467c0 .132.067.198.134.264l.2.197c.067.066.2.066.334.066h.333c.134 0 .267 0 .4-.066.134-.065.268-.131.335-.197.066-.066.2-.198.267-.33.066-.132.066-.264.066-.396v-.66c-.133.198-.267.396-.467.462-.2.132-.4.198-.667.198s-.468-.066-.668-.132-.334-.198-.467-.396c-.133-.131-.2-.33-.267-.527-.067-.198-.067-.462-.067-.66 0-.264 0-.461.067-.66.067-.197.133-.395.267-.593.134-.132.267-.33.467-.396.2-.132.4-.132.668-.132.267 0 .467.066.667.198s.334.264.467.462V2.1zm0 1.65c0-.133 0-.33-.066-.462-.067-.132-.134-.33-.2-.462a.8.8 0 00-.334-.33 1.249 1.249 0 00-.468-.132c-.2 0-.333.066-.467.132a.8.8 0 00-.334.33c-.066.132-.133.264-.2.462-.066.131-.066.33-.066.461 0 .132 0 .33.066.462.067.132.134.33.2.462a.8.8 0 00.334.33c.134.065.334.131.467.131.2 0 .4-.066.534-.132a.8.8 0 00.334-.33c.067-.131.134-.263.2-.461v-.462zm1.602.197c0 .198 0 .33.067.528.067.132.133.33.2.461.067.132.2.198.4.264.134.066.334.132.535.132.133 0 .267 0 .333-.066.134-.066.2-.066.267-.198a.912.912 0 00.2-.263c.067-.132.134-.198.134-.33h.467c-.133.395-.267.725-.534.923-.267.198-.6.264-1 .264-.268 0-.468-.066-.668-.132-.2-.132-.334-.264-.468-.396a2.327 2.327 0 01-.266-.593c-.067-.198-.067-.462-.067-.66 0-.264 0-.462.067-.66.066-.197.133-.395.266-.593.134-.198.267-.33.468-.396.2-.132.4-.132.667-.132s.534.066.734.132c.2.066.334.264.468.396.133.132.2.396.267.594.066.197.066.461.066.725h-2.603zm2.27-.396c0-.132-.067-.33-.067-.461l-.2-.396c-.067-.132-.2-.198-.334-.264s-.267-.066-.467-.066-.334 0-.468.066c-.133.066-.267.132-.333.264l-.2.396c-.067.132-.067.263-.134.461h2.203zm1.601 1.979V2.496h-.734V2.1h.734v-.725c0-.33.067-.528.2-.66.134-.132.401-.198.668-.198h.334v.396h-.267c-.134 0-.267 0-.334.066s-.133.066-.2.132-.067.132-.067.264v.791h.801v.33h-.8V5.53h-.335zM87.9 2.034c.267 0 .534.066.734.132.2.132.4.264.534.396.134.198.2.396.267.594.067.197.067.461.067.66 0 .197 0 .46-.067.659a2.283 2.283 0 01-.267.593c-.133.198-.333.33-.534.396-.2.132-.467.132-.734.132a2.42 2.42 0 01-.734-.132c-.2-.132-.4-.264-.534-.396-.133-.198-.267-.395-.267-.593-.067-.198-.067-.462-.067-.66s0-.462.067-.66c.067-.197.134-.395.267-.593.133-.198.334-.33.534-.396.2-.132.467-.132.734-.132zm1.135 1.781c0-.132 0-.33-.067-.528a3.183 3.183 0 00-.2-.461.8.8 0 00-.334-.33 1.27 1.27 0 00-.534-.132c-.2 0-.4.066-.534.132a.8.8 0 00-.334.33c-.066.132-.133.264-.2.461-.066.198-.066.33-.066.528 0 .132 0 .33.066.528.067.198.134.33.2.461a.8.8 0 00.334.33c.134.066.334.132.534.132s.4-.066.534-.132a.8.8 0 00.334-.33c.067-.131.133-.263.2-.461s.067-.33.067-.528zm-1.936-2.638V.649h.468v.528h-.468zm1.135 0V.649h.467v.528h-.467zm2.47 4.353h-.401V2.1h.4v.528c.067-.198.2-.33.334-.462s.334-.198.6-.198h.268v.396h-.267c-.334 0-.534.132-.734.33a1.403 1.403 0 00-.267.791V5.53h.067zm4.205-.462c-.134.198-.334.33-.535.462-.2.132-.4.132-.667.132s-.467-.066-.667-.132c-.2-.132-.334-.264-.468-.396a2.327 2.327 0 01-.267-.593c-.066-.198-.066-.462-.066-.66s0-.462.066-.66c.067-.197.134-.395.267-.593.134-.198.267-.33.468-.396.2-.132.4-.132.667-.132.2 0 .467.066.668.132.2.132.4.264.534.462V.584h.4V5.53h-.4v-.462zm0-1.319c0-.198 0-.33-.067-.527-.067-.132-.134-.33-.2-.462-.067-.132-.2-.198-.334-.33a1.269 1.269 0 00-.534-.132c-.2 0-.334.066-.467.132a.8.8 0 00-.334.33c-.067.132-.134.264-.2.462-.067.131-.067.33-.067.461 0 .132 0 .33.067.528 0 .198.066.33.133.462s.2.263.334.395c.133.066.267.132.467.132s.4-.066.6-.132a.8.8 0 00.334-.33c.067-.131.134-.33.2-.461.068-.132.068-.33.068-.528zm1.668.198c0 .198 0 .33.067.528.067.132.133.33.2.461.067.132.2.198.4.264.134.066.334.132.534.132.134 0 .267 0 .334-.066.134-.066.2-.066.267-.198.067-.066.134-.132.2-.263.067-.132.134-.198.134-.33h.467c-.133.395-.267.725-.534.923-.267.198-.6.264-1.001.264-.267 0-.467-.066-.667-.132-.2-.132-.334-.264-.468-.396a2.352 2.352 0 01-.267-.593c-.066-.198-.066-.462-.066-.66 0-.264 0-.462.066-.66.067-.197.134-.395.267-.593.134-.198.267-.33.468-.396.2-.132.4-.132.667-.132s.534.066.734.132c.2.066.334.264.467.396.134.198.2.396.267.594.067.263.067.461.067.725h-2.603zm2.203-.396c0-.132-.067-.33-.067-.461l-.2-.396c-.067-.132-.2-.198-.334-.264-.133-.066-.267-.066-.467-.066s-.334 0-.468.066c-.133.066-.266.132-.333.264l-.2.396c-.067.132-.067.263-.134.461h2.203zm1.735 1.979h-.4V2.1h.4v.528c.067-.198.2-.33.334-.462.133-.132.334-.198.6-.198h.267v.396h-.267c-.333 0-.533.132-.734.33a1.407 1.407 0 00-.267.791V5.53h.067zm2.136-3.034h-.668V2.1h.668v-.725l.4-.198V2.1h.801v.396h-.801v2.308c0 .33.134.462.468.462h.2c.067 0 .133 0 .2-.066v.33c-.067 0-.133 0-.2.066h-.2c-.201 0-.401 0-.534-.066a.514.514 0 01-.267-.264c-.067-.132-.067-.198-.067-.33v-2.44zm3.871-.396l1.135 2.902 1.134-2.902h.468l-1.469 3.43h-.4l-1.402-3.43h.534zm4.606-.066c.267 0 .534.066.734.132.2.132.4.264.534.396.133.198.2.396.267.594.066.197.066.461.066.66 0 .197 0 .46-.066.659a2.355 2.355 0 01-.267.593 1.04 1.04 0 01-.534.396c-.2.132-.467.132-.734.132-.267 0-.534-.066-.735-.132-.2-.132-.4-.264-.534-.396-.133-.198-.267-.395-.267-.593-.066-.198-.066-.462-.066-.66s0-.462.066-.66c.067-.197.134-.395.267-.593a1.04 1.04 0 01.534-.396c.201-.132.401-.132.735-.132zm1.134 1.781c0-.132 0-.33-.067-.528a3.077 3.077 0 00-.2-.461.802.802 0 00-.333-.33 1.272 1.272 0 00-.534-.132c-.201 0-.401.066-.534.132a.799.799 0 00-.334.33 3.09 3.09 0 00-.2.461c-.067.198-.067.33-.067.528 0 .132 0 .33.067.528.066.198.133.33.2.461a.8.8 0 00.334.33c.133.066.333.132.534.132.2 0 .4-.066.534-.132a.802.802 0 00.333-.33c.067-.131.134-.263.2-.461.067-.198.067-.33.067-.528zm1.669 1.715h-.401V2.1h.401v.528c.133-.198.267-.396.467-.462.2-.132.401-.132.601-.132.2 0 .333 0 .467.066.133.066.267.132.334.198.066.066.133.198.2.264.067.132.067.198.133.33 0 .132.067.198.067.33v2.44h-.4V3.353c0-.33-.067-.527-.267-.725a1.029 1.029 0 00-.668-.264c-.2 0-.333 0-.467.132-.133.132-.2.132-.334.264l-.2.396c-.067.131-.067.263-.067.461V5.53h.134zm7.609-.462c-.134.198-.334.33-.534.462s-.401.132-.668.132-.467-.066-.667-.132a2.88 2.88 0 01-.467-.396c-.134-.198-.2-.395-.267-.593-.067-.198-.067-.462-.067-.66s0-.462.067-.66c.067-.197.133-.395.267-.593.133-.198.267-.33.467-.396.2-.132.4-.132.667-.132.201 0 .468.066.668.132.2.132.4.264.534.462V.584h.4V5.53h-.4v-.462zm0-1.319c0-.198 0-.33-.067-.527-.067-.132-.133-.33-.2-.462s-.2-.198-.334-.33a1.269 1.269 0 00-.534-.132c-.2 0-.334.066-.467.132a.799.799 0 00-.334.33 3.197 3.197 0 00-.2.462c-.067.131-.067.33-.067.461 0 .132 0 .33.067.528 0 .198.067.33.133.462.067.132.201.263.334.395.134.066.267.132.467.132.201 0 .401-.066.601-.132a.799.799 0 00.334-.33c.067-.131.133-.33.2-.461.067-.132.067-.33.067-.528zm1.668.198c0 .198 0 .33.067.528.067.132.134.33.2.461.067.132.201.198.401.264.133.066.334.132.534.132.133 0 .267 0 .334-.066.133-.066.2-.066.267-.198.066-.066.133-.132.2-.263.067-.132.133-.198.133-.33h.468c-.134.395-.267.725-.534.923-.267.198-.601.264-1.002.264-.267 0-.467-.066-.667-.132a2.88 2.88 0 01-.467-.396 2.286 2.286 0 01-.267-.593c-.067-.198-.067-.462-.067-.66 0-.264 0-.462.067-.66.066-.197.133-.395.267-.593.133-.198.267-.33.467-.396.2-.132.4-.132.667-.132s.534.066.735.132c.2.066.333.264.467.396.133.198.2.396.267.594.067.263.067.461.067.725h-2.604zm2.203-.396c0-.132-.067-.33-.067-.461l-.2-.396c-.067-.132-.2-.198-.334-.264-.133-.066-.267-.066-.467-.066s-.334 0-.467.066c-.134.066-.267.132-.334.264l-.2.396c-.067.132-.067.263-.134.461h2.203zm1.735 1.979h-.4V2.1h.4v.528c.067-.198.201-.33.334-.462.134-.132.334-.198.601-.198h.267v.396h-.267c-.334 0-.534.132-.734.33a1.4 1.4 0 00-.267.791V5.53h.066z" fill="#000"/></g><defs><clipPath id="clip0_185_301"><path fill="#fff" transform="translate(.063 .517)" d="M0 0h128.351v45.84H0z"/></clipPath></defs></svg>