<svg width="109" height="38" viewBox="0 0 109 38" fill="none" xmlns="http://www.w3.org/2000/svg">
<path d="M1.58399 0.179199V15.8872H11.88V14.6112H3.07999V0.179199H1.58399Z" fill="black"/>
<path d="M13.0044 8.0112H14.3904C14.4197 7.0872 14.7131 6.41987 15.2704 6.0092C15.8277 5.58387 16.5464 5.3712 17.4264 5.3712C17.8371 5.3712 18.2184 5.40787 18.5704 5.4812C18.9371 5.53987 19.2524 5.6572 19.5164 5.8332C19.7951 6.0092 20.0077 6.2512 20.1544 6.5592C20.3157 6.85253 20.3964 7.23387 20.3964 7.7032C20.3964 8.0112 20.3524 8.26053 20.2644 8.4512C20.1911 8.64187 20.0811 8.79587 19.9344 8.9132C19.7877 9.01587 19.6044 9.0892 19.3844 9.1332C19.1644 9.1772 18.9077 9.21387 18.6144 9.2432C17.8664 9.3312 17.1257 9.42653 16.3924 9.5292C15.6737 9.6172 15.0211 9.77853 14.4344 10.0132C13.8624 10.2479 13.4004 10.5925 13.0484 11.0472C12.6964 11.4872 12.5204 12.1032 12.5204 12.8952C12.5204 13.4672 12.6157 13.9659 12.8064 14.3912C13.0117 14.8019 13.2831 15.1465 13.6204 15.4252C13.9724 15.6892 14.3757 15.8799 14.8304 15.9972C15.2997 16.1292 15.7984 16.1952 16.3264 16.1952C16.8837 16.1952 17.3604 16.1439 17.7564 16.0412C18.1671 15.9385 18.5264 15.7919 18.8344 15.6012C19.1571 15.4105 19.4431 15.1759 19.6924 14.8972C19.9564 14.6039 20.2131 14.2739 20.4624 13.9072H20.5064C20.5064 14.2005 20.5211 14.4719 20.5504 14.7212C20.5944 14.9559 20.6751 15.1612 20.7924 15.3372C20.9097 15.5132 21.0711 15.6525 21.2764 15.7552C21.4964 15.8432 21.7824 15.8872 22.1344 15.8872C22.3251 15.8872 22.4791 15.8799 22.5964 15.8652C22.7284 15.8505 22.8751 15.8285 23.0364 15.7992V14.6332C22.9044 14.6919 22.7577 14.7212 22.5964 14.7212C22.0537 14.7212 21.7824 14.4425 21.7824 13.8852V7.8572C21.7824 7.09453 21.6577 6.47853 21.4084 6.0092C21.1591 5.5252 20.8364 5.1512 20.4404 4.8872C20.0444 4.6232 19.5971 4.4472 19.0984 4.3592C18.5997 4.25653 18.1011 4.2052 17.6024 4.2052C16.9424 4.2052 16.3411 4.27853 15.7984 4.4252C15.2557 4.57187 14.7791 4.7992 14.3684 5.1072C13.9724 5.4152 13.6571 5.8112 13.4224 6.2952C13.1877 6.7792 13.0484 7.3512 13.0044 8.0112ZM20.3964 9.6832V11.4872C20.3964 12.0445 20.2864 12.5432 20.0664 12.9832C19.8611 13.4232 19.5751 13.7972 19.2084 14.1052C18.8564 14.4132 18.4384 14.6479 17.9544 14.8092C17.4704 14.9705 16.9644 15.0512 16.4364 15.0512C16.1137 15.0512 15.7984 14.9999 15.4904 14.8972C15.1824 14.7945 14.9111 14.6479 14.6764 14.4572C14.4417 14.2519 14.2511 14.0172 14.1044 13.7532C13.9724 13.4745 13.9064 13.1592 13.9064 12.8072C13.9064 12.2499 14.0677 11.8245 14.3904 11.5312C14.7277 11.2232 15.1531 10.9885 15.6664 10.8272C16.1797 10.6659 16.7444 10.5485 17.3604 10.4752C17.9911 10.3872 18.5997 10.2919 19.1864 10.1892C19.3771 10.1599 19.5971 10.1085 19.8464 10.0352C20.0957 9.96187 20.2644 9.84453 20.3524 9.6832H20.3964Z" fill="black"/>
<path d="M32.8896 7.0652L34.0996 1.4552H38.9396C39.3356 1.4552 39.7023 1.4992 40.0396 1.5872C40.3917 1.6752 40.6923 1.82187 40.9417 2.0272C41.2057 2.21787 41.411 2.47453 41.5576 2.7972C41.7043 3.1052 41.7776 3.4792 41.7776 3.9192C41.7776 4.46187 41.6676 4.9312 41.4476 5.3272C41.2276 5.70853 40.9343 6.02387 40.5676 6.2732C40.201 6.52253 39.783 6.7132 39.3136 6.8452C38.8443 6.9772 38.353 7.05053 37.8396 7.0652H32.8896ZM32.8676 0.179199L29.4576 15.8872H36.2337C37.055 15.8872 37.847 15.8065 38.6096 15.6452C39.3723 15.4692 40.0396 15.1905 40.6116 14.8092C41.1983 14.4279 41.6676 13.9219 42.0196 13.2912C42.3717 12.6605 42.5476 11.8832 42.5476 10.9592C42.5476 10.1232 42.3056 9.40453 41.8216 8.8032C41.3523 8.1872 40.6996 7.82787 39.8636 7.7252V7.6812C40.8903 7.5052 41.7116 7.07253 42.3276 6.3832C42.9583 5.6792 43.2736 4.80653 43.2736 3.7652C43.2736 3.1052 43.1563 2.54787 42.9216 2.0932C42.7016 1.63853 42.3937 1.27187 41.9977 0.993199C41.6017 0.699866 41.1396 0.494533 40.6116 0.377199C40.0983 0.245199 39.5483 0.179199 38.9616 0.179199H32.8676ZM31.2396 14.6112L32.6036 8.3412H37.3336C37.8176 8.3412 38.2797 8.37787 38.7197 8.4512C39.1743 8.52453 39.5703 8.6712 39.9076 8.8912C40.2597 9.09653 40.5383 9.38253 40.7436 9.7492C40.949 10.1012 41.0516 10.5632 41.0516 11.1352C41.0516 11.7512 40.9196 12.2792 40.6556 12.7192C40.3916 13.1592 40.047 13.5185 39.6217 13.7972C39.1963 14.0759 38.7123 14.2812 38.1696 14.4132C37.6416 14.5452 37.1063 14.6112 36.5636 14.6112H31.2396Z" fill="black"/>
<path d="M50.1375 5.3712C50.7975 5.3712 51.3768 5.51053 51.8755 5.7892C52.3741 6.06787 52.7848 6.43453 53.1075 6.8892C53.4448 7.34387 53.6941 7.86453 53.8555 8.4512C54.0315 9.0232 54.1195 9.60987 54.1195 10.2112C54.1195 10.8125 54.0315 11.4065 53.8555 11.9932C53.6941 12.5652 53.4448 13.0785 53.1075 13.5332C52.7848 13.9879 52.3741 14.3545 51.8755 14.6332C51.3768 14.9119 50.7975 15.0512 50.1375 15.0512C49.4775 15.0512 48.8981 14.9119 48.3995 14.6332C47.9008 14.3545 47.4828 13.9879 47.1455 13.5332C46.8228 13.0785 46.5735 12.5652 46.3975 11.9932C46.2361 11.4065 46.1555 10.8125 46.1555 10.2112C46.1555 9.60987 46.2361 9.0232 46.3975 8.4512C46.5735 7.86453 46.8228 7.34387 47.1455 6.8892C47.4828 6.43453 47.9008 6.06787 48.3995 5.7892C48.8981 5.51053 49.4775 5.3712 50.1375 5.3712ZM50.1375 4.2052C49.2721 4.2052 48.5021 4.36653 47.8275 4.6892C47.1675 5.01187 46.6101 5.44453 46.1555 5.9872C45.7008 6.52987 45.3561 7.16787 45.1215 7.9012C44.8868 8.61987 44.7695 9.38987 44.7695 10.2112C44.7695 11.0325 44.8868 11.8099 45.1215 12.5432C45.3561 13.2619 45.7008 13.8925 46.1555 14.4352C46.6101 14.9779 47.1675 15.4105 47.8275 15.7332C48.5021 16.0412 49.2721 16.1952 50.1375 16.1952C51.0028 16.1952 51.7655 16.0412 52.4255 15.7332C53.1001 15.4105 53.6648 14.9779 54.1195 14.4352C54.5741 13.8925 54.9188 13.2619 55.1535 12.5432C55.3881 11.8099 55.5055 11.0325 55.5055 10.2112C55.5055 9.38987 55.3881 8.61987 55.1535 7.9012C54.9188 7.16787 54.5741 6.52987 54.1195 5.9872C53.6648 5.44453 53.1001 5.01187 52.4255 4.6892C51.7655 4.36653 51.0028 4.2052 50.1375 4.2052Z" fill="black"/>
<path d="M57.5441 0.179199V15.8872H58.9301V9.2652C58.9448 8.70787 59.0328 8.19453 59.1941 7.7252C59.3701 7.2412 59.6048 6.83053 59.8981 6.4932C60.2061 6.1412 60.5728 5.86987 60.9981 5.6792C61.4381 5.47387 61.9368 5.3712 62.4941 5.3712C63.0514 5.3712 63.5134 5.4592 63.8801 5.6352C64.2614 5.8112 64.5621 6.0532 64.7821 6.3612C65.0021 6.6692 65.1561 7.03587 65.2441 7.4612C65.3321 7.87187 65.3761 8.3192 65.3761 8.8032V15.8872H66.7621V8.5832C66.7621 7.90853 66.6961 7.29987 66.5641 6.7572C66.4321 6.21453 66.2048 5.75987 65.8821 5.3932C65.5594 5.01187 65.1267 4.71853 64.5841 4.5132C64.0561 4.30787 63.3961 4.2052 62.6041 4.2052C61.7974 4.2052 61.0568 4.41787 60.3821 4.8432C59.7074 5.25387 59.2381 5.80387 58.9741 6.4932H58.9301V0.179199H57.5441Z" fill="black"/>
<path d="M77.4125 9.4192H69.9985C70.1158 8.8912 70.2992 8.3852 70.5485 7.9012C70.7978 7.4172 71.1058 6.99187 71.4725 6.6252C71.8538 6.24387 72.2792 5.9432 72.7485 5.7232C73.2325 5.48853 73.7605 5.3712 74.3325 5.3712C75.3005 5.3712 76.0558 5.6572 76.5985 6.2292C77.1558 6.8012 77.4345 7.5712 77.4345 8.5392C77.4345 8.68587 77.4272 8.83253 77.4125 8.9792C77.4125 9.1112 77.4125 9.25787 77.4125 9.4192ZM69.8225 10.5852H78.7105C78.7545 10.2479 78.7838 9.91787 78.7985 9.5952C78.8132 9.27253 78.8205 8.94987 78.8205 8.6272C78.8205 7.9672 78.7252 7.36587 78.5345 6.8232C78.3438 6.28053 78.0578 5.81853 77.6765 5.4372C77.3098 5.0412 76.8625 4.74053 76.3345 4.5352C75.8065 4.3152 75.1978 4.2052 74.5085 4.2052C73.5405 4.2052 72.6752 4.41053 71.9125 4.8212C71.1498 5.23187 70.5045 5.77453 69.9765 6.4492C69.4485 7.12387 69.0452 7.89387 68.7665 8.7592C68.5025 9.60987 68.3705 10.4899 68.3705 11.3992C68.3705 12.8952 68.7592 14.0685 69.5365 14.9192C70.3285 15.7699 71.4798 16.1952 72.9905 16.1952C74.3545 16.1952 75.4618 15.8579 76.3125 15.1832C77.1632 14.5085 77.7792 13.5259 78.1605 12.2352H76.7745C76.5105 13.0712 76.0558 13.7532 75.4105 14.2812C74.7652 14.7945 73.9805 15.0512 73.0565 15.0512C72.4992 15.0512 72.0078 14.9632 71.5825 14.7872C71.1718 14.5965 70.8272 14.3472 70.5485 14.0392C70.2845 13.7165 70.0865 13.3352 69.9545 12.8952C69.8225 12.4552 69.7565 11.9785 69.7565 11.4652C69.7565 11.1425 69.7785 10.8492 69.8225 10.5852Z" fill="black"/>
<path d="M80.7907 4.5352V15.8872H82.1767V9.5512C82.1767 8.94987 82.2427 8.39987 82.3747 7.9012C82.5067 7.38787 82.7047 6.94787 82.9687 6.5812C83.2474 6.19987 83.5994 5.90653 84.0247 5.7012C84.4647 5.4812 84.978 5.3712 85.5647 5.3712C86.0047 5.3712 86.3787 5.44453 86.6867 5.5912C86.9947 5.73787 87.2367 5.9432 87.4127 6.2072C87.6034 6.45653 87.7354 6.7572 87.8087 7.1092C87.8967 7.44653 87.9407 7.80587 87.9407 8.1872V15.8872H89.3267V9.4632C89.3267 8.9352 89.3707 8.4292 89.4587 7.9452C89.5614 7.44653 89.73 7.00653 89.9647 6.6252C90.1994 6.24387 90.5147 5.9432 90.9107 5.7232C91.3067 5.48853 91.8054 5.3712 92.4067 5.3712C93.404 5.3712 94.1007 5.62053 94.4967 6.1192C94.8927 6.6032 95.0907 7.31453 95.0907 8.2532V15.8872H96.4767V8.1872C96.4767 5.53253 95.2227 4.2052 92.7147 4.2052C91.9667 4.2052 91.2627 4.38853 90.6027 4.7552C89.9427 5.12187 89.444 5.6792 89.1067 6.4272C88.9014 5.6792 88.4907 5.12187 87.8747 4.7552C87.2734 4.38853 86.5987 4.2052 85.8507 4.2052C84.9267 4.2052 84.164 4.4032 83.5627 4.7992C82.976 5.1952 82.4994 5.7452 82.1327 6.4492H82.0667V4.5352H80.7907Z" fill="black"/>
<path d="M107.279 9.4192H99.9309C99.9895 8.90587 100.107 8.4072 100.283 7.9232C100.474 7.42453 100.723 6.99187 101.031 6.6252C101.339 6.24387 101.713 5.9432 102.153 5.7232C102.593 5.48853 103.099 5.3712 103.671 5.3712C104.228 5.3712 104.727 5.48853 105.167 5.7232C105.607 5.9432 105.981 6.24387 106.289 6.6252C106.597 6.99187 106.832 7.4172 106.993 7.9012C107.169 8.3852 107.264 8.8912 107.279 9.4192ZM99.9309 10.5852H108.665C108.694 9.7932 108.621 9.01587 108.445 8.2532C108.269 7.47587 107.976 6.79387 107.565 6.2072C107.169 5.60587 106.648 5.12187 106.003 4.7552C105.358 4.38853 104.58 4.2052 103.671 4.2052C102.776 4.2052 101.999 4.3812 101.339 4.7332C100.694 5.07053 100.166 5.5252 99.7549 6.0972C99.3442 6.65453 99.0362 7.29253 98.8309 8.0112C98.6402 8.72987 98.5449 9.4632 98.5449 10.2112C98.5449 11.0179 98.6402 11.7879 98.8309 12.5212C99.0362 13.2399 99.3442 13.8779 99.7549 14.4352C100.166 14.9779 100.694 15.4105 101.339 15.7332C101.999 16.0412 102.776 16.1952 103.671 16.1952C105.108 16.1952 106.216 15.8432 106.993 15.1392C107.785 14.4352 108.328 13.4379 108.621 12.1472H107.235C107.015 13.0272 106.619 13.7312 106.047 14.2592C105.475 14.7872 104.683 15.0512 103.671 15.0512C103.011 15.0512 102.446 14.9119 101.977 14.6332C101.508 14.3545 101.119 14.0025 100.811 13.5772C100.503 13.1519 100.276 12.6752 100.129 12.1472C99.9969 11.6045 99.9309 11.0839 99.9309 10.5852Z" fill="black"/>
<path d="M10.934 36.8872V35.6112H2.37599C2.46399 35.0979 2.68399 34.6285 3.03599 34.2032C3.38799 33.7632 3.79133 33.3599 4.24599 32.9932C4.71533 32.6265 5.19933 32.2965 5.69799 32.0032C6.19666 31.6952 6.62933 31.4165 6.99599 31.1672C7.50933 30.8445 7.99333 30.4999 8.44799 30.1332C8.91733 29.7519 9.32799 29.3412 9.67999 28.9012C10.0467 28.4612 10.3327 27.9772 10.538 27.4492C10.758 26.9212 10.868 26.3345 10.868 25.6892C10.868 24.9705 10.7433 24.3399 10.494 23.7972C10.2593 23.2545 9.92199 22.8072 9.48199 22.4552C9.05666 22.0885 8.55066 21.8172 7.96399 21.6412C7.39199 21.4505 6.76866 21.3552 6.09399 21.3552C5.25799 21.3552 4.52466 21.4945 3.89399 21.7732C3.27799 22.0372 2.76466 22.4112 2.35399 22.8952C1.94333 23.3792 1.63533 23.9585 1.42999 24.6332C1.23933 25.2932 1.15133 26.0192 1.16599 26.8112H2.55199C2.53733 26.2392 2.58866 25.6965 2.70599 25.1832C2.83799 24.6699 3.04333 24.2152 3.32199 23.8192C3.60066 23.4232 3.95999 23.1079 4.39999 22.8732C4.85466 22.6385 5.39733 22.5212 6.02799 22.5212C6.49733 22.5212 6.93733 22.5945 7.34799 22.7412C7.77333 22.8732 8.13999 23.0785 8.44799 23.3572C8.77066 23.6212 9.01999 23.9512 9.19599 24.3472C9.38666 24.7285 9.48199 25.1685 9.48199 25.6672C9.48199 26.2832 9.37199 26.8185 9.15199 27.2732C8.94666 27.7132 8.63133 28.1459 8.20599 28.5712C7.78066 28.9965 7.29666 29.3999 6.75399 29.7812C6.22599 30.1479 5.69066 30.5145 5.14799 30.8812C4.60533 31.2332 4.07733 31.6072 3.56399 32.0032C3.05066 32.3845 2.58866 32.8099 2.17799 33.2792C1.76733 33.7485 1.43733 34.2765 1.18799 34.8632C0.938659 35.4499 0.806659 36.1245 0.791992 36.8872H10.934Z" fill="black"/>
<path d="M18.3406 21.3552C17.2259 21.3552 16.3166 21.6045 15.6126 22.1032C14.9086 22.5872 14.3586 23.2105 13.9626 23.9732C13.5813 24.7359 13.3173 25.5865 13.1706 26.5252C13.0386 27.4639 12.9726 28.3879 12.9726 29.2972C12.9726 30.1919 13.0386 31.1085 13.1706 32.0472C13.3173 32.9859 13.5813 33.8365 13.9626 34.5992C14.3586 35.3619 14.9086 35.9852 15.6126 36.4692C16.3166 36.9532 17.2259 37.1952 18.3406 37.1952C19.4699 37.1952 20.3793 36.9532 21.0686 36.4692C21.7726 35.9852 22.3153 35.3619 22.6966 34.5992C23.0926 33.8365 23.3566 32.9859 23.4886 32.0472C23.6353 31.1085 23.7086 30.1845 23.7086 29.2752C23.7086 28.3805 23.6353 27.4639 23.4886 26.5252C23.3566 25.5865 23.0926 24.7359 22.6966 23.9732C22.3153 23.2105 21.7726 22.5872 21.0686 22.1032C20.3793 21.6045 19.4699 21.3552 18.3406 21.3552ZM18.3406 22.5212C19.2206 22.5212 19.9246 22.7485 20.4526 23.2032C20.9806 23.6579 21.3766 24.2225 21.6406 24.8972C21.9193 25.5719 22.1026 26.3052 22.1906 27.0972C22.2786 27.8892 22.3226 28.6152 22.3226 29.2752C22.3226 29.9499 22.2786 30.6832 22.1906 31.4752C22.1026 32.2525 21.9193 32.9859 21.6406 33.6752C21.3766 34.3499 20.9806 34.9145 20.4526 35.3692C19.9246 35.8239 19.2206 36.0512 18.3406 36.0512C17.4606 36.0512 16.7566 35.8239 16.2286 35.3692C15.7006 34.9145 15.2973 34.3499 15.0186 33.6752C14.7546 32.9859 14.5786 32.2525 14.4906 31.4752C14.4026 30.6832 14.3586 29.9499 14.3586 29.2752C14.3586 28.6152 14.4026 27.8892 14.4906 27.0972C14.5786 26.3052 14.7546 25.5719 15.0186 24.8972C15.2973 24.2225 15.7006 23.6579 16.2286 23.2032C16.7566 22.7485 17.4606 22.5212 18.3406 22.5212Z" fill="black"/>
<path d="M26.2092 26.6352H27.5952C27.6245 26.0779 27.7272 25.5499 27.9032 25.0512C28.0792 24.5525 28.3285 24.1199 28.6512 23.7532C28.9739 23.3719 29.3625 23.0712 29.8172 22.8512C30.2865 22.6312 30.8145 22.5212 31.4012 22.5212C31.8265 22.5212 32.2299 22.5799 32.6112 22.6972C32.9925 22.7999 33.3225 22.9685 33.6012 23.2032C33.8945 23.4232 34.1292 23.7092 34.3052 24.0612C34.4812 24.3985 34.5692 24.8019 34.5692 25.2712C34.5692 25.9459 34.4225 26.5399 34.1292 27.0532C33.8505 27.5519 33.4765 28.0065 33.0072 28.4172C32.5379 28.8279 31.9952 29.2092 31.3792 29.5612C30.7779 29.9132 30.1619 30.2652 29.5312 30.6172C28.9005 30.9692 28.2772 31.3432 27.6612 31.7392C27.0452 32.1205 26.4879 32.5605 25.9892 33.0592C25.5052 33.5432 25.1019 34.1005 24.7792 34.7312C24.4565 35.3472 24.2732 36.0659 24.2292 36.8872H34.1732L34.4152 35.6112H25.8132C26.0185 35.0392 26.3192 34.5332 26.7152 34.0932C27.1259 33.6532 27.5879 33.2499 28.1012 32.8832C28.6292 32.5019 29.1865 32.1499 29.7732 31.8272C30.3599 31.5045 30.9392 31.1745 31.5112 30.8372C32.0979 30.5145 32.6552 30.1772 33.1832 29.8252C33.7259 29.4585 34.2025 29.0552 34.6132 28.6152C35.0239 28.1752 35.3465 27.6912 35.5812 27.1632C35.8305 26.6205 35.9552 26.0045 35.9552 25.3152C35.9552 24.6699 35.8379 24.1052 35.6032 23.6212C35.3685 23.1225 35.0459 22.7045 34.6352 22.3672C34.2392 22.0299 33.7699 21.7805 33.2272 21.6192C32.6992 21.4432 32.1345 21.3552 31.5332 21.3552C30.7705 21.3552 30.0665 21.4872 29.4212 21.7512C28.7905 22.0152 28.2405 22.3819 27.7712 22.8512C27.3019 23.3205 26.9279 23.8779 26.6492 24.5232C26.3852 25.1685 26.2385 25.8725 26.2092 26.6352Z" fill="black"/>
<path d="M38.4338 26.6352H39.8198C39.8492 26.0779 39.9518 25.5499 40.1278 25.0512C40.3038 24.5525 40.5532 24.1199 40.8758 23.7532C41.1985 23.3719 41.5872 23.0712 42.0418 22.8512C42.5112 22.6312 43.0392 22.5212 43.6258 22.5212C44.0512 22.5212 44.4545 22.5799 44.8358 22.6972C45.2172 22.7999 45.5472 22.9685 45.8258 23.2032C46.1192 23.4232 46.3538 23.7092 46.5298 24.0612C46.7058 24.3985 46.7938 24.8019 46.7938 25.2712C46.7938 25.9459 46.6472 26.5399 46.3538 27.0532C46.0752 27.5519 45.7012 28.0065 45.2318 28.4172C44.7625 28.8279 44.2198 29.2092 43.6038 29.5612C43.0025 29.9132 42.3865 30.2652 41.7558 30.6172C41.1252 30.9692 40.5018 31.3432 39.8858 31.7392C39.2698 32.1205 38.7125 32.5605 38.2138 33.0592C37.7298 33.5432 37.3265 34.1005 37.0038 34.7312C36.6812 35.3472 36.4978 36.0659 36.4538 36.8872H46.3978L46.6398 35.6112H38.0378C38.2432 35.0392 38.5438 34.5332 38.9398 34.0932C39.3505 33.6532 39.8125 33.2499 40.3258 32.8832C40.8538 32.5019 41.4112 32.1499 41.9978 31.8272C42.5845 31.5045 43.1638 31.1745 43.7358 30.8372C44.3225 30.5145 44.8798 30.1772 45.4078 29.8252C45.9505 29.4585 46.4272 29.0552 46.8378 28.6152C47.2485 28.1752 47.5712 27.6912 47.8058 27.1632C48.0552 26.6205 48.1798 26.0045 48.1798 25.3152C48.1798 24.6699 48.0625 24.1052 47.8278 23.6212C47.5932 23.1225 47.2705 22.7045 46.8598 22.3672C46.4638 22.0299 45.9945 21.7805 45.4518 21.6192C44.9238 21.4432 44.3592 21.3552 43.7578 21.3552C42.9952 21.3552 42.2912 21.4872 41.6458 21.7512C41.0152 22.0152 40.4652 22.3819 39.9958 22.8512C39.5265 23.3205 39.1525 23.8779 38.8738 24.5232C38.6098 25.1685 38.4632 25.8725 38.4338 26.6352Z" fill="black"/>
</svg>
