<svg width="529" height="37" viewBox="0 0 529 37" fill="none" xmlns="http://www.w3.org/2000/svg">
<path d="M0.801758 28.8711V1.24316H18.0762V4.50879H4.47559V12.0791H17.1484V15.3447H4.47559V25.6055H18.0762V28.8711H0.801758Z" fill="black"/>
<path d="M38.1523 28.8711H34.6641V17.0703C34.6641 16.1178 34.6146 15.2334 34.5156 14.417C34.429 13.5882 34.2559 12.9264 33.9961 12.4316C33.7116 11.9121 33.3158 11.5286 32.8086 11.2813C32.3014 11.0215 31.6087 10.8916 30.7305 10.8916C29.8646 10.8916 28.9678 11.1266 28.04 11.5967C27.1247 12.0544 26.2279 12.6543 25.3496 13.3965V28.8711H21.8613V8.14551H25.3496V10.4463C26.3887 9.51856 27.4154 8.80729 28.4297 8.3125C29.444 7.81771 30.514 7.57031 31.6396 7.57031C33.6807 7.57031 35.2764 8.24447 36.4268 9.59278C37.5771 10.9287 38.1523 12.8708 38.1523 15.4189V28.8711Z" fill="black"/>
<path d="M48.6543 29.3721C47.2689 29.3721 45.9701 29.1865 44.7578 28.8154C43.5579 28.4443 42.5622 28.0485 41.7705 27.6279V23.7129H41.9561C42.2529 23.9479 42.5993 24.2077 42.9951 24.4922C43.4033 24.7767 43.9414 25.0736 44.6094 25.3828C45.2031 25.655 45.8525 25.8962 46.5576 26.1065C47.2751 26.3167 48.0173 26.4219 48.7842 26.4219C49.3408 26.4219 49.9346 26.36 50.5654 26.2363C51.1963 26.1003 51.6663 25.9333 51.9756 25.7354C52.4085 25.4509 52.7178 25.1478 52.9033 24.8262C53.1012 24.5046 53.2002 24.0221 53.2002 23.3789C53.2002 22.5501 52.9714 21.9255 52.5137 21.5049C52.0684 21.0843 51.2705 20.7318 50.1201 20.4473C49.6748 20.3359 49.0934 20.2061 48.376 20.0576C47.6585 19.9092 46.9967 19.7484 46.3906 19.5752C44.8073 19.1175 43.6569 18.4124 42.9395 17.46C42.222 16.4951 41.8633 15.3324 41.8633 13.9717C41.8633 12.1038 42.5684 10.5824 43.9785 9.40723C45.3887 8.2321 47.2627 7.64453 49.6006 7.64453C50.751 7.64453 51.9076 7.78679 53.0703 8.07129C54.2331 8.3558 55.2103 8.71452 56.002 9.14746V12.877H55.8164C54.9258 12.1719 53.93 11.6152 52.8291 11.207C51.7406 10.7988 50.6396 10.5947 49.5264 10.5947C48.376 10.5947 47.4049 10.8359 46.6133 11.3184C45.8216 11.8008 45.4258 12.5306 45.4258 13.5078C45.4258 14.3737 45.6608 15.0231 46.1309 15.4561C46.6009 15.8766 47.3555 16.223 48.3945 16.4951C48.9141 16.6312 49.4893 16.7673 50.1201 16.9033C50.7633 17.027 51.4375 17.1755 52.1426 17.3486C53.6764 17.7321 54.8268 18.3691 55.5938 19.2598C56.373 20.1504 56.7627 21.3626 56.7627 22.8965C56.7627 23.7871 56.5833 24.6344 56.2246 25.4385C55.8783 26.2302 55.3649 26.9105 54.6846 27.4795C53.9424 28.098 53.1012 28.568 52.1611 28.8897C51.2334 29.2113 50.0645 29.3721 48.6543 29.3721Z" fill="black"/>
<path d="M69.0088 29.3535C65.7061 29.3535 63.1393 28.4258 61.3086 26.5703C59.4902 24.7025 58.5811 22.0553 58.5811 18.6289C58.5811 15.252 59.4655 12.5677 61.2344 10.5762C63.0033 8.57227 65.3164 7.57031 68.1738 7.57031C69.4603 7.57031 70.5983 7.75586 71.5879 8.12696C72.5775 8.49805 73.4434 9.07943 74.1855 9.8711C74.9277 10.6628 75.4967 11.6338 75.8926 12.7842C76.2884 13.9222 76.4863 15.32 76.4863 16.9775V18.8701H62.125C62.125 21.2822 62.7311 23.1253 63.9434 24.3994C65.1556 25.6735 66.8317 26.3106 68.9717 26.3106C69.7386 26.3106 70.487 26.224 71.2168 26.0508C71.959 25.8776 72.627 25.655 73.2207 25.3828C73.8516 25.0983 74.3835 24.8262 74.8164 24.5664C75.2494 24.2943 75.6081 24.0407 75.8926 23.8057H76.0967V27.6094C75.6885 27.7702 75.1813 27.9743 74.5752 28.2217C73.9691 28.4567 73.4248 28.6423 72.9424 28.7783C72.262 28.9639 71.6436 29.1061 71.0869 29.2051C70.5426 29.304 69.8499 29.3535 69.0088 29.3535ZM73.0908 16.1982C73.0661 15.2581 72.9548 14.4479 72.7568 13.7676C72.5589 13.0872 72.2744 12.512 71.9033 12.042C71.4951 11.5225 70.9694 11.1266 70.3262 10.8545C69.6953 10.5824 68.9098 10.4463 67.9697 10.4463C67.042 10.4463 66.2503 10.5885 65.5947 10.873C64.9515 11.1452 64.3639 11.5472 63.832 12.0791C63.3125 12.6234 62.9167 13.2295 62.6445 13.8975C62.3724 14.5531 62.1992 15.32 62.125 16.1982H73.0908Z" fill="black"/>
<path d="M103.539 28.8711V16.8848C103.539 15.9323 103.502 15.054 103.428 14.25C103.354 13.4336 103.199 12.7966 102.964 12.3389C102.716 11.8441 102.364 11.4792 101.906 11.2441C101.449 11.0091 100.83 10.8916 100.051 10.8916C99.3333 10.8916 98.5602 11.1143 97.7314 11.5596C96.915 11.9925 96.0677 12.6234 95.1895 13.4522C95.2018 13.6624 95.2142 13.916 95.2266 14.2129C95.2513 14.4974 95.2637 14.8376 95.2637 15.2334V28.8711H91.7754V16.8848C91.7754 15.9323 91.7383 15.054 91.6641 14.25C91.5898 13.4336 91.4352 12.7966 91.2002 12.3389C90.9528 11.8441 90.6003 11.4792 90.1426 11.2441C89.6849 11.0091 89.0664 10.8916 88.2871 10.8916C87.5326 10.8916 86.7409 11.1266 85.9121 11.5967C85.0833 12.0667 84.2793 12.6667 83.5 13.3965V28.8711H80.0117V8.14551H83.5V10.4463C84.4154 9.53093 85.3184 8.82585 86.209 8.33106C87.112 7.82389 88.1016 7.57031 89.1777 7.57031C90.4023 7.57031 91.4847 7.84863 92.4248 8.40528C93.3773 8.96192 94.1009 9.87728 94.5957 11.1514C95.6471 9.97624 96.6738 9.08561 97.6758 8.47949C98.6777 7.87337 99.7663 7.57031 100.941 7.57031C101.832 7.57031 102.642 7.71257 103.372 7.99707C104.102 8.26921 104.739 8.71452 105.283 9.33301C105.84 9.96387 106.267 10.7494 106.563 11.6895C106.873 12.6296 107.027 13.8109 107.027 15.2334V28.8711H103.539Z" fill="black"/>
<path d="M125.712 18.4434C125.712 15.9694 125.335 14.0954 124.58 12.8213C123.826 11.5348 122.613 10.8916 120.943 10.8916C119.991 10.8916 119.026 11.1143 118.049 11.5596C117.084 12.0049 116.206 12.5677 115.414 13.248V25.1231C116.292 25.556 117.072 25.8652 117.752 26.0508C118.432 26.224 119.181 26.3106 119.997 26.3106C121.778 26.3106 123.176 25.6797 124.19 24.418C125.205 23.1563 125.712 21.1647 125.712 18.4434ZM129.312 18.165C129.312 21.5544 128.489 24.2819 126.844 26.3477C125.199 28.4134 123.139 29.4463 120.665 29.4463C119.539 29.4463 118.575 29.304 117.771 29.0195C116.979 28.7474 116.193 28.3763 115.414 27.9063L115.191 28.8711H111.926V0H115.414V10.3164C116.292 9.52474 117.245 8.86914 118.271 8.34961C119.298 7.83008 120.461 7.57031 121.76 7.57031C124.098 7.57031 125.941 8.51042 127.289 10.3906C128.637 12.2585 129.312 14.8499 129.312 18.165Z" fill="black"/>
<path d="M136.492 28.8711H133.004V0H136.492V28.8711Z" fill="black"/>
<path d="M150.612 29.3535C147.31 29.3535 144.743 28.4258 142.912 26.5703C141.094 24.7025 140.185 22.0553 140.185 18.6289C140.185 15.252 141.069 12.5677 142.838 10.5762C144.607 8.57227 146.92 7.57031 149.777 7.57031C151.064 7.57031 152.202 7.75586 153.191 8.12696C154.181 8.49805 155.047 9.07943 155.789 9.8711C156.531 10.6628 157.1 11.6338 157.496 12.7842C157.892 13.9222 158.09 15.32 158.09 16.9775V18.8701H143.729C143.729 21.2822 144.335 23.1253 145.547 24.3994C146.759 25.6735 148.435 26.3106 150.575 26.3106C151.342 26.3106 152.09 26.224 152.82 26.0508C153.562 25.8776 154.23 25.655 154.824 25.3828C155.455 25.0983 155.987 24.8262 156.42 24.5664C156.853 24.2943 157.212 24.0407 157.496 23.8057H157.7V27.6094C157.292 27.7702 156.785 27.9743 156.179 28.2217C155.573 28.4567 155.028 28.6423 154.546 28.7783C153.866 28.9639 153.247 29.1061 152.69 29.2051C152.146 29.304 151.453 29.3535 150.612 29.3535ZM154.694 16.1982C154.67 15.2581 154.558 14.4479 154.36 13.7676C154.162 13.0872 153.878 12.512 153.507 12.042C153.099 11.5225 152.573 11.1266 151.93 10.8545C151.299 10.5824 150.513 10.4463 149.573 10.4463C148.646 10.4463 147.854 10.5885 147.198 10.873C146.555 11.1452 145.967 11.5472 145.436 12.0791C144.916 12.6234 144.52 13.2295 144.248 13.8975C143.976 14.5531 143.803 15.32 143.729 16.1982H154.694Z" fill="black"/>
<path d="M170.247 15.4561L172.956 9.61133C173.315 8.8444 173.624 8.33724 173.884 8.08985C174.143 7.84245 174.484 7.71875 174.904 7.71875C175.312 7.71875 175.646 7.84245 175.906 8.08985C176.178 8.33724 176.314 8.65886 176.314 9.05469C176.314 9.35156 176.147 9.85254 175.813 10.5576L173.531 15.4561H176.834C177.638 15.4561 178.201 15.555 178.522 15.7529C178.844 15.9385 179.005 16.2601 179.005 16.7178C179.005 17.3363 178.733 17.7754 178.188 18.0352C177.904 18.1712 177.347 18.2393 176.518 18.2393H173.438C174.428 20.1071 174.923 21.9997 174.923 23.917C174.923 25.4385 174.644 26.9662 174.088 28.5C173.531 30.0339 172.801 31.4007 171.898 32.6006C170.995 33.8128 169.969 34.79 168.818 35.5322C167.68 36.2744 166.554 36.6455 165.441 36.6455C164.513 36.6455 163.753 36.361 163.159 35.792C162.553 35.2354 162.25 34.5241 162.25 33.6582C162.25 33.2253 162.318 32.7923 162.454 32.3594C162.59 31.9388 162.881 31.2399 163.326 30.2627L168.948 18.2393H167.89C167.099 18.2393 166.567 18.1589 166.295 17.9981C165.899 17.763 165.701 17.4105 165.701 16.9404C165.701 16.6807 165.775 16.4333 165.924 16.1982C166.072 15.9509 166.276 15.7653 166.536 15.6416C166.833 15.5179 167.389 15.4561 168.206 15.4561H170.247ZM171.137 20.5957L166.35 30.875C165.967 31.6914 165.726 32.2233 165.627 32.4707C165.54 32.7305 165.497 32.9408 165.497 33.1016C165.497 33.4727 165.676 33.6582 166.035 33.6582C166.629 33.6582 167.433 33.1016 168.447 31.9883C169.449 30.8626 170.253 29.5514 170.859 28.0547C171.478 26.5456 171.787 25.1292 171.787 23.8057C171.787 23.2614 171.737 22.7419 171.638 22.2471C171.54 21.7399 171.373 21.1895 171.137 20.5957Z" fill="black"/>
<path d="M184.144 27.4609L183.885 27.6094C182.92 28.1784 182.122 28.5742 181.491 28.7969C180.86 29.0195 180.229 29.1309 179.598 29.1309C178.733 29.1309 178.034 28.8773 177.502 28.3701C176.97 27.863 176.704 27.2012 176.704 26.3848C176.704 25.6673 177.056 24.554 177.762 23.0449L180.526 17.0889C180.873 16.3467 181.176 15.8457 181.435 15.5859C181.707 15.3262 182.054 15.1963 182.474 15.1963C182.895 15.1963 183.235 15.32 183.495 15.5674C183.755 15.8148 183.885 16.1302 183.885 16.5137C183.885 16.7982 183.718 17.3053 183.384 18.0352L180.916 23.3418L180.749 23.6758C180.328 24.554 180.118 25.1478 180.118 25.457C180.118 25.8281 180.304 26.0137 180.675 26.0137C181.058 26.0137 181.528 25.8467 182.085 25.5127C182.654 25.1787 183.384 24.6406 184.274 23.8984L187.447 17.0889C187.793 16.3467 188.096 15.8457 188.356 15.5859C188.628 15.3262 188.975 15.1963 189.395 15.1963C189.816 15.1963 190.156 15.32 190.416 15.5674C190.676 15.8148 190.805 16.1302 190.805 16.5137C190.805 16.7982 190.638 17.3053 190.304 18.0352L187.577 23.8984L187.336 24.3809C187.076 24.9499 186.946 25.321 186.946 25.4941C186.946 25.6426 187.008 25.7787 187.132 25.9023C187.268 26.0137 187.404 26.0693 187.54 26.0693C188.158 26.0693 189.346 25.3272 191.102 23.8428C191.696 23.3232 192.185 23.0635 192.568 23.0635C192.927 23.0635 193.23 23.181 193.477 23.416C193.725 23.6387 193.848 23.917 193.848 24.251C193.848 24.8447 193.236 25.6364 192.012 26.626C191.121 27.3682 190.15 27.9743 189.098 28.4443C188.059 28.902 187.169 29.1309 186.427 29.1309C185.87 29.1309 185.406 29.001 185.035 28.7412C184.676 28.4691 184.379 28.0423 184.144 27.4609ZM186.946 10.0938C186.946 10.7246 186.761 11.2503 186.389 11.6709C186.031 12.0791 185.561 12.2832 184.979 12.2832C184.497 12.2832 184.107 12.1348 183.81 11.8379C183.513 11.541 183.365 11.1514 183.365 10.6689C183.365 10.0876 183.557 9.59896 183.94 9.20313C184.336 8.79492 184.818 8.59082 185.387 8.59082C185.858 8.59082 186.235 8.72689 186.519 8.99903C186.804 9.27116 186.946 9.63607 186.946 10.0938ZM193.886 10.0938C193.886 10.7246 193.7 11.2503 193.329 11.6709C192.97 12.0791 192.5 12.2832 191.919 12.2832C191.436 12.2832 191.047 12.1348 190.75 11.8379C190.453 11.541 190.304 11.1514 190.304 10.6689C190.304 10.0876 190.496 9.59896 190.88 9.20313C191.276 8.79492 191.758 8.59082 192.327 8.59082C192.797 8.59082 193.174 8.72689 193.459 8.99903C193.743 9.27116 193.886 9.63607 193.886 10.0938Z" fill="black"/>
<path d="M196.409 15.4561C196.533 15.4437 196.663 15.4375 196.799 15.4375C197.825 15.4375 198.648 15.6973 199.266 16.2168C199.897 16.724 200.213 17.3919 200.213 18.2207C200.213 18.8887 200.002 19.5381 199.582 20.169C199.174 20.7998 198.438 21.61 197.374 22.5996L195.908 23.9541C195.141 24.6468 194.758 25.1911 194.758 25.5869C194.758 25.8219 194.844 26.0075 195.017 26.1436C195.191 26.2796 195.419 26.3477 195.704 26.3477C196.285 26.3477 197.12 26.1188 198.209 25.6611C199.297 25.2035 200.374 24.6406 201.437 23.9727C202.043 23.6016 202.439 23.3727 202.625 23.2861C202.81 23.1996 203.008 23.1563 203.219 23.1563C203.565 23.1563 203.849 23.28 204.072 23.5273C204.307 23.7624 204.425 24.0592 204.425 24.418C204.425 24.8138 204.251 25.1973 203.905 25.5684C203.559 25.9395 202.965 26.3786 202.124 26.8857C200.788 27.6774 199.551 28.2526 198.413 28.6113C197.287 28.9577 196.174 29.1309 195.073 29.1309C193.836 29.1309 192.859 28.8525 192.141 28.2959C191.436 27.7393 191.084 26.9847 191.084 26.0322C191.084 25.1663 191.461 24.3005 192.216 23.4346C192.809 22.7913 193.706 21.9316 194.906 20.8555C195.76 20.1009 196.267 19.6247 196.428 19.4268C196.601 19.2288 196.687 19.0124 196.687 18.7773C196.687 18.4928 196.576 18.2949 196.353 18.1836C196.131 18.0723 195.753 18.0104 195.221 17.9981C194.962 18.5918 194.696 19.0124 194.424 19.2598C194.151 19.5072 193.818 19.6309 193.422 19.6309C193.013 19.6309 192.673 19.5072 192.401 19.2598C192.141 19 192.012 18.6722 192.012 18.2764C192.012 17.9919 192.172 17.4971 192.494 16.792L193.57 14.5098C193.941 13.7305 194.25 13.2233 194.498 12.9883C194.745 12.7409 195.079 12.6172 195.5 12.6172C195.896 12.6172 196.23 12.7409 196.502 12.9883C196.774 13.2357 196.91 13.5573 196.91 13.9531C196.91 14.2376 196.762 14.6953 196.465 15.3262L196.409 15.4561Z" fill="black"/>
<path d="M213.422 24.9191L213.916 25.8311C214.093 25.9831 214.359 26.1478 214.714 26.3251C215.068 26.4771 215.461 26.6291 215.892 26.7811C216.348 26.9078 216.816 27.0091 217.298 27.0851C217.804 27.1611 218.298 27.1991 218.78 27.1991C220.984 27.1991 222.681 26.7684 223.872 25.9071C225.088 25.0458 225.696 23.7918 225.696 22.1451C225.696 21.1571 225.417 20.3084 224.86 19.5991C224.328 18.8898 223.656 18.2438 222.846 17.6611C222.035 17.0784 221.148 16.5211 220.186 15.9891C219.223 15.4571 218.336 14.8744 217.526 14.2411C216.715 13.5824 216.031 12.8351 215.474 11.9991C214.942 11.1631 214.676 10.1624 214.676 8.9971C214.676 6.69176 215.55 4.91843 217.298 3.67709C219.046 2.43576 221.604 1.81509 224.974 1.81509C226.722 1.81509 228.166 1.94176 229.306 2.19509C230.446 2.42309 231.421 2.72709 232.232 3.10709C232.232 3.10709 232.206 3.20843 232.156 3.41109C232.105 3.58843 232.054 3.82909 232.004 4.13309C231.953 4.43709 231.877 4.79176 231.776 5.19709C231.7 5.57709 231.624 5.96976 231.548 6.37509C231.345 7.33776 231.117 8.41443 230.864 9.60509H228.432L229.268 5.53909L228.85 4.58909C228.419 4.38643 227.798 4.23443 226.988 4.13309C226.177 4.00643 225.328 3.94309 224.442 3.94309C222.542 3.94309 221.148 4.32309 220.262 5.08309C219.375 5.84309 218.932 6.75509 218.932 7.81909C218.932 8.70576 219.198 9.47843 219.73 10.1371C220.287 10.7704 220.971 11.3784 221.782 11.9611C222.592 12.5184 223.479 13.0758 224.442 13.6331C225.404 14.1651 226.291 14.7731 227.102 15.4571C227.912 16.1158 228.584 16.8884 229.116 17.7751C229.673 18.6618 229.952 19.7131 229.952 20.9291C229.952 22.1958 229.698 23.3484 229.192 24.3871C228.685 25.4004 227.938 26.2744 226.95 27.0091C225.987 27.7438 224.784 28.3138 223.34 28.7191C221.896 29.1244 220.236 29.3271 218.362 29.3271C217.475 29.3271 216.614 29.2638 215.778 29.1371C214.967 29.0104 214.22 28.8458 213.536 28.6431C212.852 28.4404 212.244 28.2251 211.712 27.9971C211.205 27.7691 210.8 27.5411 210.496 27.3131L211.94 20.3971H214.372L213.422 24.9191Z" fill="black"/>
<path d="M234.699 10.9731H232.381V8.92109H238.043L241.007 24.7291V26.8191H241.311L242.337 24.8431C242.768 23.9058 243.211 22.9051 243.667 21.8411C244.123 20.7771 244.567 19.7131 244.997 18.6491C245.453 17.5851 245.871 16.5464 246.251 15.5331C246.631 14.4944 246.948 13.5191 247.201 12.6071L246.137 8.92109H250.811V10.9731C250.406 12.0878 249.899 13.3924 249.291 14.8871C248.709 16.3564 248.063 17.9018 247.353 19.5231C246.644 21.1191 245.884 22.7531 245.073 24.4251C244.263 26.0971 243.439 27.6804 242.603 29.1751C241.793 30.6951 240.969 32.0884 240.133 33.3551C239.323 34.6218 238.55 35.6604 237.815 36.4711H233.445V32.8231H237.663C238.018 32.3924 238.373 31.8984 238.727 31.3411C239.107 30.7838 239.475 29.9604 239.829 28.8711H237.967L234.699 10.9731Z" fill="black"/>
<path d="M265.738 17.5091C265.941 16.6984 266.118 15.9384 266.27 15.2291C266.422 14.4944 266.498 13.7851 266.498 13.1011C266.498 12.5184 266.346 12.0244 266.042 11.6191C265.738 11.1884 265.282 10.9731 264.674 10.9731C263.914 10.9731 263.18 11.1251 262.47 11.4291C261.786 11.7331 261.153 12.1131 260.57 12.5691C259.988 12.9998 259.468 13.4558 259.012 13.9371C258.582 14.4184 258.24 14.8364 257.986 15.1911L255.022 28.8711H251.336L255.098 10.9731H252.476V8.92109H259.24L258.366 12.8731H258.556C259.62 11.5811 260.811 10.5424 262.128 9.7571C263.446 8.94643 264.864 8.54109 266.384 8.54109C267.752 8.54109 268.728 8.88309 269.31 9.56709C269.918 10.2258 270.222 11.0871 270.222 12.1511C270.222 12.7338 270.146 13.4684 269.994 14.3551C269.868 15.2418 269.703 16.0651 269.5 16.8251L267.106 26.8191H270.222V28.8711H266.916H263.192L265.738 17.5091Z" fill="black"/>
<path d="M280.572 19.4091H279.09L277.152 28.8711H273.428L278.976 2.42309H276.202V0.371091H283.042L279.432 17.8891H280.648L286.69 11.8471V8.92109H291.744V10.5171L283.726 17.5091L288.894 26.8191H291.098V28.8711H285.588L280.572 19.4091Z" fill="black"/>
<path d="M304.481 12.5691C304.228 12.6198 303.924 12.6958 303.569 12.7971C303.24 12.8731 302.885 12.9871 302.505 13.1391C302.125 13.2911 301.733 13.4938 301.327 13.7471C300.922 14.0004 300.529 14.3171 300.149 14.6971L297.033 28.8711H293.309L297.223 10.9731H294.601V8.92109H301.327L300.415 12.7971H300.605C301.112 12.0118 301.733 11.2518 302.467 10.5171C303.202 9.7571 303.899 9.22509 304.557 8.92109H307.597V12.5691H304.481Z" fill="black"/>
<path d="M323.176 25.2231C322.897 25.7298 322.517 26.2238 322.036 26.7051C321.555 27.1864 320.985 27.6171 320.326 27.9971C319.667 28.3771 318.933 28.6811 318.122 28.9091C317.311 29.1371 316.437 29.2511 315.5 29.2511C313.321 29.2511 311.573 28.6431 310.256 27.4271C308.964 26.1858 308.318 24.4504 308.318 22.2211C308.318 20.3211 308.597 18.5351 309.154 16.8631C309.711 15.1911 310.497 13.7471 311.51 12.5311C312.523 11.3151 313.739 10.3524 315.158 9.64309C316.602 8.90843 318.198 8.54109 319.946 8.54109C320.63 8.54109 321.276 8.62976 321.884 8.8071C322.492 8.9591 323.024 9.19976 323.48 9.5291C323.936 9.85843 324.291 10.2638 324.544 10.7451C324.797 11.2264 324.924 11.7838 324.924 12.4171C324.924 14.2411 323.961 15.7104 322.036 16.8251C320.111 17.9398 316.957 18.6491 312.574 18.9531C312.473 19.4091 312.397 19.8398 312.346 20.2451C312.295 20.6504 312.27 21.0558 312.27 21.4611C312.27 23.0571 312.675 24.3364 313.486 25.2991C314.322 26.2364 315.538 26.7051 317.134 26.7051C317.641 26.7051 318.135 26.6291 318.616 26.4771C319.123 26.3251 319.604 26.1351 320.06 25.9071C320.516 25.6538 320.921 25.3751 321.276 25.0711C321.656 24.7671 321.96 24.4758 322.188 24.1971L323.176 25.2231ZM318.692 10.3271C317.501 10.3271 316.412 10.8591 315.424 11.9231C314.436 12.9618 313.587 14.7098 312.878 17.1671C315.563 17.0911 317.615 16.6478 319.034 15.8371C320.478 15.0264 321.2 13.9371 321.2 12.5691C321.2 12.2904 321.162 12.0244 321.086 11.7711C321.01 11.4924 320.871 11.2518 320.668 11.0491C320.491 10.8211 320.237 10.6438 319.908 10.5171C319.604 10.3904 319.199 10.3271 318.692 10.3271Z" fill="black"/>
<path d="M327.127 8.92109H331.155L332.257 4.55109H335.829L334.803 8.92109H339.933V10.9731H334.385L331.421 22.4491C331.295 22.9558 331.206 23.4118 331.155 23.8171C331.105 24.2224 331.079 24.6404 331.079 25.0711C331.079 26.2364 331.738 26.8191 333.055 26.8191C333.739 26.8191 334.512 26.6671 335.373 26.3631C336.235 26.0338 336.995 25.5778 337.653 24.9951L338.451 26.5151C338.173 26.8191 337.78 27.1358 337.273 27.4651C336.792 27.7944 336.235 28.0984 335.601 28.3771C334.968 28.6304 334.271 28.8331 333.511 28.9851C332.751 29.1624 331.966 29.2511 331.155 29.2511C329.914 29.2511 328.951 28.9471 328.267 28.3391C327.583 27.7311 327.241 26.9584 327.241 26.0211C327.241 25.6158 327.254 25.1978 327.279 24.7671C327.305 24.3111 327.381 23.8424 327.507 23.3611L330.623 10.9731H327.127V8.92109Z" fill="black"/>
<path d="M342.043 10.9731V8.92109H348.921L344.969 26.8191H348.085V28.8711H340.751L344.817 10.9731H342.043ZM344.589 2.76509C344.589 2.03043 344.843 1.44776 345.349 1.01709C345.881 0.586425 346.553 0.371091 347.363 0.371091C348.225 0.371091 348.896 0.586425 349.377 1.01709C349.884 1.44776 350.137 2.03043 350.137 2.76509C350.137 3.49976 349.884 4.08243 349.377 4.51309C348.896 4.94376 348.225 5.15909 347.363 5.15909C346.553 5.15909 345.881 4.94376 345.349 4.51309C344.843 4.08243 344.589 3.49976 344.589 2.76509Z" fill="black"/>
<path d="M357.002 27.1991C357.458 27.1991 357.939 27.1611 358.446 27.0851C358.978 26.9838 359.459 26.8191 359.89 26.5911C360.32 26.3631 360.675 26.0591 360.954 25.6791C361.232 25.2738 361.372 24.7671 361.372 24.1591C361.372 23.5258 361.169 22.9684 360.764 22.4871C360.384 22.0058 359.902 21.5498 359.32 21.1191C358.737 20.6631 358.091 20.2198 357.382 19.7891C356.698 19.3331 356.064 18.8518 355.482 18.3451C354.899 17.8131 354.405 17.2178 354 16.5591C353.62 15.9004 353.43 15.1278 353.43 14.2411C353.43 13.3038 353.645 12.4804 354.076 11.7711C354.506 11.0364 355.089 10.4411 355.824 9.9851C356.558 9.50376 357.432 9.14909 358.446 8.92109C359.459 8.66776 360.536 8.54109 361.676 8.54109C362.208 8.54109 362.727 8.57909 363.234 8.6551C363.766 8.73109 364.247 8.83243 364.678 8.95909C365.134 9.06043 365.526 9.1871 365.856 9.3391C366.185 9.4911 366.426 9.63043 366.578 9.7571L365.438 14.2031H363.082L363.728 11.0871C363.525 10.9351 363.158 10.8211 362.626 10.7451C362.119 10.6438 361.676 10.5931 361.296 10.5931C360.89 10.5931 360.447 10.6311 359.966 10.7071C359.51 10.7578 359.079 10.8844 358.674 11.0871C358.268 11.2644 357.926 11.5304 357.648 11.8851C357.394 12.2144 357.268 12.6578 357.268 13.2151C357.268 13.8991 357.458 14.4944 357.838 15.0011C358.243 15.5078 358.75 15.9764 359.358 16.4071C359.966 16.8378 360.612 17.2684 361.296 17.6991C361.98 18.1298 362.626 18.6111 363.234 19.1431C363.842 19.6498 364.336 20.2451 364.716 20.9291C365.121 21.5878 365.324 22.3858 365.324 23.3231C365.324 24.2858 365.07 25.1344 364.564 25.8691C364.057 26.6038 363.386 27.2244 362.55 27.7311C361.714 28.2378 360.738 28.6178 359.624 28.8711C358.534 29.1244 357.407 29.2511 356.242 29.2511C355.583 29.2511 354.924 29.1878 354.266 29.0611C353.632 28.9344 353.037 28.7824 352.48 28.6051C351.948 28.4024 351.479 28.1998 351.074 27.9971C350.694 27.7691 350.428 27.5791 350.276 27.4271L351.72 22.9051H354.304L353.316 26.0591C353.594 26.3378 354.05 26.6038 354.684 26.8571C355.317 27.0851 356.09 27.1991 357.002 27.1991Z" fill="black"/>
<path d="M371.468 2.42309V0.371091H378.346L375.648 12.1131H375.876C376.839 11.1251 377.916 10.2891 379.106 9.60509C380.297 8.89576 381.728 8.54109 383.4 8.54109C385.984 8.54109 387.276 10.0611 387.276 13.1011C387.276 13.8358 387.2 14.6211 387.048 15.4571C386.922 16.2678 386.757 17.0531 386.554 17.8131L384.236 26.8191H387.466V28.8711H380.36L382.754 18.4971C382.957 17.6864 383.134 16.9138 383.286 16.1791C383.464 15.4444 383.552 14.7478 383.552 14.0891C383.552 13.1518 383.35 12.4171 382.944 11.8851C382.564 11.3531 381.969 11.0871 381.158 11.0871C380.576 11.0871 380.006 11.1758 379.448 11.3531C378.891 11.5051 378.359 11.7078 377.852 11.9611C377.346 12.2144 376.877 12.5058 376.446 12.8351C376.016 13.1644 375.648 13.4938 375.344 13.8231L372.228 28.8711H368.58L374.204 2.42309H371.468Z" fill="black"/>
<path d="M405.767 25.2231C405.488 25.7298 405.108 26.2238 404.627 26.7051C404.145 27.1864 403.575 27.6171 402.917 27.9971C402.258 28.3771 401.523 28.6811 400.713 28.9091C399.902 29.1371 399.028 29.2511 398.091 29.2511C395.912 29.2511 394.164 28.6431 392.847 27.4271C391.555 26.1858 390.909 24.4504 390.909 22.2211C390.909 20.3211 391.187 18.5351 391.745 16.8631C392.302 15.1911 393.087 13.7471 394.101 12.5311C395.114 11.3151 396.33 10.3524 397.749 9.64309C399.193 8.90843 400.789 8.54109 402.537 8.54109C403.221 8.54109 403.867 8.62976 404.475 8.8071C405.083 8.9591 405.615 9.19976 406.071 9.5291C406.527 9.85843 406.881 10.2638 407.135 10.7451C407.388 11.2264 407.515 11.7838 407.515 12.4171C407.515 14.2411 406.552 15.7104 404.627 16.8251C402.701 17.9398 399.547 18.6491 395.165 18.9531C395.063 19.4091 394.987 19.8398 394.937 20.2451C394.886 20.6504 394.861 21.0558 394.861 21.4611C394.861 23.0571 395.266 24.3364 396.077 25.2991C396.913 26.2364 398.129 26.7051 399.725 26.7051C400.231 26.7051 400.725 26.6291 401.207 26.4771C401.713 26.3251 402.195 26.1351 402.651 25.9071C403.107 25.6538 403.512 25.3751 403.867 25.0711C404.247 24.7671 404.551 24.4758 404.779 24.1971L405.767 25.2231ZM401.283 10.3271C400.092 10.3271 399.003 10.8591 398.015 11.9231C397.027 12.9618 396.178 14.7098 395.469 17.1671C398.154 17.0911 400.206 16.6478 401.625 15.8371C403.069 15.0264 403.791 13.9371 403.791 12.5691C403.791 12.2904 403.753 12.0244 403.677 11.7711C403.601 11.4924 403.461 11.2518 403.259 11.0491C403.081 10.8211 402.828 10.6438 402.499 10.5171C402.195 10.3904 401.789 10.3271 401.283 10.3271Z" fill="black"/>
<path d="M442.341 28.8711H438.667V5.06543L431.468 21.2637H429.241L422.098 5.06543V28.8711H418.665V1.24316H423.675L430.577 16.625L437.238 1.24316H442.341V28.8711Z" fill="black"/>
<path d="M457.593 29.4463C455.972 29.4463 454.556 29.236 453.344 28.8154C452.132 28.3825 451.099 27.7454 450.245 26.9043C449.28 25.9395 448.6 24.7891 448.204 23.4531C447.808 22.1048 447.611 20.4473 447.611 18.4805V1.24316H451.284V18.4805C451.284 19.7546 451.365 20.8307 451.526 21.709C451.686 22.5749 452.002 23.3542 452.472 24.0469C452.967 24.7891 453.635 25.3519 454.476 25.7354C455.329 26.1188 456.368 26.3106 457.593 26.3106C458.743 26.3106 459.764 26.1188 460.654 25.7354C461.545 25.3519 462.238 24.7891 462.733 24.0469C463.19 23.3418 463.5 22.5625 463.66 21.709C463.833 20.8555 463.92 19.8102 463.92 18.5732V1.24316H467.594V18.4805C467.594 20.3978 467.396 22.043 467 23.416C466.617 24.7891 465.936 25.9518 464.959 26.9043C464.081 27.7578 463.054 28.3949 461.879 28.8154C460.716 29.236 459.288 29.4463 457.593 29.4463Z" fill="black"/>
<path d="M480.582 29.3721C478.578 29.3721 476.871 29.168 475.461 28.7598C474.063 28.3392 472.746 27.8259 471.509 27.2197V22.6182H471.769C472.981 23.7562 474.354 24.6406 475.888 25.2715C477.422 25.89 478.9 26.1992 480.322 26.1992C482.351 26.1992 483.885 25.7787 484.924 24.9375C485.963 24.084 486.483 22.9645 486.483 21.5791C486.483 20.4782 486.21 19.5814 485.666 18.8887C485.122 18.196 484.256 17.6826 483.069 17.3486C482.215 17.1012 481.436 16.8971 480.731 16.7363C480.026 16.5755 479.141 16.3591 478.077 16.0869C477.125 15.8395 476.271 15.5241 475.517 15.1406C474.762 14.7572 474.094 14.2562 473.513 13.6377C472.944 13.0316 472.499 12.3203 472.177 11.5039C471.868 10.6751 471.713 9.72266 471.713 8.64649C471.713 6.40755 472.585 4.53353 474.329 3.02441C476.073 1.50293 478.3 0.742188 481.009 0.742188C482.555 0.742188 484.015 0.89681 485.388 1.20605C486.773 1.5153 488.054 1.95443 489.229 2.52344V6.9209H488.95C488.072 6.11686 486.946 5.41797 485.573 4.82422C484.2 4.2181 482.759 3.91504 481.25 3.91504C479.543 3.91504 478.164 4.31706 477.112 5.1211C476.061 5.91276 475.535 6.95801 475.535 8.25684C475.535 9.43197 475.845 10.3659 476.463 11.0586C477.082 11.7513 477.978 12.2585 479.153 12.5801C479.933 12.7904 480.885 13.0316 482.011 13.3037C483.137 13.5635 484.07 13.8047 484.813 14.0273C486.718 14.6087 488.109 15.487 488.987 16.6621C489.866 17.8372 490.305 19.2845 490.305 21.0039C490.305 22.0801 490.082 23.1439 489.637 24.1953C489.204 25.2467 488.592 26.1374 487.8 26.8672C486.909 27.6712 485.901 28.2897 484.776 28.7227C483.662 29.1556 482.264 29.3721 480.582 29.3721Z" fill="black"/>
<path d="M503.72 28.8711H492.995V26.0508H496.521V4.06348H492.995V1.24316H503.72V4.06348H500.194V26.0508H503.72V28.8711Z" fill="black"/>
<path d="M528.379 28.8711H523.61L513.535 16.0127L511.921 17.8311V28.8711H508.247V1.24316H511.921V13.9531L523.239 1.24316H527.711L516.281 13.582L528.379 28.8711Z" fill="black"/>
</svg>
