<svg width="114" height="38" viewBox="0 0 114 38" fill="none" xmlns="http://www.w3.org/2000/svg">
<path d="M0.568115 16.4351V0.196014H2.15016V15.1269H11.1306V16.4351H0.568115Z" fill="black"/>
<path d="M20.6554 10.3003C20.066 10.5409 19.4689 10.6988 18.864 10.774C18.2591 10.8491 17.6542 10.9093 17.0492 10.9544C15.979 11.0296 15.1415 11.2626 14.5366 11.6536C13.9472 12.0445 13.6525 12.6384 13.6525 13.4354C13.6525 13.7962 13.7223 14.112 13.8619 14.3826C14.017 14.6383 14.2109 14.8563 14.4435 15.0367C14.6917 15.2021 14.9709 15.3299 15.2811 15.4201C15.6068 15.4953 15.9325 15.5329 16.2582 15.5329C16.8166 15.5329 17.3595 15.4652 17.8868 15.3299C18.4142 15.1946 18.8795 14.9916 19.2827 14.721C19.7015 14.4353 20.035 14.0819 20.2831 13.6609C20.5313 13.2249 20.6554 12.7136 20.6554 12.1272V10.3003ZM18.3056 9.62369C18.5693 9.59362 18.8795 9.54851 19.2362 9.48836C19.6084 9.42822 19.9109 9.34552 20.1436 9.24027C20.3762 9.13502 20.5158 8.9621 20.5623 8.72152C20.6244 8.4659 20.6554 8.23284 20.6554 8.02234C20.6554 7.33067 20.4227 6.76682 19.9574 6.33077C19.5076 5.87968 18.7399 5.65414 17.6542 5.65414C17.1733 5.65414 16.7313 5.69925 16.328 5.78947C15.9248 5.86465 15.568 6.00749 15.2578 6.218C14.9631 6.41347 14.715 6.68412 14.5133 7.02995C14.3272 7.36075 14.2031 7.78176 14.1411 8.29299H12.7219C12.7684 7.60133 12.9313 7.01491 13.2105 6.53376C13.4896 6.03756 13.8464 5.63911 14.2807 5.33838C14.7305 5.02262 15.2423 4.79708 15.8162 4.66176C16.4056 4.51139 17.026 4.43621 17.6774 4.43621C18.2823 4.43621 18.8484 4.50388 19.3758 4.6392C19.9187 4.75949 20.384 4.96248 20.7717 5.24817C21.175 5.51882 21.4852 5.8872 21.7023 6.35332C21.935 6.81945 22.0513 7.39082 22.0513 8.06745V14.4277C22.0513 14.954 22.1444 15.2923 22.3305 15.4427C22.5321 15.578 22.9276 15.5404 23.517 15.3299V16.39C23.4085 16.42 23.2456 16.4651 23.0285 16.5253C22.8268 16.5854 22.6252 16.6155 22.4236 16.6155C22.2064 16.6155 21.997 16.593 21.7954 16.5478C21.5627 16.5178 21.3766 16.4501 21.237 16.3449C21.0974 16.2246 20.9811 16.0892 20.888 15.9389C20.8105 15.7735 20.7562 15.6006 20.7252 15.4201C20.6942 15.2247 20.6787 15.0217 20.6787 14.8112C20.0893 15.4427 19.4146 15.9238 18.6546 16.2546C17.8946 16.5854 17.0725 16.7508 16.1884 16.7508C15.6611 16.7508 15.1492 16.6832 14.6529 16.5478C14.1721 16.4125 13.7456 16.202 13.3733 15.9163C13.0011 15.6306 12.7064 15.2848 12.4892 14.8788C12.2721 14.4578 12.1635 13.9616 12.1635 13.3903C12.1635 11.4055 13.5672 10.2327 16.3746 9.87179L18.3056 9.62369Z" fill="black"/>
<path d="M31.6681 15.1269H35.693C36.5616 15.1269 37.3216 15.0893 37.973 15.0142C38.64 14.939 39.2138 14.7886 39.6947 14.5631C40.1755 14.3225 40.5632 13.9917 40.8579 13.5707C41.1526 13.1346 41.3775 12.5633 41.5326 11.8566C41.6722 11.1799 41.6722 10.6386 41.5326 10.2327C41.393 9.81164 41.1294 9.48836 40.7416 9.26282C40.3694 9.03728 39.8885 8.88692 39.2991 8.81174C38.7098 8.72152 38.0428 8.67641 37.2983 8.67641H33.0873L31.6681 15.1269ZM33.3665 7.36827H37.3681C38.1902 7.36827 38.8959 7.3006 39.4853 7.16528C40.0747 7.02995 40.571 6.83448 40.9743 6.57887C41.3775 6.30822 41.6955 5.98494 41.9281 5.60903C42.1608 5.21809 42.3314 4.77453 42.44 4.27833C42.5485 3.7671 42.5563 3.33857 42.4632 2.99274C42.3702 2.63187 42.1608 2.34619 41.8351 2.13568C41.5094 1.91014 41.0596 1.75226 40.4857 1.66204C39.9118 1.55679 39.1906 1.50416 38.322 1.50416H34.6693L33.3665 7.36827ZM29.8069 16.4351L33.3665 0.196014H39.4155C40.3926 0.196014 41.2069 0.29375 41.8583 0.48922C42.5253 0.68469 43.0371 0.962859 43.3939 1.32373C43.7506 1.68459 43.9755 2.12064 44.0686 2.63187C44.1771 3.12807 44.1616 3.67689 44.022 4.27833C43.8979 4.84971 43.7083 5.29327 43.4601 5.71429C43.212 6.12026 42.9363 6.51872 42.6261 6.80441C42.3159 7.07506 41.9824 7.29308 41.6257 7.45848C41.269 7.60884 40.92 7.7141 40.5787 7.77424L40.5555 7.81935C41.6722 7.98475 42.4322 8.42831 42.8355 9.15005C43.2543 9.87179 43.3473 10.774 43.1147 11.8566C42.9286 12.6986 42.6339 13.4128 42.2306 13.9992C41.8428 14.5856 41.362 15.0593 40.7881 15.4201C40.2298 15.781 39.5938 16.0441 38.8804 16.2095C38.1824 16.3599 37.4379 16.4351 36.6469 16.4351H29.8069Z" fill="black"/>
<path d="M50.875 16.7508C50.0994 16.7358 49.3705 16.6005 48.688 16.3449C48.0211 16.0892 47.4317 15.7058 46.9198 15.1946C46.4235 14.6834 46.028 14.0443 45.7333 13.2775C45.4386 12.5106 45.2913 11.616 45.2913 10.5935C45.2913 9.73646 45.4076 8.93954 45.6402 8.20277C45.8729 7.45096 46.2219 6.79689 46.6872 6.24055C47.1525 5.68421 47.7341 5.24817 48.4321 4.93241C49.1301 4.60161 49.9443 4.43621 50.875 4.43621C51.8211 4.43621 52.6431 4.60161 53.3411 4.93241C54.0391 5.24817 54.6207 5.68421 55.086 6.24055C55.5513 6.78185 55.8925 7.42841 56.1097 8.18022C56.3423 8.93203 56.4587 9.73646 56.4587 10.5935C56.4587 11.5258 56.3268 12.3678 56.0632 13.1196C55.7995 13.8714 55.4195 14.518 54.9231 15.0593C54.4423 15.6006 53.8529 16.0216 53.155 16.3223C52.4725 16.608 51.7125 16.7508 50.875 16.7508ZM54.9697 10.5935C54.9697 9.90186 54.8921 9.2553 54.737 8.65386C54.5819 8.05241 54.3415 7.53366 54.0158 7.09761C53.6901 6.64653 53.2713 6.29318 52.7595 6.03756C52.2476 5.78195 51.6195 5.65414 50.875 5.65414C50.146 5.65414 49.5178 5.79699 48.9905 6.08267C48.4786 6.35332 48.0598 6.72171 47.7341 7.18783C47.4084 7.63892 47.168 8.16518 47.0129 8.76663C46.8578 9.35304 46.7803 9.962 46.7803 10.5935C46.7803 11.3153 46.8656 11.9844 47.0362 12.6009C47.2223 13.2023 47.486 13.721 47.8272 14.1571C48.1684 14.5931 48.5949 14.9315 49.1068 15.172C49.6186 15.4126 50.208 15.5329 50.875 15.5329C51.6039 15.5329 52.2244 15.3976 52.7362 15.1269C53.2635 14.8412 53.6901 14.4653 54.0158 13.9992C54.3415 13.5331 54.5819 13.0068 54.737 12.4204C54.8921 11.834 54.9697 11.225 54.9697 10.5935Z" fill="black"/>
<path d="M58.5811 16.4351V0.196014H59.977V6.37588C60.5354 5.8045 61.1093 5.33838 61.6987 4.97752C62.3036 4.61665 63.0248 4.43621 63.8623 4.43621C64.6068 4.43621 65.2971 4.56402 65.933 4.81963C66.5689 5.06021 67.104 5.48874 67.5383 6.10523C67.833 6.52624 68.0036 6.96229 68.0501 7.41337C68.1122 7.84942 68.1432 8.30802 68.1432 8.78918V16.4351H66.7472V8.81174C66.7472 7.75921 66.5068 6.96981 66.026 6.44354C65.5452 5.91728 64.7464 5.65414 63.6297 5.65414C63.1954 5.65414 62.7999 5.72181 62.4431 5.85713C62.0864 5.97742 61.7607 6.14282 61.466 6.35332C61.1868 6.56383 60.9464 6.80441 60.7448 7.07506C60.5431 7.34571 60.388 7.6314 60.2795 7.93212C60.1399 8.30803 60.0546 8.66889 60.0235 9.01472C59.9925 9.36056 59.977 9.73646 59.977 10.1424V16.4351H58.5811Z" fill="black"/>
<path d="M80.1069 9.78157C80.231 9.2102 80.262 8.67641 80.1999 8.18022C80.1534 7.66899 80.0138 7.23294 79.7812 6.87207C79.5485 6.49617 79.215 6.20296 78.7807 5.99246C78.3465 5.76691 77.8191 5.65414 77.1987 5.65414C76.5783 5.65414 76.0044 5.76691 75.4771 5.99246C74.9652 6.218 74.4999 6.51872 74.0811 6.89463C73.6623 7.27053 73.2979 7.70658 72.9877 8.20277C72.6775 8.69897 72.4293 9.22523 72.2432 9.78157H80.1069ZM71.9873 10.9093C71.8477 11.5408 71.8011 12.1422 71.8476 12.7136C71.8942 13.27 72.0415 13.7586 72.2897 14.1796C72.5378 14.5856 72.8868 14.9164 73.3366 15.172C73.8019 15.4126 74.3681 15.5329 75.035 15.5329C75.9501 15.5329 76.7799 15.2998 77.5244 14.8337C78.2844 14.3676 78.8661 13.706 79.2693 12.8489H80.8281C80.5334 13.4053 80.1922 13.924 79.8044 14.4052C79.4322 14.8713 78.9979 15.2848 78.5016 15.6457C78.0052 15.9915 77.4469 16.2622 76.8265 16.4576C76.206 16.6531 75.5158 16.7508 74.7558 16.7508C73.7942 16.7508 72.9954 16.593 72.3595 16.2772C71.7391 15.9614 71.2583 15.5329 70.917 14.9916C70.5913 14.4353 70.4052 13.7887 70.3587 13.0519C70.3121 12.3001 70.3819 11.4957 70.5681 10.6386C70.7542 9.78157 71.0566 8.97713 71.4754 8.22533C71.8942 7.47352 72.3983 6.81944 72.9877 6.26311C73.5926 5.69173 74.2673 5.24817 75.0117 4.93241C75.7718 4.60161 76.586 4.43621 77.4546 4.43621C79.1142 4.43621 80.293 4.99255 80.991 6.10523C81.7044 7.20287 81.8208 8.80422 81.34 10.9093H71.9873ZM75.4305 0.353893H77.2452L79.1297 3.48893H77.9432L75.4305 0.353893Z" fill="black"/>
<path d="M85.2538 16.4351H83.8579V4.75197H85.2538V6.5112H85.3003C85.6571 5.83458 86.1689 5.32335 86.8358 4.97752C87.5028 4.61665 88.2318 4.43621 89.0228 4.43621C89.5812 4.43621 90.0542 4.49636 90.442 4.61665C90.8297 4.73694 91.1555 4.90233 91.4191 5.11284C91.6983 5.30831 91.9232 5.54137 92.0938 5.81202C92.28 6.08267 92.4351 6.37588 92.5592 6.69164C92.9624 5.92479 93.4975 5.36094 94.1645 5.00007C94.8469 4.62417 95.6224 4.43621 96.491 4.43621C97.313 4.43621 97.9645 4.57154 98.4453 4.84219C98.9416 5.0978 99.3216 5.44364 99.5853 5.87968C99.849 6.3007 100.02 6.78937 100.097 7.34571C100.19 7.90205 100.237 8.47342 100.237 9.05983V16.4351H98.8408V8.36065C98.8408 7.51863 98.6547 6.85704 98.2824 6.37588C97.9257 5.89472 97.251 5.65414 96.2583 5.65414C95.7465 5.65414 95.2502 5.76691 94.7694 5.99246C94.304 6.20296 93.893 6.53376 93.5363 6.98484C93.3812 7.18031 93.2493 7.41337 93.1408 7.68402C93.0477 7.93964 92.9702 8.21029 92.9081 8.49598C92.8461 8.78166 92.7996 9.06735 92.7685 9.35304C92.753 9.63873 92.7453 9.90186 92.7453 10.1424V16.4351H91.3493V8.36065C91.3493 7.51863 91.1632 6.85704 90.791 6.37588C90.4342 5.89472 89.7595 5.65414 88.7669 5.65414C88.255 5.65414 87.7587 5.76691 87.2779 5.99246C86.8126 6.20296 86.4016 6.53376 86.0448 6.98484C85.8897 7.18031 85.7579 7.41337 85.6493 7.68402C85.5563 7.93964 85.4787 8.21029 85.4167 8.49598C85.3546 8.78166 85.3081 9.06735 85.2771 9.35304C85.2616 9.63873 85.2538 9.90186 85.2538 10.1424V16.4351Z" fill="black"/>
<path d="M111.953 9.78157C111.953 9.2102 111.867 8.67641 111.697 8.18022C111.541 7.66899 111.301 7.23294 110.975 6.87207C110.665 6.49617 110.27 6.20296 109.789 5.99246C109.308 5.76691 108.757 5.65414 108.137 5.65414C107.517 5.65414 106.966 5.76691 106.485 5.99246C106.02 6.218 105.617 6.51872 105.275 6.89463C104.95 7.27053 104.686 7.70658 104.484 8.20277C104.283 8.69897 104.151 9.22523 104.089 9.78157H111.953ZM104.089 10.9093C104.089 11.5408 104.174 12.1422 104.345 12.7136C104.515 13.27 104.763 13.7586 105.089 14.1796C105.43 14.5856 105.857 14.9164 106.369 15.172C106.881 15.4126 107.47 15.5329 108.137 15.5329C109.052 15.5329 109.835 15.2998 110.487 14.8337C111.138 14.3676 111.573 13.706 111.79 12.8489H113.348C113.178 13.4053 112.953 13.924 112.674 14.4052C112.395 14.8713 112.046 15.2848 111.627 15.6457C111.208 15.9915 110.712 16.2622 110.138 16.4576C109.564 16.6531 108.897 16.7508 108.137 16.7508C107.175 16.7508 106.346 16.593 105.648 16.2772C104.95 15.9614 104.376 15.5329 103.926 14.9916C103.476 14.4353 103.143 13.7887 102.926 13.0519C102.708 12.3001 102.6 11.4957 102.6 10.6386C102.6 9.78157 102.724 8.97713 102.972 8.22533C103.236 7.47352 103.6 6.81944 104.066 6.26311C104.546 5.69173 105.128 5.24817 105.81 4.93241C106.493 4.60161 107.268 4.43621 108.137 4.43621C109.797 4.43621 111.099 4.99255 112.046 6.10523C112.992 7.20287 113.457 8.80422 113.441 10.9093H104.089Z" fill="black"/>
<path d="M1.04183 26.5845C1.04183 25.7863 1.16213 25.0649 1.40275 24.4202C1.64336 23.7601 1.98925 23.1999 2.4404 22.7394C2.89155 22.2635 3.43294 21.9028 4.06455 21.6572C4.7112 21.3963 5.42553 21.2658 6.20753 21.2658C7.00457 21.2658 7.70385 21.3886 8.30539 21.6342C8.92197 21.8644 9.43327 22.1791 9.83931 22.5782C10.2604 22.9773 10.5762 23.4531 10.7867 24.0057C10.9973 24.5583 11.1025 25.1416 11.1025 25.7556C11.1025 26.4771 10.9822 27.1141 10.7416 27.6667C10.516 28.2193 10.2078 28.7105 9.81675 29.1403C9.44079 29.57 9.00468 29.9538 8.50841 30.2915C8.02718 30.6292 7.53091 30.9515 7.0196 31.2585C6.5083 31.5502 6.00451 31.8342 5.50824 32.1104C5.01197 32.3867 4.56834 32.6784 4.17734 32.9854C3.92169 33.1849 3.67355 33.3998 3.43294 33.6301C3.19232 33.845 2.97427 34.0829 2.77877 34.3439C2.58327 34.6048 2.42536 34.8964 2.30505 35.2188C2.18475 35.5258 2.11707 35.8712 2.10204 36.2549H10.9672V37.4982H0.568115C0.583154 36.7154 0.665865 36.0093 0.81625 35.38C0.966634 34.7506 1.29748 34.1366 1.80879 33.538C2.36521 32.8933 2.93667 32.3407 3.52317 31.8802C4.12471 31.4197 4.7112 31.0129 5.28267 30.6599C5.85413 30.2915 6.39551 29.9615 6.90682 29.6698C7.41812 29.3628 7.86928 29.0328 8.26028 28.6798C8.65128 28.3267 8.95956 27.9276 9.18514 27.4825C9.41072 27.0373 9.5235 26.4924 9.5235 25.8477C9.5235 25.3258 9.43327 24.8576 9.25281 24.4432C9.07235 24.0288 8.82422 23.6757 8.50841 23.3841C8.1926 23.0924 7.82416 22.8775 7.40309 22.7394C6.98201 22.5859 6.52334 22.5091 6.02707 22.5091C5.50072 22.5091 5.01949 22.6242 4.58338 22.8545C4.1623 23.0694 3.79386 23.361 3.47805 23.7294C3.17728 24.0978 2.94419 24.5276 2.77877 25.0188C2.61334 25.51 2.54567 26.0319 2.57575 26.5845H1.04183Z" fill="black"/>
<path d="M22.8926 29.5086C22.8926 28.6337 22.84 27.7818 22.7347 26.9529C22.6445 26.1087 22.4565 25.3565 22.1708 24.6965C21.885 24.0364 21.479 23.5069 20.9527 23.1078C20.4414 22.7087 19.7646 22.5091 18.9225 22.5091C18.1254 22.5091 17.4713 22.7163 16.96 23.1308C16.4637 23.5299 16.0727 24.0671 15.787 24.7425C15.5012 25.4179 15.2982 26.1854 15.1779 27.045C15.0726 27.9046 15.02 28.7795 15.02 29.6698C15.02 30.7136 15.0801 31.6653 15.2005 32.5249C15.3358 33.3691 15.5539 34.0906 15.8546 34.6892C16.1554 35.2879 16.5539 35.756 17.0502 36.0937C17.5615 36.4161 18.2006 36.5773 18.9676 36.5773C19.8248 36.5773 20.509 36.3624 21.0203 35.9326C21.5467 35.5028 21.9452 34.9502 22.2159 34.2748C22.4866 33.5994 22.667 32.8396 22.7573 31.9953C22.8475 31.1511 22.8926 30.3222 22.8926 29.5086ZM18.9676 21.2658C19.7496 21.2658 20.4263 21.3886 20.9978 21.6342C21.5692 21.8644 22.0505 22.1868 22.4415 22.6012C22.8475 23.0157 23.1708 23.4992 23.4114 24.0518C23.6671 24.6044 23.8626 25.1953 23.9979 25.8247C24.1333 26.4387 24.2235 27.0757 24.2686 27.7357C24.3137 28.3958 24.3363 29.0405 24.3363 29.6698C24.3363 30.7443 24.2611 31.7728 24.1107 32.7551C23.9603 33.7375 23.6821 34.6048 23.2761 35.3569C22.8851 36.1091 22.3437 36.7077 21.6519 37.1529C20.9602 37.598 20.0654 37.8206 18.9676 37.8206C17.8698 37.8206 16.9675 37.598 16.2607 37.1529C15.5689 36.7077 15.02 36.1091 14.614 35.3569C14.223 34.5895 13.9523 33.7068 13.8019 32.7091C13.6515 31.696 13.5763 30.6292 13.5763 29.5086C13.5763 28.4802 13.644 27.4748 13.7793 26.4924C13.9147 25.51 14.1703 24.6351 14.5463 23.8676C14.9373 23.0847 15.4862 22.4554 16.193 21.9795C16.8998 21.5037 17.8247 21.2658 18.9676 21.2658Z" fill="black"/>
<path d="M28.2045 26.5845C28.37 25.7863 28.6407 25.0649 29.0166 24.4202C29.3926 23.7601 29.8513 23.1999 30.3926 22.7394C30.9491 22.2635 31.5732 21.9028 32.2649 21.6572C32.9567 21.3963 33.6936 21.2658 34.4756 21.2658C35.2726 21.2658 35.9493 21.3886 36.5058 21.6342C37.0772 21.8644 37.5209 22.1791 37.8367 22.5782C38.1675 22.9773 38.378 23.4531 38.4683 24.0057C38.5735 24.5583 38.5585 25.1416 38.4232 25.7556C38.2728 26.4771 38.0246 27.1141 37.6788 27.6667C37.3329 28.2193 36.9268 28.7105 36.4606 29.1403C35.9945 29.57 35.4756 29.9538 34.9042 30.2915C34.3477 30.6292 33.7838 30.9515 33.2123 31.2585C32.6409 31.5502 32.0769 31.8342 31.5205 32.1104C30.9641 32.3867 30.4603 32.6784 30.0092 32.9854C29.7084 33.1849 29.4076 33.3998 29.1068 33.6301C28.8211 33.845 28.5579 34.0829 28.3173 34.3439C28.0767 34.6048 27.8587 34.8964 27.6632 35.2188C27.4827 35.5258 27.3398 35.8712 27.2346 36.2549H36.0997L35.8516 37.4982H25.4525C25.6179 36.7154 25.8435 36.0093 26.1292 35.38C26.43 34.7506 26.8962 34.1366 27.5278 33.538C28.2196 32.8933 28.9113 32.3407 29.6031 31.8802C30.2949 31.4197 30.9566 31.0129 31.5882 30.6599C32.2348 30.2915 32.8439 29.9615 33.4154 29.6698C34.0019 29.3628 34.5207 29.0328 34.9718 28.6798C35.438 28.3267 35.829 27.9276 36.1448 27.4825C36.4757 27.0373 36.7088 26.4924 36.8441 25.8477C36.9494 25.3258 36.9494 24.8576 36.8441 24.4432C36.7539 24.0288 36.581 23.6757 36.3253 23.3841C36.0696 23.0924 35.7463 22.8775 35.3553 22.7394C34.9643 22.5859 34.5207 22.5091 34.0244 22.5091C33.4981 22.5091 32.9943 22.6242 32.5131 22.8545C32.0469 23.0694 31.6183 23.361 31.2273 23.7294C30.8513 24.0978 30.528 24.5276 30.2573 25.0188C30.0016 25.51 29.8287 26.0319 29.7385 26.5845H28.2045Z" fill="black"/>
<path d="M40.9031 26.5845C41.0685 25.7863 41.3392 25.0649 41.7152 24.4202C42.0911 23.7601 42.5498 23.1999 43.0912 22.7394C43.6476 22.2635 44.2717 21.9028 44.9635 21.6572C45.6552 21.3963 46.3921 21.2658 47.1741 21.2658C47.9711 21.2658 48.6479 21.3886 49.2043 21.6342C49.7758 21.8644 50.2194 22.1791 50.5352 22.5782C50.866 22.9773 51.0766 23.4531 51.1668 24.0057C51.2721 24.5583 51.257 25.1416 51.1217 25.7556C50.9713 26.4771 50.7232 27.1141 50.3773 27.6667C50.0314 28.2193 49.6254 28.7105 49.1592 29.1403C48.693 29.57 48.1742 29.9538 47.6027 30.2915C47.0463 30.6292 46.4823 30.9515 45.9109 31.2585C45.3394 31.5502 44.7755 31.8342 44.2191 32.1104C43.6626 32.3867 43.1588 32.6784 42.7077 32.9854C42.4069 33.1849 42.1062 33.3998 41.8054 33.6301C41.5196 33.845 41.2565 34.0829 41.0159 34.3439C40.7752 34.6048 40.5572 34.8964 40.3617 35.2188C40.1812 35.5258 40.0384 35.8712 39.9331 36.2549H48.7983L48.5501 37.4982H38.151C38.3165 36.7154 38.542 36.0093 38.8278 35.38C39.1285 34.7506 39.5947 34.1366 40.2263 33.538C40.9181 32.8933 41.6099 32.3407 42.3017 31.8802C42.9934 31.4197 43.6551 31.0129 44.2867 30.6599C44.9334 30.2915 45.5424 29.9615 46.1139 29.6698C46.7004 29.3628 47.2192 29.0328 47.6704 28.6798C48.1366 28.3267 48.5276 27.9276 48.8434 27.4825C49.1742 27.0373 49.4073 26.4924 49.5427 25.8477C49.6479 25.3258 49.6479 24.8576 49.5427 24.4432C49.4524 24.0288 49.2795 23.6757 49.0238 23.3841C48.7682 23.0924 48.4449 22.8775 48.0539 22.7394C47.6629 22.5859 47.2192 22.5091 46.7229 22.5091C46.1966 22.5091 45.6928 22.6242 45.2116 22.8545C44.7454 23.0694 44.3168 23.361 43.9258 23.7294C43.5498 24.0978 43.2265 24.5276 42.9558 25.0188C42.7002 25.51 42.5272 26.0319 42.437 26.5845H40.9031Z" fill="black"/>
</svg>
