<?xml version="1.0" encoding="utf-8"?>
<!-- Generator: Adobe Illustrator 19.2.0, SVG Export Plug-In . SVG Version: 6.00 Build 0)  -->
<svg version="1.1" id="Ebene_1" xmlns="http://www.w3.org/2000/svg" xmlns:xlink="http://www.w3.org/1999/xlink" x="0px" y="0px"
	 viewBox="0 0 158.7 155.3" style="enable-background:new 0 0 158.7 155.3;" xml:space="preserve">
<style type="text/css">
	.st0{fill:none;}
	.st1{fill:#9D865E;}
	.st2{fill:#AC3443;}
	.st3{fill:#515242;}
	.st4{fill:#9D977B;}
</style>
<rect y="0" class="st0" width="158.7" height="155.3"/>
<polygon class="st1" points="8.5,134.2 8.5,97.8 14.8,97.8 14.8,111.2 14.9,111.2 21.4,97.8 27.6,97.8 20.9,111.3 28.5,134.2 
	22.2,134.2 17.1,117.2 17,117.2 14.8,121.3 14.8,134.2 "/>
<path class="st1" d="M31.4,97.8h6.3v27.5c0,2.7,1.1,4,3.3,4s3.3-1.3,3.3-4V97.8h6.2V125c0,3.2-0.8,5.6-2.5,7.2
	c-1.9,1.7-4.4,2.6-7,2.5c-2.6,0.1-5.1-0.8-7-2.5c-1.7-1.6-2.5-4.1-2.5-7.2L31.4,97.8z"/>
<polygon class="st1" points="55.5,134.2 55.5,97.8 61.8,97.8 61.8,128.7 71.6,128.7 71.6,134.2 "/>
<polygon class="st1" points="77.2,103.2 71.2,103.2 71.2,97.8 89.5,97.8 89.5,103.2 83.4,103.2 83.4,134.2 77.2,134.2 "/>
<path class="st1" d="M93.4,97.8h6.2v27.5c0,2.7,1.1,4,3.3,4s3.3-1.3,3.3-4V97.8h6.2V125c0,3.2-0.8,5.6-2.5,7.2
	c-1.9,1.7-4.4,2.6-7,2.5c-2.6,0.1-5.1-0.8-7-2.5c-1.7-1.6-2.6-4.1-2.6-7.2L93.4,97.8z"/>
<path class="st1" d="M123.9,134.2h-6.2V97.8h8.8c3.5,0,6.1,0.8,7.9,2.5c1.8,1.6,2.7,4.4,2.7,8.3c0,1.3-0.1,2.5-0.4,3.8
	c-0.2,0.9-0.5,1.8-1,2.7c-0.7,1.2-1.7,2.2-3,2.7l5.3,16.5h-6.4l-4.4-15.1c-0.5,0.1-1,0.1-1.5,0.1H124L123.9,134.2z M123.9,114.1h2.2
	c0.7,0,1.4-0.1,2.1-0.3c0.6-0.1,1.1-0.5,1.4-0.9c0.4-0.5,0.7-1.1,0.8-1.7c0.2-0.9,0.3-1.8,0.2-2.7c0-2.2-0.4-3.6-1.1-4.4
	c-1-0.9-2.3-1.3-3.6-1.2h-2.2L123.9,114.1z"/>
<path class="st2" d="M47.4,62.2c0-0.7-0.2-1.3-0.4-1.9c-0.2-0.5-0.5-0.9-0.8-1.2s-0.6-0.5-1-0.7c-0.3-0.1-0.7-0.2-1-0.2
	c-0.9-0.1-1.7,0.3-2.3,0.9c-0.6,0.7-0.9,1.7-0.9,2.6c0,1,0.3,2,0.9,2.8c0.7,0.9,1.5,1.8,2.3,2.6c0.9,0.9,1.9,1.7,3,2.6
	s2.1,1.9,3,2.9c0.9,1.1,1.7,2.2,2.3,3.5c0.6,1.4,1,2.8,0.9,4.3c0,1.4-0.2,2.7-0.7,4c-0.4,1.1-1.1,2.1-2,2.9s-1.9,1.4-3.1,1.8
	c-1.3,0.4-2.6,0.6-4,0.6c-1.3,0-2.6-0.3-3.7-0.8c-1.1-0.5-2.1-1.2-2.9-2.2c-0.8-0.9-1.4-2-1.8-3.2c-0.4-1.2-0.7-2.5-0.8-3.8l5.9-0.8
	c0,1.4,0.4,2.8,1.2,4.1c0.6,0.8,1.5,1.3,2.5,1.3c0.9,0,1.9-0.3,2.6-0.8c0.7-0.6,1.1-1.5,1-2.4c0-1.1-0.3-2.2-0.9-3.1
	c-0.7-1-1.4-1.9-2.3-2.7c-0.9-0.9-1.9-1.7-3-2.6s-2.1-1.8-3-2.8s-1.7-2.2-2.3-3.5c-0.6-1.4-1-3-0.9-4.5c-0.2-2.5,0.7-4.9,2.5-6.6
	c1.7-1.5,4-2.3,7.1-2.3c1.2,0,2.3,0.2,3.4,0.6c1,0.4,1.8,1,2.6,1.8c0.7,0.8,1.3,1.7,1.8,2.8s0.7,2.3,0.9,3.5L47.4,62.2z"/>
<polygon class="st2" points="62.3,58.8 56.4,58.8 56.4,53.4 74.5,53.4 74.5,58.8 68.5,58.8 68.5,89.3 62.3,89.3 "/>
<path class="st2" d="M80.2,89.3h-6l6.6-35.9h7.7l6.6,35.9h-6l-1.1-8h-6.7L80.2,89.3z M82.2,76h5l-2.5-15.4h-0.1L82.2,76z"/>
<polygon class="st2" points="127.3,58.8 121.4,58.8 121.4,53.4 139.5,53.4 139.5,58.8 133.5,58.8 133.5,89.3 127.3,89.3 "/>
<path class="st2" d="M105,89.3h-6.1V53.4h8.7c3.4,0,6,0.8,7.8,2.4s2.7,4.3,2.7,8.2c0,1.3-0.1,2.5-0.4,3.7c-0.2,0.9-0.5,1.8-1,2.6
	c-0.4,0.7-0.8,1.2-1.4,1.7c-0.5,0.4-1,0.7-1.6,1l5.2,16.3h-6.3l-4.4-14.9c-0.5,0.1-1,0.1-1.5,0.1H105L105,89.3z M105,69.5h2.2
	c0.7,0,1.4-0.1,2.1-0.2c0.6-0.1,1-0.5,1.4-0.9c0.4-0.5,0.7-1.1,0.8-1.7c0.2-0.9,0.3-1.8,0.3-2.7c0-2.1-0.3-3.6-1-4.3
	c-1-0.9-2.2-1.3-3.5-1.2H105V69.5z"/>
<polygon class="st3" points="72,44.9 72,8.5 77.8,8.5 85.4,29.3 85.5,29.3 85.5,8.5 91.2,8.5 91.2,44.9 85.8,44.9 77.8,22.2 
	77.7,22.2 77.7,44.9 "/>
<polygon class="st3" points="96.3,44.9 96.3,8.5 113,8.5 113,14 102.6,14 102.6,23.3 110.6,23.3 110.6,28.8 102.6,28.8 102.6,39.5 
	113.8,39.5 113.8,44.9 "/>
<path class="st3" d="M118,8.5h6.2V36c0,2.7,1.1,4,3.3,4c2.2,0,3.3-1.3,3.3-4V8.5h6.2v27.2c0,3.2-0.9,5.6-2.6,7.2
	c-4.1,3.3-10,3.3-14.1,0c-1.7-1.7-2.5-4.1-2.5-7.2V8.5H118z"/>
<polygon class="st4" points="12.6,89.3 8.5,89.3 8.5,8.5 63.5,8.5 63.5,12.5 12.6,12.5 "/>
<polygon class="st4" points="150.2,146.8 8.5,146.8 8.5,142.6 146,142.6 146,8.5 150.2,8.5 "/>
</svg>
