<svg width="275" height="93" viewBox="0 0 275 93" fill="none" xmlns="http://www.w3.org/2000/svg">
<path d="M0.088501 40.1947V0.726227H3.93361V37.0153H25.7603V40.1947H0.088501Z" fill="black"/>
<path d="M48.9099 25.2844C47.4774 25.8691 46.0261 26.2528 44.5559 26.4355C43.0857 26.6183 41.6155 26.7644 40.1453 26.8741C37.5442 27.0568 35.5085 27.6232 34.0384 28.5734C32.6059 29.5236 31.8896 30.9671 31.8896 32.904C31.8896 33.781 32.0593 34.5485 32.3985 35.2063C32.7755 35.8276 33.2467 36.3575 33.8122 36.796C34.4153 37.198 35.0939 37.5086 35.8478 37.7279C36.6395 37.9106 37.4311 38.002 38.2227 38.002C39.5798 38.002 40.8992 37.8375 42.1809 37.5086C43.4627 37.1797 44.5936 36.6864 45.5737 36.0286C46.5915 35.3342 47.402 34.4754 48.0052 33.4521C48.6083 32.3923 48.9099 31.1498 48.9099 29.7246V25.2844ZM43.1988 23.6398C43.8396 23.5668 44.5936 23.4571 45.4606 23.3109C46.3653 23.1648 47.1004 22.9638 47.6659 22.708C48.2313 22.4521 48.5706 22.0319 48.6837 21.4472C48.8345 20.8259 48.9099 20.2594 48.9099 19.7478C48.9099 18.0668 48.3444 16.6963 47.2135 15.6365C46.1203 14.5402 44.2543 13.992 41.6155 13.992C40.4469 13.992 39.3725 14.1016 38.3924 14.3209C37.4123 14.5036 36.5452 14.8508 35.7913 15.3624C35.075 15.8375 34.4719 16.4953 33.9818 17.3359C33.5294 18.1398 33.2279 19.1631 33.0771 20.4056H29.6278C29.7409 18.7246 30.1367 17.2993 30.8153 16.1299C31.4938 14.9239 32.3608 13.9555 33.4164 13.2246C34.5096 12.4571 35.7536 11.909 37.1484 11.58C38.5809 11.2146 40.0888 11.0319 41.672 11.0319C43.1422 11.0319 44.5182 11.1963 45.7999 11.5252C47.1193 11.8176 48.2502 12.3109 49.1926 13.0053C50.1728 13.6631 50.9267 14.5585 51.4545 15.6913C52.0199 16.8242 52.3026 18.2129 52.3026 19.8575V35.3159C52.3026 36.595 52.5288 37.4173 52.9812 37.7827C53.4713 38.1116 54.4325 38.0203 55.865 37.5086V40.085C55.6011 40.1581 55.2053 40.2678 54.6776 40.4139C54.1875 40.5601 53.6974 40.6332 53.2074 40.6332C52.6796 40.6332 52.1707 40.5784 51.6806 40.4688C51.1152 40.3957 50.6628 40.2312 50.3235 39.9754C49.9843 39.683 49.7015 39.3541 49.4754 38.9887C49.2869 38.5867 49.1549 38.1664 49.0795 37.7279C49.0041 37.2528 48.9664 36.7595 48.9664 36.2478C47.534 37.7827 45.8941 38.9521 44.047 39.7561C42.1998 40.5601 40.2018 40.9621 38.0531 40.9621C36.7714 40.9621 35.5274 40.7977 34.3211 40.4688C33.1525 40.1399 32.1158 39.6282 31.2111 38.9339C30.3063 38.2395 29.5901 37.399 29.0623 36.4123C28.5346 35.389 28.2707 34.183 28.2707 32.7943C28.2707 27.9704 31.6823 25.1199 38.5055 24.2428L43.1988 23.6398Z" fill="black"/>
<path d="M75.6759 37.0153H85.4583C87.5693 37.0153 89.4165 36.9239 90.9998 36.7412C92.6207 36.5585 94.0155 36.193 95.1841 35.6448C96.3528 35.0601 97.2952 34.2561 98.0114 33.2329C98.7277 32.1731 99.2743 30.7844 99.6513 29.0668C99.9905 27.4222 99.9905 26.1066 99.6513 25.1199C99.312 24.0967 98.6711 23.3109 97.7287 22.7628C96.824 22.2146 95.6554 21.8492 94.2229 21.6664C92.7904 21.4472 91.1694 21.3375 89.3599 21.3375H79.1251L75.6759 37.0153ZM79.8037 18.1581H89.5296C91.5275 18.1581 93.2427 17.9937 94.6752 17.6648C96.1077 17.3359 97.314 16.8608 98.2942 16.2395C99.2743 15.5817 100.047 14.796 100.613 13.8824C101.178 12.9322 101.593 11.8541 101.857 10.6482C102.12 9.40563 102.139 8.3641 101.913 7.52357C101.687 6.64649 101.178 5.95214 100.386 5.44051C99.5947 4.89234 98.5015 4.50862 97.1067 4.28935C95.7119 4.03353 93.959 3.90563 91.8479 3.90563H82.9703L79.8037 18.1581ZM71.1522 40.1947L79.8037 0.726227H94.5056C96.8805 0.726227 98.8596 0.963769 100.443 1.43885C102.064 1.91394 103.308 2.59002 104.175 3.46709C105.042 4.34417 105.589 5.40397 105.815 6.64649C106.079 7.85247 106.041 9.18636 105.702 10.6482C105.4 12.0369 104.939 13.1149 104.336 14.1382C103.733 15.1249 103.063 16.0933 102.309 16.7877C101.555 17.4455 100.744 17.9754 99.8774 18.3774C99.0104 18.7428 98.1622 18.9987 97.3329 19.1448L97.2763 19.2545C99.9905 19.6565 101.838 20.7345 102.818 22.4887C103.836 24.2428 104.062 26.4355 103.496 29.0668C103.044 31.1133 102.328 32.8492 101.348 34.2744C100.405 35.6997 99.2366 36.8508 97.8418 37.7279C96.4847 38.605 94.9391 39.2445 93.205 39.6465C91.5087 40.0119 89.6992 40.1947 87.7766 40.1947H71.1522Z" fill="black"/>
<path d="M122.357 40.9621C120.473 40.9256 118.701 40.5967 117.042 39.9754C115.421 39.3541 113.989 38.4222 112.745 37.1797C111.538 35.9372 110.577 34.384 109.861 32.5203C109.145 30.6565 108.786 28.482 108.786 25.997C108.786 23.9139 109.069 21.9771 109.635 20.1864C110.2 18.3591 111.048 16.7694 112.179 15.4173C113.31 14.0651 114.724 13.0053 116.42 12.2379C118.117 11.4339 120.096 11.0319 122.357 11.0319C124.657 11.0319 126.655 11.4339 128.351 12.2379C130.048 13.0053 131.461 14.0651 132.592 15.4173C133.723 16.7329 134.553 18.3043 135.08 20.1315C135.646 21.9588 135.928 23.9139 135.928 25.997C135.928 28.2628 135.608 30.3093 134.967 32.1365C134.326 33.9638 133.403 35.5352 132.196 36.8508C131.028 38.1664 129.595 39.1897 127.899 39.9206C126.24 40.6149 124.393 40.9621 122.357 40.9621ZM132.31 25.997C132.31 24.3159 132.121 22.7445 131.744 21.2827C131.367 19.8209 130.783 18.5601 129.991 17.5003C129.2 16.404 128.182 15.5452 126.938 14.9239C125.694 14.3026 124.167 13.992 122.357 13.992C120.586 13.992 119.059 14.3392 117.777 15.0335C116.533 15.6913 115.515 16.5867 114.724 17.7196C113.932 18.8159 113.348 20.095 112.971 21.5568C112.594 22.982 112.405 24.4621 112.405 25.997C112.405 27.7511 112.613 29.3774 113.027 30.8757C113.48 32.3375 114.121 33.5983 114.95 34.6581C115.779 35.7179 116.816 36.5402 118.06 37.1249C119.304 37.7096 120.736 38.002 122.357 38.002C124.129 38.002 125.637 37.6731 126.881 37.0153C128.163 36.3209 129.2 35.4073 129.991 34.2744C130.783 33.1415 131.367 31.8624 131.744 30.4372C132.121 29.0119 132.31 27.5319 132.31 25.997Z" fill="black"/>
<path d="M141.087 40.1947V0.726227H144.48V15.7462C145.837 14.3575 147.232 13.2246 148.664 12.3475C150.134 11.4704 151.887 11.0319 153.923 11.0319C155.732 11.0319 157.41 11.3425 158.955 11.9638C160.501 12.5485 161.802 13.59 162.857 15.0884C163.573 16.1116 163.988 17.1714 164.101 18.2678C164.252 19.3276 164.327 20.4422 164.327 21.6116V40.1947H160.934V21.6664C160.934 19.1083 160.35 17.1897 159.182 15.9106C158.013 14.6315 156.072 13.992 153.357 13.992C152.302 13.992 151.341 14.1565 150.474 14.4854C149.606 14.7777 148.815 15.1797 148.099 15.6913C147.42 16.203 146.836 16.7877 146.346 17.4455C145.856 18.1033 145.479 18.7977 145.215 19.5286C144.876 20.4422 144.668 21.3193 144.593 22.1598C144.517 23.0003 144.48 23.9139 144.48 24.9006V40.1947H141.087Z" fill="black"/>
<path d="M193.405 24.0236C193.706 22.6349 193.782 21.3375 193.631 20.1315C193.518 18.889 193.178 17.8292 192.613 16.9521C192.047 16.0385 191.237 15.3259 190.181 14.8143C189.126 14.2661 187.844 13.992 186.336 13.992C184.828 13.992 183.434 14.2661 182.152 14.8143C180.908 15.3624 179.777 16.0933 178.759 17.007C177.741 17.9206 176.856 18.9804 176.102 20.1864C175.348 21.3923 174.744 22.6714 174.292 24.0236H193.405ZM173.67 26.7644C173.331 28.2993 173.218 29.7611 173.331 31.1498C173.444 32.502 173.802 33.6897 174.405 34.7129C175.008 35.6996 175.857 36.5036 176.95 37.1249C178.081 37.7096 179.457 38.002 181.078 38.002C183.302 38.002 185.319 37.4355 187.128 36.3026C188.975 35.1698 190.389 33.5618 191.369 31.4787H195.158C194.441 32.8309 193.612 34.0917 192.669 35.2611C191.765 36.394 190.709 37.399 189.503 38.2761C188.297 39.1166 186.94 39.7744 185.432 40.2495C183.924 40.7246 182.246 40.9621 180.399 40.9621C178.062 40.9621 176.12 40.5784 174.575 39.8109C173.067 39.0435 171.898 38.002 171.069 36.6864C170.277 35.3342 169.825 33.7628 169.712 31.9721C169.599 30.1448 169.768 28.1897 170.221 26.1066C170.673 24.0236 171.408 22.0684 172.426 20.2412C173.444 18.4139 174.669 16.8242 176.102 15.4721C177.572 14.0834 179.212 13.0053 181.021 12.2379C182.868 11.4339 184.847 11.0319 186.958 11.0319C190.992 11.0319 193.857 12.384 195.553 15.0884C197.287 17.7561 197.57 21.6482 196.402 26.7644H173.67ZM182.039 1.10995H186.449L191.03 8.72955H188.146L182.039 1.10995Z" fill="black"/>
<path d="M205.914 40.1947H202.521V11.7993H205.914V16.0751H206.027C206.894 14.4305 208.138 13.188 209.759 12.3475C211.38 11.4704 213.152 11.0319 215.074 11.0319C216.432 11.0319 217.581 11.1781 218.524 11.4704C219.466 11.7628 220.258 12.1648 220.899 12.6764C221.577 13.1515 222.124 13.7179 222.538 14.3757C222.991 15.0335 223.368 15.7462 223.669 16.5136C224.65 14.6498 225.95 13.2794 227.571 12.4023C229.23 11.4887 231.115 11.0319 233.226 11.0319C235.224 11.0319 236.807 11.3608 237.975 12.0186C239.182 12.6398 240.105 13.4804 240.746 14.5402C241.387 15.5634 241.802 16.7511 241.99 18.1033C242.216 19.4555 242.329 20.8442 242.329 22.2694V40.1947H238.937V20.5701C238.937 18.5236 238.484 16.9156 237.58 15.7462C236.713 14.5767 235.073 13.992 232.66 13.992C231.416 13.992 230.21 14.2661 229.041 14.8143C227.91 15.3259 226.911 16.1299 226.044 17.2262C225.667 17.7013 225.347 18.2678 225.083 18.9256C224.857 19.5468 224.668 20.2046 224.518 20.899C224.367 21.5933 224.254 22.2877 224.178 22.982C224.141 23.6764 224.122 24.3159 224.122 24.9006V40.1947H220.729V20.5701C220.729 18.5236 220.277 16.9156 219.372 15.7462C218.505 14.5767 216.865 13.992 214.452 13.992C213.208 13.992 212.002 14.2661 210.833 14.8143C209.703 15.3259 208.704 16.1299 207.837 17.2262C207.46 17.7013 207.139 18.2678 206.875 18.9256C206.649 19.5468 206.461 20.2046 206.31 20.899C206.159 21.5933 206.046 22.2877 205.971 22.982C205.933 23.6764 205.914 24.3159 205.914 24.9006V40.1947Z" fill="black"/>
<path d="M270.804 24.0236C270.804 22.6349 270.597 21.3375 270.182 20.1315C269.805 18.889 269.221 17.8292 268.429 16.9521C267.675 16.0385 266.714 15.3259 265.545 14.8143C264.377 14.2661 263.039 13.992 261.531 13.992C260.023 13.992 258.685 14.2661 257.516 14.8143C256.385 15.3624 255.405 16.0933 254.576 17.007C253.784 17.9206 253.143 18.9804 252.653 20.1864C252.163 21.3923 251.843 22.6714 251.692 24.0236H270.804ZM251.692 26.7644C251.692 28.2993 251.899 29.7611 252.314 31.1498C252.728 32.502 253.332 33.6897 254.123 34.7129C254.953 35.6996 255.989 36.5036 257.233 37.1249C258.477 37.7096 259.91 38.002 261.531 38.002C263.755 38.002 265.659 37.4355 267.242 36.3026C268.825 35.1698 269.881 33.5618 270.408 31.4787H274.197C273.782 32.8309 273.236 34.0917 272.557 35.2611C271.879 36.394 271.03 37.399 270.013 38.2761C268.995 39.1166 267.788 39.7744 266.394 40.2495C264.999 40.7246 263.378 40.9621 261.531 40.9621C259.194 40.9621 257.177 40.5784 255.48 39.8109C253.784 39.0435 252.389 38.002 251.296 36.6864C250.203 35.3342 249.392 33.7628 248.864 31.9721C248.337 30.1448 248.073 28.1897 248.073 26.1066C248.073 24.0236 248.374 22.0684 248.978 20.2412C249.618 18.4139 250.504 16.8242 251.635 15.4721C252.804 14.0834 254.217 13.0053 255.876 12.2379C257.535 11.4339 259.42 11.0319 261.531 11.0319C265.564 11.0319 268.731 12.384 271.03 15.0884C273.33 17.7561 274.461 21.6482 274.423 26.7644H251.692Z" fill="black"/>
<path d="M1.23984 64.8624C1.23984 62.9224 1.53224 61.169 2.11705 59.6021C2.70185 57.9979 3.54251 56.6361 4.63902 55.5169C5.73553 54.3604 7.05135 53.4837 8.58646 52.8868C10.1581 52.2525 11.8943 51.9354 13.7949 51.9354C15.7321 51.9354 17.4317 52.2339 18.8937 52.8308C20.3922 53.3904 21.6349 54.1552 22.6218 55.1252C23.6452 56.0952 24.4128 57.2517 24.9245 58.5948C25.4362 59.9378 25.692 61.3555 25.692 62.8478C25.692 64.6012 25.3996 66.1495 24.8148 67.4926C24.2666 68.8356 23.5173 70.0294 22.567 71.0741C21.6532 72.1187 20.5933 73.0513 19.3871 73.8721C18.2175 74.6929 17.0113 75.4763 15.7686 76.2225C14.5259 76.9313 13.3015 77.6215 12.0953 78.293C10.8891 78.9645 9.8109 79.6734 8.86059 80.4195C8.23923 80.9045 7.63615 81.4268 7.05135 81.9864C6.46654 82.5087 5.93656 83.087 5.46141 83.7212C4.98625 84.3554 4.60247 85.0643 4.31007 85.8477C4.01767 86.5939 3.85319 87.4333 3.81664 88.366H25.3631V91.3879H0.088501C0.125051 89.4852 0.326079 87.7691 0.691582 86.2395C1.05709 84.7099 1.86119 83.2176 3.10391 81.7626C4.45627 80.1957 5.84518 78.8526 7.27065 77.7334C8.73266 76.6142 10.1581 75.6255 11.547 74.7675C12.936 73.8721 14.2518 73.07 15.4945 72.3612C16.7372 71.615 17.8337 70.8129 18.784 69.9548C19.7343 69.0968 20.4836 68.1268 21.0319 67.0449C21.5801 65.963 21.8542 64.6385 21.8542 63.0716C21.8542 61.8032 21.6349 60.6653 21.1963 59.658C20.7577 58.6507 20.1547 57.7927 19.3871 57.0838C18.6195 56.375 17.7241 55.8527 16.7006 55.5169C15.6772 55.1439 14.5624 54.9573 13.3563 54.9573C12.077 54.9573 10.9074 55.2371 9.84745 55.7967C8.82404 56.319 7.92856 57.0279 7.161 57.9232C6.42999 58.8186 5.86346 59.8632 5.46141 61.057C5.05935 62.2509 4.89488 63.5193 4.96798 64.8624H1.23984Z" fill="black"/>
<path d="M54.3474 71.9694C54.3474 69.8429 54.2195 67.7724 53.9636 65.7578C53.7443 63.7059 53.2874 61.8778 52.593 60.2736C51.8985 58.6694 50.9116 57.3823 49.6324 56.4123C48.3897 55.4423 46.7449 54.9573 44.6981 54.9573C42.7609 54.9573 41.171 55.461 39.9283 56.4683C38.7221 57.4382 37.7718 58.744 37.0773 60.3855C36.3829 62.027 35.8894 63.8924 35.597 65.9816C35.3412 68.0708 35.2133 70.1973 35.2133 72.3612C35.2133 74.898 35.3595 77.2111 35.6519 79.3003C35.9808 81.3522 36.5108 83.1056 37.2418 84.5606C37.9728 86.0156 38.9414 87.1535 40.1476 87.9742C41.3903 88.7577 42.9437 89.1494 44.8077 89.1494C46.8911 89.1494 48.5541 88.6271 49.7969 87.5825C51.0761 86.5379 52.0447 85.1949 52.7026 83.5533C53.3605 81.9118 53.7991 80.0651 54.0184 78.0132C54.2377 75.9613 54.3474 73.9467 54.3474 71.9694ZM44.8077 51.9354C46.7084 51.9354 48.3531 52.2339 49.742 52.8308C51.131 53.3904 52.3006 54.1739 53.2509 55.1812C54.2377 56.1885 55.0236 57.3636 55.6084 58.7067C56.2297 60.0498 56.7049 61.4861 57.0338 63.0157C57.3628 64.508 57.5821 66.0562 57.6917 67.6604C57.8014 69.2646 57.8562 70.8316 57.8562 72.3612C57.8562 74.9727 57.6735 77.4722 57.308 79.8599C56.9425 82.2476 56.2663 84.3554 55.2794 86.1835C54.3291 88.0115 53.0133 89.4665 51.332 90.5484C49.6507 91.6304 47.4759 92.1713 44.8077 92.1713C42.1396 92.1713 39.9465 91.6304 38.2287 90.5484C36.5474 89.4665 35.2133 88.0115 34.2264 86.1835C33.2761 84.3181 32.6182 82.173 32.2527 79.748C31.8872 77.2857 31.7044 74.6929 31.7044 71.9694C31.7044 69.4698 31.8689 67.0262 32.1979 64.6385C32.5268 62.2509 33.1482 60.1244 34.0619 58.259C35.0122 56.3563 36.3463 54.8267 38.0642 53.6702C39.7821 52.5137 42.0299 51.9354 44.8077 51.9354Z" fill="black"/>
<path d="M67.2578 64.8624C67.6599 62.9224 68.3178 61.169 69.2315 59.6021C70.1453 57.9979 71.2601 56.6361 72.5759 55.5169C73.9283 54.3604 75.4451 53.4837 77.1264 52.8868C78.8077 52.2525 80.5987 51.9354 82.4993 51.9354C84.4365 51.9354 86.0813 52.2339 87.4336 52.8308C88.8225 53.3904 89.9008 54.1552 90.6683 55.1252C91.4724 56.0952 91.9842 57.2517 92.2035 58.5948C92.4593 59.9378 92.4228 61.3555 92.0938 62.8478C91.7283 64.6012 91.1252 66.1495 90.2846 67.4926C89.4439 68.8356 88.457 70.0294 87.324 71.0741C86.1909 72.1187 84.9299 73.0513 83.541 73.8721C82.1887 74.6929 80.818 75.4763 79.4291 76.2225C78.0402 76.9313 76.6695 77.6215 75.3172 78.293C73.9648 78.9645 72.7404 79.6734 71.6439 80.4195C70.9129 80.9045 70.1819 81.4268 69.4509 81.9864C68.7564 82.5087 68.1168 83.087 67.532 83.7212C66.9472 84.3554 66.4172 85.0643 65.942 85.8477C65.5034 86.5939 65.1562 87.4333 64.9003 88.366H86.4468L85.8437 91.3879H60.5691C60.9712 89.4852 61.5194 87.7691 62.2139 86.2395C62.9449 84.7099 64.0779 83.2176 65.6131 81.7626C67.2944 80.1957 68.9757 78.8526 70.657 77.7334C72.3383 76.6142 73.9465 75.6255 75.4817 74.7675C77.0533 73.8721 78.5336 73.07 79.9225 72.3612C81.348 71.615 82.609 70.8129 83.7055 69.9548C84.8386 69.0968 85.7889 68.1268 86.5564 67.0449C87.3605 65.963 87.9271 64.6385 88.256 63.0716C88.5119 61.8032 88.5119 60.6653 88.256 59.658C88.0367 58.6507 87.6164 57.7927 86.995 57.0838C86.3737 56.375 85.5878 55.8527 84.6375 55.5169C83.6872 55.1439 82.609 54.9573 81.4028 54.9573C80.1236 54.9573 78.8991 55.2371 77.7295 55.7967C76.5965 56.319 75.5548 57.0279 74.6045 57.9232C73.6907 58.8186 72.9049 59.8632 72.247 61.057C71.6256 62.2509 71.2053 63.5193 70.986 64.8624H67.2578Z" fill="black"/>
<path d="M98.1212 64.8624C98.5232 62.9224 99.1811 61.169 100.095 59.6021C101.009 57.9979 102.123 56.6361 103.439 55.5169C104.792 54.3604 106.308 53.4837 107.99 52.8868C109.671 52.2525 111.462 51.9354 113.363 51.9354C115.3 51.9354 116.945 52.2339 118.297 52.8308C119.686 53.3904 120.764 54.1552 121.532 55.1252C122.336 56.0952 122.847 57.2517 123.067 58.5948C123.323 59.9378 123.286 61.3555 122.957 62.8478C122.592 64.6012 121.989 66.1495 121.148 67.4926C120.307 68.8356 119.32 70.0294 118.187 71.0741C117.054 72.1187 115.793 73.0513 114.404 73.8721C113.052 74.6929 111.681 75.4763 110.292 76.2225C108.904 76.9313 107.533 77.6215 106.181 78.293C104.828 78.9645 103.604 79.6734 102.507 80.4195C101.776 80.9045 101.045 81.4268 100.314 81.9864C99.6197 82.5087 98.9801 83.087 98.3953 83.7212C97.8105 84.3554 97.2805 85.0643 96.8053 85.8477C96.3667 86.5939 96.0195 87.4333 95.7636 88.366H117.31L116.707 91.3879H91.4324C91.8345 89.4852 92.3827 87.7691 93.0772 86.2395C93.8082 84.7099 94.9413 83.2176 96.4764 81.7626C98.1577 80.1957 99.839 78.8526 101.52 77.7334C103.202 76.6142 104.81 75.6255 106.345 74.7675C107.917 73.8721 109.397 73.07 110.786 72.3612C112.211 71.615 113.472 70.8129 114.569 69.9548C115.702 69.0968 116.652 68.1268 117.42 67.0449C118.224 65.963 118.79 64.6385 119.119 63.0716C119.375 61.8032 119.375 60.6653 119.119 59.658C118.9 58.6507 118.48 57.7927 117.858 57.0838C117.237 56.375 116.451 55.8527 115.501 55.5169C114.551 55.1439 113.472 54.9573 112.266 54.9573C110.987 54.9573 109.762 55.2371 108.593 55.7967C107.46 56.319 106.418 57.0279 105.468 57.9232C104.554 58.8186 103.768 59.8632 103.11 61.057C102.489 62.2509 102.069 63.5193 101.849 64.8624H98.1212Z" fill="black"/>
</svg>
