<svg width="470" height="95" viewBox="0 0 470 95" fill="none" xmlns="http://www.w3.org/2000/svg">
<path d="M362.959 84.1017H358.423V54.8715L349.534 74.7608H346.784L337.964 54.8715V84.1017H333.725V50.1782H339.911L348.434 69.0651L356.659 50.1782H362.959V84.1017Z" fill="black"/>
<path d="M381.792 84.808C379.791 84.808 378.042 84.5498 376.546 84.0334C375.049 83.5018 373.773 82.7196 372.719 81.6868C371.528 80.5021 370.688 79.0895 370.199 77.4492C369.711 75.7936 369.466 73.7584 369.466 71.3434V50.1782H374.002V71.3434C374.002 72.9078 374.102 74.2292 374.3 75.3076C374.499 76.3708 374.888 77.3277 375.469 78.1782C376.08 79.0895 376.905 79.7806 377.943 80.2514C378.997 80.7223 380.28 80.9577 381.792 80.9577C383.213 80.9577 384.473 80.7223 385.573 80.2514C386.672 79.7806 387.528 79.0895 388.139 78.1782C388.704 77.3125 389.086 76.3556 389.284 75.3076C389.498 74.2596 389.605 72.9762 389.605 71.4573V50.1782H394.141V71.3434C394.141 73.6976 393.897 75.7177 393.408 77.4036C392.935 79.0895 392.094 80.5172 390.888 81.6868C389.803 82.7348 388.536 83.517 387.085 84.0334C385.649 84.5498 383.885 84.808 381.792 84.808Z" fill="black"/>
<path d="M410.179 84.7169C407.704 84.7169 405.597 84.4663 403.855 83.965C402.13 83.4486 400.503 82.8183 398.975 82.0741V76.4239H399.296C400.793 77.8213 402.488 78.9073 404.382 79.6819C406.276 80.4413 408.102 80.821 409.858 80.821C412.363 80.821 414.257 80.3046 415.54 79.2718C416.823 78.2238 417.465 76.8492 417.465 75.1481C417.465 73.7963 417.129 72.6952 416.456 71.8446C415.784 70.9941 414.715 70.3637 413.249 69.9537C412.195 69.6499 411.233 69.3993 410.362 69.2018C409.492 69.0044 408.399 68.7386 407.086 68.4044C405.91 68.1007 404.856 67.7134 403.924 67.2425C402.992 66.7717 402.168 66.1565 401.45 65.3971C400.747 64.6529 400.197 63.7795 399.8 62.7771C399.418 61.7595 399.227 60.59 399.227 59.2686C399.227 56.5194 400.304 54.2184 402.458 52.3654C404.612 50.4972 407.361 49.5631 410.706 49.5631C412.615 49.5631 414.417 49.753 416.113 50.1327C417.824 50.5124 419.404 51.0516 420.855 51.7503V57.1498H420.512C419.427 56.1625 418.037 55.3044 416.342 54.5753C414.647 53.8311 412.867 53.459 411.004 53.459C408.896 53.459 407.193 53.9526 405.895 54.9398C404.596 55.9119 403.947 57.1953 403.947 58.7901C403.947 60.233 404.329 61.3798 405.093 62.2303C405.856 63.0809 406.964 63.7036 408.415 64.0985C409.377 64.3567 410.553 64.6529 411.943 64.987C413.333 65.306 414.486 65.6022 415.403 65.8755C417.755 66.5894 419.473 67.6678 420.558 69.1107C421.642 70.5536 422.184 72.3307 422.184 74.4419C422.184 75.7632 421.909 77.0695 421.359 78.3605C420.825 79.6515 420.069 80.7451 419.091 81.6412C417.992 82.6284 416.747 83.3879 415.357 83.9195C413.982 84.4511 412.256 84.7169 410.179 84.7169Z" fill="black"/>
<path d="M438.749 84.1017H425.506V80.6388H429.859V53.6412H425.506V50.1782H438.749V53.6412H434.396V80.6388H438.749V84.1017Z" fill="black"/>
<path d="M469.198 84.1017H463.309L450.869 68.3133L448.875 70.546V84.1017H444.339V50.1782H448.875V65.7844L462.851 50.1782H468.373L454.26 65.3288L469.198 84.1017Z" fill="black"/>
<path d="M58.9959 78.8604L59.6587 80.1125C59.8966 80.3212 60.2535 80.5473 60.7293 80.7907C61.2052 80.9994 61.732 81.2081 62.3098 81.4168C62.9216 81.5907 63.5504 81.7298 64.1962 81.8342C64.876 81.9385 65.5388 81.9907 66.1846 81.9907C69.1417 81.9907 71.419 81.3994 73.0164 80.2169C74.6479 79.0343 75.4637 77.3126 75.4637 75.0519C75.4637 73.6954 75.0898 72.5302 74.342 71.5564C73.6283 70.5825 72.7275 69.6956 71.6399 68.8956C70.5522 68.0956 69.3626 67.3304 68.071 66.6C66.7794 65.8696 65.5898 65.0697 64.5021 64.2001C63.4145 63.2958 62.4968 62.2698 61.749 61.122C61.0352 59.9742 60.6784 58.6004 60.6784 57.0005C60.6784 53.8354 61.851 51.4007 64.1962 49.6964C66.5415 47.9921 69.9744 47.14 74.495 47.14C76.8402 47.14 78.7776 47.3139 80.3071 47.6617C81.8366 47.9747 83.1452 48.3921 84.2329 48.9138C84.2329 48.9138 84.1989 49.053 84.1309 49.3312C84.0629 49.5747 83.995 49.9051 83.927 50.3225C83.859 50.7398 83.757 51.2268 83.6211 51.7833C83.5191 52.305 83.4171 52.8441 83.3152 53.4006C83.0433 54.7223 82.7374 56.2005 82.3975 57.8352H79.1345L80.2562 52.2528L79.6953 50.9485C79.1175 50.6703 78.2848 50.4616 77.1971 50.3225C76.1095 50.1486 74.9708 50.0616 73.7812 50.0616C71.232 50.0616 69.3626 50.5833 68.173 51.6268C66.9834 52.6702 66.3885 53.9223 66.3885 55.3831C66.3885 56.6005 66.7454 57.6613 67.4592 58.5656C68.207 59.4351 69.1247 60.2699 70.2124 61.0698C71.3 61.835 72.4896 62.6002 73.7812 63.3654C75.0728 64.0958 76.2624 64.9305 77.3501 65.8696C78.4377 66.7739 79.3385 67.8348 80.0522 69.0521C80.8 70.2695 81.1739 71.7129 81.1739 73.3824C81.1739 75.1214 80.834 76.704 80.1542 78.13C79.4744 79.5212 78.4717 80.7212 77.1462 81.7298C75.8546 82.7385 74.2401 83.5211 72.3027 84.0776C70.3653 84.6341 68.139 84.9123 65.6238 84.9123C64.4341 84.9123 63.2785 84.8254 62.1569 84.6515C61.0692 84.4775 60.0665 84.2515 59.1488 83.9732C58.2311 83.695 57.4154 83.3993 56.7016 83.0863C56.0218 82.7733 55.478 82.4602 55.0701 82.1472L57.0075 72.652H60.2705L58.9959 78.8604Z" fill="black"/>
<path d="M87.5437 59.7134H84.4336V56.8961H92.0303L96.007 78.5995V81.469H96.4148L97.7914 78.7561C98.3692 77.4691 98.964 76.0953 99.5758 74.6345C100.188 73.1737 100.782 71.7129 101.36 70.2521C101.972 68.7913 102.533 67.3652 103.043 65.974C103.553 64.548 103.977 63.2089 104.317 61.9568L102.89 56.8961H109.161V59.7134C108.617 61.2437 107.937 63.035 107.121 65.0871C106.34 67.1044 105.473 69.226 104.521 71.452C103.57 73.6432 102.55 75.8866 101.462 78.1822C100.375 80.4777 99.27 82.6515 98.1483 84.7036C97.0607 86.7905 95.956 88.7035 94.8344 90.4425C93.7467 92.1816 92.71 93.6076 91.7244 94.7206H85.8612V89.7121H91.5204C91.9963 89.1208 92.4721 88.4426 92.9479 87.6774C93.4578 86.9122 93.9506 85.7818 94.4265 84.2863H91.9283L87.5437 59.7134Z" fill="black"/>
<path d="M129.188 68.6869C129.46 67.5739 129.698 66.5305 129.902 65.5566C130.106 64.548 130.208 63.5741 130.208 62.635C130.208 61.835 130.004 61.1568 129.596 60.6003C129.188 60.009 128.576 59.7134 127.76 59.7134C126.741 59.7134 125.755 59.9221 124.803 60.3394C123.886 60.7568 123.036 61.2785 122.254 61.9046C121.472 62.4959 120.776 63.1219 120.164 63.7828C119.586 64.4436 119.127 65.0175 118.787 65.5044L114.81 84.2863H109.865L114.912 59.7134H111.395V56.8961H120.47L119.297 62.322H119.552C120.979 60.5481 122.577 59.1221 124.344 58.0439C126.112 56.9309 128.015 56.3744 130.055 56.3744C131.89 56.3744 133.199 56.8439 133.98 57.783C134.796 58.6873 135.204 59.8699 135.204 61.3307C135.204 62.1307 135.102 63.1393 134.898 64.3567C134.728 65.574 134.507 66.7044 134.235 67.7478L131.023 81.469H135.204V84.2863H130.768H125.772L129.188 68.6869Z" fill="black"/>
<path d="M149.09 71.2955H147.101L144.501 84.2863H139.505L146.948 47.9747H143.226V45.1575H152.403L147.56 69.2086H149.192L157.298 60.9133V56.8961H164.079V59.0873L153.321 68.6869L160.255 81.469H163.212V84.2863H155.819L149.09 71.2955Z" fill="black"/>
<path d="M181.169 61.9046C180.829 61.9742 180.421 62.0785 179.945 62.2176C179.503 62.322 179.027 62.4785 178.518 62.6872C178.008 62.8958 177.481 63.1741 176.937 63.5219C176.393 63.8697 175.866 64.3045 175.357 64.8262L171.176 84.2863H166.18L171.431 59.7134H167.913V56.8961H176.937L175.713 62.2176H175.968C176.648 61.1394 177.481 60.096 178.467 59.0873C179.452 58.0439 180.387 57.3135 181.271 56.8961H185.349V61.9046H181.169Z" fill="black"/>
<path d="M206.251 79.2778C205.877 79.9734 205.368 80.6516 204.722 81.3125C204.076 81.9733 203.311 82.5646 202.427 83.0863C201.544 83.608 200.558 84.0254 199.47 84.3384C198.383 84.6515 197.21 84.808 195.952 84.808C193.029 84.808 190.684 83.9732 188.917 82.3037C187.183 80.5994 186.316 78.2169 186.316 75.1562C186.316 72.5476 186.69 70.0955 187.438 67.8C188.186 65.5044 189.24 63.5219 190.599 61.8524C191.959 60.1829 193.59 58.8612 195.494 57.8874C197.431 56.8787 199.572 56.3744 201.918 56.3744C202.835 56.3744 203.702 56.4961 204.518 56.7396C205.334 56.9483 206.047 57.2787 206.659 57.7309C207.271 58.183 207.747 58.7395 208.087 59.4003C208.427 60.0612 208.596 60.8264 208.596 61.6959C208.596 64.2001 207.305 66.2174 204.722 67.7478C202.139 69.2782 197.907 70.2521 192.027 70.6694C191.891 71.2955 191.789 71.8868 191.721 72.4433C191.653 72.9998 191.619 73.5563 191.619 74.1128C191.619 76.304 192.163 78.0604 193.25 79.3821C194.372 80.669 196.003 81.3125 198.145 81.3125C198.825 81.3125 199.487 81.2081 200.133 80.9994C200.813 80.7907 201.459 80.5299 202.071 80.2169C202.682 79.869 203.226 79.4865 203.702 79.0691C204.212 78.6517 204.62 78.2517 204.926 77.8691L206.251 79.2778ZM200.235 58.8265C198.638 58.8265 197.176 59.5569 195.85 61.0177C194.525 62.4437 193.386 64.8436 192.435 68.2174C196.037 68.113 198.791 67.5044 200.694 66.3914C202.631 65.2784 203.6 63.7828 203.6 61.9046C203.6 61.522 203.549 61.1568 203.447 60.809C203.345 60.4264 203.158 60.096 202.886 59.8177C202.648 59.5047 202.308 59.2612 201.867 59.0873C201.459 58.9134 200.915 58.8265 200.235 58.8265Z" fill="black"/>
<path d="M211.552 56.8961H216.957L218.435 50.8964H223.228L221.851 56.8961H228.734V59.7134H221.29L217.314 75.4692C217.144 76.1649 217.025 76.7909 216.957 77.3474C216.889 77.9039 216.855 78.4778 216.855 79.0691C216.855 80.669 217.738 81.469 219.506 81.469C220.424 81.469 221.46 81.2603 222.616 80.8429C223.772 80.3908 224.791 79.7647 225.675 78.9647L226.746 81.0516C226.372 81.469 225.845 81.9037 225.165 82.3559C224.519 82.8081 223.771 83.2254 222.922 83.608C222.072 83.9558 221.137 84.2341 220.118 84.4428C219.098 84.6862 218.044 84.808 216.957 84.808C215.291 84.808 214 84.3906 213.082 83.5558C212.164 82.7211 211.705 81.6603 211.705 80.3734C211.705 79.8169 211.722 79.243 211.756 78.6517C211.79 78.0256 211.892 77.3822 212.062 76.7214L216.243 59.7134H211.552V56.8961Z" fill="black"/>
<path d="M231.565 59.7134V56.8961H240.793L235.491 81.469H239.671V84.2863H229.832L235.287 59.7134H231.565ZM234.981 48.4443C234.981 47.4356 235.321 46.6357 236.001 46.0444C236.714 45.4531 237.615 45.1575 238.703 45.1575C239.858 45.1575 240.759 45.4531 241.405 46.0444C242.085 46.6357 242.425 47.4356 242.425 48.4443C242.425 49.4529 242.085 50.2529 241.405 50.8442C240.759 51.4355 239.858 51.7311 238.703 51.7311C237.615 51.7311 236.714 51.4355 236.001 50.8442C235.321 50.2529 234.981 49.4529 234.981 48.4443Z" fill="black"/>
<path d="M251.634 81.9907C252.246 81.9907 252.892 81.9385 253.572 81.8342C254.286 81.6951 254.931 81.469 255.509 81.1559C256.087 80.8429 256.563 80.4255 256.937 79.9038C257.311 79.3473 257.498 78.6517 257.498 77.817C257.498 76.9474 257.226 76.1822 256.682 75.5214C256.172 74.8606 255.526 74.2345 254.744 73.6432C253.963 73.0172 253.096 72.4085 252.144 71.8172C251.227 71.1912 250.377 70.5303 249.595 69.8347C248.813 69.1043 248.151 68.2869 247.607 67.3826C247.097 66.4783 246.842 65.4175 246.842 64.2001C246.842 62.9132 247.131 61.7829 247.709 60.809C248.286 59.8003 249.068 58.983 250.054 58.3569C251.04 57.6961 252.212 57.2091 253.572 56.8961C254.931 56.5483 256.376 56.3744 257.905 56.3744C258.619 56.3744 259.316 56.4266 259.996 56.5309C260.71 56.6352 261.355 56.7744 261.933 56.9483C262.545 57.0874 263.072 57.2613 263.514 57.47C263.956 57.6787 264.278 57.87 264.482 58.0439L262.953 64.148H259.792L260.659 59.8699C260.387 59.6612 259.894 59.5047 259.18 59.4003C258.5 59.2612 257.905 59.1917 257.396 59.1917C256.852 59.1917 256.257 59.2438 255.611 59.3482C254.999 59.4177 254.422 59.5916 253.878 59.8699C253.334 60.1134 252.875 60.4786 252.501 60.9655C252.161 61.4177 251.991 62.0263 251.991 62.7915C251.991 63.7306 252.246 64.548 252.756 65.2436C253.3 65.9392 253.98 66.5826 254.795 67.1739C255.611 67.7652 256.478 68.3565 257.396 68.9478C258.313 69.539 259.18 70.1999 259.996 70.9303C260.812 71.6259 261.474 72.4433 261.984 73.3824C262.528 74.2867 262.8 75.3823 262.8 76.6692C262.8 77.9909 262.46 79.156 261.78 80.1647C261.1 81.1733 260.2 82.0255 259.078 82.7211C257.956 83.4167 256.648 83.9384 255.152 84.2863C253.691 84.6341 252.178 84.808 250.615 84.808C249.731 84.808 248.847 84.721 247.964 84.5471C247.114 84.3732 246.315 84.1645 245.567 83.9211C244.854 83.6428 244.225 83.3646 243.681 83.0863C243.171 82.7733 242.814 82.5124 242.61 82.3037L244.548 76.0953H248.015L246.689 80.4255C247.063 80.8081 247.675 81.1733 248.524 81.5211C249.374 81.8342 250.411 81.9907 251.634 81.9907Z" fill="black"/>
<path d="M271.044 47.9747V45.1575H280.272L276.652 61.2785H276.958C278.25 59.9221 279.694 58.7743 281.292 57.8352C282.889 56.8613 284.81 56.3744 287.053 56.3744C290.52 56.3744 292.253 58.4613 292.253 62.635C292.253 63.6436 292.151 64.7219 291.947 65.8696C291.778 66.9826 291.557 68.0609 291.285 69.1043L288.175 81.469H292.508V84.2863H282.974L286.186 70.0434C286.458 68.9304 286.696 67.8696 286.9 66.8609C287.138 65.8522 287.257 64.8958 287.257 63.9915C287.257 62.7046 286.985 61.6959 286.441 60.9655C285.931 60.2351 285.133 59.8699 284.045 59.8699C283.263 59.8699 282.498 59.9916 281.751 60.2351C281.003 60.4438 280.289 60.722 279.609 61.0698C278.93 61.4177 278.301 61.8176 277.723 62.2698C277.145 62.7219 276.652 63.1741 276.244 63.6263L272.064 84.2863H267.169L274.715 47.9747H271.044Z" fill="black"/>
<path d="M317.061 79.2778C316.688 79.9734 316.178 80.6516 315.532 81.3125C314.886 81.9733 314.121 82.5646 313.238 83.0863C312.354 83.608 311.368 84.0254 310.281 84.3384C309.193 84.6515 308.02 84.808 306.763 84.808C303.84 84.808 301.494 83.9732 299.727 82.3037C297.993 80.5994 297.127 78.2169 297.127 75.1562C297.127 72.5476 297.501 70.0955 298.248 67.8C298.996 65.5044 300.05 63.5219 301.409 61.8524C302.769 60.1829 304.4 58.8612 306.304 57.8874C308.241 56.8787 310.383 56.3744 312.728 56.3744C313.646 56.3744 314.512 56.4961 315.328 56.7396C316.144 56.9483 316.857 57.2787 317.469 57.7309C318.081 58.183 318.557 58.7395 318.897 59.4003C319.237 60.0612 319.407 60.8264 319.407 61.6959C319.407 64.2001 318.115 66.2174 315.532 67.7478C312.949 69.2782 308.717 70.2521 302.837 70.6694C302.701 71.2955 302.599 71.8868 302.531 72.4433C302.463 72.9998 302.429 73.5563 302.429 74.1128C302.429 76.304 302.973 78.0604 304.061 79.3821C305.182 80.669 306.814 81.3125 308.955 81.3125C309.635 81.3125 310.298 81.2081 310.943 80.9994C311.623 80.7907 312.269 80.5299 312.881 80.2169C313.493 79.869 314.036 79.4865 314.512 79.0691C315.022 78.6517 315.43 78.2517 315.736 77.8691L317.061 79.2778ZM311.045 58.8265C309.448 58.8265 307.986 59.5569 306.661 61.0177C305.335 62.4437 304.197 64.8436 303.245 68.2174C306.848 68.113 309.601 67.5044 311.504 66.3914C313.442 65.2784 314.41 63.7828 314.41 61.9046C314.41 61.522 314.359 61.1568 314.257 60.809C314.155 60.4264 313.968 60.096 313.697 59.8177C313.459 59.5047 313.119 59.2612 312.677 59.0873C312.269 58.9134 311.725 58.8265 311.045 58.8265Z" fill="black"/>
<path d="M5.50702 38.876V1.67397H28.3691V6.07125H10.3692V16.2649H27.1413V20.6622H10.3692V34.4787H28.3691V38.876H5.50702Z" fill="black"/>
<path d="M54.9392 38.876H50.3226V22.9858C50.3226 21.7033 50.2571 20.5123 50.1261 19.413C50.0115 18.297 49.7823 17.4059 49.4385 16.7397C49.062 16.0401 48.5381 15.5237 47.8669 15.1906C47.1957 14.8408 46.2789 14.6659 45.1166 14.6659C43.9706 14.6659 42.7837 14.9824 41.5559 15.6154C40.3445 16.2316 39.1576 17.0395 37.9952 18.0389V38.876H33.3786V10.9682H37.9952V14.0663C39.3704 12.8171 40.7292 11.8593 42.0716 11.1931C43.414 10.5268 44.8301 10.1937 46.3199 10.1937C49.0211 10.1937 51.1329 11.1015 52.6554 12.917C54.1779 14.7159 54.9392 17.331 54.9392 20.7622V38.876Z" fill="black"/>
<path d="M68.8381 39.5506C67.0046 39.5506 65.2856 39.3007 63.6813 38.801C62.0933 38.3013 60.7754 37.7683 59.7277 37.202V31.9303H59.9732C60.3662 32.2467 60.8245 32.5965 61.3484 32.9796C61.8887 33.3627 62.6008 33.7625 63.4848 34.1789C64.2706 34.5453 65.1301 34.8701 66.0633 35.1533C67.0128 35.4364 67.995 35.578 69.01 35.578C69.7467 35.578 70.5325 35.4947 71.3674 35.3282C72.2024 35.145 72.8245 34.9201 73.2337 34.6536C73.8067 34.2705 74.216 33.8624 74.4616 33.4293C74.7235 32.9963 74.8545 32.3467 74.8545 31.4805C74.8545 30.3646 74.5516 29.5234 73.9459 28.9571C73.3565 28.3908 72.3006 27.9161 70.7781 27.533C70.1887 27.3831 69.4193 27.2082 68.4698 27.0083C67.5203 26.8084 66.6444 26.5919 65.8422 26.3587C63.7468 25.7424 62.2243 24.793 61.2747 23.5105C60.3252 22.2113 59.8505 20.6456 59.8505 18.8134C59.8505 16.2983 60.7836 14.2495 62.6499 12.6672C64.5162 11.0848 66.9964 10.2936 70.0905 10.2936C71.613 10.2936 73.1437 10.4852 74.6826 10.8683C76.2214 11.2514 77.5147 11.7344 78.5625 12.3174V17.3393H78.3169C77.1382 16.3899 75.8204 15.6403 74.3633 15.0907C72.9227 14.541 71.4657 14.2662 69.9923 14.2662C68.4698 14.2662 67.1847 14.591 66.1369 15.2406C65.0892 15.8902 64.5653 16.8729 64.5653 18.1888C64.5653 19.3547 64.8764 20.2292 65.4984 20.8121C66.1205 21.3785 67.1192 21.8448 68.4943 22.2113C69.1819 22.3945 69.9432 22.5777 70.7781 22.7609C71.6294 22.9275 72.5216 23.1274 73.4547 23.3606C75.4847 23.8769 77.0072 24.7347 78.0222 25.934C79.0536 27.1332 79.5693 28.7656 79.5693 30.8309C79.5693 32.0302 79.3319 33.1712 78.8572 34.2538C78.3988 35.3198 77.7194 36.2359 76.819 37.0021C75.8367 37.835 74.7235 38.4679 73.4793 38.901C72.2515 39.334 70.7044 39.5506 68.8381 39.5506Z" fill="black"/>
<path d="M95.7766 39.5256C91.4055 39.5256 88.0085 38.2763 85.5856 35.7779C83.1791 33.2628 81.9758 29.6983 81.9758 25.0845C81.9758 20.5373 83.1464 16.9229 85.4874 14.2412C87.8285 11.5429 90.8898 10.1937 94.6715 10.1937C96.3741 10.1937 97.8802 10.4435 99.1899 10.9432C100.5 11.4429 101.646 12.2258 102.628 13.2918C103.61 14.3578 104.363 15.6653 104.887 17.2144C105.411 18.7467 105.673 20.6289 105.673 22.8609V25.4093H86.6661C86.6661 28.6573 87.4683 31.1391 89.0726 32.8547C90.677 34.5703 92.8953 35.4281 95.7275 35.4281C96.7425 35.4281 97.7329 35.3115 98.6988 35.0783C99.681 34.8451 100.565 34.5453 101.351 34.1789C102.186 33.7958 102.89 33.4293 103.463 33.0796C104.036 32.7131 104.51 32.3717 104.887 32.0552H105.157V37.177C104.617 37.3936 103.946 37.6684 103.144 38.0015C102.341 38.318 101.621 38.5678 100.983 38.7511C100.082 39.0009 99.2636 39.1925 98.5269 39.3257C97.8066 39.459 96.8898 39.5256 95.7766 39.5256ZM101.179 21.8115C101.146 20.5456 100.999 19.4546 100.737 18.5385C100.475 17.6224 100.099 16.8479 99.6074 16.215C99.0671 15.5154 98.3714 14.9824 97.5201 14.616C96.6852 14.2495 95.6456 14.0663 94.4014 14.0663C93.1736 14.0663 92.1258 14.2579 91.2582 14.641C90.4069 15.0074 89.6293 15.5487 88.9253 16.2649C88.2377 16.9978 87.7139 17.814 87.3537 18.7134C86.9935 19.5962 86.7644 20.6289 86.6661 21.8115H101.179Z" fill="black"/>
<path d="M141.476 38.876V22.736C141.476 21.4534 141.427 20.2708 141.329 19.1881C141.231 18.0888 141.026 17.231 140.715 16.6147C140.387 15.9485 139.921 15.4571 139.315 15.1406C138.709 14.8242 137.891 14.6659 136.86 14.6659C135.91 14.6659 134.887 14.9658 133.79 15.5654C132.709 16.1484 131.588 16.9978 130.426 18.1138C130.442 18.397 130.458 18.7384 130.475 19.1382C130.508 19.5213 130.524 19.9793 130.524 20.5123V38.876H125.907V22.736C125.907 21.4534 125.858 20.2708 125.76 19.1881C125.662 18.0888 125.457 17.231 125.146 16.6147C124.819 15.9485 124.352 15.4571 123.746 15.1406C123.141 14.8242 122.322 14.6659 121.291 14.6659C120.292 14.6659 119.244 14.9824 118.147 15.6154C117.051 16.2483 115.987 17.0561 114.955 18.0389V38.876H110.339V10.9682H114.955V14.0663C116.167 12.8337 117.362 11.8843 118.54 11.2181C119.735 10.5352 121.045 10.1937 122.469 10.1937C124.09 10.1937 125.523 10.5685 126.767 11.318C128.027 12.0675 128.985 13.3001 129.64 15.0157C131.031 13.4334 132.39 12.2341 133.716 11.4179C135.042 10.6018 136.483 10.1937 138.038 10.1937C139.217 10.1937 140.289 10.3852 141.255 10.7683C142.221 11.1348 143.064 11.7344 143.784 12.5672C144.521 13.4167 145.086 14.4744 145.479 15.7403C145.888 17.0062 146.093 18.5968 146.093 20.5123V38.876H141.476Z" fill="black"/>
<path d="M170.821 24.8347C170.821 21.5034 170.322 18.9799 169.323 17.2643C168.325 15.5321 166.72 14.6659 164.51 14.6659C163.25 14.6659 161.973 14.9658 160.679 15.5654C159.402 16.165 158.24 16.9229 157.192 17.839V33.8291C158.355 34.4121 159.386 34.8285 160.286 35.0783C161.187 35.3115 162.177 35.4281 163.258 35.4281C165.615 35.4281 167.465 34.5786 168.807 32.8797C170.15 31.1807 170.821 28.4991 170.821 24.8347ZM175.585 24.4599C175.585 29.0237 174.496 32.6965 172.319 35.4781C170.142 38.2597 167.416 39.6505 164.142 39.6505C162.652 39.6505 161.375 39.459 160.311 39.0759C159.263 38.7094 158.224 38.2097 157.192 37.5768L156.898 38.876H152.576V0H157.192V13.8914C158.355 12.8254 159.615 11.9426 160.974 11.2431C162.333 10.5435 163.872 10.1937 165.591 10.1937C168.685 10.1937 171.124 11.4596 172.908 13.9914C174.693 16.5065 175.585 19.996 175.585 24.4599Z" fill="black"/>
<path d="M185.088 38.876H180.472V0H185.088V38.876Z" fill="black"/>
<path d="M203.776 39.5256C199.405 39.5256 196.008 38.2763 193.585 35.7779C191.178 33.2628 189.975 29.6983 189.975 25.0845C189.975 20.5373 191.146 16.9229 193.487 14.2412C195.828 11.5429 198.889 10.1937 202.671 10.1937C204.373 10.1937 205.88 10.4435 207.189 10.9432C208.499 11.4429 209.645 12.2258 210.627 13.2918C211.609 14.3578 212.362 15.6653 212.886 17.2144C213.41 18.7467 213.672 20.6289 213.672 22.8609V25.4093H194.665C194.665 28.6573 195.468 31.1391 197.072 32.8547C198.676 34.5703 200.895 35.4281 203.727 35.4281C204.742 35.4281 205.732 35.3115 206.698 35.0783C207.68 34.8451 208.564 34.5453 209.35 34.1789C210.185 33.7958 210.889 33.4293 211.462 33.0796C212.035 32.7131 212.51 32.3717 212.886 32.0552H213.156V37.177C212.616 37.3936 211.945 37.6684 211.143 38.0015C210.341 38.318 209.62 38.5678 208.982 38.7511C208.081 39.0009 207.263 39.1925 206.526 39.3257C205.806 39.459 204.889 39.5256 203.776 39.5256ZM209.178 21.8115C209.146 20.5456 208.998 19.4546 208.736 18.5385C208.474 17.6224 208.098 16.8479 207.607 16.215C207.066 15.5154 206.371 14.9824 205.519 14.616C204.684 14.2495 203.645 14.0663 202.401 14.0663C201.173 14.0663 200.125 14.2579 199.258 14.641C198.406 15.0074 197.629 15.5487 196.925 16.2649C196.237 16.9978 195.713 17.814 195.353 18.7134C194.993 19.5962 194.764 20.6289 194.665 21.8115H209.178Z" fill="black"/>
<path d="M9.68944 66.8075L12.9717 59.6051C13.4063 58.6601 13.7811 58.0351 14.0958 57.7302C14.4105 57.4254 14.8227 57.2729 15.3323 57.2729C15.8269 57.2729 16.2315 57.4254 16.5462 57.7302C16.876 58.0351 17.0408 58.4314 17.0408 58.9192C17.0408 59.285 16.8385 59.9024 16.4338 60.7712L13.6686 66.8075H17.6703C18.6445 66.8075 19.3264 66.9294 19.7161 67.1733C20.1058 67.402 20.3006 67.7983 20.3006 68.3623C20.3006 69.1244 19.9709 69.6655 19.3114 69.9856C18.9667 70.1533 18.2923 70.2372 17.2881 70.2372H13.5562C14.7552 72.5389 15.3547 74.871 15.3547 77.2337C15.3547 79.1086 15.0175 80.9911 14.3431 82.8813C13.6686 84.7714 12.7844 86.4558 11.6903 87.9343C10.5962 89.4281 9.35222 90.6323 7.95838 91.5469C6.57953 92.4615 5.21567 92.9188 3.86679 92.9188C2.74273 92.9188 1.82101 92.5682 1.1016 91.867C0.367215 91.1811 0 90.3046 0 89.2376C0 88.7041 0.0824217 88.1706 0.247285 87.6371C0.412147 87.1188 0.764365 86.2576 1.30392 85.0534L8.11575 70.2372H6.83432C5.87512 70.2372 5.23064 70.1381 4.90092 69.9399C4.42132 69.6503 4.18154 69.2159 4.18154 68.6366C4.18154 68.3165 4.27144 68.0117 4.45129 67.7221C4.63114 67.4172 4.87846 67.1885 5.19319 67.0361C5.55289 66.8837 6.22733 66.8075 7.21651 66.8075H9.68944ZM10.7685 73.141L4.96838 85.8079C4.50377 86.814 4.21151 87.4694 4.09161 87.7743C3.98669 88.0944 3.93423 88.3535 3.93423 88.5517C3.93423 89.009 4.15155 89.2376 4.58619 89.2376C5.30559 89.2376 6.27977 88.5517 7.50875 87.1798C8.72274 85.7927 9.69694 84.1769 10.4313 82.3325C11.1807 80.4729 11.5554 78.7275 11.5554 77.0965C11.5554 76.4258 11.4954 75.7856 11.3755 75.1759C11.2556 74.5509 11.0533 73.8726 10.7685 73.141Z" fill="black"/>
<path d="M26.5279 81.6008L26.2132 81.7838C25.0442 82.4849 24.0775 82.9727 23.3131 83.2471C22.5487 83.5215 21.7844 83.6587 21.02 83.6587C19.9709 83.6587 19.1241 83.3462 18.4796 82.7212C17.8352 82.0962 17.5129 81.2807 17.5129 80.2747C17.5129 79.3906 17.9401 78.0187 18.7944 76.1591L22.1441 68.8196C22.5637 67.905 22.9309 67.2876 23.2457 66.9675C23.5754 66.6474 23.995 66.4874 24.5046 66.4874C25.0142 66.4874 25.4263 66.6398 25.7411 66.9447C26.0558 67.2495 26.2132 67.6382 26.2132 68.1108C26.2132 68.4613 26.0109 69.0863 25.6062 69.9856L22.6162 76.5249L22.4139 76.9365C21.9043 78.0187 21.6495 78.7504 21.6495 79.1315C21.6495 79.5888 21.8743 79.8174 22.3239 79.8174C22.7885 79.8174 23.3581 79.6116 24.0325 79.2001C24.7219 78.7885 25.6062 78.1254 26.6853 77.2108L30.5296 68.8196C30.9493 67.905 31.3165 67.2876 31.6312 66.9675C31.9609 66.6474 32.3806 66.4874 32.8901 66.4874C33.3997 66.4874 33.8119 66.6398 34.1266 66.9447C34.4413 67.2495 34.5987 67.6382 34.5987 68.1108C34.5987 68.4613 34.3964 69.0863 33.9917 69.9856L30.687 77.2108L30.3947 77.8053C30.08 78.5065 29.9226 78.9638 29.9226 79.1772C29.9226 79.3601 29.9975 79.5278 30.1474 79.6802C30.3123 79.8174 30.4771 79.886 30.642 79.886C31.3914 79.886 32.8302 78.9714 34.9584 77.1423C35.6778 76.502 36.2698 76.1819 36.7344 76.1819C37.1691 76.1819 37.5363 76.3267 37.836 76.6164C38.1358 76.8907 38.2856 77.2337 38.2856 77.6453C38.2856 78.3769 37.5438 79.3525 36.06 80.5719C34.9809 81.4865 33.8044 82.2334 32.5304 82.8127C31.2715 83.3767 30.1924 83.6587 29.2931 83.6587C28.6187 83.6587 28.0567 83.4986 27.607 83.1785C27.1724 82.8432 26.8127 82.3173 26.5279 81.6008ZM29.9226 60.1996C29.9226 60.977 29.6978 61.6248 29.2482 62.1431C28.8135 62.6461 28.244 62.8976 27.5396 62.8976C26.9551 62.8976 26.483 62.7147 26.1233 62.3489C25.7636 61.983 25.5837 61.5029 25.5837 60.9084C25.5837 60.192 25.816 59.5899 26.2806 59.1021C26.7602 58.5991 27.3447 58.3476 28.0342 58.3476C28.6037 58.3476 29.0608 58.5153 29.4055 58.8506C29.7502 59.186 29.9226 59.6356 29.9226 60.1996ZM38.3306 60.1996C38.3306 60.977 38.1058 61.6248 37.6562 62.1431C37.2215 62.6461 36.652 62.8976 35.9476 62.8976C35.3631 62.8976 34.891 62.7147 34.5313 62.3489C34.1716 61.983 33.9917 61.5029 33.9917 60.9084C33.9917 60.192 34.224 59.5899 34.6886 59.1021C35.1682 58.5991 35.7527 58.3476 36.4422 58.3476C37.0117 58.3476 37.4688 58.5153 37.8135 58.8506C38.1583 59.186 38.3306 59.6356 38.3306 60.1996Z" fill="black"/>
<path d="M41.3881 66.8075C41.5379 66.7922 41.6953 66.7846 41.8602 66.7846C43.1041 66.7846 44.1008 67.1047 44.8502 67.7449C45.6146 68.3699 45.9967 69.193 45.9967 70.2143C45.9967 71.0374 45.7419 71.8377 45.2323 72.6151C44.7378 73.3925 43.846 74.3909 42.5571 75.6103L40.7811 77.2794C39.8518 78.1331 39.3872 78.8037 39.3872 79.2915C39.3872 79.5811 39.4921 79.8098 39.702 79.9775C39.9118 80.1451 40.1891 80.229 40.5338 80.229C41.2382 80.229 42.2498 79.947 43.5687 79.383C44.8876 78.819 46.1916 78.1254 47.4805 77.3023C48.2149 76.845 48.6945 76.563 48.9193 76.4563C49.1441 76.3496 49.3839 76.2963 49.6387 76.2963C50.0583 76.2963 50.4031 76.4487 50.6728 76.7536C50.9576 77.0432 51.1 77.409 51.1 77.8511C51.1 78.3388 50.8902 78.8114 50.4705 79.2687C50.0509 79.726 49.3314 80.2671 48.3123 80.892C46.6936 81.8676 45.1949 82.5764 43.816 83.0184C42.4522 83.4453 41.1033 83.6587 39.7694 83.6587C38.2707 83.6587 37.0866 83.3157 36.2174 82.6297C35.3631 81.9438 34.9359 81.014 34.9359 79.8403C34.9359 78.7733 35.3931 77.7062 36.3073 76.6392C37.0267 75.8466 38.1133 74.7872 39.5671 73.4611C40.6012 72.5312 41.2157 71.9444 41.4105 71.7005C41.6204 71.4566 41.7253 71.1898 41.7253 70.9002C41.7253 70.5496 41.5904 70.3057 41.3206 70.1686C41.0509 70.0314 40.5937 69.9552 39.9493 69.9399C39.6345 70.6716 39.3123 71.1898 38.9826 71.4947C38.6528 71.7996 38.2482 71.952 37.7686 71.952C37.274 71.952 36.8618 71.7996 36.5321 71.4947C36.2174 71.1746 36.06 70.7707 36.06 70.2829C36.06 69.9323 36.2548 69.3226 36.6445 68.4537L37.9484 65.6414C38.398 64.6811 38.7727 64.0561 39.0725 63.7665C39.3722 63.4616 39.7769 63.3092 40.2865 63.3092C40.7661 63.3092 41.1707 63.4616 41.5005 63.7665C41.8302 64.0713 41.9951 64.4677 41.9951 64.9554C41.9951 65.306 41.8152 65.87 41.4555 66.6474L41.3881 66.8075Z" fill="black"/>
</svg>
