<svg width="370" height="71" viewBox="0 0 370 71" fill="none" xmlns="http://www.w3.org/2000/svg">
<path d="M2.77964 29V1.59018H19.9177V4.83003H6.42446V12.3406H18.9973V15.5804H6.42446V25.7602H19.9177V29H2.77964ZM39.8354 29H36.3746V17.2924C36.3746 16.3474 36.3255 15.47 36.2273 14.66C36.1414 13.8378 35.9696 13.1812 35.7119 12.6903C35.4297 12.1749 35.0369 11.7945 34.5338 11.549C34.0306 11.2913 33.3434 11.1625 32.4721 11.1625C31.613 11.1625 30.7233 11.3956 29.8029 11.862C28.8947 12.316 28.005 12.9112 27.1337 13.6476V29H23.6729V8.43804H27.1337V10.7207C28.1646 9.80024 29.1831 9.0946 30.1895 8.60371C31.1958 8.11283 32.2573 7.86738 33.3741 7.86738C35.399 7.86738 36.9821 8.53621 38.1234 9.87388C39.2647 11.1993 39.8354 13.126 39.8354 15.6541V29ZM50.2544 29.497C48.8799 29.497 47.5913 29.3129 46.3887 28.9448C45.1983 28.5766 44.2104 28.1839 43.425 27.7667V23.8825H43.609C43.9036 24.1157 44.2472 24.3734 44.6399 24.6557C45.0449 24.9379 45.5787 25.2325 46.2414 25.5393C46.8305 25.8092 47.4748 26.0486 48.1743 26.2572C48.8861 26.4658 49.6224 26.5701 50.3833 26.5701C50.9355 26.5701 51.5246 26.5088 52.1504 26.386C52.7763 26.251 53.2427 26.0854 53.5495 25.889C53.979 25.6068 54.2858 25.3061 54.4699 24.987C54.6662 24.6679 54.7644 24.1893 54.7644 23.5512C54.7644 22.7289 54.5374 22.1092 54.0833 21.6919C53.6415 21.2747 52.85 20.9249 51.7086 20.6427C51.2668 20.5322 50.6901 20.4034 49.9783 20.2561C49.2665 20.1088 48.6099 19.9493 48.0086 19.7775C46.4378 19.3234 45.2965 18.6239 44.5847 17.679C43.8729 16.7217 43.517 15.5681 43.517 14.2182C43.517 12.3651 44.2165 10.8556 45.6155 9.68979C47.0146 8.52394 48.8738 7.94102 51.1932 7.94102C52.3345 7.94102 53.482 8.08214 54.6356 8.3644C55.7891 8.64666 56.7586 9.00255 57.544 9.43208V13.1321H57.36C56.4764 12.4326 55.4885 11.8804 54.3962 11.4754C53.3163 11.0704 52.2241 10.8679 51.1196 10.8679C49.9783 10.8679 49.0149 11.1072 48.2295 11.5858C47.4441 12.0645 47.0514 12.7885 47.0514 13.758C47.0514 14.6171 47.2845 15.2613 47.7509 15.6909C48.2172 16.1081 48.9658 16.4517 49.9967 16.7217C50.5121 16.8567 51.0828 16.9917 51.7086 17.1267C52.3468 17.2494 53.0156 17.3967 53.7151 17.5685C55.2369 17.9489 56.3782 18.581 57.1391 19.4646C57.9122 20.3481 58.2988 21.5508 58.2988 23.0726C58.2988 23.9562 58.1208 24.7968 57.7649 25.5945C57.4213 26.3799 56.912 27.0549 56.2371 27.6194C55.5007 28.233 54.6662 28.6993 53.7335 29.0184C52.8131 29.3375 51.6534 29.497 50.2544 29.497ZM70.4482 29.4786C67.1715 29.4786 64.6251 28.5582 62.8088 26.7174C61.0048 24.8643 60.1028 22.2381 60.1028 18.8387C60.1028 15.4884 60.9802 12.8253 62.7352 10.8495C64.4901 8.86143 66.785 7.86738 69.6198 7.86738C70.8961 7.86738 72.0252 8.05146 73.0069 8.41963C73.9887 8.78779 74.8478 9.36458 75.5841 10.15C76.3204 10.9354 76.8849 11.8988 77.2776 13.0401C77.6703 14.1691 77.8667 15.5559 77.8667 17.2003V19.078H63.6188C63.6188 21.471 64.2201 23.2996 65.4228 24.5636C66.6254 25.8277 68.2883 26.4597 70.4114 26.4597C71.1723 26.4597 71.9147 26.3738 72.6388 26.202C73.3751 26.0301 74.0378 25.8092 74.6269 25.5393C75.2527 25.257 75.7804 24.987 76.21 24.7293C76.6395 24.4593 76.9954 24.2077 77.2776 23.9746H77.4801V27.7482C77.0751 27.9078 76.572 28.1103 75.9707 28.3557C75.3693 28.5889 74.8293 28.773 74.3507 28.908C73.6758 29.092 73.0622 29.2332 72.5099 29.3313C71.9699 29.4295 71.2827 29.4786 70.4482 29.4786ZM74.498 16.4272C74.4735 15.4945 74.363 14.6907 74.1667 14.0157C73.9703 13.3408 73.688 12.7701 73.3199 12.3038C72.9149 11.7883 72.3933 11.3956 71.7552 11.1256C71.1293 10.8556 70.35 10.7207 69.4173 10.7207C68.4969 10.7207 67.7115 10.8618 67.0611 11.144C66.4229 11.414 65.84 11.8129 65.3123 12.3406C64.7969 12.8805 64.4042 13.4819 64.1342 14.1446C63.8642 14.795 63.6924 15.5559 63.6188 16.4272H74.498ZM104.706 29V17.1083C104.706 16.1633 104.669 15.292 104.595 14.4943C104.522 13.6844 104.368 13.0524 104.135 12.5983C103.89 12.1074 103.54 11.7454 103.086 11.5122C102.632 11.279 102.018 11.1625 101.245 11.1625C100.533 11.1625 99.7663 11.3833 98.9441 11.8251C98.1341 12.2547 97.2935 12.8805 96.4222 13.7028C96.4344 13.9114 96.4467 14.163 96.459 14.4575C96.4835 14.7398 96.4958 15.0773 96.4958 15.47V29H93.0351V17.1083C93.0351 16.1633 92.9982 15.292 92.9246 14.4943C92.851 13.6844 92.6976 13.0524 92.4644 12.5983C92.219 12.1074 91.8692 11.7454 91.4151 11.5122C90.9611 11.279 90.3475 11.1625 89.5743 11.1625C88.8257 11.1625 88.0403 11.3956 87.2181 11.862C86.3958 12.3283 85.5982 12.9235 84.825 13.6476V29H81.3643V8.43804H84.825V10.7207C85.7331 9.81252 86.629 9.113 87.5126 8.62212C88.4085 8.11896 89.3902 7.86738 90.4579 7.86738C91.6729 7.86738 92.7467 8.14351 93.6794 8.69575C94.6243 9.248 95.3422 10.1561 95.8331 11.4202C96.8762 10.2543 97.8948 9.37072 98.8889 8.76938C99.8829 8.16805 100.963 7.86738 102.129 7.86738C103.012 7.86738 103.816 8.00851 104.54 8.29077C105.264 8.56076 105.896 9.00255 106.436 9.61616C106.988 10.242 107.412 11.0213 107.706 11.954C108.013 12.8867 108.167 14.0587 108.167 15.47V29H104.706ZM126.704 18.6546C126.704 16.2002 126.329 14.3409 125.581 13.0769C124.832 11.8006 123.629 11.1625 121.973 11.1625C121.028 11.1625 120.071 11.3833 119.101 11.8251C118.144 12.2669 117.273 12.8253 116.487 13.5003V25.2815C117.358 25.7111 118.132 26.0179 118.807 26.202C119.482 26.3738 120.224 26.4597 121.034 26.4597C122.801 26.4597 124.188 25.8338 125.194 24.582C126.201 23.3303 126.704 21.3545 126.704 18.6546ZM130.275 18.3785C130.275 21.741 129.459 24.447 127.827 26.4965C126.194 28.5459 124.151 29.5707 121.697 29.5707C120.58 29.5707 119.623 29.4295 118.825 29.1473C118.04 28.8773 117.26 28.5091 116.487 28.0428L116.266 29H113.026V0.356835H116.487V10.5918C117.358 9.80638 118.303 9.15596 119.322 8.64053C120.341 8.1251 121.494 7.86738 122.783 7.86738C125.102 7.86738 126.931 8.80006 128.268 10.6654C129.606 12.5185 130.275 15.0895 130.275 18.3785ZM137.399 29H133.938V0.356835H137.399V29ZM151.407 29.4786C148.131 29.4786 145.584 28.5582 143.768 26.7174C141.964 24.8643 141.062 22.2381 141.062 18.8387C141.062 15.4884 141.94 12.8253 143.694 10.8495C145.449 8.86143 147.744 7.86738 150.579 7.86738C151.855 7.86738 152.984 8.05146 153.966 8.41963C154.948 8.78779 155.807 9.36458 156.543 10.15C157.28 10.9354 157.844 11.8988 158.237 13.0401C158.63 14.1691 158.826 15.5559 158.826 17.2003V19.078H144.578C144.578 21.471 145.179 23.2996 146.382 24.5636C147.585 25.8277 149.248 26.4597 151.371 26.4597C152.132 26.4597 152.874 26.3738 153.598 26.202C154.334 26.0301 154.997 25.8092 155.586 25.5393C156.212 25.257 156.74 24.987 157.169 24.7293C157.599 24.4593 157.955 24.2077 158.237 23.9746H158.439V27.7482C158.034 27.9078 157.531 28.1103 156.93 28.3557C156.329 28.5889 155.789 28.773 155.31 28.908C154.635 29.092 154.021 29.2332 153.469 29.3313C152.929 29.4295 152.242 29.4786 151.407 29.4786ZM155.457 16.4272C155.433 15.4945 155.322 14.6907 155.126 14.0157C154.93 13.3408 154.647 12.7701 154.279 12.3038C153.874 11.7883 153.353 11.3956 152.714 11.1256C152.089 10.8556 151.309 10.7207 150.377 10.7207C149.456 10.7207 148.671 10.8618 148.02 11.144C147.382 11.414 146.799 11.8129 146.272 12.3406C145.756 12.8805 145.363 13.4819 145.093 14.1446C144.823 14.795 144.652 15.5559 144.578 16.4272H155.457ZM8.89926 49.6909L11.5869 43.8923C11.9428 43.1314 12.2496 42.6283 12.5073 42.3828C12.765 42.1374 13.1025 42.0146 13.5197 42.0146C13.9247 42.0146 14.256 42.1374 14.5138 42.3828C14.7838 42.6283 14.9187 42.9473 14.9187 43.34C14.9187 43.6346 14.7531 44.1316 14.4217 44.8311L12.1575 49.6909H15.4342C16.2319 49.6909 16.7902 49.789 17.1093 49.9854C17.4284 50.1695 17.5879 50.4886 17.5879 50.9426C17.5879 51.5562 17.3179 51.9919 16.778 52.2496C16.4957 52.3846 15.9435 52.4521 15.1212 52.4521H12.0655C13.0472 54.3052 13.5381 56.1828 13.5381 58.085C13.5381 59.5945 13.262 61.1101 12.7098 62.6318C12.1575 64.1536 11.4335 65.5097 10.5376 66.7C9.64173 67.9027 8.62314 68.8722 7.48183 69.6085C6.35279 70.3449 5.23603 70.713 4.13154 70.713C3.21113 70.713 2.45639 70.4308 1.86733 69.8663C1.26599 69.314 0.965325 68.6084 0.965325 67.7493C0.965325 67.3198 1.03282 66.8903 1.16782 66.4607C1.30281 66.0435 1.5912 65.3501 2.033 64.3806L7.61069 52.4521H6.56142C5.776 52.4521 5.2483 52.3723 4.97831 52.2128C4.58561 51.9796 4.38925 51.6299 4.38925 51.1635C4.38925 50.9058 4.46288 50.6604 4.61015 50.4272C4.75742 50.1818 4.95991 49.9977 5.21762 49.875C5.51215 49.7522 6.0644 49.6909 6.87436 49.6909H8.89926ZM9.78285 54.7899L5.03354 64.9881C4.6531 65.798 4.4138 66.3257 4.31562 66.5712C4.22971 66.8289 4.18676 67.0375 4.18676 67.1971C4.18676 67.5652 4.36471 67.7493 4.7206 67.7493C5.30966 67.7493 6.10735 67.1971 7.11367 66.0926C8.10771 64.9758 8.9054 63.675 9.50673 62.19C10.1203 60.6928 10.4271 59.2877 10.4271 57.9746C10.4271 57.4346 10.3781 56.9192 10.2799 56.4283C10.1817 55.9251 10.016 55.379 9.78285 54.7899ZM22.687 61.601L22.4293 61.7482C21.4721 62.3128 20.6805 62.7055 20.0546 62.9264C19.4288 63.1473 18.8029 63.2577 18.177 63.2577C17.3179 63.2577 16.6246 63.0061 16.0969 62.503C15.5692 61.9998 15.3053 61.3433 15.3053 60.5333C15.3053 59.8215 15.6551 58.717 16.3546 57.2198L19.0974 51.3108C19.441 50.5745 19.7417 50.0774 19.9994 49.8197C20.2694 49.562 20.613 49.4332 21.0303 49.4332C21.4475 49.4332 21.785 49.5559 22.0427 49.8013C22.3004 50.0468 22.4293 50.3597 22.4293 50.7401C22.4293 51.0224 22.2636 51.5256 21.9323 52.2496L19.484 57.5144L19.3183 57.8457C18.9011 58.717 18.6924 59.3061 18.6924 59.6129C18.6924 59.9811 18.8765 60.1651 19.2447 60.1651C19.6251 60.1651 20.0914 59.9995 20.6437 59.6681C21.2082 59.3368 21.9323 58.8029 22.8159 58.0666L25.9637 51.3108C26.3073 50.5745 26.608 50.0774 26.8657 49.8197C27.1357 49.562 27.4793 49.4332 27.8965 49.4332C28.3138 49.4332 28.6513 49.5559 28.909 49.8013C29.1667 50.0468 29.2956 50.3597 29.2956 50.7401C29.2956 51.0224 29.1299 51.5256 28.7985 52.2496L26.0925 58.0666L25.8532 58.5452C25.5955 59.1097 25.4666 59.4779 25.4666 59.6497C25.4666 59.797 25.528 59.932 25.6507 60.0547C25.7857 60.1651 25.9207 60.2204 26.0557 60.2204C26.6693 60.2204 27.8474 59.484 29.5901 58.0114C30.1791 57.4959 30.6639 57.2382 31.0443 57.2382C31.4002 57.2382 31.7009 57.3548 31.9463 57.588C32.1918 57.8089 32.3145 58.085 32.3145 58.4164C32.3145 59.0054 31.707 59.7908 30.4921 60.7726C29.6085 61.5089 28.6451 62.1103 27.602 62.5766C26.5711 63.0307 25.6875 63.2577 24.9512 63.2577C24.399 63.2577 23.9388 63.1289 23.5706 62.8711C23.2147 62.6012 22.9202 62.1778 22.687 61.601ZM25.4666 44.3709C25.4666 44.9968 25.2826 45.5183 24.9144 45.9356C24.5585 46.3406 24.0922 46.5431 23.5154 46.5431C23.0368 46.5431 22.6502 46.3958 22.3557 46.1013C22.0611 45.8067 21.9139 45.4202 21.9139 44.9416C21.9139 44.3648 22.1041 43.88 22.4845 43.4873C22.8772 43.0823 23.3558 42.8798 23.9204 42.8798C24.3867 42.8798 24.761 43.0148 25.0433 43.2848C25.3255 43.5548 25.4666 43.9168 25.4666 44.3709ZM32.3513 44.3709C32.3513 44.9968 32.1672 45.5183 31.7991 45.9356C31.4432 46.3406 30.9768 46.5431 30.4 46.5431C29.9214 46.5431 29.5349 46.3958 29.2403 46.1013C28.9458 45.8067 28.7985 45.4202 28.7985 44.9416C28.7985 44.3648 28.9887 43.88 29.3692 43.4873C29.7619 43.0823 30.2405 42.8798 30.805 42.8798C31.2714 42.8798 31.6457 43.0148 31.9279 43.2848C32.2102 43.5548 32.3513 43.9168 32.3513 44.3709ZM34.8548 49.6909C34.9775 49.6786 35.1064 49.6725 35.2414 49.6725C36.26 49.6725 37.0761 49.9302 37.6897 50.4456C38.3156 50.9488 38.6285 51.6115 38.6285 52.4337C38.6285 53.0964 38.4199 53.7407 38.0026 54.3666C37.5976 54.9924 36.8675 55.7963 35.8121 56.778L34.3578 58.1218C33.5969 58.8091 33.2165 59.349 33.2165 59.7417C33.2165 59.9749 33.3024 60.159 33.4742 60.294C33.646 60.429 33.8731 60.4965 34.1553 60.4965C34.7321 60.4965 35.5605 60.2694 36.6404 59.8154C37.7204 59.3613 38.788 58.8029 39.8435 58.1402C40.4448 57.7721 40.8375 57.545 41.0216 57.4591C41.2057 57.3732 41.402 57.3303 41.6106 57.3303C41.9543 57.3303 42.2365 57.453 42.4574 57.6984C42.6906 57.9316 42.8072 58.2261 42.8072 58.582C42.8072 58.9747 42.6354 59.3552 42.2917 59.7233C41.9481 60.0915 41.3591 60.5272 40.5246 61.0303C39.1992 61.8157 37.972 62.3864 36.8429 62.7423C35.7261 63.0859 34.6217 63.2577 33.5294 63.2577C32.3022 63.2577 31.3327 62.9816 30.6209 62.4293C29.9214 61.8771 29.5717 61.1285 29.5717 60.1835C29.5717 59.3245 29.946 58.4654 30.6946 57.6064C31.2836 56.9682 32.1734 56.1153 33.3638 55.0477C34.2105 54.2991 34.7137 53.8266 34.8732 53.6302C35.045 53.4339 35.131 53.2191 35.131 52.9859C35.131 52.7037 35.0205 52.5073 34.7996 52.3969C34.5787 52.2864 34.2044 52.2251 33.6767 52.2128C33.419 52.8019 33.1551 53.2191 32.8851 53.4646C32.6152 53.71 32.2838 53.8327 31.8911 53.8327C31.4861 53.8327 31.1486 53.71 30.8787 53.4646C30.6209 53.2068 30.4921 52.8816 30.4921 52.4889C30.4921 52.2067 30.6516 51.7158 30.9707 51.0163L32.0384 48.7521C32.4065 47.9789 32.7133 47.4757 32.9588 47.2426C33.2042 46.9971 33.5356 46.8744 33.9528 46.8744C34.3455 46.8744 34.6769 46.9971 34.9469 47.2426C35.2169 47.488 35.3518 47.8071 35.3518 48.1998C35.3518 48.4821 35.2046 48.9361 34.9101 49.562L34.8548 49.6909ZM49.999 59.3054L50.6776 60.2102C51.13 60.5369 51.7458 60.8134 52.5249 61.0396C53.3292 61.2407 54.2089 61.3412 55.1639 61.3412C56.0687 61.3412 56.8981 61.2532 57.6521 61.0773C58.4313 60.8762 59.1099 60.5872 59.6879 60.2102C60.266 59.8332 60.7184 59.3557 61.0451 58.7776C61.3719 58.1995 61.5352 57.5084 61.5352 56.7041C61.5352 55.6736 61.1834 54.8191 60.4796 54.1405C59.801 53.4619 58.9465 52.8587 57.916 52.3309C56.8856 51.8031 55.7671 51.2879 54.5607 50.7852C53.3543 50.2825 52.2359 49.6919 51.2054 49.0133C50.175 48.3347 49.3079 47.5179 48.6041 46.5628C47.9255 45.6077 47.5862 44.4013 47.5862 42.9436C47.5862 40.8073 48.3905 39.1485 49.999 37.9672C51.6327 36.7608 53.8319 36.1576 56.5965 36.1576C58.3307 36.1576 59.8262 36.2707 61.0828 36.4969C62.3395 36.7231 63.4077 37.0247 64.2873 37.4017V43.8861H61.8745V39.8145L61.2713 38.872C60.7938 38.6709 60.1026 38.5201 59.1978 38.4196C58.293 38.3191 57.4008 38.2688 56.5211 38.2688C55.0131 38.2688 53.8319 38.6207 52.9773 39.3244C52.1228 40.003 51.6955 40.9706 51.6955 42.2273C51.6955 43.2578 52.0348 44.1249 52.7134 44.8286C53.4172 45.5072 54.2843 46.123 55.3147 46.6759C56.3452 47.2288 57.4636 47.7692 58.67 48.297C59.8764 48.7997 60.9949 49.3903 62.0253 50.0689C63.0558 50.7224 63.9103 51.5141 64.5889 52.444C65.2927 53.3739 65.6445 54.5301 65.6445 55.9124C65.6445 58.3503 64.702 60.2228 62.817 61.5297C60.932 62.8115 58.3559 63.4524 55.0885 63.4524C53.3041 63.4524 51.7584 63.2639 50.4514 62.8869C49.1445 62.5099 48.1894 62.1078 47.5862 61.6805V54.8191H49.999V59.3054ZM70.195 45.2433H67.8953V43.2075H73.5126L76.4532 58.8907V60.9642H76.7548L77.7727 59.0038C78.2 58.0739 78.6398 57.0811 79.0922 56.0255C79.5446 54.9699 79.9845 53.9143 80.4117 52.8587C80.8641 51.8031 81.2788 50.7726 81.6558 49.7673C82.0328 48.7368 82.347 47.7692 82.5983 46.8644L81.5427 43.2075H86.1798V45.2433C85.7777 46.3492 85.275 47.6435 84.6718 49.1264C84.0938 50.5841 83.4529 52.1173 82.7491 53.7258C82.0454 55.3092 81.2914 56.9303 80.4871 58.5891C79.6829 60.2479 78.866 61.8187 78.0366 63.3016C77.2324 64.8096 76.4155 66.1919 75.5861 67.4486C74.7819 68.7053 74.0153 69.7357 73.2864 70.54H68.9509V66.9208H73.1356C73.4875 66.4935 73.8394 66.0034 74.1912 65.4505C74.5682 64.8976 74.9327 64.0807 75.2845 63H73.4372L70.195 45.2433ZM100.612 51.7277C100.813 50.9234 100.989 50.1694 101.14 49.4657C101.29 48.7368 101.366 48.0331 101.366 47.3545C101.366 46.7764 101.215 46.2863 100.913 45.8842C100.612 45.4569 100.159 45.2433 99.5563 45.2433C98.8023 45.2433 98.0734 45.3941 97.3697 45.6957C96.6911 45.9973 96.0627 46.3743 95.4847 46.8267C94.9066 47.254 94.3914 47.7064 93.939 48.1839C93.5117 48.6614 93.1724 49.0761 92.9211 49.428L89.9805 63H86.3236L90.0559 45.2433H87.4546V43.2075H94.1652L93.2981 47.1283H93.4866C94.5422 45.8465 95.7234 44.816 97.0304 44.0369C98.3373 43.2326 99.7448 42.8305 101.253 42.8305C102.61 42.8305 103.578 43.1698 104.156 43.8484C104.759 44.5019 105.06 45.3564 105.06 46.412C105.06 46.9901 104.985 47.7189 104.834 48.5986C104.709 49.4783 104.545 50.2951 104.344 51.0491L101.969 60.9642H105.06V63H101.781H98.086L100.612 51.7277ZM114.951 53.6127H113.481L111.558 63H107.864L113.368 36.7608H110.616V34.725H117.402L113.82 52.1047H115.027L121.021 46.1104V43.2075H126.035V44.7909L118.08 51.7277L123.207 60.9642H125.394V63H119.928L114.951 53.6127ZM138.295 46.8267C138.044 46.877 137.742 46.9524 137.39 47.0529C137.064 47.1283 136.712 47.2414 136.335 47.3922C135.958 47.543 135.568 47.7441 135.166 47.9954C134.764 48.2467 134.374 48.5609 133.997 48.9379L130.906 63H127.211L131.094 45.2433H128.493V43.2075H135.166L134.261 47.0529H134.45C134.952 46.2738 135.568 45.5198 136.297 44.7909C137.026 44.0369 137.717 43.5091 138.37 43.2075H141.386V46.8267H138.295ZM156.465 59.3808C156.189 59.8835 155.812 60.3736 155.334 60.8511C154.857 61.3286 154.291 61.7559 153.638 62.1329C152.984 62.5099 152.255 62.8115 151.451 63.0377C150.647 63.2639 149.78 63.377 148.85 63.377C146.688 63.377 144.954 62.7738 143.647 61.5674C142.366 60.3359 141.725 58.6142 141.725 56.4025C141.725 54.5175 142.001 52.7456 142.554 51.0868C143.107 49.428 143.886 47.9954 144.891 46.789C145.897 45.5826 147.103 44.6275 148.511 43.9238C149.943 43.1949 151.527 42.8305 153.261 42.8305C153.939 42.8305 154.58 42.9185 155.184 43.0944C155.787 43.2452 156.315 43.484 156.767 43.8107C157.219 44.1374 157.571 44.5396 157.823 45.0171C158.074 45.4946 158.2 46.0476 158.2 46.6759C158.2 48.4855 157.244 49.9432 155.334 51.0491C153.424 52.155 150.295 52.8587 145.947 53.1603C145.846 53.6127 145.771 54.04 145.721 54.4421C145.671 54.8442 145.645 55.2464 145.645 55.6485C145.645 57.2319 146.048 58.5011 146.852 59.4562C147.681 60.3861 148.888 60.8511 150.471 60.8511C150.974 60.8511 151.464 60.7757 151.941 60.6249C152.444 60.4741 152.922 60.2856 153.374 60.0594C153.826 59.8081 154.228 59.5316 154.58 59.23C154.957 58.9284 155.259 58.6394 155.485 58.3629L156.465 59.3808ZM152.017 44.6024C150.835 44.6024 149.755 45.1302 148.775 46.1858C147.794 47.2163 146.952 48.9505 146.249 51.3884C148.913 51.313 150.949 50.8732 152.356 50.0689C153.789 49.2646 154.505 48.1839 154.505 46.8267C154.505 46.5502 154.467 46.2863 154.392 46.035C154.316 45.7585 154.178 45.5198 153.977 45.3187C153.801 45.0925 153.55 44.9166 153.223 44.7909C152.922 44.6652 152.519 44.6024 152.017 44.6024ZM160.008 43.2075H164.004L165.098 38.872H168.642L167.624 43.2075H172.713V45.2433H167.209L164.268 56.6287C164.143 57.1314 164.055 57.5838 164.004 57.9859C163.954 58.388 163.929 58.8027 163.929 59.23C163.929 60.3861 164.582 60.9642 165.889 60.9642C166.568 60.9642 167.335 60.8134 168.189 60.5118C169.044 60.1851 169.798 59.7327 170.451 59.1546L171.243 60.6626C170.966 60.9642 170.577 61.2784 170.074 61.6051C169.597 61.9318 169.044 62.2334 168.415 62.5099C167.787 62.7612 167.096 62.9623 166.342 63.1131C165.588 63.289 164.809 63.377 164.004 63.377C162.773 63.377 161.818 63.0754 161.139 62.4722C160.461 61.869 160.121 61.1024 160.121 60.1725C160.121 59.7704 160.134 59.3557 160.159 58.9284C160.184 58.476 160.26 58.011 160.385 57.5335L163.477 45.2433H160.008V43.2075ZM174.43 45.2433V43.2075H181.253L177.333 60.9642H180.424V63H173.148L177.182 45.2433H174.43ZM176.956 37.1001C176.956 36.3712 177.207 35.7932 177.71 35.3659C178.237 34.9386 178.903 34.725 179.708 34.725C180.562 34.725 181.228 34.9386 181.706 35.3659C182.208 35.7932 182.46 36.3712 182.46 37.1001C182.46 37.829 182.208 38.407 181.706 38.8343C181.228 39.2616 180.562 39.4752 179.708 39.4752C178.903 39.4752 178.237 39.2616 177.71 38.8343C177.207 38.407 176.956 37.829 176.956 37.1001ZM188.893 61.3412C189.345 61.3412 189.823 61.3035 190.326 61.2281C190.853 61.1276 191.331 60.9642 191.758 60.738C192.185 60.5118 192.537 60.2102 192.814 59.8332C193.09 59.4311 193.228 58.9284 193.228 58.3252C193.228 57.6969 193.027 57.1439 192.625 56.6664C192.248 56.1889 191.771 55.7365 191.193 55.3092C190.615 54.8568 189.974 54.417 189.27 53.9897C188.591 53.5373 187.963 53.0598 187.385 52.5571C186.807 52.0293 186.317 51.4387 185.915 50.7852C185.538 50.1317 185.349 49.3652 185.349 48.4855C185.349 47.5556 185.563 46.7387 185.99 46.035C186.417 45.3061 186.995 44.7155 187.724 44.2631C188.453 43.7856 189.32 43.4337 190.326 43.2075C191.331 42.9562 192.399 42.8305 193.53 42.8305C194.058 42.8305 194.573 42.8682 195.076 42.9436C195.604 43.019 196.081 43.1195 196.508 43.2452C196.961 43.3457 197.35 43.4714 197.677 43.6222C198.004 43.773 198.243 43.9112 198.393 44.0369L197.262 48.4478H194.925L195.566 45.3564C195.365 45.2056 195 45.0925 194.473 45.0171C193.97 44.9166 193.53 44.8663 193.153 44.8663C192.751 44.8663 192.311 44.904 191.834 44.9794C191.381 45.0297 190.954 45.1553 190.552 45.3564C190.15 45.5323 189.81 45.7962 189.534 46.1481C189.282 46.4748 189.157 46.9147 189.157 47.4676C189.157 48.1462 189.345 48.7368 189.722 49.2395C190.124 49.7422 190.627 50.2071 191.23 50.6344C191.834 51.0617 192.474 51.4889 193.153 51.9162C193.832 52.3435 194.473 52.821 195.076 53.3488C195.679 53.8515 196.169 54.4421 196.546 55.1207C196.948 55.7742 197.149 56.5659 197.149 57.4958C197.149 58.4509 196.898 59.2928 196.395 60.0217C195.893 60.7506 195.227 61.3663 194.397 61.869C193.568 62.3717 192.6 62.7487 191.494 63C190.413 63.2513 189.295 63.377 188.139 63.377C187.485 63.377 186.832 63.3142 186.179 63.1885C185.55 63.0628 184.96 62.912 184.407 62.7361C183.879 62.535 183.414 62.334 183.012 62.1329C182.635 61.9067 182.371 61.7182 182.22 61.5674L183.653 57.0811H186.216L185.236 60.2102C185.512 60.4867 185.965 60.7506 186.593 61.0019C187.222 61.2281 187.988 61.3412 188.893 61.3412ZM215.046 59.2677C214.342 60.5746 213.336 61.5925 212.03 62.3214C210.723 63.0251 209.114 63.377 207.204 63.377C206.123 63.377 205.156 63.1885 204.301 62.8115C203.446 62.4094 202.718 61.8816 202.114 61.2281C201.511 60.5746 201.046 59.8081 200.72 58.9284C200.418 58.0236 200.267 57.0811 200.267 56.1009C200.267 54.1405 200.531 52.3435 201.059 50.7098C201.587 49.0761 202.353 47.6812 203.359 46.5251C204.389 45.3438 205.633 44.439 207.091 43.8107C208.549 43.1572 210.207 42.8305 212.067 42.8305C213.123 42.8305 214.103 42.9687 215.008 43.2452C215.913 43.4965 216.554 43.8358 216.931 44.2631L215.8 48.7494H213.161L213.952 45.3564C213.751 45.1805 213.412 45.0548 212.934 44.9794C212.482 44.904 212.067 44.8663 211.69 44.8663C210.559 44.8663 209.529 45.1176 208.599 45.6203C207.694 46.0978 206.902 46.7764 206.224 47.6561C205.57 48.5358 205.068 49.6039 204.716 50.8606C204.364 52.0921 204.188 53.4745 204.188 55.0076C204.188 56.8172 204.603 58.2498 205.432 59.3054C206.261 60.3359 207.355 60.8511 208.712 60.8511C209.843 60.8511 210.836 60.6123 211.69 60.1348C212.57 59.6321 213.274 59.0164 213.801 58.2875L215.046 59.2677ZM219.52 36.7608V34.725H226.343L223.667 46.3743H223.893C224.848 45.3941 225.916 44.5647 227.097 43.8861C228.279 43.1824 229.699 42.8305 231.358 42.8305C233.921 42.8305 235.203 44.3385 235.203 47.3545C235.203 48.0834 235.128 48.8625 234.977 49.6919C234.851 50.4962 234.688 51.2753 234.487 52.0293L232.187 60.9642H235.391V63H228.342L230.717 52.7079C230.918 51.9036 231.094 51.1371 231.244 50.4082C231.42 49.6793 231.508 48.9882 231.508 48.3347C231.508 47.4048 231.307 46.6759 230.905 46.1481C230.528 45.6203 229.938 45.3564 229.133 45.3564C228.555 45.3564 227.99 45.4444 227.437 45.6203C226.884 45.7711 226.356 45.9722 225.853 46.2235C225.351 46.4748 224.886 46.7639 224.458 47.0906C224.031 47.4173 223.667 47.7441 223.365 48.0708L220.274 63H216.655L222.234 36.7608H219.52ZM253.17 59.3808C252.894 59.8835 252.517 60.3736 252.039 60.8511C251.562 61.3286 250.996 61.7559 250.343 62.1329C249.689 62.5099 248.96 62.8115 248.156 63.0377C247.352 63.2639 246.485 63.377 245.555 63.377C243.393 63.377 241.659 62.7738 240.352 61.5674C239.07 60.3359 238.43 58.6142 238.43 56.4025C238.43 54.5175 238.706 52.7456 239.259 51.0868C239.812 49.428 240.591 47.9954 241.596 46.789C242.602 45.5826 243.808 44.6275 245.216 43.9238C246.648 43.1949 248.232 42.8305 249.966 42.8305C250.644 42.8305 251.285 42.9185 251.888 43.0944C252.492 43.2452 253.019 43.484 253.472 43.8107C253.924 44.1374 254.276 44.5396 254.527 45.0171C254.779 45.4946 254.904 46.0476 254.904 46.6759C254.904 48.4855 253.949 49.9432 252.039 51.0491C250.129 52.155 247 52.8587 242.652 53.1603C242.551 53.6127 242.476 54.04 242.426 54.4421C242.375 54.8442 242.35 55.2464 242.35 55.6485C242.35 57.2319 242.752 58.5011 243.557 59.4562C244.386 60.3861 245.593 60.8511 247.176 60.8511C247.679 60.8511 248.169 60.7757 248.646 60.6249C249.149 60.4741 249.626 60.2856 250.079 60.0594C250.531 59.8081 250.933 59.5316 251.285 59.23C251.662 58.9284 251.964 58.6394 252.19 58.3629L253.17 59.3808ZM248.722 44.6024C247.54 44.6024 246.46 45.1302 245.479 46.1858C244.499 47.2163 243.657 48.9505 242.954 51.3884C245.618 51.313 247.653 50.8732 249.061 50.0689C250.494 49.2646 251.21 48.1839 251.21 46.8267C251.21 46.5502 251.172 46.2863 251.097 46.035C251.021 45.7585 250.883 45.5198 250.682 45.3187C250.506 45.0925 250.255 44.9166 249.928 44.7909C249.626 44.6652 249.224 44.6024 248.722 44.6024ZM285.485 63H281.841V39.3823L274.698 55.4526H272.489L265.402 39.3823V63H261.997V35.5902H266.967L273.815 50.8506L280.423 35.5902H285.485V63ZM300.24 63.5707C298.632 63.5707 297.227 63.362 296.025 62.9448C294.822 62.5153 293.797 61.8832 292.95 61.0487C291.993 60.0915 291.318 58.9502 290.925 57.6248C290.533 56.2871 290.336 54.6427 290.336 52.6914V35.5902H293.981V52.6914C293.981 53.9554 294.061 55.0231 294.221 55.8944C294.38 56.7535 294.693 57.5266 295.159 58.2139C295.65 58.9502 296.313 59.5086 297.147 59.889C297.994 60.2694 299.025 60.4597 300.24 60.4597C301.381 60.4597 302.394 60.2694 303.277 59.889C304.161 59.5086 304.848 58.9502 305.339 58.2139C305.793 57.5144 306.1 56.7412 306.259 55.8944C306.431 55.0477 306.517 54.0107 306.517 52.7834V35.5902H310.162V52.6914C310.162 54.5936 309.966 56.2258 309.573 57.588C309.193 58.9502 308.518 60.1038 307.548 61.0487C306.677 61.8955 305.658 62.5275 304.492 62.9448C303.339 63.362 301.921 63.5707 300.24 63.5707ZM322.671 63.497C320.683 63.497 318.989 63.2945 317.59 62.8896C316.203 62.4723 314.896 61.963 313.669 61.3617V56.7964H313.927C315.13 57.9255 316.492 58.8029 318.014 59.4288C319.535 60.0424 321.002 60.3492 322.413 60.3492C324.426 60.3492 325.947 59.932 326.978 59.0975C328.009 58.2507 328.525 57.1401 328.525 55.7656C328.525 54.6734 328.255 53.7836 327.715 53.0964C327.175 52.4091 326.316 51.8999 325.137 51.5685C324.291 51.3231 323.518 51.1206 322.818 50.961C322.119 50.8015 321.241 50.5867 320.186 50.3167C319.241 50.0713 318.394 49.7584 317.645 49.3779C316.897 48.9975 316.234 48.5005 315.657 47.8869C315.093 47.2855 314.651 46.5799 314.332 45.7699C314.025 44.9477 313.872 44.0027 313.872 42.9351C313.872 40.7138 314.737 38.8546 316.467 37.3574C318.198 35.8479 320.407 35.0932 323.094 35.0932C324.628 35.0932 326.076 35.2466 327.439 35.5534C328.813 35.8602 330.083 36.2958 331.249 36.8604V41.2231H330.973C330.102 40.4254 328.985 39.732 327.623 39.143C326.26 38.5416 324.831 38.241 323.333 38.241C321.64 38.241 320.272 38.6398 319.228 39.4375C318.185 40.2229 317.664 41.2599 317.664 42.5485C317.664 43.7143 317.971 44.6409 318.584 45.3281C319.198 46.0154 320.087 46.5185 321.253 46.8376C322.026 47.0462 322.971 47.2855 324.088 47.5555C325.205 47.8132 326.132 48.0525 326.868 48.2734C328.758 48.8502 330.138 49.7215 331.01 50.8874C331.881 52.0533 332.317 53.4891 332.317 55.1949C332.317 56.2626 332.096 57.318 331.654 58.3611C331.224 59.4043 330.617 60.2879 329.832 61.0119C328.948 61.8096 327.948 62.4232 326.831 62.8527C325.727 63.2823 324.34 63.497 322.671 63.497ZM345.249 63H334.609V60.202H338.106V38.3882H334.609V35.5902H345.249V38.3882H341.751V60.202H345.249V63ZM369.336 63H364.605L354.61 50.2431L353.008 52.0471V63H349.363V35.5902H353.008V48.1998L364.237 35.5902H368.674L357.334 47.8316L369.336 63Z" fill="black"/>
</svg>
