<?xml version="1.0" encoding="utf-8" ?>
<!-- Generator: Adobe Illustrator 19.2.0, SVG Export Plug-In . SVG Version: 6.00 Build 0)  -->
<svg
  version="1.1"
  id="Layer_1"
  xmlns="http://www.w3.org/2000/svg"
  xmlns:xlink="http://www.w3.org/1999/xlink"
  x="0px"
  y="0px"
  viewBox="0 0 482.9 110"
  style="enable-background:new 0 0 482.9 110;"
  xml:space="preserve"
>
<g>
	<path d="M12.5,45.4v-38h23.8v4.5H17.5v10.4H35v4.5H17.5v14.1h18.7v4.5H12.5z" />
	<path
      d="M62.6,45.4h-4.8V29.1c0-1.3-0.1-2.5-0.2-3.7c-0.1-1.1-0.4-2-0.7-2.7c-0.4-0.7-0.9-1.2-1.6-1.6c-0.7-0.3-1.7-0.5-2.9-0.5
		c-1.2,0-2.4,0.3-3.7,1s-2.5,1.5-3.7,2.5v21.3h-4.8V16.8h4.8V20c1.4-1.3,2.8-2.3,4.2-2.9c1.4-0.7,2.9-1,4.4-1c2.8,0,5,0.9,6.6,2.8
		c1.6,1.8,2.4,4.5,2.4,8V45.4z"
    />
	<path
      d="M75.8,46.1c-1.9,0-3.7-0.3-5.4-0.8c-1.7-0.5-3-1.1-4.1-1.6v-5.4h0.3c0.4,0.3,0.9,0.7,1.4,1.1c0.6,0.4,1.3,0.8,2.2,1.2
		c0.8,0.4,1.7,0.7,2.7,1c1,0.3,2,0.4,3.1,0.4c0.8,0,1.6-0.1,2.5-0.3s1.5-0.4,1.9-0.7c0.6-0.4,1-0.8,1.3-1.3c0.3-0.4,0.4-1.1,0.4-2
		c0-1.1-0.3-2-0.9-2.6c-0.6-0.6-1.7-1.1-3.3-1.5c-0.6-0.2-1.4-0.3-2.4-0.5c-1-0.2-1.9-0.4-2.7-0.7c-2.2-0.6-3.8-1.6-4.8-2.9
		c-1-1.3-1.5-2.9-1.5-4.8c0-2.6,1-4.7,2.9-6.3c1.9-1.6,4.5-2.4,7.7-2.4c1.6,0,3.2,0.2,4.8,0.6c1.6,0.4,2.9,0.9,4,1.5v5.1h-0.3
		c-1.2-1-2.6-1.7-4.1-2.3c-1.5-0.6-3-0.8-4.6-0.8c-1.6,0-2.9,0.3-4,1c-1.1,0.7-1.6,1.7-1.6,3c0,1.2,0.3,2.1,1,2.7
		c0.6,0.6,1.7,1.1,3.1,1.4c0.7,0.2,1.5,0.4,2.4,0.5c0.9,0.2,1.8,0.4,2.8,0.6c2.1,0.5,3.7,1.4,4.8,2.6s1.6,2.9,1.6,5
		c0,1.2-0.2,2.4-0.7,3.5c-0.5,1.1-1.2,2-2.1,2.8c-1,0.9-2.2,1.5-3.5,1.9S77.7,46.1,75.8,46.1z"
    />
	<path
      d="M102.5,46c-4.5,0-8.1-1.3-10.6-3.8c-2.5-2.6-3.8-6.2-3.8-10.9c0-4.6,1.2-8.3,3.7-11.1c2.4-2.8,5.6-4.1,9.6-4.1
		c1.8,0,3.3,0.3,4.7,0.8c1.4,0.5,2.6,1.3,3.6,2.4c1,1.1,1.8,2.4,2.4,4s0.8,3.5,0.8,5.8v2.6H93c0,3.3,0.8,5.9,2.5,7.6
		c1.7,1.8,4,2.6,6.9,2.6c1.1,0,2.1-0.1,3.1-0.4c1-0.2,1.9-0.5,2.7-0.9c0.9-0.4,1.6-0.8,2.2-1.1c0.6-0.4,1.1-0.7,1.5-1h0.3v5.2
		c-0.6,0.2-1.3,0.5-2.1,0.8c-0.8,0.3-1.6,0.6-2.2,0.8c-0.9,0.3-1.8,0.5-2.5,0.6C104.6,46,103.7,46,102.5,46z M108.1,27.9
		c0-1.3-0.2-2.4-0.5-3.3c-0.3-0.9-0.7-1.7-1.2-2.4c-0.6-0.7-1.3-1.3-2.2-1.6c-0.9-0.4-2-0.6-3.3-0.6c-1.3,0-2.4,0.2-3.3,0.6
		c-0.9,0.4-1.7,0.9-2.4,1.7c-0.7,0.7-1.3,1.6-1.6,2.5c-0.4,0.9-0.6,2-0.7,3.2H108.1z"
    />
	<path
      d="M148.7,45.4V28.9c0-1.3-0.1-2.5-0.2-3.6c-0.1-1.1-0.3-2-0.6-2.6c-0.3-0.7-0.8-1.2-1.5-1.5c-0.6-0.3-1.5-0.5-2.6-0.5
		c-1,0-2,0.3-3.2,0.9c-1.1,0.6-2.3,1.5-3.5,2.6c0,0.3,0,0.6,0.1,1c0,0.4,0,0.9,0,1.4v18.8h-4.8V28.9c0-1.3-0.1-2.5-0.2-3.6
		c-0.1-1.1-0.3-2-0.6-2.6c-0.3-0.7-0.8-1.2-1.5-1.5c-0.6-0.3-1.5-0.5-2.6-0.5c-1,0-2.1,0.3-3.3,1c-1.1,0.6-2.2,1.5-3.3,2.5v21.3
		h-4.8V16.8h4.8V20c1.3-1.3,2.5-2.2,3.7-2.9c1.2-0.7,2.6-1,4.1-1c1.7,0,3.2,0.4,4.5,1.1s2.3,2,3,3.8c1.4-1.6,2.9-2.8,4.2-3.7
		c1.4-0.8,2.9-1.3,4.5-1.3c1.2,0,2.3,0.2,3.3,0.6c1,0.4,1.9,1,2.6,1.9c0.8,0.9,1.4,2,1.8,3.2s0.6,2.9,0.6,4.9v18.8H148.7z"
    />
	<path
      d="M183,30.6c0,4.7-1.1,8.4-3.4,11.3c-2.3,2.8-5.1,4.3-8.5,4.3c-1.5,0-2.9-0.2-4-0.6c-1.1-0.4-2.2-0.9-3.3-1.5l-0.3,1.3H159
		V5.6h4.8v14.2c1.2-1.1,2.5-2,3.9-2.7c1.4-0.7,3-1.1,4.8-1.1c3.2,0,5.8,1.3,7.6,3.9C182,22.5,183,26.1,183,30.6z M178,31
		c0-3.4-0.5-6-1.6-7.8s-2.7-2.6-5-2.6c-1.3,0-2.6,0.3-4,0.9c-1.3,0.6-2.6,1.4-3.6,2.3v16.4c1.2,0.6,2.3,1,3.2,1.3s2,0.4,3.1,0.4
		c2.5,0,4.4-0.9,5.8-2.6C177.3,37.5,178,34.8,178,31z"
    />
	<path d="M191.6,45.4h-4.8V5.6h4.8V45.4z" />
	<path
      d="M209.8,46c-4.5,0-8.1-1.3-10.6-3.8c-2.5-2.6-3.8-6.2-3.8-10.9c0-4.6,1.2-8.3,3.7-11.1c2.4-2.8,5.6-4.1,9.6-4.1
		c1.8,0,3.3,0.3,4.7,0.8c1.4,0.5,2.6,1.3,3.6,2.4c1,1.1,1.8,2.4,2.4,4s0.8,3.5,0.8,5.8v2.6h-19.8c0,3.3,0.8,5.9,2.5,7.6
		c1.7,1.8,4,2.6,6.9,2.6c1.1,0,2.1-0.1,3.1-0.4c1-0.2,1.9-0.5,2.7-0.9c0.9-0.4,1.6-0.8,2.2-1.1c0.6-0.4,1.1-0.7,1.5-1h0.3v5.2
		c-0.6,0.2-1.3,0.5-2.1,0.8c-0.8,0.3-1.6,0.6-2.2,0.8c-0.9,0.3-1.8,0.5-2.5,0.6C211.9,46,210.9,46,209.8,46z M215.4,27.9
		c0-1.3-0.2-2.4-0.5-3.3c-0.3-0.9-0.7-1.7-1.2-2.4c-0.6-0.7-1.3-1.3-2.2-1.6c-0.9-0.4-2-0.6-3.3-0.6c-1.3,0-2.4,0.2-3.3,0.6
		c-0.9,0.4-1.7,0.9-2.4,1.7c-0.7,0.7-1.3,1.6-1.6,2.5c-0.4,0.9-0.6,2-0.7,3.2H215.4z"
    />
</g>
<g>
	<path
      d="M13,73.4l3.4-7.3c0.4-1,0.8-1.6,1.2-1.9c0.3-0.3,0.8-0.5,1.3-0.5c0.5,0,0.9,0.2,1.3,0.5c0.3,0.3,0.5,0.7,0.5,1.2
		c0,0.4-0.2,1-0.6,1.9l-2.9,6.1h4.1c1,0,1.7,0.1,2.1,0.4C23.8,74,24,74.4,24,75c0,0.8-0.3,1.3-1,1.6c-0.4,0.2-1.1,0.3-2.1,0.3H17
		c1.2,2.3,1.9,4.7,1.9,7.1c0,1.9-0.3,3.8-1,5.7c-0.7,1.9-1.6,3.6-2.7,5.1c-1.1,1.5-2.4,2.7-3.8,3.7c-1.4,0.9-2.8,1.4-4.2,1.4
		c-1.2,0-2.1-0.4-2.9-1.1C3.4,98.2,3,97.3,3,96.2c0-0.5,0.1-1.1,0.3-1.6c0.2-0.5,0.5-1.4,1.1-2.6l7-15h-1.3c-1,0-1.7-0.1-2-0.3
		c-0.5-0.3-0.7-0.7-0.7-1.3c0-0.3,0.1-0.6,0.3-0.9s0.4-0.5,0.8-0.7c0.4-0.2,1.1-0.2,2.1-0.2H13z M14.1,79.9l-6,12.9
		c-0.5,1-0.8,1.7-0.9,2c-0.1,0.3-0.2,0.6-0.2,0.8c0,0.5,0.2,0.7,0.7,0.7c0.7,0,1.7-0.7,3-2.1c1.3-1.4,2.3-3.1,3-4.9
		c0.8-1.9,1.1-3.6,1.1-5.3c0-0.7-0.1-1.3-0.2-2C14.6,81.3,14.4,80.6,14.1,79.9z"
    />
	<path
      d="M30.4,88.4l-0.3,0.2c-1.2,0.7-2.2,1.2-3,1.5c-0.8,0.3-1.6,0.4-2.4,0.4c-1.1,0-2-0.3-2.6-1c-0.7-0.6-1-1.5-1-2.5
		c0-0.9,0.4-2.3,1.3-4.2l3.5-7.4c0.4-0.9,0.8-1.6,1.1-1.9c0.3-0.3,0.8-0.5,1.3-0.5s1,0.2,1.3,0.5c0.3,0.3,0.5,0.7,0.5,1.2
		c0,0.4-0.2,1-0.6,1.9l-3.1,6.6l-0.2,0.4c-0.5,1.1-0.8,1.8-0.8,2.2c0,0.5,0.2,0.7,0.7,0.7c0.5,0,1.1-0.2,1.8-0.6
		c0.7-0.4,1.6-1.1,2.7-2l4-8.5c0.4-0.9,0.8-1.6,1.1-1.9c0.3-0.3,0.8-0.5,1.3-0.5s1,0.2,1.3,0.5c0.3,0.3,0.5,0.7,0.5,1.2
		c0,0.4-0.2,1-0.6,1.9L34.7,84l-0.3,0.6c-0.3,0.7-0.5,1.2-0.5,1.4c0,0.2,0.1,0.4,0.2,0.5c0.2,0.1,0.3,0.2,0.5,0.2
		c0.8,0,2.3-0.9,4.5-2.8c0.7-0.6,1.4-1,1.8-1c0.4,0,0.8,0.1,1.1,0.4s0.5,0.6,0.5,1.1c0,0.7-0.8,1.7-2.3,3c-1.1,0.9-2.3,1.7-3.6,2.3
		c-1.3,0.6-2.4,0.9-3.4,0.9c-0.7,0-1.3-0.2-1.7-0.5C31.1,89.7,30.7,89.2,30.4,88.4z M33.9,66.7c0,0.8-0.2,1.4-0.7,2
		c-0.5,0.5-1,0.8-1.8,0.8c-0.6,0-1.1-0.2-1.5-0.6c-0.4-0.4-0.6-0.9-0.6-1.5c0-0.7,0.2-1.3,0.7-1.8c0.5-0.5,1.1-0.8,1.8-0.8
		c0.6,0,1.1,0.2,1.4,0.5C33.7,65.7,33.9,66.2,33.9,66.7z M42.6,66.7c0,0.8-0.2,1.4-0.7,2c-0.5,0.5-1,0.8-1.8,0.8
		c-0.6,0-1.1-0.2-1.5-0.6c-0.4-0.4-0.6-0.9-0.6-1.5c0-0.7,0.2-1.3,0.7-1.8c0.5-0.5,1.1-0.8,1.8-0.8c0.6,0,1.1,0.2,1.4,0.5
		C42.4,65.7,42.6,66.2,42.6,66.7z"
    />
	<path
      d="M45.7,73.4c0.2,0,0.3,0,0.5,0c1.3,0,2.3,0.3,3.1,1c0.8,0.6,1.2,1.5,1.2,2.5c0,0.8-0.3,1.6-0.8,2.4c-0.5,0.8-1.4,1.8-2.8,3
		l-1.8,1.7c-1,0.9-1.4,1.5-1.4,2c0,0.3,0.1,0.5,0.3,0.7c0.2,0.2,0.5,0.3,0.9,0.3c0.7,0,1.8-0.3,3.1-0.9s2.7-1.3,4-2.1
		c0.8-0.5,1.3-0.8,1.5-0.9c0.2-0.1,0.5-0.2,0.7-0.2c0.4,0,0.8,0.2,1.1,0.5c0.3,0.3,0.4,0.7,0.4,1.1c0,0.5-0.2,1-0.6,1.4
		c-0.4,0.5-1.2,1-2.2,1.6c-1.7,1-3.2,1.7-4.6,2.1c-1.4,0.4-2.8,0.7-4.2,0.7c-1.5,0-2.8-0.3-3.7-1s-1.3-1.6-1.3-2.8
		c0-1.1,0.5-2.2,1.4-3.2c0.7-0.8,1.9-1.9,3.4-3.2c1.1-0.9,1.7-1.5,1.9-1.8c0.2-0.2,0.3-0.5,0.3-0.8c0-0.4-0.1-0.6-0.4-0.7
		c-0.3-0.1-0.8-0.2-1.4-0.2c-0.3,0.7-0.7,1.3-1,1.6c-0.3,0.3-0.8,0.5-1.3,0.5c-0.5,0-0.9-0.2-1.3-0.5s-0.5-0.7-0.5-1.2
		c0-0.4,0.2-1,0.6-1.9l1.3-2.9c0.5-1,0.9-1.6,1.2-1.9c0.3-0.3,0.7-0.5,1.3-0.5c0.5,0,0.9,0.2,1.3,0.5c0.3,0.3,0.5,0.7,0.5,1.2
		c0,0.4-0.2,0.9-0.6,1.7L45.7,73.4z"
    />
</g>
<path
    d="M67.9,85.3l0.6,1.1c0.2,0.2,0.6,0.4,1,0.6c0.4,0.2,0.9,0.4,1.5,0.6c0.6,0.2,1.1,0.3,1.8,0.4c0.6,0.1,1.2,0.1,1.8,0.1
	c2.8,0,4.9-0.5,6.4-1.6c1.5-1.1,2.3-2.6,2.3-4.7c0-1.2-0.3-2.3-1-3.2c-0.7-0.9-1.5-1.7-2.5-2.4c-1-0.7-2.1-1.4-3.3-2.1
	c-1.2-0.7-2.3-1.4-3.3-2.2c-1-0.8-1.9-1.7-2.5-2.8c-0.7-1-1-2.3-1-3.8c0-2.9,1.1-5.1,3.3-6.7c2.2-1.6,5.4-2.3,9.6-2.3
	c2.2,0,4,0.2,5.4,0.5s2.6,0.7,3.7,1.2c-0.1,0.5-0.2,0.9-0.3,1.3c-0.1,0.4-0.2,0.8-0.3,1.3c-0.1,0.5-0.2,1-0.3,1.5
	c-0.3,1.2-0.5,2.6-0.9,4h-3l1-5.1l-0.5-1.2c-0.5-0.3-1.3-0.5-2.3-0.6c-1-0.1-2.1-0.2-3.2-0.2c-2.4,0-4.1,0.5-5.2,1.4
	c-1.1,1-1.7,2.1-1.7,3.4c0,1.1,0.3,2.1,1,2.9c0.7,0.8,1.5,1.6,2.5,2.3c1,0.7,2.1,1.4,3.3,2.1c1.2,0.7,2.3,1.4,3.3,2.3
	c1,0.8,1.9,1.8,2.5,2.9c0.7,1.1,1,2.4,1,3.9c0,1.6-0.3,3-1,4.3C87,85.9,86,87,84.8,87.9c-1.2,0.9-2.7,1.6-4.5,2.1
	c-1.8,0.5-3.9,0.8-6.2,0.8c-1.1,0-2.2-0.1-3.2-0.2c-1-0.2-2-0.4-2.8-0.6c-0.9-0.3-1.6-0.5-2.3-0.8c-0.6-0.3-1.2-0.6-1.5-0.9l1.8-8.7
	h3L67.9,85.3z"
  />
<path
    d="M94.2,67.8h-2.9v-2.6h7.1l3.7,19.8v2.6h0.4l1.3-2.5c0.5-1.2,1.1-2.4,1.7-3.8c0.6-1.3,1.1-2.7,1.7-4c0.6-1.3,1.1-2.6,1.5-3.9
	c0.5-1.3,0.9-2.5,1.2-3.6l-1.4-4.6h5.9v2.6c-0.5,1.4-1.1,3-1.9,4.9s-1.6,3.8-2.5,5.8c-0.9,2-1.8,4.1-2.9,6.2c-1,2.1-2,4.1-3.1,6
	c-1,1.9-2.1,3.6-3.1,5.2c-1,1.6-2,2.9-2.9,3.9h-5.5v-4.6H98c0.5-0.5,0.9-1.2,1.4-1.9c0.5-0.7,0.9-1.7,1.4-3.1h-2.3L94.2,67.8z"
  />
<path
    d="M132.8,76c0.3-1,0.5-2,0.7-2.9c0.2-0.9,0.3-1.8,0.3-2.6c0-0.7-0.2-1.4-0.6-1.9s-0.9-0.8-1.7-0.8c-0.9,0-1.9,0.2-2.7,0.6
	s-1.7,0.8-2.4,1.4s-1.4,1.1-1.9,1.7c-0.6,0.6-1,1.1-1.3,1.6l-3.7,17.1h-4.7l4.7-22.4h-3.3v-2.6h8.5l-1.1,4.9h0.2
	c1.3-1.6,2.8-2.9,4.5-3.9s3.4-1.5,5.3-1.5c1.7,0,2.9,0.4,3.7,1.3c0.7,0.8,1.1,1.9,1.1,3.3c0,0.7-0.1,1.6-0.3,2.8
	c-0.2,1.1-0.4,2.1-0.6,3.1l-3,12.5h3.9v2.6h-4.1h-4.7L132.8,76z"
  />
<path
    d="M151.1,78.4h-1.9l-2.4,11.8h-4.7l6.9-33.1h-3.5v-2.6h8.6l-4.5,21.9h1.5l7.6-7.6v-3.7h6.3v2l-10,8.7l6.5,11.6h2.8v2.6h-6.9
	L151.1,78.4z"
  />
<path
    d="M180.8,69.8c-0.3,0.1-0.7,0.2-1.1,0.3s-0.9,0.3-1.4,0.5c-0.5,0.2-1,0.4-1.5,0.8s-1,0.7-1.5,1.2l-3.9,17.7h-4.7l4.9-22.4
	h-3.3v-2.6h8.4l-1.1,4.8h0.2c0.6-1,1.4-1.9,2.3-2.9s1.8-1.6,2.6-2h3.8v4.6H180.8z"
  />
<path
    d="M203.9,85.6c-0.3,0.6-0.8,1.3-1.4,1.9c-0.6,0.6-1.3,1.1-2.1,1.6c-0.8,0.5-1.7,0.9-2.8,1.1s-2.1,0.4-3.3,0.4
	c-2.7,0-4.9-0.8-6.5-2.3c-1.6-1.5-2.4-3.7-2.4-6.5c0-2.4,0.3-4.6,1-6.7c0.7-2.1,1.7-3.9,2.9-5.4c1.3-1.5,2.8-2.7,4.6-3.6
	c1.8-0.9,3.8-1.4,6-1.4c0.9,0,1.7,0.1,2.4,0.3c0.8,0.2,1.4,0.5,2,0.9s1,0.9,1.3,1.5c0.3,0.6,0.5,1.3,0.5,2.1c0,2.3-1.2,4.1-3.6,5.5
	c-2.4,1.4-6.4,2.3-11.8,2.7c-0.1,0.6-0.2,1.1-0.3,1.6s-0.1,1-0.1,1.5c0,2,0.5,3.6,1.5,4.8s2.5,1.8,4.5,1.8c0.6,0,1.3-0.1,1.9-0.3
	c0.6-0.2,1.2-0.4,1.8-0.7s1.1-0.6,1.5-1c0.5-0.4,0.8-0.7,1.1-1.1L203.9,85.6z M198.3,67c-1.5,0-2.9,0.7-4.1,2
	c-1.2,1.3-2.3,3.5-3.2,6.6c3.4-0.1,5.9-0.6,7.7-1.7c1.8-1,2.7-2.4,2.7-4.1c0-0.3,0-0.7-0.1-1c-0.1-0.3-0.3-0.6-0.5-0.9
	c-0.2-0.3-0.6-0.5-1-0.6C199.5,67.1,199,67,198.3,67z"
  />
<path
    d="M208.6,65.3h5l1.4-5.5h4.4l-1.3,5.5h6.5v2.6h-7L214,82.2c-0.2,0.6-0.3,1.2-0.3,1.7c-0.1,0.5-0.1,1-0.1,1.6
	c0,1.5,0.8,2.2,2.5,2.2c0.9,0,1.8-0.2,2.9-0.6c1.1-0.4,2-1,2.9-1.7l1,1.9c-0.3,0.4-0.8,0.8-1.4,1.2c-0.6,0.4-1.3,0.8-2.1,1.1
	s-1.7,0.6-2.6,0.8c-1,0.2-1.9,0.3-2.9,0.3c-1.6,0-2.8-0.4-3.6-1.1c-0.9-0.8-1.3-1.7-1.3-2.9c0-0.5,0-1,0-1.6s0.1-1.1,0.3-1.7
	l3.9-15.5h-4.4V65.3z"
  />
<path
    d="M227.1,67.8v-2.6h8.6l-4.9,22.4h3.8v2.6h-9.2l5.1-22.4H227.1z M230.3,57.6c0-0.9,0.3-1.6,1-2.2c0.6-0.5,1.5-0.8,2.5-0.8
	c1.1,0,1.9,0.3,2.5,0.8c0.6,0.5,0.9,1.3,0.9,2.2s-0.3,1.6-0.9,2.2c-0.6,0.5-1.5,0.8-2.5,0.8c-1,0-1.8-0.3-2.5-0.8
	S230.3,58.5,230.3,57.6z"
  />
<path
    d="M245.6,88.1c0.6,0,1.2-0.1,1.8-0.2c0.6-0.1,1.2-0.3,1.8-0.6c0.5-0.3,1-0.7,1.3-1.2s0.5-1.1,0.5-1.9c0-0.8-0.2-1.5-0.7-2.1
	c-0.5-0.6-1.1-1.2-1.8-1.7c-0.7-0.6-1.5-1.1-2.4-1.7c-0.9-0.6-1.7-1.2-2.4-1.8s-1.3-1.4-1.8-2.2c-0.5-0.8-0.7-1.8-0.7-2.9
	c0-1.2,0.3-2.2,0.8-3.1c0.5-0.9,1.3-1.6,2.2-2.2c0.9-0.6,2-1,3.3-1.3s2.6-0.5,4-0.5c0.7,0,1.3,0,2,0.1c0.6,0.1,1.3,0.2,1.8,0.4
	c0.6,0.1,1,0.3,1.4,0.5c0.4,0.2,0.7,0.4,0.9,0.5l-1.4,5.6h-3l0.8-3.9c-0.3-0.2-0.7-0.3-1.3-0.5c-0.6-0.1-1.2-0.2-1.7-0.2
	c-0.5,0-1,0-1.6,0.1c-0.6,0.1-1.1,0.2-1.6,0.5c-0.5,0.2-0.9,0.6-1.2,1s-0.5,1-0.5,1.7c0,0.9,0.2,1.6,0.7,2.2s1.1,1.2,1.9,1.8
	c0.8,0.5,1.6,1.1,2.4,1.6c0.9,0.5,1.7,1.1,2.4,1.8c0.8,0.6,1.4,1.4,1.9,2.2c0.5,0.8,0.7,1.8,0.7,3c0,1.2-0.3,2.3-1,3.2
	c-0.6,0.9-1.5,1.7-2.5,2.3c-1,0.6-2.3,1.1-3.6,1.4c-1.4,0.3-2.8,0.5-4.3,0.5c-0.8,0-1.6-0.1-2.4-0.2c-0.8-0.2-1.6-0.4-2.2-0.6
	c-0.7-0.2-1.3-0.5-1.8-0.8c-0.5-0.3-0.8-0.5-1-0.7l1.8-5.7h3.2l-1.2,3.9c0.3,0.3,0.9,0.7,1.7,1C243.5,88,244.4,88.1,245.6,88.1z"
  />
<path
    d="M278.9,85.5c-0.9,1.6-2.2,2.9-3.8,3.8c-1.7,0.9-3.7,1.4-6.1,1.4c-1.4,0-2.6-0.2-3.7-0.7c-1.1-0.5-2-1.1-2.8-2
	s-1.3-1.8-1.7-2.9c-0.4-1.1-0.6-2.3-0.6-3.5c0-2.5,0.3-4.7,1-6.8s1.6-3.8,2.9-5.3c1.3-1.5,2.9-2.6,4.7-3.4c1.8-0.8,3.9-1.2,6.3-1.2
	c1.3,0,2.6,0.2,3.7,0.5c1.1,0.3,2,0.8,2.4,1.3l-1.4,5.7h-3.4l1-4.3c-0.3-0.2-0.7-0.4-1.3-0.5c-0.6-0.1-1.1-0.1-1.6-0.1
	c-1.4,0-2.7,0.3-3.9,0.9c-1.2,0.6-2.2,1.5-3,2.6c-0.8,1.1-1.5,2.4-1.9,4c-0.4,1.6-0.7,3.3-0.7,5.3c0,2.3,0.5,4.1,1.6,5.4
	c1.1,1.3,2.4,2,4.2,2c1.4,0,2.7-0.3,3.8-0.9c1.1-0.6,2-1.4,2.7-2.3L278.9,85.5z"
  />
<path
    d="M284.7,57.1v-2.6h8.7L290,69.2h0.3c1.2-1.2,2.5-2.3,4-3.2c1.5-0.9,3.3-1.3,5.3-1.3c3.2,0,4.8,1.9,4.8,5.7
	c0,0.9-0.1,1.9-0.3,2.9c-0.2,1-0.4,2-0.6,3l-2.9,11.3h4v2.6h-8.9l3-13c0.3-1,0.5-2,0.7-2.9c0.2-0.9,0.3-1.8,0.3-2.6
	c0-1.2-0.2-2.1-0.7-2.8c-0.5-0.7-1.2-1-2.2-1c-0.7,0-1.4,0.1-2.1,0.3c-0.7,0.2-1.4,0.5-2,0.8c-0.6,0.3-1.2,0.7-1.7,1.1
	c-0.5,0.4-1,0.8-1.4,1.2l-3.9,18.8h-4.7l7-33.1H284.7z"
  />
<path
    d="M327.4,85.6c-0.3,0.6-0.8,1.3-1.4,1.9c-0.6,0.6-1.3,1.1-2.1,1.6c-0.8,0.5-1.7,0.9-2.8,1.1s-2.1,0.4-3.3,0.4
	c-2.7,0-4.9-0.8-6.5-2.3c-1.6-1.5-2.4-3.7-2.4-6.5c0-2.4,0.3-4.6,1-6.7c0.7-2.1,1.7-3.9,2.9-5.4c1.3-1.5,2.8-2.7,4.6-3.6
	c1.8-0.9,3.8-1.4,6-1.4c0.9,0,1.7,0.1,2.4,0.3c0.8,0.2,1.4,0.5,2,0.9s1,0.9,1.3,1.5c0.3,0.6,0.5,1.3,0.5,2.1c0,2.3-1.2,4.1-3.6,5.5
	c-2.4,1.4-6.4,2.3-11.8,2.7c-0.1,0.6-0.2,1.1-0.3,1.6s-0.1,1-0.1,1.5c0,2,0.5,3.6,1.5,4.8s2.5,1.8,4.5,1.8c0.6,0,1.3-0.1,1.9-0.3
	c0.6-0.2,1.2-0.4,1.8-0.7s1.1-0.6,1.5-1c0.5-0.4,0.8-0.7,1.1-1.1L327.4,85.6z M321.7,67c-1.5,0-2.9,0.7-4.1,2
	c-1.2,1.3-2.3,3.5-3.2,6.6c3.4-0.1,5.9-0.6,7.7-1.7c1.8-1,2.7-2.4,2.7-4.1c0-0.3,0-0.7-0.1-1c-0.1-0.3-0.3-0.6-0.5-0.9
	c-0.2-0.3-0.6-0.5-1-0.6C322.9,67.1,322.4,67,321.7,67z"
  />
<g>
	<path
      d="M373.9,90.2h-4.6V60.4l-9,20.3h-2.8l-8.9-20.3v29.8h-4.3V55.7h6.3l8.6,19.2l8.3-19.2h6.4V90.2z"
    />
	<path
      d="M391.8,90.9c-2,0-3.8-0.3-5.3-0.8c-1.5-0.5-2.8-1.3-3.9-2.4c-1.2-1.2-2.1-2.6-2.6-4.3c-0.5-1.7-0.7-3.7-0.7-6.2V55.7h4.6
		v21.6c0,1.6,0.1,2.9,0.3,4c0.2,1.1,0.6,2.1,1.2,2.9c0.6,0.9,1.5,1.6,2.5,2.1c1.1,0.5,2.4,0.7,3.9,0.7c1.4,0,2.7-0.2,3.8-0.7
		c1.1-0.5,2-1.2,2.6-2.1c0.6-0.9,1-1.9,1.2-2.9c0.2-1.1,0.3-2.4,0.3-3.9V55.7h4.6v21.6c0,2.4-0.2,4.5-0.7,6.2
		c-0.5,1.7-1.3,3.2-2.6,4.4c-1.1,1.1-2.4,1.9-3.8,2.4C395.7,90.7,394,90.9,391.8,90.9z"
    />
	<path
      d="M419.4,90.8c-2.5,0-4.6-0.3-6.4-0.8c-1.8-0.5-3.4-1.2-5-1.9v-5.8h0.3c1.5,1.4,3.2,2.5,5.2,3.3c1.9,0.8,3.8,1.2,5.5,1.2
		c2.5,0,4.5-0.5,5.8-1.6c1.3-1.1,1.9-2.5,1.9-4.2c0-1.4-0.3-2.5-1-3.4c-0.7-0.9-1.8-1.5-3.2-1.9c-1.1-0.3-2-0.6-2.9-0.8
		s-2-0.5-3.3-0.8c-1.2-0.3-2.3-0.7-3.2-1.2c-0.9-0.5-1.8-1.1-2.5-1.9c-0.7-0.8-1.3-1.7-1.7-2.7s-0.6-2.2-0.6-3.6
		c0-2.8,1.1-5.1,3.3-7c2.2-1.9,5-2.8,8.4-2.8c1.9,0,3.8,0.2,5.5,0.6c1.7,0.4,3.3,0.9,4.8,1.6v5.5h-0.3c-1.1-1-2.5-1.9-4.2-2.6
		c-1.7-0.8-3.5-1.1-5.4-1.1c-2.1,0-3.9,0.5-5.2,1.5c-1.3,1-2,2.3-2,3.9c0,1.5,0.4,2.6,1.2,3.5c0.8,0.9,1.9,1.5,3.4,1.9
		c1,0.3,2.2,0.6,3.6,0.9c1.4,0.3,2.6,0.6,3.5,0.9c2.4,0.7,4.1,1.8,5.2,3.3s1.6,3.3,1.6,5.4c0,1.3-0.3,2.7-0.8,4
		c-0.5,1.3-1.3,2.4-2.3,3.3c-1.1,1-2.4,1.8-3.8,2.3S421.5,90.8,419.4,90.8z"
    />
	<path
      d="M447.2,90.2h-13.4v-3.5h4.4V59.2h-4.4v-3.5h13.4v3.5h-4.4v27.5h4.4V90.2z"
    />
	<path
      d="M476.8,90.2h-6l-12.6-16.1l-2,2.3v13.8h-4.6V55.7h4.6v15.9l14.2-15.9h5.6l-14.3,15.4L476.8,90.2z"
    />
</g>
</svg>
