<svg width="129" height="47" viewBox="0 0 129 47" fill="none" xmlns="http://www.w3.org/2000/svg">
<g clip-path="url(#clip0_185_301)">
<path d="M8.87378 21.3596C9.54123 21.3596 10.1419 21.0958 10.4089 20.766C10.6092 20.6341 10.6759 20.4362 10.7426 20.2383L10.4757 20.1724C10.4089 20.3702 10.3422 20.4362 10.2087 20.5681C9.9417 20.8319 9.40774 21.0958 8.74029 21.0958C8.20633 21.0958 7.73911 20.8979 7.40538 20.7C7.20515 20.5681 7.00491 20.4362 6.93817 20.1724L6.73793 20.3043C6.80468 20.5681 7.00491 20.8319 7.27189 20.9638C7.60562 21.1617 8.00609 21.3596 8.6068 21.3596V24.1957H7.00491V24.4595H8.54005V29.5382H8.87378V24.4595H10.5424V24.1957H8.87378V21.3596ZM8.07284 16.8086C8.54005 16.8086 9.60798 16.8745 10.0752 17.0724C10.6092 17.3362 10.9429 17.5341 11.2766 18.1277C11.4768 18.4575 11.5436 18.5894 11.6103 19.0511C11.0096 19.0511 9.60798 18.9192 9.87496 19.5128C9.9417 19.5788 10.3422 20.0405 10.8761 20.1064C11.6103 20.2383 12.6115 20.1064 13.4125 19.8426C13.6794 19.7107 13.3457 19.3809 13.5459 19.3149C13.5459 19.3149 13.6794 19.249 13.8797 19.1171C13.8129 18.9852 13.7462 18.9192 13.7462 18.7873L14.7474 18.2596L15.4816 19.7766L14.4136 20.3043L14.0799 19.5128C14.2801 19.3809 14.2801 19.3809 14.6139 19.1171C14.6139 19.0511 14.5471 19.0511 14.5471 18.9852C14.4136 19.0511 13.9464 19.3149 13.8797 19.3809C13.8129 19.5128 13.9464 19.6447 13.8797 19.7766C13.8129 19.9745 13.6794 20.0405 13.4792 20.1064C13.4792 20.1724 13.4792 20.2383 13.5459 20.2383C13.8129 20.1724 13.9464 20.1064 14.0799 19.8426C14.2134 19.9745 14.2134 20.1064 14.2801 20.1724L13.4125 20.766V19.9745C13.3457 19.9745 13.279 20.0405 13.2122 20.0405V29.868C12.8785 29.802 12.211 29.6701 11.9441 29.3403C11.6771 28.9446 11.7438 28.4829 11.7438 27.8233C11.7438 27.7574 11.8106 23.734 11.6771 23.2723C11.5436 22.8766 11.4101 22.7447 11.2766 22.5468C11.1431 22.3489 10.8761 22.217 10.6759 22.0851V29.6701H6.80468V22.283C6.53769 22.3489 6.4042 22.4149 6.20397 22.6128C5.93699 22.8106 5.8035 23.1404 5.8035 23.3383C5.8035 23.3383 5.8035 26.9659 5.8035 27.8893C5.8035 28.8127 5.67001 29.0105 5.60326 29.0765C5.26953 29.6041 4.80232 29.802 4.26835 29.802C4.26835 26.4382 4.26835 21.4255 4.26835 20.7C4.26835 20.3702 4.3351 20.0405 4.06812 19.9745C4.06812 20.2383 4.06812 20.3702 4.06812 20.6341L2.53298 19.7766C2.53298 19.7107 2.59972 19.7107 2.59972 19.5788C2.79996 19.6447 2.8667 19.7107 3.06694 19.7766L3.13368 19.6447C3.13368 19.6447 2.8667 19.5128 2.73321 19.5128C2.79996 19.4469 2.73321 19.4469 2.79996 19.3809C2.93345 19.3149 3.06694 19.4469 3.26717 19.5128C3.26717 19.4469 3.26717 19.3809 3.26717 19.3809C3.20043 19.3149 3.00019 19.3149 2.8667 19.183C2.79996 19.1171 2.53298 18.9852 2.19925 18.7873C2.19925 18.7213 2.19925 18.7213 2.26599 18.6554C2.33274 18.7213 2.73321 18.9852 2.93345 19.0511L3.00019 18.9192C2.8667 18.7873 2.66647 18.7213 2.33274 18.4575C2.39949 18.3915 2.39949 18.3915 2.39949 18.3256C2.66647 18.4575 2.79996 18.6554 3.06694 18.7873C3.20043 18.9852 3.26717 18.9852 3.40066 19.1171C3.53416 19.3149 3.33392 19.7766 3.86788 19.9745V19.8426C3.53416 19.6447 3.66765 19.3149 3.53416 19.1171C3.46741 18.9852 3.00019 18.7873 3.20043 18.5235C3.46741 18.7213 4.06812 19.183 4.06812 19.249C4.13486 19.3809 3.93463 19.6447 4.20161 19.8426C4.46859 20.0405 5.73675 20.3043 6.13722 20.2383C6.80468 20.1724 7.53887 20.0405 8.00609 19.5128C8.07284 19.6447 8.27307 19.8426 8.27307 19.9085L8.74029 19.7766C8.74029 19.7766 8.80703 19.249 8.80703 18.7213C8.80703 17.8639 8.80703 17.732 8.74029 17.4682C8.6068 17.0724 8.54005 17.0065 8.07284 16.8086Z" fill="black"/>
<path d="M7.40536 29.9339C7.40536 29.9339 7.6056 29.9339 8.00607 29.9339C8.00607 30.5275 8.00607 30.7254 8.00607 30.7254C7.93932 30.7913 7.80583 30.7913 7.40536 31.0552C6.93814 31.3849 6.73791 31.5169 6.27069 31.8466C6.27069 30.9892 6.93814 30.5935 7.13838 30.3956C7.27187 30.2637 7.33862 29.9999 7.40536 29.9339Z" fill="black" stroke="black" stroke-width="0.0857" stroke-miterlimit="3.8637"/>
<path d="M9.40771 29.9339C9.87493 29.9339 10.0084 29.9339 10.0084 29.9339C10.0084 29.9339 10.2754 30.4616 10.4756 30.5935C10.8094 30.9892 11.0096 30.9232 11.0763 31.8466C10.6759 31.6488 10.4756 31.4509 10.0752 31.1871C9.6747 30.8573 9.47446 30.8573 9.40771 30.7254C9.40771 30.6594 9.40771 30.4616 9.40771 29.9339Z" fill="black" stroke="black" stroke-width="0.0857" stroke-miterlimit="3.8637"/>
<path fill-rule="evenodd" clip-rule="evenodd" d="M7.53887 17.9958C7.80585 18.1277 7.80585 18.1277 8.07283 17.9958C8.00609 17.8639 7.8726 17.732 7.67236 17.7979C7.60562 17.7979 7.60562 17.8639 7.53887 17.9958ZM7.47213 17.1384C7.40538 17.3362 7.47213 17.4022 7.60562 17.5341C7.60562 17.3362 7.67236 17.3362 7.47213 17.1384ZM7.67236 17.1384C7.60562 17.3362 7.67236 17.4022 7.80585 17.5341C7.8726 17.3362 7.8726 17.3362 7.67236 17.1384ZM7.8726 17.2043C7.80585 17.4022 7.8726 17.4022 8.00609 17.6001C8.07283 17.3362 8.07283 17.3362 7.8726 17.2043ZM8.13958 17.1384C8.07284 17.3362 8.13958 17.4022 8.27307 17.5341C8.27307 17.3362 8.27307 17.3362 8.13958 17.1384ZM7.53887 16.8745C7.67236 16.8086 7.8726 16.9405 8.07283 17.0065C8.27307 17.1384 8.54005 17.4022 8.6068 17.6001C8.67354 17.732 8.6068 19.7107 8.6068 19.7107H8.54005C8.54005 19.7107 8.33982 19.3149 8.20633 19.183C8.13958 19.183 7.8726 19.249 7.33864 19.183C7.27189 18.9851 7.27189 18.8532 7.27189 18.6554C7.20515 18.6554 7.1384 18.6554 7.07166 18.5894C7.27189 17.732 6.93816 17.1384 7.53887 16.8745Z" fill="black"/>
<path d="M34.504 22.6787V14.1044H35.3049V21.9532H39.6434V22.6787H34.504Z" fill="black"/>
<path d="M44.3155 18.5234C44.3155 18.2596 44.2488 18.0617 44.182 17.9298C44.1153 17.7979 44.0486 17.666 43.9151 17.5341C43.7816 17.4022 43.6481 17.3362 43.4479 17.3362C43.2476 17.2703 43.1141 17.2703 42.8471 17.2703C42.6469 17.2703 42.4467 17.2703 42.3132 17.3362C42.1129 17.3362 41.9795 17.4022 41.846 17.5341C41.7125 17.6 41.579 17.732 41.5122 17.8639C41.4455 17.9958 41.3787 18.1937 41.3787 18.3915H40.5778C40.6445 18.0617 40.7113 17.7979 40.8448 17.6C40.9783 17.4022 41.1118 17.2043 41.312 17.0724C41.5122 16.9405 41.7125 16.8086 41.9795 16.8086C42.2464 16.7426 42.5134 16.7426 42.7804 16.7426C43.4479 16.7426 43.9818 16.8745 44.3155 17.2043C44.716 17.5341 44.9162 17.9958 44.9162 18.6554V21.5574C44.9162 21.7553 44.9162 22.0191 44.9162 22.217C44.9162 22.4149 44.9163 22.6787 44.983 22.8766H44.2488V22.0191L44.182 22.0851C44.0486 22.3489 43.8483 22.5468 43.5146 22.7447C43.1809 22.9425 42.7804 23.0085 42.3132 23.0085C42.0462 23.0085 41.7792 22.9425 41.5122 22.8766C41.2453 22.8106 41.045 22.6787 40.8448 22.5468C40.6445 22.4149 40.5111 22.217 40.4443 21.9532C40.3108 21.7553 40.3108 21.4915 40.3108 21.1617C40.3108 20.766 40.4443 20.4362 40.6445 20.1064C40.8448 19.8426 41.1785 19.5787 41.5122 19.4468C41.7125 19.3809 41.9127 19.3149 42.1797 19.249C42.3799 19.183 42.6469 19.183 42.8471 19.183C43.1141 19.183 43.3144 19.183 43.5813 19.183C43.8483 19.183 44.0486 19.183 44.2488 19.183V18.5234H44.3155ZM41.1785 21.0298C41.1785 21.4255 41.312 21.7553 41.579 21.9532C41.846 22.151 42.1797 22.217 42.5134 22.217C42.8471 22.217 43.1809 22.151 43.3811 22.0191C43.5813 21.8872 43.7816 21.7553 43.9151 21.5574C44.0486 21.3596 44.182 21.1617 44.182 20.8979C44.2488 20.634 44.2488 20.3702 44.2488 20.1064C44.2488 20.0404 44.2488 19.9745 44.2488 19.9085C44.2488 19.8426 44.2488 19.7766 44.2488 19.7107C44.1153 19.7107 43.9818 19.7107 43.8483 19.7107C43.7148 19.7107 43.5813 19.7107 43.3811 19.7107C43.1141 19.7107 42.8471 19.7107 42.5802 19.7766C42.3132 19.8426 42.0462 19.9085 41.846 19.9745C41.6457 20.0404 41.4455 20.2383 41.312 20.3702C41.2453 20.5021 41.1785 20.766 41.1785 21.0298Z" fill="black"/>
<path d="M47.6528 22.6787H46.9186V18.0617C46.9186 17.8639 46.9186 17.6 46.9186 17.4022C46.9186 17.2043 46.9186 16.9405 46.8518 16.7426H47.586L47.6528 17.6C47.853 17.2043 48.12 16.9405 48.4537 16.8086C48.7875 16.6107 49.1212 16.5447 49.5216 16.5447C49.8554 16.5447 50.1224 16.6107 50.3893 16.6767C50.5896 16.7426 50.7898 16.8745 50.99 17.0064C51.1235 17.1383 51.257 17.3362 51.3905 17.4681C51.4573 17.666 51.5908 17.7979 51.5908 17.9958C51.6575 18.1937 51.6575 18.3256 51.6575 18.5234C51.6575 18.7213 51.6575 18.8532 51.6575 18.9192V22.6787H50.9233V18.8532C50.9233 18.3256 50.7898 17.9298 50.5228 17.666C50.2558 17.4022 49.8554 17.2703 49.3882 17.2703C49.1212 17.2703 48.8542 17.3362 48.5872 17.4681C48.387 17.6 48.1867 17.732 48.0533 17.9298C47.9198 18.1277 47.7863 18.3256 47.7195 18.5894C47.6528 18.8532 47.586 19.117 47.586 19.3809V22.6787H47.6528Z" fill="black"/>
<path d="M57.7981 21.8213C57.5311 22.1511 57.1974 22.4149 56.8636 22.6128C56.5299 22.8106 56.1295 22.8766 55.729 22.8766C55.2618 22.8766 54.928 22.8106 54.5943 22.6128C54.2606 22.4149 53.9936 22.1511 53.7934 21.8873C53.5931 21.5575 53.4596 21.2277 53.3929 20.8319C53.3261 20.4362 53.2594 20.1064 53.2594 19.7107C53.2594 19.315 53.3261 18.9192 53.3929 18.5894C53.4596 18.1937 53.5931 17.8639 53.7934 17.6001C53.9936 17.2703 54.2606 17.0724 54.5943 16.8746C54.928 16.6767 55.2618 16.6107 55.729 16.6107C56.1295 16.6107 56.5299 16.6767 56.9304 16.8746C57.3309 17.0724 57.5978 17.3363 57.7981 17.666V14.1703H58.5323V21.4256C58.5323 21.6234 58.5323 21.8873 58.5323 22.0851C58.5323 22.283 58.5323 22.5468 58.599 22.7447H57.8648L57.7981 21.8213ZM57.7313 19.5788C57.7313 19.249 57.6646 18.9852 57.5978 18.7213C57.5311 18.4575 57.3976 18.1937 57.2641 17.9958C57.1306 17.798 56.9304 17.6001 56.6634 17.4682C56.3964 17.3363 56.1294 17.2703 55.7957 17.2703C55.462 17.2703 55.195 17.3363 54.928 17.4682C54.7278 17.6001 54.5276 17.798 54.3941 17.9958C54.2606 18.1937 54.1271 18.4575 54.0603 18.7873C53.9936 19.0511 53.9936 19.3809 53.9936 19.6447C53.9936 19.9086 53.9936 20.2383 54.0603 20.5022C54.1271 20.8319 54.1938 21.0958 54.3273 21.3596C54.4608 21.6234 54.6611 21.8213 54.8613 22.0192C55.0615 22.217 55.3953 22.283 55.729 22.283C56.1295 22.283 56.4632 22.217 56.7302 22.0851C56.9971 21.9532 57.1974 21.7553 57.3309 21.4915C57.4644 21.2277 57.5978 20.9639 57.6646 20.6341C57.7313 20.2383 57.7313 19.9086 57.7313 19.5788Z" fill="black"/>
<path d="M60.7349 19.9085C60.7349 20.2383 60.8016 20.5021 60.8684 20.8319C60.9351 21.0957 61.0686 21.3596 61.2688 21.5574C61.4691 21.7553 61.6693 21.9532 61.9363 22.0851C62.2033 22.217 62.537 22.283 62.8707 22.283C63.071 22.283 63.2712 22.217 63.4714 22.151C63.6717 22.0851 63.8052 21.9532 64.0054 21.8213C64.1389 21.6893 64.2724 21.5574 64.4059 21.3596C64.5394 21.1617 64.6061 20.9638 64.6061 20.766H65.3403C65.1401 21.4915 64.8063 22.0191 64.4059 22.3489C63.9386 22.6787 63.3379 22.8766 62.6037 22.8766C62.1365 22.8766 61.736 22.8106 61.4023 22.6127C61.0686 22.4149 60.8016 22.217 60.6014 21.8872C60.4011 21.6234 60.2009 21.2276 60.1342 20.8979C60.0007 20.5021 60.0007 20.1064 60.0007 19.7106C60.0007 19.3149 60.0674 18.9192 60.2009 18.5234C60.3344 18.1277 60.4679 17.7979 60.7349 17.5341C60.9351 17.2703 61.2688 17.0064 61.6026 16.8086C61.9363 16.6107 62.3368 16.5447 62.804 16.5447C63.3379 16.5447 63.7384 16.6107 64.0721 16.8086C64.4059 17.0064 64.6728 17.2043 64.9398 17.5341C65.1401 17.8639 65.3403 18.1937 65.407 18.5894C65.4738 18.9851 65.5405 19.4468 65.5405 19.9085H60.7349ZM64.6061 19.249C64.6061 18.9851 64.5394 18.7213 64.4059 18.4575C64.3391 18.1937 64.2056 17.9958 64.0054 17.7979C63.8719 17.6 63.6717 17.4681 63.4047 17.4022C63.1377 17.2703 62.8707 17.2703 62.6037 17.2703C62.3368 17.2703 62.0698 17.3362 61.8028 17.4681C61.6026 17.6 61.4023 17.732 61.2021 17.9298C61.0686 18.1277 60.9351 18.3256 60.8016 18.5894C60.8016 18.7213 60.8016 18.9851 60.7349 19.249H64.6061Z" fill="black"/>
<path d="M66.8087 18.1937C66.8087 17.8639 66.8754 17.6 67.0089 17.4022C67.1424 17.2043 67.3427 17.0064 67.5429 16.8745C67.7431 16.7426 68.0101 16.6767 68.2771 16.6107C68.5441 16.5447 68.8111 16.5447 69.078 16.5447C69.345 16.5447 69.612 16.5447 69.879 16.6107C70.146 16.6767 70.3462 16.7426 70.5464 16.8745C70.7467 17.0064 70.8802 17.1383 71.0137 17.4022C71.1471 17.6 71.2139 17.8639 71.2139 18.1937H70.4129C70.4129 17.9958 70.3462 17.8639 70.2795 17.732C70.2127 17.6 70.0792 17.5341 69.9457 17.4022C69.8122 17.3362 69.6787 17.2703 69.4785 17.2043C69.2783 17.1383 69.1448 17.1383 68.9445 17.1383C68.7443 17.1383 68.6108 17.1383 68.4773 17.2043C68.3438 17.2703 68.1436 17.2703 68.0769 17.4022C67.9434 17.4681 67.8766 17.6 67.7431 17.732C67.6764 17.8639 67.6096 17.9958 67.6096 18.1937C67.6096 18.3915 67.6764 18.5894 67.8099 18.7213C67.9434 18.8532 68.1436 18.9192 68.4106 18.9851C68.6776 19.0511 68.9445 19.117 69.2783 19.249C69.612 19.3149 70.0125 19.4468 70.4129 19.5787C70.7467 19.7106 70.9469 19.8426 71.1471 20.1064C71.3474 20.3702 71.4141 20.634 71.4141 20.9638C71.4141 21.2936 71.3474 21.5574 71.2139 21.8213C71.0804 22.0851 70.8802 22.283 70.6132 22.4149C70.3462 22.5468 70.0792 22.6787 69.8122 22.7446C69.4785 22.8106 69.2115 22.8766 68.8778 22.8766C68.6108 22.8766 68.3438 22.8766 68.0769 22.8106C67.8099 22.7446 67.5429 22.6127 67.3427 22.4808C67.1424 22.3489 66.9422 22.151 66.8087 21.9532C66.6752 21.7553 66.6085 21.4255 66.6085 21.0957H67.4094C67.4094 21.2936 67.4761 21.4915 67.6096 21.6234C67.7431 21.7553 67.8099 21.8872 68.0101 21.9532C68.1436 22.0191 68.3438 22.0851 68.5441 22.151C68.7443 22.217 68.9445 22.217 69.1448 22.217C69.345 22.217 69.5453 22.217 69.7455 22.151C69.9457 22.0851 70.0792 22.0191 70.2795 21.9532C70.4129 21.8872 70.5464 21.7553 70.6132 21.5574C70.6799 21.4255 70.7467 21.2276 70.7467 21.0298C70.7467 20.8319 70.6799 20.634 70.6132 20.5021C70.4797 20.3702 70.3462 20.2383 70.2127 20.1723C70.0125 20.1064 69.8122 20.0404 69.612 19.9745C69.4118 19.9085 69.1448 19.8426 68.8778 19.8426C68.6108 19.7766 68.4106 19.7106 68.1436 19.6447C67.9434 19.5787 67.7431 19.4468 67.5429 19.3809C67.3427 19.249 67.2092 19.117 67.1424 18.9192C66.8087 18.7213 66.8087 18.5234 66.8087 18.1937Z" fill="black"/>
<path d="M73.6835 17.666C73.8837 17.2703 74.2174 17.0065 74.4844 16.8745C74.8181 16.6767 75.1518 16.6107 75.5523 16.6107C75.886 16.6107 76.153 16.6767 76.42 16.7426C76.6202 16.8086 76.8205 16.9405 77.0207 17.0724C77.1542 17.2043 77.2877 17.4022 77.4212 17.5341C77.4879 17.732 77.6214 17.8639 77.6214 18.0618C77.6882 18.2596 77.6882 18.3915 77.6882 18.5894C77.6882 18.7873 77.6882 18.9192 77.6882 18.9852V22.7447H76.954V18.9192C76.954 18.3915 76.8205 17.9958 76.5535 17.732C76.2865 17.4682 75.886 17.3362 75.4188 17.3362C75.1518 17.3362 74.8849 17.4022 74.6179 17.5341C74.4176 17.666 74.2174 17.7979 74.0839 17.9958C73.9504 18.1937 73.8169 18.3915 73.7502 18.6554C73.6835 18.9192 73.6167 19.183 73.6167 19.4468V22.8766H72.8825V14.3022H73.6167V17.666H73.6835Z" fill="black"/>
<path d="M83.0946 18.5234C83.0946 18.2596 83.0278 18.0617 82.9611 17.9298C82.8943 17.7979 82.8276 17.666 82.6941 17.5341C82.5606 17.4022 82.4271 17.3362 82.2269 17.3362C82.0266 17.2703 81.8931 17.2703 81.6262 17.2703C81.4259 17.2703 81.2257 17.2703 81.0922 17.3362C80.892 17.3362 80.7585 17.4022 80.625 17.5341C80.4915 17.6 80.358 17.732 80.2913 17.8639C80.2245 17.9958 80.1578 18.1937 80.1578 18.3915H79.3568C79.4236 18.0617 79.4903 17.7979 79.6238 17.6C79.7573 17.4022 79.8908 17.2043 80.091 17.0724C80.2913 16.9405 80.4915 16.8086 80.7585 16.8086C81.0255 16.7426 81.2924 16.7426 81.5594 16.7426C82.2269 16.7426 82.7608 16.8745 83.0946 17.2043C83.495 17.5341 83.6953 17.9958 83.6953 18.6554V21.5574C83.6953 21.7553 83.6953 22.0191 83.6953 22.217C83.6953 22.4149 83.6953 22.6787 83.762 22.8766H83.0278V22.0191L82.9611 22.0851C82.8276 22.3489 82.6273 22.5468 82.2936 22.7447C81.9599 22.9425 81.5594 23.0085 81.0922 23.0085C80.8252 23.0085 80.5582 22.9425 80.2913 22.8766C80.0243 22.8106 79.824 22.6787 79.6238 22.5468C79.4236 22.4149 79.2901 22.217 79.2233 21.9532C79.0898 21.7553 79.0898 21.4915 79.0898 21.1617C79.0898 20.766 79.2233 20.4362 79.4236 20.1064C79.6238 19.8426 79.9575 19.5787 80.2913 19.4468C80.4915 19.3809 80.6917 19.3149 80.9587 19.249C81.1589 19.183 81.4259 19.183 81.6262 19.183C81.8931 19.183 82.0934 19.183 82.3604 19.183C82.6273 19.183 82.8276 19.183 83.0278 19.183V18.5234H83.0946ZM79.8908 21.0298C79.8908 21.4255 80.0243 21.7553 80.2913 21.9532C80.5582 22.151 80.892 22.217 81.2257 22.217C81.5594 22.217 81.8931 22.151 82.0934 22.0191C82.2936 21.8872 82.4939 21.7553 82.6273 21.5574C82.7608 21.3596 82.8943 21.1617 82.8943 20.8979C82.9611 20.634 82.9611 20.3702 82.9611 20.1064C82.9611 20.0404 82.9611 19.9745 82.9611 19.9085C82.9611 19.8426 82.9611 19.7766 82.9611 19.7107C82.8276 19.7107 82.6941 19.7107 82.5606 19.7107C82.4271 19.7107 82.2936 19.7107 82.0934 19.7107C81.8264 19.7107 81.5594 19.7107 81.2924 19.7766C81.0255 19.8426 80.7585 19.9085 80.5582 19.9745C80.358 20.0404 80.1578 20.2383 80.0243 20.3702C80.0243 20.5021 79.8908 20.766 79.8908 21.0298Z" fill="black"/>
<path d="M89.7024 16.7426H90.4365V21.3596C90.4365 21.5574 90.4365 21.8213 90.4365 22.0191C90.4365 22.217 90.4365 22.4808 90.5033 22.6787H89.7691L89.7024 21.8213C89.5021 22.217 89.2351 22.4808 88.9014 22.6127C88.5677 22.8106 88.234 22.8766 87.8335 22.8766C87.4998 22.8766 87.2328 22.8106 86.9658 22.7447C86.7656 22.6787 86.5653 22.5468 86.3651 22.4149C86.2316 22.283 86.0981 22.151 85.9646 21.9532C85.8979 21.7553 85.7644 21.6234 85.7644 21.4255C85.6976 21.2277 85.6976 21.0957 85.6976 20.8979C85.6976 20.766 85.6976 20.5681 85.6976 20.5021V16.7426H86.4318V20.5681C86.4318 21.0957 86.5653 21.4915 86.8323 21.7553C87.0993 22.0191 87.4998 22.151 87.967 22.151C88.2339 22.151 88.5009 22.0851 88.7679 21.9532C88.9681 21.8213 89.1684 21.6893 89.3019 21.4915C89.4354 21.2936 89.5689 21.0957 89.6356 20.8319C89.7023 20.5681 89.7691 20.3043 89.7691 20.0404V16.7426H89.7024Z" fill="black"/>
<path d="M92.9728 24.9872H92.2387V18.0617C92.2387 17.8639 92.2387 17.6 92.2387 17.4022C92.2387 17.2043 92.2387 16.9405 92.1719 16.7426H92.9061L92.9728 17.6C93.1731 17.2703 93.5068 17.0064 93.8405 16.8086C94.241 16.6107 94.6415 16.5447 95.042 16.5447C95.5092 16.5447 95.8429 16.6107 96.1766 16.8086C96.5104 17.0064 96.7773 17.2043 96.9776 17.5341C97.1778 17.8639 97.3113 18.1937 97.378 18.5234C97.4448 18.9192 97.5115 19.249 97.5115 19.6447C97.5115 20.0404 97.4448 20.3702 97.378 20.766C97.3113 21.1617 97.1778 21.4915 96.9776 21.8213C96.7773 22.151 96.5104 22.3489 96.2434 22.5468C95.9096 22.7446 95.5759 22.8106 95.1087 22.8106C94.6415 22.8106 94.241 22.7446 93.9073 22.5468C93.5736 22.3489 93.2398 22.0851 92.9728 21.7553V24.9872ZM92.9728 19.5787C92.9728 19.9085 93.0396 20.2383 93.1063 20.5681C93.1731 20.8979 93.3066 21.1617 93.4401 21.4255C93.5736 21.6893 93.7738 21.8872 94.0408 22.0191C94.3078 22.151 94.6415 22.217 95.042 22.217C95.3757 22.217 95.6427 22.151 95.9096 21.9532C96.1099 21.7553 96.3101 21.5574 96.4436 21.2936C96.5771 21.0298 96.6438 20.766 96.7106 20.4362C96.7773 20.1064 96.7773 19.8426 96.7773 19.5787C96.7773 19.3149 96.7773 18.9851 96.7106 18.7213C96.6438 18.4575 96.5104 18.1937 96.3769 17.9298C96.2434 17.732 96.0431 17.5341 95.8429 17.4022C95.6427 17.2703 95.3089 17.2043 94.9752 17.2043C94.6415 17.2043 94.3078 17.2703 94.1075 17.4022C93.8405 17.5341 93.6403 17.732 93.5068 17.9298C93.3733 18.1277 93.2398 18.3915 93.1731 18.6553C92.9728 18.9851 92.9728 19.249 92.9728 19.5787Z" fill="black"/>
<path d="M99.5807 17.4022H98.3792V16.7426H99.5807V15.4895L100.315 15.1597V16.7426H101.717V17.4022H100.315V21.3596C100.315 21.9532 100.582 22.217 101.116 22.217C101.249 22.217 101.316 22.217 101.45 22.217C101.583 22.217 101.65 22.217 101.717 22.1511V22.7447C101.583 22.7447 101.516 22.8106 101.383 22.8106C101.249 22.8106 101.116 22.8106 100.982 22.8106C100.582 22.8106 100.315 22.7447 100.115 22.6787C99.9144 22.5468 99.7809 22.4149 99.7141 22.283C99.6474 22.0851 99.5807 21.8872 99.5807 21.6894C99.5807 21.4915 99.5807 21.2936 99.5807 21.0957V17.4022Z" fill="black"/>
<path d="M102.851 18.1937C102.851 17.8639 102.918 17.6 103.051 17.4022C103.185 17.2043 103.385 17.0064 103.585 16.8745C103.786 16.7426 104.053 16.6767 104.32 16.6107C104.587 16.5447 104.854 16.5447 105.121 16.5447C105.387 16.5447 105.654 16.5447 105.921 16.6107C106.188 16.6767 106.389 16.7426 106.589 16.8745C106.789 17.0064 106.923 17.1383 107.056 17.4022C107.19 17.6 107.256 17.8639 107.256 18.1937H106.455C106.455 17.9958 106.389 17.8639 106.322 17.732C106.255 17.6 106.122 17.5341 105.988 17.4022C105.855 17.3362 105.721 17.2703 105.521 17.2043C105.321 17.1383 105.187 17.1383 104.987 17.1383C104.787 17.1383 104.653 17.1383 104.52 17.2043C104.386 17.2703 104.186 17.2703 104.119 17.4022C103.986 17.4681 103.919 17.6 103.786 17.732C103.719 17.8639 103.652 17.9958 103.652 18.1937C103.652 18.3915 103.719 18.5894 103.852 18.7213C103.986 18.8532 104.186 18.9192 104.453 18.9851C104.72 19.0511 104.987 19.117 105.321 19.249C105.654 19.3149 106.055 19.4468 106.455 19.5787C106.789 19.7106 106.989 19.8426 107.19 20.1064C107.39 20.3702 107.457 20.634 107.457 20.9638C107.457 21.2936 107.39 21.5574 107.256 21.8213C107.123 22.0851 106.923 22.283 106.656 22.4149C106.389 22.5468 106.122 22.6787 105.855 22.7446C105.521 22.8106 105.254 22.8766 104.92 22.8766C104.653 22.8766 104.386 22.8766 104.119 22.8106C103.852 22.7446 103.585 22.6127 103.385 22.4808C103.185 22.3489 102.985 22.151 102.851 21.9532C102.718 21.7553 102.651 21.4255 102.651 21.0957H103.452C103.452 21.2936 103.519 21.4915 103.652 21.6234C103.786 21.7553 103.852 21.8872 104.053 21.9532C104.186 22.0191 104.386 22.0851 104.587 22.151C104.787 22.217 104.987 22.217 105.187 22.217C105.387 22.217 105.588 22.217 105.788 22.151C105.988 22.0851 106.122 22.0191 106.322 21.9532C106.455 21.8872 106.589 21.7553 106.656 21.5574C106.722 21.4255 106.789 21.2276 106.789 21.0298C106.789 20.8319 106.722 20.634 106.656 20.5021C106.522 20.3702 106.389 20.2383 106.255 20.1723C106.055 20.1064 105.855 20.0404 105.654 19.9745C105.454 19.9085 105.187 19.8426 104.92 19.8426C104.653 19.7766 104.453 19.7106 104.186 19.6447C103.986 19.5787 103.786 19.4468 103.585 19.3809C103.385 19.249 103.252 19.117 103.185 18.9192C102.918 18.7213 102.851 18.5234 102.851 18.1937Z" fill="black"/>
<path d="M109.592 17.4022H108.391V16.7426H109.592V15.4895L110.327 15.1597V16.7426H111.728V17.4022H110.327V21.3596C110.327 21.9532 110.594 22.217 111.128 22.217C111.261 22.217 111.328 22.217 111.461 22.217C111.595 22.217 111.662 22.217 111.728 22.1511V22.7447C111.595 22.7447 111.528 22.8106 111.395 22.8106C111.261 22.8106 111.128 22.8106 110.994 22.8106C110.594 22.8106 110.327 22.7447 110.126 22.6787C109.926 22.5468 109.793 22.4149 109.726 22.283C109.659 22.0851 109.592 21.8872 109.592 21.6894C109.592 21.4915 109.592 21.2936 109.592 21.0957V17.4022Z" fill="black"/>
<path d="M116.467 18.5234C116.467 18.2596 116.4 18.0617 116.334 17.9298C116.267 17.7979 116.2 17.666 116.067 17.5341C115.933 17.4022 115.8 17.3362 115.6 17.3362C115.399 17.2703 115.266 17.2703 114.999 17.2703C114.799 17.2703 114.598 17.2703 114.465 17.3362C114.265 17.3362 114.131 17.4022 113.998 17.5341C113.864 17.6 113.731 17.732 113.664 17.8639C113.597 17.9958 113.53 18.1937 113.53 18.3915H112.729C112.796 18.0617 112.863 17.7979 112.996 17.6C113.13 17.4022 113.263 17.2043 113.464 17.0724C113.664 16.9405 113.864 16.8086 114.131 16.8086C114.398 16.7426 114.665 16.7426 114.932 16.7426C115.6 16.7426 116.133 16.8745 116.467 17.2043C116.868 17.5341 117.068 17.9958 117.068 18.6554V21.5574C117.068 21.7553 117.068 22.0191 117.068 22.217C117.068 22.4149 117.068 22.6787 117.135 22.8766H116.4V22.0191L116.334 22.0851C116.2 22.3489 116 22.5468 115.666 22.7447C115.333 22.9425 114.932 23.0085 114.465 23.0085C114.198 23.0085 113.931 22.9425 113.664 22.8766C113.397 22.8106 113.197 22.6787 112.996 22.5468C112.796 22.4149 112.663 22.217 112.596 21.9532C112.463 21.7553 112.462 21.4915 112.462 21.1617C112.462 20.766 112.596 20.4362 112.796 20.1064C112.996 19.8426 113.33 19.5787 113.664 19.4468C113.864 19.3809 114.064 19.3149 114.331 19.249C114.532 19.183 114.799 19.183 114.999 19.183C115.266 19.183 115.466 19.183 115.733 19.183C116 19.183 116.2 19.183 116.4 19.183V18.5234H116.467ZM113.33 21.0298C113.33 21.4255 113.464 21.7553 113.731 21.9532C113.998 22.151 114.331 22.217 114.665 22.217C114.999 22.217 115.333 22.151 115.533 22.0191C115.733 21.8872 115.933 21.7553 116.067 21.5574C116.2 21.3596 116.334 21.1617 116.334 20.8979C116.4 20.634 116.4 20.3702 116.4 20.1064C116.4 20.0404 116.4 19.9745 116.4 19.9085C116.4 19.8426 116.4 19.7766 116.4 19.7107C116.267 19.7107 116.133 19.7107 116 19.7107C115.867 19.7107 115.733 19.7107 115.533 19.7107C115.266 19.7107 114.999 19.7107 114.732 19.7766C114.465 19.8426 114.198 19.9085 113.998 19.9745C113.797 20.0404 113.597 20.2383 113.464 20.3702C113.397 20.5021 113.33 20.766 113.33 21.0298Z" fill="black"/>
<path d="M123.208 21.8213C122.942 22.1511 122.608 22.4149 122.274 22.6128C121.94 22.8106 121.54 22.8766 121.139 22.8766C120.672 22.8766 120.338 22.8106 120.005 22.6128C119.671 22.4149 119.404 22.1511 119.204 21.8873C119.004 21.5575 118.87 21.2277 118.803 20.8319C118.737 20.4362 118.67 20.1064 118.67 19.7107C118.67 19.315 118.737 18.9192 118.803 18.5894C118.87 18.1937 119.004 17.8639 119.204 17.6001C119.404 17.2703 119.671 17.0724 120.005 16.8746C120.338 16.6767 120.672 16.6107 121.139 16.6107C121.54 16.6107 121.94 16.6767 122.341 16.8746C122.741 17.0724 123.008 17.3363 123.208 17.666V14.1703H123.943V21.4256C123.943 21.6234 123.943 21.8873 123.943 22.0851C123.943 22.283 123.943 22.5468 124.009 22.7447H123.275L123.208 21.8213ZM123.208 19.5788C123.208 19.249 123.142 18.9852 123.075 18.7213C123.008 18.4575 122.875 18.1937 122.741 17.9958C122.608 17.798 122.408 17.6001 122.141 17.4682C121.874 17.3363 121.607 17.2703 121.273 17.2703C120.939 17.2703 120.672 17.3363 120.405 17.4682C120.205 17.6001 120.005 17.798 119.871 17.9958C119.738 18.1937 119.604 18.4575 119.604 18.7873C119.537 19.0511 119.537 19.3809 119.537 19.6447C119.537 19.9086 119.537 20.2383 119.604 20.5022C119.671 20.8319 119.738 21.0958 119.871 21.3596C120.005 21.6234 120.205 21.8213 120.405 22.0192C120.605 22.217 120.939 22.283 121.273 22.283C121.673 22.283 122.007 22.217 122.274 22.0851C122.541 21.9532 122.741 21.7553 122.875 21.4915C123.008 21.2277 123.142 20.9639 123.208 20.6341C123.142 20.2383 123.208 19.9086 123.208 19.5788Z" fill="black"/>
<path d="M126.279 17.4022H125.077V16.7426H126.279V15.4895L127.013 15.1597V16.7426H128.415V17.4022H127.013V21.3596C127.013 21.9532 127.28 22.217 127.814 22.217C127.947 22.217 128.014 22.217 128.148 22.217C128.281 22.217 128.348 22.217 128.415 22.1511V22.7447C128.281 22.7447 128.214 22.8106 128.081 22.8106C127.947 22.8106 127.814 22.8106 127.68 22.8106C127.28 22.8106 127.013 22.7447 126.813 22.6787C126.612 22.5468 126.479 22.4149 126.412 22.283C126.346 22.0851 126.279 21.8872 126.279 21.6894C126.279 21.4915 126.279 21.2936 126.279 21.0957V17.4022Z" fill="black"/>
<path d="M34.5707 34.2211V25.6467H35.8389L39.1094 33.0998L42.4467 25.6467H43.6481V34.2211H42.8471V26.3063L39.5099 34.2211H38.7089L35.3717 26.3063V34.2211H34.5707Z" fill="black"/>
<path d="M49.7887 28.285H50.5229V32.902C50.5229 33.0998 50.5229 33.3637 50.5229 33.5615C50.5229 33.7594 50.5229 34.0232 50.5896 34.2211H49.8554L49.7887 33.3637C49.5884 33.7594 49.3214 34.0232 48.9877 34.1551C48.654 34.353 48.3203 34.419 47.9198 34.419C47.5861 34.419 47.3191 34.353 47.0521 34.287C46.8519 34.2211 46.6516 34.0892 46.4514 33.9573C46.3179 33.8254 46.1844 33.6934 46.0509 33.4956C45.9842 33.2977 45.8507 33.1658 45.8507 32.9679C45.7839 32.77 45.7839 32.6381 45.7839 32.4403C45.7839 32.3084 45.7839 32.1105 45.7839 32.0445V28.285H46.5181V32.1105C46.5181 32.6381 46.6516 33.0339 46.9186 33.2977C47.1856 33.5615 47.5861 33.6934 48.0533 33.6934C48.3203 33.6934 48.5872 33.6275 48.8542 33.4956C49.0545 33.3637 49.2547 33.2317 49.3882 33.0339C49.5217 32.836 49.6552 32.6381 49.7219 32.3743C49.7887 32.1105 49.8554 31.8467 49.8554 31.5828V28.285H49.7887ZM46.7851 26.6361V25.7127H47.5861V26.6361H46.7851ZM48.7875 26.6361V25.7127H49.5884V26.6361H48.7875Z" fill="black"/>
<path d="M53.1259 34.2211H52.3917V29.6042C52.3917 29.4063 52.3917 29.1425 52.3917 28.9446C52.3917 28.7467 52.3917 28.4829 52.325 28.285H53.0592L53.1259 29.1425C53.3262 28.7467 53.5931 28.4829 53.9269 28.351C54.2606 28.1531 54.5943 28.0872 54.9948 28.0872C55.3285 28.0872 55.5955 28.1531 55.8625 28.2191C56.0627 28.285 56.263 28.4169 56.4632 28.5489C56.5967 28.6808 56.7302 28.8786 56.8637 29.0105C56.9304 29.2084 57.0639 29.3403 57.0639 29.5382C57.1306 29.7361 57.1306 29.868 57.1306 30.0659C57.1306 30.2637 57.1306 30.3956 57.1306 30.4616V34.2211H56.3964V30.3956C56.3964 29.868 56.263 29.4722 55.996 29.2084C55.729 28.9446 55.3285 28.8127 54.8613 28.8127C54.5943 28.8127 54.3273 28.8786 54.0604 29.0105C53.8601 29.1425 53.6599 29.2744 53.5264 29.4722C53.3929 29.6701 53.2594 29.868 53.1927 30.1318C53.1259 30.3956 53.0592 30.6595 53.0592 30.9233V34.2211H53.1259Z" fill="black"/>
<path d="M62.8707 30.1318C62.8707 29.6701 62.6705 29.3403 62.4035 29.1424C62.1365 28.9446 61.7361 28.8126 61.2021 28.8126C60.9351 28.8126 60.6681 28.8786 60.4679 29.0105C60.2677 29.1424 60.0674 29.3403 59.9339 29.5382C59.8004 29.736 59.6669 29.9999 59.6002 30.3296C59.5335 30.6594 59.4667 30.9232 59.4667 31.319C59.4667 31.6488 59.5335 31.9785 59.6002 32.3083C59.6669 32.6381 59.8004 32.9019 59.9339 33.0998C60.0674 33.2977 60.2677 33.4955 60.4679 33.6275C60.6681 33.7594 60.9351 33.8253 61.2021 33.8253C61.6693 33.8253 62.0698 33.6934 62.3368 33.4296C62.6037 33.1658 62.804 32.836 62.804 32.4402H63.6049C63.4047 33.8253 62.6037 34.4849 61.2688 34.4849C60.8016 34.4849 60.4011 34.4189 60.0674 34.2211C59.7337 34.0232 59.4667 33.8253 59.2665 33.4955C59.0662 33.2317 58.866 32.836 58.7993 32.5062C58.6658 32.1105 58.6658 31.7147 58.6658 31.319C58.6658 30.9232 58.7325 30.5275 58.866 30.1318C58.9995 29.736 59.133 29.4062 59.4 29.1424C59.6002 28.8786 59.9339 28.6148 60.2677 28.4169C60.6014 28.219 61.0019 28.1531 61.4691 28.1531C61.8028 28.1531 62.0698 28.219 62.3368 28.285C62.6037 28.3509 62.8707 28.4829 63.071 28.6807C63.2712 28.8786 63.4714 29.0765 63.5382 29.3403C63.6717 29.6041 63.7384 29.8679 63.7384 30.1977H62.8707V30.1318Z" fill="black"/>
<path d="M65.8075 29.2084C66.0078 28.8126 66.3415 28.5488 66.6085 28.4169C66.9422 28.219 67.2759 28.1531 67.6764 28.1531C68.0101 28.1531 68.2771 28.219 68.5441 28.285C68.7443 28.3509 68.9446 28.4829 69.1448 28.6148C69.2783 28.7467 69.4118 28.9446 69.5453 29.0765C69.612 29.2743 69.7455 29.4062 69.7455 29.6041C69.8123 29.802 69.8123 29.9339 69.8123 30.1318C69.8123 30.3296 69.8123 30.4616 69.8123 30.5275V34.287H69.0781V30.4616C69.0781 29.9339 68.9446 29.5382 68.6776 29.2743C68.4106 29.0105 68.0101 28.8786 67.5429 28.8786C67.2759 28.8786 67.0089 28.9446 66.742 29.0765C66.5417 29.2084 66.3415 29.3403 66.208 29.5382C66.0745 29.736 65.941 29.9339 65.8743 30.1977C65.8075 30.4616 65.7408 30.7254 65.7408 30.9892V34.4189H65.0066V25.8446H65.7408V29.2084H65.8075Z" fill="black"/>
<path d="M72.2151 31.4509C72.2151 31.7807 72.2818 32.0445 72.3486 32.3743C72.4153 32.6382 72.5488 32.902 72.749 33.0998C72.9493 33.2977 73.1495 33.4956 73.4165 33.6275C73.6835 33.7594 74.0172 33.8254 74.3509 33.8254C74.5512 33.8254 74.7514 33.7594 74.9516 33.6935C75.1519 33.6275 75.2853 33.4956 75.4856 33.3637C75.6191 33.2318 75.7526 33.0998 75.8861 32.902C76.0195 32.7041 76.0863 32.5062 76.0863 32.3084H76.8205C76.6203 33.0339 76.2865 33.5615 75.8861 33.8913C75.4188 34.2211 74.8181 34.419 74.0839 34.419C73.6167 34.419 73.2162 34.353 72.8825 34.1552C72.5488 33.9573 72.2818 33.7594 72.0816 33.4296C71.8813 33.1658 71.6811 32.7701 71.6144 32.4403C71.4809 32.0445 71.4809 31.6488 71.4809 31.2531C71.4809 30.8573 71.5476 30.4616 71.6811 30.0659C71.8146 29.6701 71.9481 29.3403 72.2151 29.0765C72.4153 28.8127 72.749 28.5489 73.0828 28.351C73.4165 28.1531 73.8169 28.0872 74.2842 28.0872C74.8181 28.0872 75.2186 28.1531 75.5523 28.351C75.8861 28.5489 76.153 28.7467 76.42 29.0765C76.6203 29.4063 76.8205 29.7361 76.8872 30.1318C76.954 30.5275 77.0207 30.9892 77.0207 31.4509H72.2151ZM76.0863 30.7914C76.0863 30.5275 76.0195 30.2637 75.8861 29.9999C75.8193 29.7361 75.6858 29.5382 75.4856 29.3403C75.3521 29.1425 75.1519 29.0105 74.8849 28.9446C74.6179 28.8127 74.3509 28.8127 74.0839 28.8127C73.817 28.8127 73.55 28.8786 73.283 29.0105C73.0828 29.1425 72.8825 29.2744 72.6823 29.4722C72.5488 29.6701 72.4153 29.868 72.2818 30.1318C72.2151 30.3956 72.1483 30.5935 72.0816 30.8573H76.0863V30.7914Z" fill="black"/>
<path d="M79.1566 34.2211H78.4224V29.6042C78.4224 29.4063 78.4224 29.1425 78.4224 28.9446C78.4224 28.7467 78.4224 28.4829 78.3557 28.285H79.0898L79.1566 29.1425C79.3568 28.7467 79.6238 28.4829 79.9575 28.351C80.2913 28.1531 80.625 28.0872 81.0255 28.0872C81.3592 28.0872 81.6262 28.1531 81.8931 28.2191C82.0934 28.285 82.2936 28.4169 82.4939 28.5489C82.6273 28.6808 82.7608 28.8786 82.8943 29.0105C82.9611 29.2084 83.0946 29.3403 83.0946 29.5382C83.1613 29.7361 83.1613 29.868 83.1613 30.0659C83.1613 30.2637 83.1613 30.3956 83.1613 30.4616V34.2211H82.4271V30.3956C82.4271 29.868 82.2936 29.4722 82.0266 29.2084C81.7597 28.9446 81.3592 28.8127 80.892 28.8127C80.625 28.8127 80.358 28.8786 80.091 29.0105C79.8908 29.1425 79.6906 29.2744 79.5571 29.4722C79.4236 29.6701 79.2901 29.868 79.2233 30.1318C79.1566 30.3956 79.0898 30.6595 79.0898 30.9233V34.2211H79.1566Z" fill="black"/>
<path d="M34.7042 37.5189H36.5731V41.2125L39.5099 37.5189H41.7125L38.5087 41.3444L41.9794 46.0933H39.6433L36.5731 41.7401V46.0933H34.7042V37.5189Z" fill="black"/>
<path d="M44.2488 40.0912V43.6528C44.2488 43.7847 44.2488 43.9167 44.2488 44.0486C44.2488 44.1805 44.3155 44.3124 44.3823 44.4443C44.449 44.5762 44.5158 44.7081 44.6493 44.7741C44.7828 44.84 44.983 44.906 45.1832 44.906C45.4502 44.906 45.7172 44.84 45.8507 44.7741C45.9842 44.7081 46.1177 44.5103 46.1844 44.3784C46.2511 44.1805 46.3179 43.9826 46.3179 43.7847C46.3179 43.5869 46.3179 43.3231 46.3179 43.0592V40.0912H48.12V44.0486C48.12 44.3784 48.12 44.6422 48.12 44.84C48.12 45.0379 48.12 45.1698 48.12 45.3017C48.12 45.4337 48.12 45.4996 48.12 45.5656C48.12 45.6315 48.12 45.6315 48.12 45.6975C48.12 45.7634 48.12 45.8294 48.12 45.8954C48.12 45.9613 48.12 46.0273 48.12 46.0932H46.3846L46.3179 45.3017C46.2511 45.3677 46.1844 45.4337 46.1177 45.5656C46.0509 45.6975 45.9174 45.7634 45.7839 45.8954C45.6504 46.0273 45.4502 46.0932 45.25 46.1592C45.0497 46.2251 44.7827 46.2911 44.5158 46.2911C44.1153 46.2911 43.7148 46.2251 43.4478 46.0273C43.1141 45.8954 42.9139 45.6975 42.7136 45.4337C42.6469 45.3017 42.5134 45.1698 42.5134 45.0379C42.4467 44.906 42.4467 44.7081 42.3799 44.5762C42.3799 44.4443 42.3132 44.3124 42.3132 44.1805C42.3132 44.0486 42.3132 43.9167 42.3132 43.8507V40.0912H44.2488Z" fill="black"/>
<path d="M49.9221 37.5189H51.7243V46.0933H49.9221V37.5189Z" fill="black"/>
<path d="M56.8637 46.0273C56.5967 46.0933 56.3297 46.1592 56.0627 46.1592C55.7957 46.1592 55.5955 46.2252 55.462 46.2252C54.9948 46.2252 54.6611 46.1592 54.3941 46.0273C54.1271 45.8954 53.9936 45.7635 53.8601 45.5656C53.7266 45.3677 53.6599 45.2358 53.6599 45.038C53.6599 44.8401 53.6599 44.7082 53.6599 44.5763V41.2784H52.5252V40.0912H53.6599V38.904L55.462 38.2444V40.0253H56.9304V41.2125H55.462V44.0486C55.462 44.1805 55.462 44.3124 55.462 44.4443C55.462 44.5763 55.5287 44.6422 55.5287 44.7082C55.5955 44.7741 55.6622 44.8401 55.7957 44.906C55.9292 44.972 56.0627 44.972 56.2629 44.972C56.3964 44.972 56.5299 44.972 56.5967 44.972C56.6634 44.972 56.7969 44.972 56.8637 44.972V46.0273Z" fill="black"/>
<path d="M59.5334 40.0912V43.6528C59.5334 43.7847 59.5334 43.9167 59.5334 44.0486C59.5334 44.1805 59.6002 44.3124 59.6669 44.4443C59.7337 44.5762 59.8004 44.7081 59.9339 44.7741C60.0674 44.84 60.2676 44.906 60.4679 44.906C60.7349 44.906 61.0018 44.84 61.1353 44.7741C61.2688 44.7081 61.4023 44.5103 61.4691 44.3784C61.5358 44.1805 61.6026 43.9826 61.6026 43.7847C61.6026 43.5869 61.6026 43.3231 61.6026 43.0592V40.0912H63.4714V44.0486C63.4714 44.3784 63.4714 44.6422 63.4714 44.84C63.4714 45.0379 63.4714 45.1698 63.4714 45.3017C63.4714 45.4337 63.4714 45.4996 63.4714 45.5656C63.4714 45.6315 63.4714 45.6315 63.4714 45.6975C63.4714 45.7634 63.4714 45.8294 63.4714 45.8954C63.4714 45.9613 63.4714 46.0273 63.4714 46.0932H61.736L61.6693 45.3017C61.6026 45.3677 61.5358 45.4337 61.4691 45.5656C61.4023 45.6975 61.2688 45.7634 61.1353 45.8954C61.0018 46.0273 60.8016 46.0932 60.6014 46.1592C60.4011 46.2251 60.1342 46.2911 59.8672 46.2911C59.4667 46.2911 59.0662 46.2251 58.7992 46.0273C58.4655 45.8954 58.2653 45.6975 58.0651 45.4337C57.9983 45.3017 57.8648 45.1698 57.8648 45.0379C57.7981 44.906 57.7981 44.7081 57.7313 44.5762C57.7313 44.4443 57.6646 44.3124 57.6646 44.1805C57.6646 44.0486 57.6646 43.9167 57.6646 43.8507V40.0912H59.5334Z" fill="black"/>
<path d="M65.1401 41.6082C65.1401 41.5422 65.1401 41.4103 65.1401 41.2784C65.1401 41.1465 65.1401 41.0146 65.1401 40.8827C65.1401 40.7508 65.1401 40.6188 65.1401 40.421C65.1401 40.2891 65.1401 40.1571 65.1401 40.0912H66.8087L66.8755 41.2124C66.9422 41.0805 67.0089 40.9486 67.0757 40.8167C67.1424 40.6848 67.2759 40.5529 67.4094 40.421C67.5429 40.2891 67.7431 40.2231 68.0101 40.1571C68.1436 40.0912 68.4773 40.0912 68.8111 40.0912V41.6741C68.3439 41.6082 68.0101 41.6741 67.7431 41.7401C67.4762 41.8061 67.2759 41.938 67.1424 42.0699C67.0089 42.2018 66.9422 42.3997 66.8755 42.5975C66.8755 42.7954 66.8087 42.9933 66.8087 43.1911V46.1592H65.0066V41.6082H65.1401Z" fill="black"/>
<path d="M69.5453 41.6082C69.5453 41.5423 69.5453 41.4104 69.5453 41.2784C69.5453 41.1465 69.5453 41.0146 69.5453 40.8827C69.5453 40.7508 69.5453 40.6189 69.5453 40.421C69.5453 40.2891 69.5453 40.1572 69.5453 40.0912H71.2139L71.2806 41.2125C71.3474 41.0806 71.4141 40.9487 71.4809 40.8167C71.5476 40.6848 71.6811 40.5529 71.8146 40.421C71.9481 40.2891 72.1483 40.2231 72.4153 40.1572C72.6823 40.0912 72.9493 40.0253 73.283 40.0912V41.6742C72.8158 41.6082 72.4821 41.6742 72.2151 41.7401C71.9481 41.8061 71.7479 41.938 71.6144 42.0699C71.4809 42.2018 71.4141 42.3997 71.3474 42.5976C71.3474 42.7954 71.2806 42.9933 71.2806 43.1912V46.1592H69.4785V41.6082H69.5453Z" fill="black"/>
<path d="M75.6191 43.5869C75.6191 43.6528 75.6191 43.8507 75.6191 43.9826C75.6191 44.1805 75.6858 44.3124 75.7526 44.5103C75.8193 44.7081 75.9528 44.84 76.0863 44.972C76.2198 45.1039 76.4868 45.1698 76.8205 45.1698C77.0207 45.1698 77.2877 45.1039 77.4212 44.972C77.6214 44.84 77.7549 44.6422 77.8217 44.3124H79.4236C79.4236 44.3783 79.4236 44.4443 79.4236 44.5762C79.4236 44.7081 79.3568 44.7741 79.3568 44.906C79.2901 45.0379 79.2901 45.1039 79.1566 45.2358C79.0898 45.3677 78.9563 45.4996 78.8896 45.6315C78.6894 45.8294 78.3556 46.0273 78.0219 46.1592C77.6214 46.2911 77.221 46.357 76.8205 46.357C76.687 46.357 76.5535 46.357 76.3533 46.357C76.153 46.357 75.9528 46.2911 75.8193 46.2251C75.6191 46.1592 75.4188 46.0932 75.2186 46.0273C75.0184 45.9613 74.8181 45.8294 74.6846 45.6315C74.4177 45.3677 74.2174 45.0379 74.0839 44.6422C73.9504 44.2464 73.8837 43.7847 73.8837 43.323C73.8837 43.0592 73.8837 42.7954 73.9504 42.5316C74.0172 42.2677 74.0839 42.0039 74.1507 41.7401C74.2174 41.4763 74.3509 41.2784 74.5512 41.0146C74.6846 40.8167 74.9516 40.6188 75.2186 40.421C75.4856 40.289 75.6858 40.1571 76.0196 40.0252C76.2865 39.9593 76.6203 39.8933 76.954 39.8933C77.1542 39.8933 77.4212 39.8933 77.6214 39.9593C77.8217 40.0252 78.0887 40.0912 78.2889 40.2231C78.4891 40.355 78.6894 40.4869 78.8896 40.6848C79.0898 40.8827 79.2233 41.0805 79.3568 41.4103C79.4903 41.6082 79.557 41.806 79.6238 42.0039C79.6905 42.2018 79.6905 42.3997 79.7573 42.5975C79.7573 42.7954 79.7573 42.9933 79.7573 43.1252C79.7573 43.323 79.7573 43.455 79.7573 43.5869H75.6191ZM77.8884 42.4656C77.8884 42.3997 77.8884 42.2677 77.8884 42.1358C77.8884 42.0039 77.8217 41.872 77.7549 41.6741C77.6882 41.5422 77.5547 41.4103 77.4212 41.2784C77.2877 41.1465 77.0875 41.0805 76.8205 41.0805C76.6203 41.0805 76.4868 41.1465 76.3533 41.2124C76.2198 41.2784 76.0863 41.4103 76.0196 41.5422C75.9528 41.6741 75.8861 41.806 75.8193 41.938C75.7526 42.0699 75.7526 42.2677 75.7526 42.4656H77.8884Z" fill="black"/>
<path d="M81.2924 41.3444H80.4247V40.0912H81.2924V39.2997C81.2924 39.0359 81.2924 38.7721 81.3592 38.5742C81.4259 38.3104 81.4927 38.1125 81.6929 37.9806C81.8264 37.7827 82.0934 37.6508 82.3604 37.5849C82.6273 37.4529 82.9611 37.4529 83.4283 37.4529C83.495 37.4529 83.6285 37.4529 83.762 37.4529C83.8955 37.4529 84.1625 37.4529 84.3627 37.5189V38.7061C84.296 38.7061 84.2292 38.7061 84.1625 38.7061C84.0957 38.7061 84.029 38.7061 83.9622 38.7061C83.762 38.7061 83.5618 38.7061 83.4283 38.7721C83.2948 38.838 83.228 38.904 83.1613 38.9699C83.0946 39.0359 83.0946 39.1678 83.0278 39.2338C83.0278 39.2997 83.0278 39.4316 83.0278 39.4976V40.0912H84.1625V41.3444H83.0278V46.0932H81.2257V41.3444H81.2924Z" fill="black"/>
<path d="M86.4986 43.5869C86.4986 43.6528 86.4986 43.8507 86.4986 43.9826C86.4986 44.1805 86.5653 44.3124 86.632 44.5103C86.6988 44.7081 86.8323 44.84 86.9658 44.972C87.0993 45.1039 87.3663 45.1698 87.7 45.1698C87.9002 45.1698 88.1672 45.1039 88.3007 44.972C88.5009 44.84 88.6344 44.6422 88.7012 44.3124H90.303C90.303 44.3783 90.303 44.4443 90.303 44.5762C90.303 44.7081 90.2363 44.7741 90.2363 44.906C90.1696 45.0379 90.1696 45.1039 90.0361 45.2358C89.9693 45.3677 89.8358 45.4996 89.7691 45.6315C89.5688 45.8294 89.2351 46.0273 88.9014 46.1592C88.5009 46.2911 88.1004 46.357 87.7 46.357C87.5665 46.357 87.433 46.357 87.2328 46.357C87.0325 46.357 86.8323 46.2911 86.6988 46.2251C86.4986 46.1592 86.2983 46.0932 86.0981 46.0273C85.8978 45.9613 85.6976 45.8294 85.5641 45.6315C85.2971 45.3677 85.0969 45.0379 84.9634 44.6422C84.8299 44.2464 84.7632 43.7847 84.7632 43.323C84.7632 43.0592 84.7632 42.7954 84.8299 42.5316C84.8967 42.2677 84.9634 42.0039 85.0302 41.7401C85.0969 41.4763 85.2304 41.2784 85.4306 41.0146C85.5641 40.8167 85.8311 40.6188 86.0981 40.421C86.3651 40.289 86.5653 40.1571 86.899 40.0252C87.166 39.9593 87.4997 39.8933 87.8335 39.8933C88.0337 39.8933 88.3007 39.8933 88.5009 39.9593C88.7012 40.0252 88.9681 40.0912 89.1684 40.2231C89.3686 40.355 89.5688 40.4869 89.7691 40.6848C89.9693 40.8827 90.1028 41.0805 90.2363 41.4103C90.3698 41.6082 90.4365 41.806 90.5033 42.0039C90.57 42.2018 90.57 42.3997 90.6368 42.5975C90.6368 42.7954 90.6368 42.9933 90.6368 43.1252C90.6368 43.323 90.6368 43.455 90.6368 43.5869H86.4986ZM88.7679 42.4656C88.7679 42.3997 88.7679 42.2677 88.7679 42.1358C88.7679 42.0039 88.7012 41.872 88.6344 41.6741C88.5677 41.5422 88.4342 41.4103 88.3007 41.2784C88.1672 41.1465 87.967 41.0805 87.7 41.0805C87.4997 41.0805 87.3663 41.1465 87.2328 41.2124C87.0993 41.2784 86.9658 41.4103 86.899 41.5422C86.8323 41.6741 86.7655 41.806 86.6988 41.938C86.6321 42.0699 86.632 42.2677 86.632 42.4656H88.7679Z" fill="black"/>
<path d="M91.8382 41.6082C91.8382 41.5423 91.8382 41.4104 91.8382 41.2784C91.8382 41.1465 91.8382 41.0146 91.8382 40.8827C91.8382 40.7508 91.8382 40.6189 91.8382 40.421C91.8382 40.2891 91.8382 40.1572 91.8382 40.0912H93.5068L93.5736 41.2125C93.6403 41.0806 93.7071 40.9487 93.7738 40.8167C93.8406 40.6848 93.974 40.5529 94.1075 40.421C94.241 40.2891 94.4413 40.2231 94.7082 40.1572C94.9752 40.0912 95.2422 40.0253 95.6427 40.0912V41.6742C95.1755 41.6082 94.8417 41.6742 94.5748 41.7401C94.3078 41.8061 94.1075 41.938 93.974 42.0699C93.8406 42.2018 93.7738 42.3997 93.7738 42.5976C93.7738 42.7954 93.7071 42.9933 93.7071 43.1912V46.1592H91.9049V41.6082H91.8382Z" fill="black"/>
<path d="M100.115 46.0932C100.115 45.8953 100.048 45.7634 100.048 45.6315C100.048 45.4996 100.048 45.3677 100.048 45.3017C99.8476 45.5656 99.7141 45.6975 99.5139 45.8294C99.3137 45.9613 99.1802 46.0273 98.9799 46.0932C98.8465 46.1592 98.6462 46.1592 98.5127 46.2251C98.3792 46.2251 98.2457 46.2251 98.179 46.2251C97.7118 46.2251 97.3781 46.1592 97.1778 46.0932C96.9776 45.9613 96.7773 45.8953 96.6439 45.7634C96.4436 45.5656 96.3101 45.3677 96.2434 45.1698C96.1766 44.972 96.1099 44.7081 96.1099 44.4443C96.1099 44.3124 96.1099 44.1805 96.1766 44.0486C96.1766 43.9167 96.2434 43.7188 96.3769 43.5209C96.4436 43.323 96.5771 43.1911 96.7773 42.9933C96.9776 42.7954 97.1778 42.6635 97.4448 42.5316C97.645 42.4656 97.8453 42.3997 98.0455 42.3337C98.2457 42.2677 98.5127 42.2677 98.713 42.2018C98.9132 42.2018 99.1134 42.2018 99.3137 42.1358C99.5139 42.1358 99.7141 42.1358 99.8476 42.1358C99.8476 41.938 99.8476 41.806 99.8476 41.6741C99.8476 41.5422 99.8476 41.4763 99.7809 41.3444C99.7141 41.2124 99.7141 41.1465 99.5807 41.0805C99.5139 41.0146 99.4472 40.9486 99.3804 40.9486C99.3137 40.8827 99.2469 40.8827 99.1802 40.8827C99.1134 40.8827 99.0467 40.8827 98.9799 40.8827C98.8465 40.8827 98.713 40.8827 98.5795 40.9486C98.446 41.0146 98.3792 41.0805 98.2458 41.2124C98.179 41.3444 98.1123 41.4103 98.1123 41.4763C98.1123 41.5422 98.1123 41.6741 98.1123 41.7401H96.3769C96.3769 41.6741 96.3769 41.5422 96.3769 41.4763C96.3769 41.3444 96.4436 41.2124 96.4436 41.0805C96.5104 40.9486 96.5771 40.8167 96.6439 40.6848C96.7106 40.5529 96.8441 40.421 97.0443 40.355C97.3113 40.1571 97.645 40.0252 97.9788 39.9593C98.3125 39.8933 98.6462 39.8933 98.9132 39.8933C99.0467 39.8933 99.1802 39.8933 99.3804 39.8933C99.5807 39.8933 99.7809 39.9593 99.9811 40.0252C100.181 40.0912 100.382 40.1571 100.582 40.289C100.782 40.355 100.982 40.5529 101.116 40.6848C101.249 40.8167 101.316 40.9486 101.383 41.0805C101.45 41.2124 101.45 41.3444 101.516 41.4763C101.516 41.6082 101.583 41.7401 101.583 41.872C101.583 42.0039 101.583 42.0699 101.583 42.1358V44.5762C101.583 44.84 101.583 45.1039 101.583 45.3677C101.583 45.6315 101.65 45.8953 101.717 46.1592H100.115V46.0932ZM99.8476 43.2571C99.5807 43.2571 99.3137 43.2571 99.0467 43.2571C98.7797 43.2571 98.5795 43.323 98.446 43.455C98.2457 43.5209 98.1123 43.6528 98.0455 43.7847C97.9788 43.9167 97.912 44.0486 97.912 44.2464C97.912 44.3784 97.912 44.4443 97.9788 44.5762C98.0455 44.6422 98.0455 44.7741 98.1123 44.84C98.179 44.906 98.2457 44.972 98.3792 45.0379C98.5127 45.1039 98.6462 45.1039 98.7797 45.1039C98.9132 45.1039 99.1134 45.0379 99.1802 44.972C99.3137 44.906 99.4472 44.84 99.5139 44.7081C99.6474 44.5103 99.7809 44.3124 99.7809 44.0486C99.8476 43.9167 99.8476 43.5869 99.8476 43.2571Z" fill="black"/>
<path d="M106.856 46.0273C106.589 46.0933 106.322 46.1592 106.055 46.1592C105.788 46.1592 105.588 46.2252 105.454 46.2252C104.987 46.2252 104.653 46.1592 104.386 46.0273C104.119 45.8954 103.986 45.7635 103.852 45.5656C103.719 45.3677 103.652 45.2358 103.652 45.038C103.652 44.8401 103.652 44.7082 103.652 44.5763V41.2784H102.517V40.0912H103.652V38.904L105.454 38.2444V40.0253H106.923V41.2125H105.454V44.0486C105.454 44.1805 105.454 44.3124 105.454 44.4443C105.454 44.5763 105.521 44.6422 105.521 44.7082C105.588 44.7741 105.654 44.8401 105.788 44.906C105.921 44.972 106.055 44.972 106.255 44.972C106.389 44.972 106.522 44.972 106.589 44.972C106.656 44.972 106.789 44.972 106.856 44.972V46.0273Z" fill="black"/>
<path d="M0.330353 14.3682H17.0834V26.8999C17.0834 31.5168 13.3457 35.1444 8.67352 35.1444C4.06809 35.2104 0.330353 31.4509 0.330353 26.8999C0.330353 26.8999 0.330353 19.4468 0.330353 14.3682Z" stroke="black" stroke-width="0.7143" stroke-miterlimit="3.8637"/>
<path d="M1.59852 0.583313C2.39946 0.583313 3.06691 0.781182 3.53413 1.17692C4.00135 1.57266 4.20158 2.23222 4.20158 3.0237C4.20158 3.81518 4.00135 4.47474 3.53413 4.87048C3.06691 5.33218 2.46621 5.53005 1.59852 5.53005H0.263611V0.583313H1.59852ZM1.73201 5.13431C2.06573 5.13431 2.39946 5.06835 2.66644 5.0024C2.93342 4.93644 3.13366 4.73857 3.26715 4.60666C3.40064 4.40879 3.53413 4.21092 3.60088 3.94709C3.66762 3.68327 3.73437 3.41944 3.73437 3.08966C3.73437 2.69392 3.66762 2.43009 3.60088 2.16627C3.46739 1.83649 3.26715 1.63862 3.06691 1.5067C2.86668 1.30883 2.66644 1.17692 2.39946 1.11096C2.06573 1.04501 1.79875 0.979052 1.39828 0.979052H0.730828V5.13431H1.73201Z" fill="black"/>
<path d="M5.60324 1.11096H5.06927V0.583313H5.53649V1.11096H5.60324ZM5.53649 2.10031V5.53005H5.13602V2.10031H5.53649Z" fill="black"/>
<path d="M6.87139 3.94704C6.87139 4.14491 6.87139 4.27682 6.93814 4.47469C7.00488 4.6066 7.07163 4.80447 7.13837 4.93638C7.20512 5.0683 7.33861 5.13425 7.53884 5.20021C7.67234 5.26617 7.87257 5.33212 8.07281 5.33212C8.2063 5.33212 8.33979 5.33212 8.40653 5.26617C8.54002 5.20021 8.60677 5.20021 8.67351 5.0683C8.74026 5.00234 8.80701 4.93639 8.87375 4.80447C8.9405 4.67256 9.00724 4.6066 9.00724 4.47469H9.47446C9.34097 4.87043 9.20748 5.20021 8.9405 5.39808C8.67352 5.59595 8.33979 5.66191 7.93932 5.66191C7.67234 5.66191 7.4721 5.59595 7.27186 5.52999C7.07163 5.39808 6.93814 5.26617 6.80465 5.13425C6.60441 4.93639 6.53767 4.73852 6.47092 4.54065C6.40418 4.27682 6.40417 4.07895 6.40417 3.81513C6.40417 3.5513 6.40418 3.35343 6.47092 3.15556C6.53767 2.95769 6.60441 2.75982 6.7379 2.56195C6.87139 2.36408 7.00488 2.23217 7.20512 2.16621C7.40535 2.0343 7.60559 2.0343 7.87257 2.0343C8.13955 2.0343 8.40653 2.10026 8.60677 2.16621C8.80701 2.23217 8.9405 2.43004 9.07399 2.56195C9.27422 2.75982 9.40771 2.95769 9.47446 3.15556C9.5412 3.35343 9.5412 3.61726 9.5412 3.88108H6.87139V3.94704ZM9.07399 3.5513C9.07399 3.41939 9.00724 3.22152 9.00724 3.0896C8.9405 2.95769 8.87375 2.82578 8.80701 2.69387C8.74026 2.56195 8.60677 2.496 8.47328 2.43004C8.33979 2.36408 8.2063 2.36408 8.00606 2.36408C7.80583 2.36408 7.67234 2.36408 7.53884 2.43004C7.40535 2.496 7.27186 2.56195 7.20512 2.69387C7.13837 2.82578 7.07163 2.95769 7.00488 3.0896C6.93814 3.22152 6.93814 3.35343 6.87139 3.5513H9.07399Z" fill="black"/>
<path d="M10.2754 2.95769C10.2754 2.75982 10.3421 2.62791 10.4089 2.496C10.4756 2.36408 10.6091 2.29813 10.6759 2.23217C10.8094 2.16621 10.9429 2.10026 11.0763 2.10026C11.2098 2.0343 11.4101 2.0343 11.5436 2.0343C11.6771 2.0343 11.8773 2.0343 12.0108 2.10026C12.1443 2.10026 12.2778 2.16621 12.4113 2.23217C12.5447 2.29813 12.6115 2.43004 12.6782 2.496C12.745 2.62791 12.8117 2.75982 12.8117 2.95769H12.3445C12.3445 2.82578 12.2778 2.75982 12.2778 2.69387C12.211 2.62791 12.1443 2.56195 12.0775 2.496C12.0108 2.43004 11.8773 2.43004 11.8105 2.43004C11.7438 2.43004 11.6103 2.43004 11.4768 2.43004C11.4101 2.43004 11.2766 2.43004 11.2098 2.43004C11.1431 2.43004 11.0096 2.496 10.9429 2.496C10.8761 2.56195 10.8094 2.62791 10.7426 2.69387C10.7426 2.75982 10.7426 2.82578 10.7426 2.95769C10.7426 3.0896 10.7426 3.15556 10.8094 3.22152C10.8761 3.28747 11.0096 3.35343 11.1431 3.41939C11.2766 3.48534 11.4768 3.48534 11.6771 3.5513C11.8773 3.61726 12.0775 3.68321 12.3445 3.74917C12.5447 3.81513 12.6782 3.88108 12.745 4.013C12.8785 4.14491 12.8785 4.34278 12.8785 4.47469C12.8785 4.67256 12.8117 4.80447 12.745 5.00234C12.6782 5.13425 12.5447 5.26617 12.4113 5.33212C12.2778 5.39808 12.1443 5.46404 11.944 5.52999C11.7438 5.59595 11.6103 5.59595 11.4101 5.59595C11.2766 5.59595 11.0763 5.59595 10.9429 5.52999C10.8094 5.46404 10.6759 5.46404 10.5424 5.33212C10.4089 5.26617 10.3421 5.13425 10.2087 5.00234C10.1419 4.87043 10.0752 4.73852 10.0752 4.54065H10.5424C10.5424 4.67256 10.6091 4.80447 10.6759 4.87043C10.7426 5.00234 10.8094 5.0683 10.9429 5.13425C11.0096 5.20021 11.1431 5.20021 11.2098 5.26617C11.3433 5.26617 11.4101 5.26617 11.5436 5.26617C11.6771 5.26617 11.7438 5.26617 11.8773 5.20021C12.0108 5.20021 12.0775 5.13426 12.1443 5.0683C12.211 5.00234 12.2778 4.93639 12.3445 4.87043C12.4113 4.80447 12.4113 4.67256 12.4113 4.54065C12.4113 4.40873 12.4113 4.34278 12.3445 4.21086C12.2778 4.14491 12.211 4.07895 12.0775 4.013C11.944 3.94704 11.8773 3.94704 11.7438 3.88108C11.6103 3.88108 11.4768 3.81513 11.3433 3.81513C11.2098 3.81513 11.0763 3.81513 10.9429 3.81513C10.8094 3.74917 10.6759 3.74917 10.6091 3.68321C10.4756 3.61726 10.4089 3.5513 10.3421 3.41939C10.2754 3.28747 10.2754 3.15556 10.2754 2.95769Z" fill="black"/>
<path d="M14.0131 3.94706C14.0131 4.14493 14.0131 4.27684 14.0799 4.47471C14.1466 4.60663 14.2134 4.8045 14.2801 4.93641C14.3469 5.06832 14.4804 5.13428 14.6806 5.20023C14.8141 5.26619 15.0143 5.33215 15.2146 5.33215C15.348 5.33215 15.4815 5.33215 15.5483 5.26619C15.615 5.20023 15.7485 5.20023 15.8153 5.06832C15.9488 5.00236 16.0822 4.87045 16.0822 4.8045C16.149 4.67258 16.2157 4.60663 16.2157 4.47471H16.683C16.5495 4.87045 16.416 5.20023 16.149 5.3981C15.882 5.59597 15.5483 5.66193 15.1478 5.66193C14.8808 5.66193 14.6806 5.59597 14.4804 5.53002C14.2801 5.3981 14.1466 5.26619 14.0131 5.13428C13.8796 4.93641 13.8129 4.73854 13.7462 4.54067C13.6794 4.3428 13.6794 4.07897 13.6794 3.8811C13.6794 3.61728 13.6794 3.41941 13.7462 3.22154C13.8129 3.02367 13.8796 2.8258 14.0131 2.62793C14.1466 2.43006 14.2801 2.29815 14.4804 2.23219C14.6806 2.10028 14.8808 2.10028 15.1478 2.10028C15.4148 2.10028 15.6818 2.16624 15.882 2.23219C16.0822 2.29815 16.2157 2.49602 16.3492 2.62793C16.4827 2.8258 16.5495 3.02367 16.6162 3.22154C16.683 3.41941 16.7497 3.68324 16.7497 3.94706H14.0131ZM16.2825 3.55132C16.2825 3.41941 16.2157 3.22154 16.2157 3.08963C16.149 2.95771 16.0822 2.8258 16.0155 2.69389C15.9488 2.56198 15.8153 2.49602 15.6818 2.43006C15.5483 2.36411 15.4148 2.36411 15.2146 2.36411C15.0143 2.36411 14.8808 2.36411 14.7473 2.43006C14.6138 2.49602 14.4804 2.56198 14.4136 2.69389C14.3469 2.8258 14.2801 2.95771 14.2134 3.08963C14.0799 3.22154 14.0799 3.41941 14.0131 3.55132H16.2825Z" fill="black"/>
<path d="M20.4874 5.13431L22.0893 0.583313H22.5565L20.7544 5.53005H20.2205L18.4183 0.583313H18.8856L20.4874 5.13431Z" fill="black"/>
<path d="M22.8235 3.94706C22.8235 4.14493 22.8235 4.27684 22.8903 4.47471C22.957 4.60663 23.0238 4.8045 23.0905 4.93641C23.1573 5.06832 23.2908 5.13428 23.491 5.20023C23.6245 5.26619 23.8247 5.33215 24.025 5.33215C24.1584 5.33215 24.2919 5.33215 24.3587 5.26619C24.4922 5.20023 24.5589 5.20023 24.6257 5.06832C24.6924 5.00236 24.7591 4.93641 24.8259 4.8045C24.8926 4.67258 24.9594 4.60663 24.9594 4.47471H25.4266C25.2931 4.87045 25.1596 5.20023 24.8926 5.3981C24.6257 5.59597 24.2919 5.66193 23.8915 5.66193C23.6245 5.66193 23.4242 5.59597 23.224 5.53002C23.0238 5.3981 22.8903 5.26619 22.7568 5.13428C22.6233 4.93641 22.5566 4.73854 22.4898 4.54067C22.4231 4.3428 22.4231 4.07897 22.4231 3.8811C22.4231 3.61728 22.4231 3.41941 22.4898 3.22154C22.5566 3.02367 22.6233 2.8258 22.7568 2.62793C22.8903 2.43006 23.0238 2.29815 23.224 2.23219C23.4242 2.10028 23.6245 2.10028 23.8915 2.10028C24.1584 2.10028 24.4254 2.16624 24.6257 2.23219C24.8259 2.29815 24.9594 2.49602 25.0929 2.62793C25.2931 2.75985 25.3599 2.95771 25.4266 3.15558C25.4933 3.35345 25.4933 3.61728 25.4933 3.8811H22.8235V3.94706ZM25.0261 3.55132C25.0261 3.41941 24.9594 3.22154 24.9594 3.08963C24.8926 2.95771 24.8259 2.8258 24.7592 2.69389C24.6924 2.56198 24.5589 2.49602 24.4254 2.43006C24.2919 2.36411 24.1584 2.36411 23.9582 2.36411C23.758 2.36411 23.6245 2.36411 23.491 2.43006C23.3575 2.49602 23.224 2.56198 23.1573 2.69389C23.0905 2.8258 23.0238 2.95771 22.957 3.08963C22.8903 3.22154 22.8903 3.35345 22.8235 3.55132H25.0261Z" fill="black"/>
<path d="M26.7615 5.53003H26.361V2.89177C26.361 2.75986 26.361 2.62795 26.361 2.49604C26.361 2.36412 26.361 2.23221 26.361 2.1003H26.7615V2.62795C26.8282 2.43008 26.9617 2.29817 27.0952 2.16625C27.2287 2.03434 27.4289 1.96838 27.6959 1.96838C27.7627 1.96838 27.8294 1.96838 27.8294 1.96838C27.8962 1.96838 27.8962 1.96838 27.9629 1.96838V2.36412C27.8962 2.36412 27.8962 2.36412 27.8294 2.36412C27.7627 2.36412 27.7627 2.36412 27.6959 2.36412C27.3622 2.36412 27.162 2.49604 26.9617 2.6939C26.895 2.89177 26.7615 3.1556 26.7615 3.48538V5.53003Z" fill="black"/>
<path d="M30.566 3.15562C30.566 3.0237 30.566 2.89179 30.4992 2.82583C30.4325 2.75988 30.4325 2.62796 30.299 2.62796C30.299 2.49605 30.1655 2.43009 30.0988 2.43009C30.032 2.43009 29.8985 2.36414 29.765 2.36414C29.6315 2.36414 29.5648 2.36414 29.4313 2.36414C29.3646 2.36414 29.2311 2.43009 29.1643 2.43009C29.0976 2.49605 29.0308 2.56201 28.9641 2.62796C28.8973 2.69392 28.8973 2.82583 28.8973 2.89179H28.4301C28.4301 2.69392 28.4969 2.56201 28.5636 2.43009C28.6304 2.29818 28.7638 2.23223 28.8306 2.10031C28.9641 2.03436 29.0976 1.9684 29.2311 1.90244C29.3646 1.83649 29.5648 1.83649 29.6983 1.83649C30.0988 1.83649 30.3657 1.90244 30.6327 2.10031C30.833 2.29818 30.9664 2.56201 30.9664 2.95775V4.60666C30.9664 4.73857 30.9664 4.87048 30.9664 5.0024C30.9664 5.13431 30.9664 5.26622 30.9664 5.39813H30.566V4.87048V4.93644C30.4992 5.06835 30.3657 5.20027 30.1655 5.33218C29.9653 5.46409 29.765 5.53005 29.4313 5.53005C29.2978 5.53005 29.0976 5.53005 28.9641 5.46409C28.8306 5.39813 28.6971 5.33218 28.5636 5.26622C28.4301 5.20026 28.3634 5.06835 28.2966 4.93644C28.2299 4.80453 28.2299 4.67261 28.2299 4.47474C28.2299 4.21092 28.2966 4.01305 28.4301 3.88114C28.6304 3.81518 28.7639 3.68327 28.9641 3.61731C29.0976 3.55135 29.2311 3.55135 29.3646 3.4854C29.4981 3.4854 29.6315 3.41944 29.765 3.41944C29.8985 3.41944 30.032 3.41944 30.1655 3.41944C30.299 3.41944 30.4325 3.41944 30.566 3.41944V3.15562ZM28.7639 4.60666C28.7639 4.87048 28.8306 5.0024 28.9641 5.13431C29.0976 5.26622 29.2978 5.33218 29.498 5.33218C29.6983 5.33218 29.8985 5.26622 30.032 5.20027C30.1655 5.13431 30.299 5.06835 30.3657 4.93644C30.4325 4.80453 30.4992 4.67261 30.566 4.5407C30.566 4.40879 30.6327 4.21092 30.6327 4.07901C30.6327 4.01305 30.6327 4.01305 30.6327 3.94709C30.6327 3.88114 30.6327 3.88114 30.6327 3.81518C30.566 3.81518 30.4992 3.81518 30.4325 3.81518C30.3657 3.81518 30.2322 3.81518 30.1655 3.81518C30.032 3.81518 29.8318 3.81518 29.6983 3.88114C29.5648 3.88114 29.3646 3.94709 29.2978 4.01305C29.1643 4.07901 29.0976 4.14496 28.9641 4.27687C28.7639 4.27687 28.7639 4.40879 28.7639 4.60666Z" fill="black"/>
<path d="M32.4348 5.52999H32.0344V2.89174C32.0344 2.75982 32.0344 2.62791 32.0344 2.496C32.0344 2.36408 32.0344 2.23217 32.0344 2.10026H32.4348V2.62791C32.5683 2.43004 32.7018 2.23217 32.9021 2.16621C33.1023 2.0343 33.3025 2.0343 33.5028 2.0343C33.703 2.0343 33.8365 2.0343 33.97 2.10026C34.1035 2.16621 34.237 2.23217 34.3037 2.29813C34.3704 2.36408 34.4372 2.496 34.5039 2.56195C34.5707 2.69387 34.5707 2.75982 34.6374 2.89174C34.6374 3.02365 34.7042 3.0896 34.7042 3.22152C34.7042 3.28747 34.7042 3.41939 34.7042 3.48534V5.66191H34.3037V3.35343C34.3037 3.02365 34.237 2.82578 34.0367 2.62791C33.9032 2.496 33.6363 2.36408 33.3693 2.36408C33.169 2.36408 33.0355 2.36408 32.9021 2.496C32.7686 2.56195 32.7018 2.62791 32.5683 2.75982C32.5016 2.89174 32.4348 3.02365 32.3681 3.15556C32.3013 3.28747 32.3013 3.41939 32.3013 3.61726V5.52999H32.4348Z" fill="black"/>
<path d="M35.7054 2.95769C35.7054 2.75982 35.7721 2.62791 35.8389 2.496C35.9056 2.36408 36.0391 2.29813 36.1058 2.23217C36.2393 2.16621 36.3728 2.10026 36.5063 2.10026C36.6398 2.0343 36.84 2.0343 36.9735 2.0343C37.107 2.0343 37.3073 2.0343 37.4407 2.10026C37.5742 2.10026 37.7077 2.16621 37.8412 2.23217C37.908 2.29813 38.0414 2.36408 38.1082 2.496C38.1749 2.62791 38.2417 2.75982 38.2417 2.95769H37.7745C37.7745 2.82578 37.7077 2.75982 37.7077 2.69387C37.641 2.62791 37.5742 2.56195 37.5075 2.496C37.4407 2.43004 37.3073 2.43004 37.2405 2.43004C37.1738 2.43004 37.0403 2.43004 36.9068 2.43004C36.84 2.43004 36.7065 2.43004 36.6398 2.43004C36.5731 2.43004 36.4396 2.496 36.3728 2.496C36.3061 2.56195 36.2393 2.62791 36.1726 2.69387C36.1726 2.75982 36.1058 2.82578 36.1058 2.95769C36.1058 3.0896 36.1726 3.15556 36.2393 3.22152C36.3061 3.28747 36.4396 3.35343 36.5731 3.41939C36.7065 3.48534 36.9068 3.48534 37.107 3.5513C37.3073 3.61726 37.5075 3.68321 37.7745 3.74917C37.9747 3.81513 38.1082 3.94704 38.1749 4.07895C38.3084 4.21086 38.3084 4.40873 38.3084 4.54065C38.3084 4.73852 38.2417 4.87043 38.1749 5.0683C38.1082 5.20021 37.9747 5.33212 37.8412 5.39808C37.7077 5.46404 37.5742 5.52999 37.374 5.59595C37.1738 5.66191 37.0403 5.66191 36.84 5.66191C36.7065 5.66191 36.5063 5.66191 36.3728 5.59595C36.2393 5.52999 36.1058 5.52999 35.9723 5.39808C35.8389 5.33212 35.7721 5.20021 35.6386 5.0683C35.5719 4.93639 35.5051 4.80447 35.5051 4.6066H35.9723C35.9723 4.73852 36.0391 4.87043 36.1058 4.93638C36.1726 5.00234 36.2393 5.0683 36.3061 5.13425C36.3728 5.20021 36.5063 5.20021 36.5731 5.26617C36.7065 5.26617 36.7733 5.26617 36.9068 5.26617C37.0403 5.26617 37.107 5.26617 37.2405 5.20021C37.374 5.20021 37.4407 5.13425 37.5075 5.0683C37.5742 5.00234 37.641 4.93639 37.7077 4.87043C37.7745 4.80447 37.7745 4.67256 37.7745 4.54065C37.7745 4.40873 37.7745 4.34278 37.7077 4.21086C37.641 4.14491 37.5742 4.07895 37.4407 4.013C37.3073 3.94704 37.2405 3.94704 37.107 3.88108C36.9735 3.88108 36.84 3.81513 36.7065 3.81513C36.5731 3.81513 36.4396 3.74917 36.3061 3.68321C36.1726 3.61726 36.0391 3.61726 35.9723 3.5513C35.8389 3.48534 35.7721 3.41939 35.7054 3.28747C35.7054 3.28747 35.7054 3.15556 35.7054 2.95769Z" fill="black"/>
<path d="M39.5099 2.49601H38.8424V2.10027H39.5099V1.37475L39.9103 1.17688V2.10027H40.7113V2.49601H39.9103V4.80448C39.9103 5.13427 40.0438 5.26618 40.3776 5.26618C40.4443 5.26618 40.511 5.26618 40.5778 5.26618C40.6445 5.26618 40.7113 5.26618 40.778 5.20022V5.53C40.7113 5.53 40.6445 5.53 40.5778 5.59596C40.511 5.59596 40.4443 5.59596 40.3776 5.59596C40.1773 5.59596 39.9771 5.59596 39.8436 5.53C39.7101 5.46405 39.6434 5.39809 39.5766 5.26618C39.5099 5.13427 39.5099 5.06831 39.5099 4.9364C39.5099 4.80448 39.5099 4.67257 39.5099 4.60661V2.49601Z" fill="black"/>
<path d="M43.3811 3.15558C43.3811 3.02366 43.3811 2.89175 43.3144 2.82579C43.2476 2.75984 43.2476 2.62793 43.1141 2.62793C43.0474 2.56197 42.9806 2.49601 42.8471 2.49601C42.7804 2.49601 42.6469 2.43006 42.5134 2.43006C42.3799 2.43006 42.3132 2.43006 42.1797 2.43006C42.1129 2.43006 41.9794 2.49601 41.9127 2.49601C41.846 2.56197 41.7792 2.62793 41.7125 2.69388C41.6457 2.75984 41.6457 2.89175 41.6457 2.95771H41.1785C41.1785 2.75984 41.2452 2.62793 41.312 2.49601C41.3787 2.3641 41.5122 2.29814 41.579 2.16623C41.7125 2.10027 41.846 2.03432 41.9794 1.96836C42.1129 1.9024 42.3132 1.9024 42.4467 1.9024C42.8471 1.9024 43.1141 1.96836 43.3811 2.16623C43.5813 2.3641 43.7148 2.62793 43.7148 3.02366V4.67258C43.7148 4.80449 43.7148 4.9364 43.7148 5.06831C43.7148 5.20023 43.7148 5.33214 43.7148 5.46405H43.4478V4.9364V5.00236C43.3811 5.13427 43.2476 5.26618 43.0474 5.3981C42.8471 5.53001 42.6469 5.59597 42.3132 5.59597C42.1797 5.59597 41.9794 5.59597 41.846 5.53001C41.7125 5.46405 41.579 5.3981 41.4455 5.33214C41.312 5.26618 41.2452 5.13427 41.1785 5.00236C41.1118 4.87044 41.1118 4.73853 41.1118 4.54066C41.1118 4.27684 41.1785 4.07897 41.312 3.94705C41.4455 3.81514 41.6457 3.68323 41.846 3.61727C41.9794 3.55132 42.1129 3.55132 42.2464 3.48536C42.3799 3.48536 42.5134 3.4194 42.6469 3.4194C42.7804 3.4194 42.9139 3.4194 43.0474 3.4194C43.1809 3.4194 43.3144 3.4194 43.4478 3.4194V3.15558H43.3811ZM41.579 4.60662C41.579 4.87044 41.6457 5.00236 41.7792 5.13427C41.9127 5.26618 42.1129 5.33214 42.3132 5.33214C42.5134 5.33214 42.7136 5.26618 42.8471 5.20023C42.9806 5.13427 43.1141 5.06831 43.1809 4.9364C43.2476 4.80449 43.3144 4.67258 43.3811 4.54066C43.3811 4.40875 43.4478 4.21088 43.4478 4.07897C43.4478 4.01301 43.4478 4.01301 43.4478 3.94705C43.4478 3.8811 43.4478 3.8811 43.4478 3.81514C43.3811 3.81514 43.3143 3.81514 43.2476 3.81514C43.1809 3.81514 43.0474 3.81514 42.9806 3.81514C42.7804 3.81514 42.5802 3.81514 42.4467 3.81514C42.3132 3.81514 42.1129 3.8811 42.0462 3.94705C41.9127 4.01301 41.846 4.07897 41.7125 4.21088C41.6457 4.27684 41.579 4.40875 41.579 4.60662Z" fill="black"/>
<path d="M45.25 5.53005H44.8495V0.583313H45.25V5.53005Z" fill="black"/>
<path d="M46.5848 2.49601H45.9174V2.10027H46.5848V1.37475L47.0521 1.17688V2.10027H47.853V2.49601H47.0521V4.80448C47.0521 5.13427 47.1856 5.26618 47.5193 5.26618C47.586 5.26618 47.6528 5.26618 47.7195 5.26618C47.7863 5.26618 47.853 5.26618 47.9197 5.20022V5.53C47.853 5.53 47.7863 5.53 47.7195 5.59596C47.6528 5.59596 47.586 5.59596 47.5193 5.59596C47.319 5.59596 47.1188 5.59596 46.9853 5.53C46.8518 5.46405 46.7851 5.39809 46.7183 5.26618C46.6516 5.13427 46.6516 5.06831 46.6516 4.9364C46.6516 4.80448 46.6516 4.67257 46.6516 4.60661V2.49601H46.5848Z" fill="black"/>
<path d="M50.8566 2.10028H51.257V4.73854C51.257 4.87045 51.257 5.00236 51.257 5.13428C51.257 5.26619 51.257 5.3981 51.257 5.53002H50.8566V5.00236C50.7231 5.20023 50.5896 5.3981 50.3893 5.46406C50.1891 5.59597 49.9889 5.59597 49.7886 5.59597C49.5884 5.59597 49.4549 5.59597 49.3214 5.53002C49.1879 5.46406 49.0544 5.3981 48.9877 5.33215C48.8542 5.33215 48.7875 5.20023 48.7207 5.13428C48.654 5.00236 48.654 4.93641 48.5872 4.8045C48.5872 4.67258 48.5205 4.60663 48.5205 4.54067C48.5205 4.47471 48.5205 4.3428 48.5205 4.27684V2.10028H48.9209V4.3428C48.9209 4.67258 48.9877 4.87045 49.1879 5.06832C49.3214 5.20023 49.5884 5.33215 49.8554 5.33215C50.0556 5.33215 50.1891 5.33215 50.3226 5.20023C50.4561 5.13428 50.5228 5.06832 50.6563 4.93641C50.7231 4.8045 50.7898 4.67258 50.8566 4.54067C50.9233 4.40876 50.9233 4.27684 50.9233 4.07897V2.10028H50.8566Z" fill="black"/>
<path d="M52.7254 5.52999H52.325V2.89174C52.325 2.75982 52.325 2.62791 52.325 2.496C52.325 2.36408 52.325 2.23217 52.325 2.10026H52.7254V2.62791C52.8589 2.43004 52.9924 2.23217 53.1926 2.16621C53.3929 2.0343 53.5931 2.0343 53.7933 2.0343C53.9936 2.0343 54.1271 2.0343 54.2606 2.10026C54.3941 2.16621 54.5275 2.23217 54.5943 2.29813C54.661 2.36408 54.7278 2.496 54.7945 2.56195C54.8613 2.69387 54.8613 2.75982 54.928 2.89174C54.928 3.02365 54.9948 3.0896 54.9948 3.22152C54.9948 3.28747 54.9948 3.41939 54.9948 3.48534V5.66191H54.5943V3.35343C54.5943 3.02365 54.5275 2.82578 54.3273 2.62791C54.1938 2.496 53.9268 2.36408 53.6599 2.36408C53.4596 2.36408 53.3261 2.36408 53.1926 2.496C53.0591 2.62791 52.9924 2.62791 52.8589 2.75982C52.8589 2.82578 52.7922 2.95769 52.7922 3.15556C52.7254 3.28747 52.7254 3.41939 52.7254 3.61726V5.52999Z" fill="black"/>
<path d="M58.5323 2.1003H58.9327C58.9327 2.23221 58.9327 2.36412 58.9327 2.49604C58.9327 2.62795 58.9327 2.75986 58.9327 2.89177V4.93642C58.9327 5.13429 58.9327 5.26621 58.9327 5.46408C58.9327 5.66194 58.9327 5.79386 58.866 5.92577C58.7992 6.05768 58.7325 6.1896 58.6658 6.38747C58.599 6.51938 58.3988 6.65129 58.1985 6.71725C58.065 6.7832 57.9316 6.84916 57.7981 6.84916C57.6646 6.84916 57.5311 6.84916 57.3976 6.84916C57.2641 6.84916 57.0639 6.84916 56.9304 6.7832C56.7969 6.7832 56.5967 6.71725 56.4632 6.65129C56.3297 6.58533 56.1962 6.45342 56.1294 6.38747C56.0627 6.25555 55.9959 6.12364 55.9959 5.92577H56.4632C56.4632 6.05768 56.5299 6.12364 56.5967 6.1896C56.6634 6.25555 56.7301 6.32151 56.7969 6.38747C56.8636 6.38747 56.9971 6.45342 57.1306 6.45342C57.2641 6.45342 57.3309 6.45342 57.4643 6.45342C57.5978 6.45342 57.7313 6.45342 57.8648 6.38747C57.9983 6.32151 58.1318 6.25555 58.1985 6.1896C58.2653 6.12364 58.3988 5.99173 58.4655 5.85981C58.5323 5.7279 58.5323 5.59599 58.5323 5.46408V4.80451C58.3988 5.00238 58.2653 5.20025 58.0651 5.26621C57.8648 5.39812 57.6646 5.46408 57.3976 5.46408C57.1306 5.46408 56.9304 5.39812 56.7301 5.33216C56.5299 5.26621 56.3964 5.13429 56.2629 4.93642C56.1294 4.80451 56.0627 4.60664 55.9959 4.40877C55.9292 4.2109 55.9292 3.94708 55.9292 3.74921C55.9292 3.48538 55.9292 3.28751 55.9959 3.08964C56.0627 2.89177 56.1294 2.6939 56.2629 2.49604C56.3964 2.36412 56.5299 2.16625 56.7301 2.1003C56.9304 1.96838 57.1306 1.96838 57.3976 1.96838C57.6646 1.96838 57.8648 2.03434 58.0651 2.16625C58.2653 2.29817 58.3988 2.43008 58.5323 2.62795V2.1003ZM58.4655 3.74921C58.4655 3.61729 58.4655 3.41943 58.3988 3.28751C58.332 3.1556 58.2653 2.95773 58.1985 2.82582C58.1318 2.6939 57.9983 2.56199 57.8648 2.49604C57.7313 2.43008 57.5311 2.36412 57.3976 2.36412C57.1974 2.36412 57.0639 2.43008 56.9304 2.49604C56.7969 2.56199 56.6634 2.6939 56.5967 2.82582C56.5299 2.95773 56.4632 3.08964 56.3964 3.28751C56.3297 3.41943 56.3297 3.61729 56.3297 3.74921C56.3297 3.88112 56.3297 4.07899 56.3964 4.2109C56.4632 4.34282 56.5299 4.54069 56.5967 4.6726C56.6634 4.80451 56.7969 4.93642 56.9304 5.00238C57.0639 5.13429 57.1974 5.13429 57.3976 5.13429C57.5978 5.13429 57.7981 5.06834 57.9316 5.00238C58.065 4.93642 58.1985 4.80451 58.2653 4.6726C58.332 4.54069 58.3988 4.40877 58.4655 4.2109C58.4655 4.07899 58.4655 3.94708 58.4655 3.74921Z" fill="black"/>
<path d="M62.804 5.00236L63.8719 2.10028H64.3391L65.3403 5.00236L66.3415 2.10028H66.8087L65.5405 5.53002H65.1401L64.0721 2.56198L63.0042 5.53002H62.6037L61.3356 2.10028H61.8028L62.804 5.00236Z" fill="black"/>
<path d="M67.9434 1.11096H67.4761V0.583313H67.9434V1.11096ZM67.8766 2.10031V5.53005H67.4761V2.10031H67.8766Z" fill="black"/>
<path d="M69.345 5.53003H68.9445V2.89177C68.9445 2.75986 68.9445 2.62795 68.9445 2.49604C68.9445 2.36412 68.9445 2.23221 68.9445 2.1003H69.345V2.62795C69.4117 2.43008 69.5452 2.29817 69.6787 2.16625C69.8122 2.03434 70.0124 1.96838 70.2794 1.96838C70.3462 1.96838 70.4129 1.96838 70.4129 1.96838C70.4797 1.96838 70.4797 1.96838 70.5464 1.96838V2.36412C70.4797 2.36412 70.4797 2.36412 70.4129 2.36412C70.3462 2.36412 70.3462 2.36412 70.2794 2.36412C69.9457 2.36412 69.7455 2.49604 69.5452 2.6939C69.4117 2.89177 69.2782 3.1556 69.2782 3.48538V5.53003H69.345Z" fill="black"/>
<path d="M73.5499 5.06835C73.4164 5.26622 73.2162 5.39813 73.016 5.53005C72.8157 5.66196 72.6155 5.66196 72.3485 5.66196C72.0815 5.66196 71.8813 5.596 71.6811 5.53005C71.4808 5.39813 71.3473 5.26622 71.2139 5.13431C71.0804 4.93644 71.0136 4.73857 70.9469 4.5407C70.8801 4.34283 70.8801 4.079 70.8801 3.88114C70.8801 3.68327 70.8801 3.41944 70.9469 3.22157C71.0136 3.0237 71.0804 2.82583 71.2139 2.62796C71.3473 2.43009 71.4808 2.29818 71.6811 2.23222C71.8813 2.10031 72.0815 2.10031 72.3485 2.10031C72.5488 2.10031 72.8157 2.16627 73.016 2.23222C73.2162 2.36414 73.4164 2.49605 73.5499 2.69392V0.583313H73.9504V4.73857C73.9504 4.87048 73.9504 5.0024 73.9504 5.13431C73.9504 5.26622 73.9504 5.39813 73.9504 5.53005H73.5499V5.06835ZM73.5499 3.74922C73.5499 3.55135 73.5499 3.41944 73.4832 3.22157C73.4164 3.08966 73.3497 2.89179 73.283 2.75988C73.2162 2.62796 73.0827 2.56201 72.9492 2.43009C72.8157 2.36414 72.6155 2.29818 72.4153 2.29818C72.215 2.29818 72.0815 2.36414 71.9481 2.43009C71.8146 2.49605 71.6811 2.62796 71.6143 2.75988C71.5476 2.89179 71.4808 3.0237 71.4141 3.22157C71.3473 3.35348 71.3473 3.55135 71.3473 3.68327C71.3473 3.81518 71.3473 4.01305 71.4141 4.21092C71.4141 4.40879 71.4808 4.5407 71.5476 4.67261C71.6143 4.80453 71.7478 4.93644 71.8813 5.06835C72.0148 5.13431 72.1483 5.20026 72.3485 5.20026C72.5488 5.20026 72.749 5.13431 72.9492 5.06835C73.0827 5.0024 73.2162 4.87048 73.283 4.73857C73.3497 4.60666 73.4164 4.40879 73.4832 4.27687C73.5499 4.14496 73.5499 3.94709 73.5499 3.74922Z" fill="black"/>
<path d="M79.2233 2.1003H79.6238C79.6238 2.23221 79.6238 2.36412 79.6238 2.49604C79.6238 2.62795 79.6238 2.75986 79.6238 2.89177V4.93642C79.6238 5.13429 79.6238 5.26621 79.6238 5.46408C79.6238 5.66194 79.6238 5.79386 79.557 5.92577C79.4903 6.05768 79.4235 6.1896 79.3568 6.38747C79.2901 6.51938 79.0898 6.65129 78.8896 6.71725C78.7561 6.7832 78.6226 6.84916 78.4891 6.84916C78.3556 6.84916 78.2221 6.84916 78.0886 6.84916C77.9551 6.84916 77.7549 6.84916 77.6214 6.7832C77.4879 6.7832 77.2877 6.71725 77.1542 6.65129C77.0207 6.58533 76.8872 6.45342 76.8205 6.38747C76.7537 6.25555 76.687 6.12364 76.687 5.92577H77.1542C77.1542 6.05768 77.2209 6.12364 77.2877 6.1896C77.3544 6.25555 77.4212 6.32151 77.4879 6.38747C77.5547 6.45342 77.6882 6.45342 77.8217 6.45342C77.9551 6.45342 78.0219 6.45342 78.1554 6.45342C78.2889 6.45342 78.4224 6.45342 78.5559 6.38747C78.6893 6.32151 78.8228 6.25555 78.8896 6.1896C78.9563 6.12364 79.0898 5.99173 79.1566 5.85981C79.2233 5.7279 79.2233 5.59599 79.2233 5.46408V4.80451C79.0898 5.00238 78.9563 5.20025 78.7561 5.26621C78.5559 5.39812 78.3556 5.46408 78.0886 5.46408C77.8217 5.46408 77.6214 5.39812 77.4212 5.33216C77.221 5.26621 77.0875 5.13429 76.954 4.93642C76.8205 4.80451 76.7537 4.60664 76.687 4.40877C76.6202 4.2109 76.6202 3.94708 76.6202 3.74921C76.6202 3.48538 76.6202 3.28751 76.687 3.08964C76.7537 2.89177 76.8205 2.6939 76.954 2.49604C77.0875 2.36412 77.221 2.16625 77.4212 2.1003C77.6214 1.96838 77.8217 1.96838 78.0886 1.96838C78.3556 1.96838 78.5559 2.03434 78.7561 2.16625C78.9563 2.29817 79.0898 2.43008 79.2233 2.62795V2.1003ZM79.2233 3.74921C79.2233 3.61729 79.2233 3.41943 79.1566 3.28751C79.0898 3.1556 79.0231 2.95773 78.9563 2.82582C78.8896 2.6939 78.7561 2.56199 78.6226 2.49604C78.4891 2.43008 78.2889 2.36412 78.1554 2.36412C77.9551 2.36412 77.8217 2.43008 77.6882 2.49604C77.5547 2.56199 77.4212 2.6939 77.3544 2.82582C77.2877 2.95773 77.2209 3.08964 77.1542 3.28751C77.0875 3.41943 77.0875 3.61729 77.0875 3.74921C77.0875 3.88112 77.0875 4.07899 77.1542 4.2109C77.2209 4.34282 77.2877 4.54069 77.3544 4.6726C77.4212 4.80451 77.5547 4.93642 77.6882 5.00238C77.8217 5.06834 78.0219 5.13429 78.1554 5.13429C78.3556 5.13429 78.5559 5.06834 78.6893 5.00238C78.8228 4.93642 78.9563 4.80451 79.0231 4.6726C79.0898 4.54069 79.1566 4.40877 79.2233 4.2109C79.2233 4.07899 79.2233 3.94708 79.2233 3.74921Z" fill="black"/>
<path d="M80.8252 3.94706C80.8252 4.14493 80.8252 4.27684 80.892 4.47471C80.9587 4.60663 81.0255 4.8045 81.0922 4.93641C81.1589 5.06832 81.2924 5.13428 81.4927 5.20023C81.6262 5.26619 81.8264 5.33215 82.0266 5.33215C82.1601 5.33215 82.2936 5.33215 82.3604 5.26619C82.4938 5.20023 82.5606 5.20023 82.6273 5.06832C82.6941 5.00236 82.7608 4.93641 82.8276 4.8045C82.8943 4.67258 82.9611 4.60663 82.9611 4.47471H83.4283C83.2948 4.87045 83.1613 5.20023 82.8943 5.3981C82.6273 5.59597 82.2936 5.66193 81.8931 5.66193C81.6262 5.66193 81.4259 5.59597 81.2257 5.53002C81.0254 5.3981 80.892 5.26619 80.7585 5.13428C80.625 4.93641 80.5582 4.73854 80.4915 4.54067C80.4247 4.3428 80.4247 4.07897 80.4247 3.8811C80.4247 3.61728 80.4247 3.41941 80.4915 3.22154C80.5582 3.02367 80.625 2.8258 80.7585 2.62793C80.892 2.43006 81.0254 2.29815 81.2257 2.23219C81.4259 2.10028 81.6262 2.10028 81.8931 2.10028C82.1601 2.10028 82.4271 2.16624 82.6273 2.23219C82.8276 2.29815 82.9611 2.49602 83.0946 2.62793C83.228 2.75985 83.2948 3.02367 83.3615 3.22154C83.4283 3.41941 83.4283 3.68324 83.4283 3.94706H80.8252ZM83.0946 3.55132C83.0946 3.41941 83.0278 3.22154 83.0278 3.08963C82.9611 2.95771 82.8943 2.8258 82.8276 2.69389C82.7608 2.56198 82.6273 2.49602 82.4938 2.43006C82.3604 2.36411 82.2269 2.36411 82.0266 2.36411C81.8264 2.36411 81.6929 2.36411 81.5594 2.43006C81.4259 2.49602 81.2924 2.56198 81.2257 2.69389C81.1589 2.8258 81.0922 2.95771 81.0255 3.08963C80.9587 3.22154 80.9587 3.35345 80.892 3.55132H83.0946Z" fill="black"/>
<path d="M84.6964 5.53002V2.49603H83.9622V2.10029H84.6964V1.37477C84.6964 1.04499 84.7632 0.847116 84.8967 0.715203C85.0301 0.58329 85.2971 0.517334 85.5641 0.517334C85.6309 0.517334 85.6976 0.517334 85.6976 0.517334C85.7643 0.517334 85.8311 0.517334 85.8978 0.517334V0.913073C85.8311 0.913073 85.6976 0.913073 85.6309 0.913073C85.4974 0.913073 85.3639 0.913073 85.2971 0.979029C85.2304 1.04499 85.1636 1.04499 85.0969 1.11094C85.0301 1.1769 85.0301 1.24285 85.0301 1.37477C85.0301 1.44072 85.0301 1.57264 85.0301 1.70455V2.16625H85.8311V2.49603H85.0301V5.53002H84.6964Z" fill="black"/>
<path d="M87.9002 2.03432C88.1672 2.03432 88.4342 2.10027 88.6344 2.16623C88.8346 2.29814 89.0349 2.43006 89.1684 2.56197C89.3019 2.75984 89.3686 2.95771 89.4353 3.15558C89.5021 3.35345 89.5021 3.61727 89.5021 3.81514C89.5021 4.01301 89.5021 4.27684 89.4353 4.47471C89.3686 4.67257 89.3019 4.87044 89.1684 5.06831C89.0349 5.26618 88.8346 5.3981 88.6344 5.46405C88.4342 5.59597 88.1672 5.59596 87.9002 5.59596C87.6332 5.59596 87.3662 5.53001 87.166 5.46405C86.9658 5.33214 86.7655 5.20023 86.632 5.06831C86.4985 4.87044 86.3651 4.67257 86.3651 4.47471C86.2983 4.27684 86.2983 4.01301 86.2983 3.81514C86.2983 3.61727 86.2983 3.35345 86.3651 3.15558C86.4318 2.95771 86.4985 2.75984 86.632 2.56197C86.7655 2.3641 86.9658 2.23219 87.166 2.16623C87.3662 2.03432 87.6332 2.03432 87.9002 2.03432ZM89.0349 3.81514C89.0349 3.68323 89.0349 3.48536 88.9681 3.28749C88.9014 3.08962 88.8346 2.95771 88.7679 2.82579C88.7011 2.69388 88.5676 2.56197 88.4342 2.49601C88.3007 2.43006 88.1004 2.3641 87.9002 2.3641C87.7 2.3641 87.4997 2.43006 87.3662 2.49601C87.2327 2.56197 87.0993 2.69388 87.0325 2.82579C86.9658 2.95771 86.899 3.08962 86.8323 3.28749C86.7655 3.48536 86.7655 3.61727 86.7655 3.81514C86.7655 3.94705 86.7655 4.14492 86.8323 4.34279C86.899 4.54066 86.9658 4.67257 87.0325 4.80449C87.0993 4.9364 87.2327 5.06831 87.3662 5.13427C87.4997 5.20023 87.7 5.26618 87.9002 5.26618C88.1004 5.26618 88.3007 5.20023 88.4342 5.13427C88.5676 5.06831 88.7011 4.9364 88.7679 4.80449C88.8346 4.67257 88.9014 4.54066 88.9681 4.34279C89.0349 4.14492 89.0349 4.01301 89.0349 3.81514ZM87.0993 1.17688V0.649231H87.5665V1.17688H87.0993ZM88.2339 1.17688V0.649231H88.7011V1.17688H88.2339Z" fill="black"/>
<path d="M90.7035 5.53003H90.303V2.89177C90.303 2.75986 90.303 2.62795 90.303 2.49604C90.303 2.36412 90.303 2.23221 90.303 2.1003H90.7035V2.62795C90.7703 2.43008 90.9038 2.29817 91.0372 2.16625C91.1707 2.03434 91.371 1.96838 91.6379 1.96838C91.7047 1.96838 91.7714 1.96838 91.7714 1.96838C91.8382 1.96838 91.8382 1.96838 91.9049 1.96838V2.36412C91.8382 2.36412 91.8382 2.36412 91.7714 2.36412C91.7047 2.36412 91.7047 2.36412 91.6379 2.36412C91.3042 2.36412 91.104 2.49604 90.9038 2.6939C90.7703 2.89177 90.6368 3.1556 90.6368 3.48538V5.53003H90.7035Z" fill="black"/>
<path d="M94.9085 5.06835C94.775 5.26622 94.5747 5.39813 94.3745 5.53005C94.1743 5.66196 93.974 5.66196 93.707 5.66196C93.4401 5.66196 93.2398 5.596 93.0396 5.53005C92.8394 5.39813 92.7059 5.26622 92.5724 5.13431C92.4389 4.93644 92.3721 4.73857 92.3054 4.5407C92.2386 4.34283 92.2386 4.079 92.2386 3.88114C92.2386 3.68327 92.2386 3.41944 92.3054 3.22157C92.3721 3.0237 92.4389 2.82583 92.5724 2.62796C92.7059 2.43009 92.8394 2.29818 93.0396 2.23222C93.2398 2.10031 93.4401 2.10031 93.707 2.10031C93.9073 2.10031 94.1743 2.16627 94.3745 2.23222C94.5747 2.36414 94.775 2.49605 94.9085 2.69392V0.583313H95.3089V4.73857C95.3089 4.87048 95.3089 5.0024 95.3089 5.13431C95.3089 5.26622 95.3089 5.39813 95.3089 5.53005H94.9085V5.06835ZM94.9085 3.74922C94.9085 3.55135 94.9085 3.41944 94.8417 3.22157C94.775 3.08966 94.7082 2.89179 94.6415 2.75988C94.5747 2.62796 94.4412 2.56201 94.3077 2.43009C94.1743 2.36414 93.974 2.29818 93.7738 2.29818C93.5735 2.29818 93.4401 2.36414 93.3066 2.43009C93.1731 2.49605 93.0396 2.62796 92.9728 2.75988C92.9061 2.89179 92.8393 3.0237 92.7726 3.22157C92.7059 3.35348 92.7059 3.55135 92.7059 3.68327C92.7059 3.81518 92.7059 4.01305 92.7726 4.21092C92.7726 4.40879 92.8394 4.5407 92.9061 4.67261C92.9728 4.80453 93.1063 4.93644 93.2398 5.06835C93.3733 5.13431 93.5068 5.20026 93.707 5.20026C93.9073 5.20026 94.1075 5.13431 94.3077 5.06835C94.4412 5.0024 94.5747 4.87048 94.6415 4.73857C94.7082 4.60666 94.775 4.40879 94.8417 4.27687C94.9085 4.14496 94.9085 3.94709 94.9085 3.74922Z" fill="black"/>
<path d="M96.5771 3.94706C96.5771 4.14493 96.5771 4.27684 96.6438 4.47471C96.7106 4.60663 96.7773 4.8045 96.8441 4.93641C96.9108 5.06832 97.0443 5.13428 97.2445 5.20023C97.378 5.26619 97.5783 5.33215 97.7785 5.33215C97.912 5.33215 98.0455 5.33215 98.1122 5.26619C98.2457 5.20023 98.3125 5.20023 98.3792 5.06832C98.4459 5.00236 98.5127 4.93641 98.5794 4.8045C98.6462 4.67258 98.7129 4.60663 98.7129 4.47471H99.1801C99.0467 4.87045 98.9132 5.20023 98.6462 5.3981C98.3792 5.59597 98.0455 5.66193 97.645 5.66193C97.378 5.66193 97.1778 5.59597 96.9775 5.53002C96.7773 5.3981 96.6438 5.26619 96.5103 5.13428C96.3768 4.93641 96.3101 4.73854 96.2434 4.54067C96.1766 4.3428 96.1766 4.07897 96.1766 3.8811C96.1766 3.61728 96.1766 3.41941 96.2434 3.22154C96.3101 3.02367 96.3768 2.8258 96.5103 2.62793C96.6438 2.43006 96.7773 2.29815 96.9775 2.23219C97.1778 2.10028 97.378 2.10028 97.645 2.10028C97.912 2.10028 98.179 2.16624 98.3792 2.23219C98.5794 2.29815 98.7129 2.49602 98.8464 2.62793C98.9799 2.8258 99.0466 3.02367 99.1134 3.22154C99.1801 3.48537 99.1801 3.68324 99.1801 3.94706H96.5771ZM98.7797 3.55132C98.7797 3.41941 98.7129 3.22154 98.7129 3.08963C98.6462 2.95771 98.5794 2.8258 98.5127 2.69389C98.4459 2.56198 98.3125 2.49602 98.179 2.43006C98.0455 2.36411 97.912 2.36411 97.7117 2.36411C97.5115 2.36411 97.378 2.36411 97.2445 2.43006C97.111 2.49602 96.9776 2.56198 96.9108 2.69389C96.8441 2.8258 96.7773 2.95771 96.7106 3.08963C96.6438 3.22154 96.6438 3.35345 96.5771 3.55132H98.7797Z" fill="black"/>
<path d="M100.515 5.53003H100.115V2.89177C100.115 2.75986 100.115 2.62795 100.115 2.49604C100.115 2.36412 100.115 2.23221 100.115 2.1003H100.515V2.62795C100.582 2.43008 100.715 2.29817 100.849 2.16625C100.982 2.03434 101.183 1.96838 101.449 1.96838C101.516 1.96838 101.583 1.96838 101.583 1.96838C101.65 1.96838 101.65 1.96838 101.716 1.96838V2.36412C101.65 2.36412 101.65 2.36412 101.583 2.36412C101.516 2.36412 101.516 2.36412 101.449 2.36412C101.116 2.36412 100.916 2.49604 100.715 2.6939C100.582 2.89177 100.448 3.1556 100.448 3.48538V5.53003H100.515Z" fill="black"/>
<path d="M102.651 2.49601H101.983V2.10027H102.651V1.37475L103.051 1.17688V2.10027H103.852V2.49601H103.051V4.80448C103.051 5.13427 103.185 5.26618 103.519 5.26618C103.585 5.26618 103.652 5.26618 103.719 5.26618C103.786 5.26618 103.852 5.26618 103.919 5.20022V5.53C103.852 5.53 103.786 5.53 103.719 5.59596C103.652 5.59596 103.585 5.59596 103.519 5.59596C103.318 5.59596 103.118 5.59596 102.985 5.53C102.851 5.46405 102.784 5.39809 102.718 5.26618C102.651 5.13427 102.651 5.06831 102.651 4.9364C102.651 4.80448 102.651 4.67257 102.651 4.60661V2.49601Z" fill="black"/>
<path d="M106.522 2.10028L107.657 5.00236L108.791 2.10028H109.259L107.79 5.53002H107.39L105.988 2.10028H106.522Z" fill="black"/>
<path d="M111.128 2.0343C111.395 2.0343 111.662 2.10026 111.862 2.16621C112.062 2.29813 112.262 2.43004 112.396 2.56195C112.529 2.75982 112.596 2.95769 112.663 3.15556C112.729 3.35343 112.729 3.61726 112.729 3.81513C112.729 4.013 112.729 4.27682 112.663 4.47469C112.596 4.67256 112.529 4.87043 112.396 5.0683C112.262 5.26617 112.062 5.39808 111.862 5.46404C111.662 5.59595 111.395 5.59595 111.128 5.59595C110.861 5.59595 110.594 5.52999 110.393 5.46404C110.193 5.33212 109.993 5.20021 109.859 5.0683C109.726 4.87043 109.592 4.67256 109.592 4.47469C109.526 4.27682 109.526 4.013 109.526 3.81513C109.526 3.61726 109.526 3.35343 109.592 3.15556C109.659 2.95769 109.726 2.75982 109.859 2.56195C109.993 2.36408 110.193 2.23217 110.393 2.16621C110.594 2.0343 110.794 2.0343 111.128 2.0343ZM112.262 3.81513C112.262 3.68321 112.262 3.48534 112.195 3.28747C112.129 3.0896 112.062 2.95769 111.995 2.82578C111.928 2.69387 111.795 2.56195 111.662 2.496C111.528 2.43004 111.328 2.36408 111.128 2.36408C110.927 2.36408 110.727 2.43004 110.594 2.496C110.46 2.56195 110.327 2.69387 110.26 2.82578C110.193 2.95769 110.126 3.0896 110.06 3.28747C109.993 3.48534 109.993 3.61726 109.993 3.81513C109.993 3.94704 109.993 4.14491 110.06 4.34278C110.126 4.54065 110.193 4.67256 110.26 4.80447C110.327 4.93639 110.46 5.0683 110.594 5.13425C110.727 5.20021 110.927 5.26617 111.128 5.26617C111.328 5.26617 111.528 5.20021 111.662 5.13425C111.795 5.0683 111.928 4.93639 111.995 4.80447C112.062 4.67256 112.129 4.54065 112.195 4.34278C112.262 4.14491 112.262 4.013 112.262 3.81513Z" fill="black"/>
<path d="M113.931 5.52999H113.53V2.89174C113.53 2.75982 113.53 2.62791 113.53 2.496C113.53 2.36408 113.53 2.23217 113.53 2.10026H113.931V2.62791C114.064 2.43004 114.198 2.23217 114.398 2.16621C114.598 2.0343 114.799 2.0343 114.999 2.0343C115.199 2.0343 115.332 2.0343 115.466 2.10026C115.599 2.16621 115.733 2.23217 115.8 2.29813C115.866 2.36408 115.933 2.496 116 2.56195C116.067 2.69387 116.067 2.75982 116.133 2.89174C116.133 3.02365 116.2 3.0896 116.2 3.22152C116.2 3.28747 116.2 3.41939 116.2 3.48534V5.66191H115.8V3.35343C115.8 3.02365 115.733 2.82578 115.533 2.62791C115.399 2.496 115.132 2.36408 114.865 2.36408C114.665 2.36408 114.532 2.36408 114.398 2.496C114.265 2.62791 114.198 2.62791 114.064 2.75982C113.998 2.89174 113.931 3.02365 113.864 3.15556C113.797 3.28747 113.797 3.41939 113.797 3.61726V5.52999H113.931Z" fill="black"/>
<path d="M121.54 5.06835C121.406 5.26622 121.206 5.39813 121.006 5.53005C120.806 5.66196 120.605 5.66196 120.338 5.66196C120.071 5.66196 119.871 5.596 119.671 5.53005C119.471 5.39813 119.337 5.26622 119.204 5.13431C119.07 4.93644 119.004 4.73857 118.937 4.5407C118.87 4.34283 118.87 4.079 118.87 3.88114C118.87 3.68327 118.87 3.41944 118.937 3.22157C119.004 3.0237 119.07 2.82583 119.204 2.62796C119.337 2.43009 119.471 2.29818 119.671 2.23222C119.871 2.10031 120.071 2.10031 120.338 2.10031C120.539 2.10031 120.806 2.16627 121.006 2.23222C121.206 2.36414 121.406 2.49605 121.54 2.69392V0.583313H121.94V4.73857C121.94 4.87048 121.94 5.0024 121.94 5.13431C121.94 5.26622 121.94 5.39813 121.94 5.53005H121.54V5.06835ZM121.54 3.74922C121.54 3.55135 121.54 3.41944 121.473 3.22157C121.406 3.08966 121.34 2.89179 121.273 2.75988C121.206 2.62796 121.073 2.56201 120.939 2.43009C120.806 2.36414 120.605 2.29818 120.405 2.29818C120.205 2.29818 120.071 2.36414 119.938 2.43009C119.804 2.49605 119.671 2.62796 119.604 2.75988C119.537 2.89179 119.471 3.0237 119.404 3.22157C119.337 3.35348 119.337 3.55135 119.337 3.68327C119.337 3.81518 119.337 4.01305 119.404 4.21092C119.404 4.40879 119.471 4.5407 119.537 4.67261C119.604 4.80453 119.738 4.93644 119.871 5.06835C120.005 5.13431 120.138 5.20026 120.338 5.20026C120.539 5.20026 120.739 5.13431 120.939 5.06835C121.073 5.0024 121.206 4.87048 121.273 4.73857C121.34 4.60666 121.406 4.40879 121.473 4.27687C121.54 4.14496 121.54 3.94709 121.54 3.74922Z" fill="black"/>
<path d="M123.208 3.94706C123.208 4.14493 123.208 4.27684 123.275 4.47471C123.342 4.60663 123.409 4.8045 123.475 4.93641C123.542 5.06832 123.676 5.13428 123.876 5.20023C124.009 5.26619 124.21 5.33215 124.41 5.33215C124.543 5.33215 124.677 5.33215 124.744 5.26619C124.877 5.20023 124.944 5.20023 125.011 5.06832C125.077 5.00236 125.144 4.93641 125.211 4.8045C125.278 4.67258 125.344 4.60663 125.344 4.47471H125.812C125.678 4.87045 125.545 5.20023 125.278 5.3981C125.011 5.59597 124.677 5.66193 124.276 5.66193C124.009 5.66193 123.809 5.59597 123.609 5.53002C123.409 5.3981 123.275 5.26619 123.142 5.13428C123.008 4.93641 122.941 4.73854 122.875 4.54067C122.808 4.3428 122.808 4.07897 122.808 3.8811C122.808 3.61728 122.808 3.41941 122.875 3.22154C122.941 3.02367 123.008 2.8258 123.142 2.62793C123.275 2.43006 123.409 2.29815 123.609 2.23219C123.809 2.10028 124.009 2.10028 124.276 2.10028C124.543 2.10028 124.81 2.16624 125.011 2.23219C125.211 2.29815 125.344 2.49602 125.478 2.62793C125.611 2.8258 125.678 3.02367 125.745 3.22154C125.812 3.48537 125.812 3.68324 125.812 3.94706H123.208ZM125.411 3.55132C125.411 3.41941 125.344 3.22154 125.344 3.08963C125.278 2.95771 125.211 2.8258 125.144 2.69389C125.077 2.56198 124.944 2.49602 124.81 2.43006C124.677 2.36411 124.543 2.36411 124.343 2.36411C124.143 2.36411 124.009 2.36411 123.876 2.43006C123.742 2.49602 123.609 2.56198 123.542 2.69389C123.475 2.8258 123.409 2.95771 123.342 3.08963C123.275 3.22154 123.275 3.35345 123.208 3.55132H125.411Z" fill="black"/>
<path d="M127.146 5.53003H126.746V2.89177C126.746 2.75986 126.746 2.62795 126.746 2.49604C126.746 2.36412 126.746 2.23221 126.746 2.1003H127.146V2.62795C127.213 2.43008 127.347 2.29817 127.48 2.16625C127.614 2.03434 127.814 1.96838 128.081 1.96838C128.148 1.96838 128.214 1.96838 128.214 1.96838C128.281 1.96838 128.281 1.96838 128.348 1.96838V2.36412C128.281 2.36412 128.281 2.36412 128.214 2.36412C128.148 2.36412 128.148 2.36412 128.081 2.36412C127.747 2.36412 127.547 2.49604 127.347 2.6939C127.213 2.89177 127.08 3.1556 127.08 3.48538V5.53003H127.146Z" fill="black"/>
</g>
<defs>
<clipPath id="clip0_185_301">
<rect width="128.351" height="45.8397" fill="white" transform="translate(0.063385 0.517334)"/>
</clipPath>
</defs>
</svg>
