<?xml version="1.0" encoding="utf-8" ?>
<!-- Generator: Adobe Illustrator 19.2.0, SVG Export Plug-In . SVG Version: 6.00 Build 0)  -->
<svg
  version="1.1"
  id="Layer_1"
  xmlns="http://www.w3.org/2000/svg"
  xmlns:xlink="http://www.w3.org/1999/xlink"
  x="0px"
  y="0px"
  viewBox="0 0 243 104"
  style="enable-background:new 0 0 243 104;"
  xml:space="preserve"
>
<style type="text/css">
	.st0{fill:transparent;}	
	.st1{fill:#FF0000;}
	.st2{fill:#FFCC00;}
</style>
<g id="Background">
	<rect y="0" class="st0" width="243" height="104" />
</g>
<g id="Name" transform="scale(1,-1) translate(0,-104)">
	<path
      d="M63.4,74v8.2H65c0.7,0,1.2-0.1,1.7-0.2c0.5-0.1,0.9-0.4,1.2-0.7c0.3-0.3,0.6-0.7,0.7-1.2c0.2-0.5,0.2-1.1,0.2-1.8
		c0-0.8-0.1-1.4-0.3-1.9c-0.2-0.5-0.5-1-0.8-1.3s-0.8-0.6-1.3-0.8c-0.5-0.2-1.1-0.2-1.7-0.2H63.4z M64.5,81.4v-6.5h0.4
		c0.5,0,0.9,0.1,1.3,0.2c0.4,0.1,0.7,0.3,0.9,0.6c0.3,0.3,0.4,0.6,0.6,1.1c0.1,0.4,0.2,1,0.2,1.6c0,0.6-0.1,1.1-0.2,1.5
		s-0.3,0.7-0.6,1c-0.2,0.2-0.5,0.4-0.9,0.5c-0.4,0.1-0.8,0.2-1.2,0.2H64.5z M71.2,74h-1v5.7h1V74z M70.7,81.1
		c-0.2,0-0.4,0.1-0.5,0.2c-0.1,0.1-0.2,0.3-0.2,0.5c0,0.2,0.1,0.4,0.2,0.5c0.1,0.1,0.3,0.2,0.5,0.2c0.2,0,0.3-0.1,0.5-0.2
		c0.1-0.1,0.2-0.3,0.2-0.5c0-0.2-0.1-0.4-0.2-0.5C71.1,81.2,70.9,81.1,70.7,81.1z M76.3,77.8c0-0.2,0-0.5,0-0.6c0-0.2,0-0.3,0-0.5
		h-2.9c0-0.7,0.2-1.2,0.4-1.5c0.3-0.3,0.6-0.5,1.1-0.5c0.2,0,0.3,0,0.5,0.1c0.1,0,0.3,0.1,0.4,0.1c0.1,0.1,0.2,0.1,0.2,0.2
		c0.1,0.1,0.1,0.1,0.1,0.1l0.4-0.7c0,0-0.1-0.1-0.2-0.2c-0.1-0.1-0.2-0.2-0.3-0.2c-0.1-0.1-0.3-0.1-0.5-0.2
		c-0.2-0.1-0.4-0.1-0.7-0.1c-0.4,0-0.7,0.1-1,0.2c-0.3,0.1-0.5,0.3-0.7,0.6c-0.2,0.2-0.4,0.6-0.5,1c-0.1,0.4-0.2,0.8-0.2,1.4
		c0,0.5,0.1,0.9,0.2,1.3c0.1,0.4,0.3,0.7,0.5,0.9c0.2,0.2,0.4,0.4,0.7,0.5c0.3,0.1,0.5,0.2,0.8,0.2c0.5,0,1-0.2,1.3-0.5
		C76.2,79,76.3,78.5,76.3,77.8z M74.5,79.1c-0.3,0-0.6-0.1-0.8-0.4s-0.3-0.7-0.4-1.2h2.1c0,0,0,0.1,0,0.2c0,0.1,0,0.2,0,0.2
		c0,0.4-0.1,0.7-0.2,0.9C75.1,79,74.8,79.1,74.5,79.1z M84.7,80.1c0-0.3,0-0.5-0.1-0.7c-0.1-0.2-0.2-0.4-0.3-0.6
		c-0.1-0.2-0.3-0.3-0.4-0.4c-0.2-0.1-0.3-0.2-0.5-0.2v0c0.2,0,0.4-0.1,0.6-0.2c0.2-0.1,0.3-0.2,0.5-0.4c0.1-0.2,0.2-0.4,0.3-0.6
		c0.1-0.2,0.1-0.5,0.1-0.7c0-0.3-0.1-0.6-0.2-0.9s-0.3-0.5-0.5-0.7c-0.2-0.2-0.5-0.4-0.9-0.5C82.9,74.1,82.5,74,82,74h-1.7v8.2h1.6
		c0.5,0,0.9,0,1.2-0.1c0.3-0.1,0.6-0.2,0.9-0.4s0.4-0.4,0.5-0.7C84.6,80.7,84.7,80.4,84.7,80.1z M83.6,80.1c0,0.4-0.1,0.7-0.4,0.9
		c-0.3,0.2-0.7,0.4-1.3,0.4h-0.5v-2.8h0.5c0.6,0,1,0.1,1.3,0.4C83.5,79.2,83.6,79.6,83.6,80.1z M83.8,76.3c0,0.4-0.1,0.8-0.4,1.1
		c-0.3,0.3-0.7,0.4-1.2,0.4h-0.7v-2.9H82c0.6,0,1.1,0.1,1.3,0.4C83.6,75.5,83.8,75.8,83.8,76.3z M89.8,77.8c0-0.2,0-0.5,0-0.6
		c0-0.2,0-0.3,0-0.5h-2.9c0-0.7,0.2-1.2,0.4-1.5c0.3-0.3,0.6-0.5,1.1-0.5c0.2,0,0.3,0,0.5,0.1c0.1,0,0.3,0.1,0.4,0.1
		c0.1,0.1,0.2,0.1,0.2,0.2c0.1,0.1,0.1,0.1,0.1,0.1l0.4-0.7c0,0-0.1-0.1-0.2-0.2c-0.1-0.1-0.2-0.2-0.3-0.2c-0.1-0.1-0.3-0.1-0.5-0.2
		c-0.2-0.1-0.4-0.1-0.7-0.1c-0.4,0-0.7,0.1-1,0.2c-0.3,0.1-0.5,0.3-0.7,0.6c-0.2,0.2-0.4,0.6-0.5,1c-0.1,0.4-0.2,0.8-0.2,1.4
		c0,0.5,0.1,0.9,0.2,1.3c0.1,0.4,0.3,0.7,0.5,0.9s0.4,0.4,0.7,0.5c0.3,0.1,0.5,0.2,0.8,0.2c0.5,0,1-0.2,1.3-0.5
		C89.7,79,89.8,78.5,89.8,77.8z M88,79.1c-0.3,0-0.6-0.1-0.8-0.4c-0.2-0.3-0.3-0.7-0.4-1.2h2.1c0,0,0,0.1,0,0.2c0,0.1,0,0.2,0,0.2
		c0,0.4-0.1,0.7-0.2,0.9C88.5,79,88.3,79.1,88,79.1z M90.8,75.5c0,0.3,0.1,0.6,0.2,0.8c0.1,0.2,0.3,0.4,0.5,0.5
		c0.2,0.1,0.5,0.2,0.8,0.3c0.3,0.1,0.6,0.1,0.9,0.1h0.3v0.5c0,0.5-0.1,0.8-0.3,1C93,78.9,92.8,79,92.5,79c-0.3,0-0.5-0.1-0.7-0.2
		c-0.2-0.1-0.3-0.2-0.5-0.3l-0.4,0.6c0.1,0.1,0.1,0.1,0.2,0.2c0.1,0.1,0.2,0.2,0.4,0.2c0.1,0.1,0.3,0.1,0.5,0.2
		c0.2,0,0.4,0.1,0.6,0.1c0.6,0,1-0.2,1.3-0.5c0.3-0.3,0.5-0.8,0.5-1.6v-2.6c0-0.2,0-0.5,0-0.7c0-0.2,0-0.4,0-0.5h-0.9l0,0.6h0
		c0-0.1-0.1-0.2-0.1-0.2c-0.1-0.1-0.1-0.2-0.2-0.2c-0.1-0.1-0.2-0.1-0.3-0.2c-0.1-0.1-0.3-0.1-0.5-0.1c-0.2,0-0.4,0-0.6,0.1
		c-0.2,0.1-0.3,0.2-0.5,0.3c-0.1,0.1-0.2,0.3-0.3,0.5C90.8,75,90.8,75.2,90.8,75.5z M92.5,74.7c0.1,0,0.3,0,0.4,0.1
		c0.1,0,0.2,0.1,0.3,0.1c0.1,0.1,0.1,0.1,0.2,0.2c0.1,0.1,0.1,0.1,0.1,0.2v1.3l-0.3,0c-0.5,0-0.8-0.1-1-0.2
		c-0.2-0.1-0.4-0.4-0.4-0.7c0-0.3,0.1-0.5,0.2-0.7C92.1,74.8,92.2,74.7,92.5,74.7z M99.8,74H99v0.6h0c0,0-0.1-0.1-0.2-0.2
		c-0.1-0.1-0.2-0.2-0.3-0.3C98.4,74.1,98.2,74,98,74s-0.4-0.1-0.6-0.1c-0.3,0-0.5,0-0.7,0.1c-0.2,0.1-0.4,0.2-0.5,0.4
		c-0.1,0.2-0.3,0.4-0.3,0.6c-0.1,0.3-0.1,0.6-0.1,1v3.7h1V76c0-0.5,0.1-0.8,0.2-1c0.2-0.2,0.4-0.3,0.7-0.3c0.3,0,0.5,0.1,0.7,0.2
		c0.2,0.1,0.3,0.3,0.5,0.4v4.4h1V74z M103.7,78.9h-1.2V74h-1v4.9h-0.7v0.6l0.7,0.1v1.1c0,0.3,0,0.6,0.1,0.8c0.1,0.2,0.2,0.4,0.3,0.5
		s0.3,0.2,0.5,0.3s0.4,0.1,0.6,0.1c0.2,0,0.4,0,0.5-0.1c0.1-0.1,0.2-0.1,0.3-0.1l-0.2-0.8c0,0-0.1,0.1-0.2,0.1
		c-0.1,0-0.2,0.1-0.3,0.1c-0.2,0-0.4-0.1-0.5-0.2c-0.1-0.1-0.2-0.4-0.2-0.8v-1h1.3L103.7,78.9z M107.1,78.9h-1.2v-3.2
		c0-0.4,0.1-0.7,0.2-0.8c0.1-0.1,0.3-0.2,0.5-0.2c0.1,0,0.3,0,0.4,0.1c0.1,0,0.2,0.1,0.2,0.1l0.1-0.8c0,0-0.1-0.1-0.3-0.1
		c-0.2-0.1-0.4-0.1-0.6-0.1c-0.5,0-0.9,0.1-1.1,0.4c-0.2,0.3-0.4,0.7-0.4,1.4v3.3h-0.7v0.6l0.7,0.1l0.1,1.6h0.9v-1.6h1.4L107.1,78.9
		z M110.7,78.9c0,0-0.1,0-0.2,0.1c-0.1,0-0.2,0-0.3,0c-0.3,0-0.5-0.1-0.7-0.2c-0.2-0.2-0.3-0.3-0.4-0.5V74h-1v5.7h0.9v-0.8h0
		c0,0.1,0.1,0.2,0.2,0.3s0.1,0.2,0.2,0.3s0.2,0.1,0.3,0.2c0.1,0,0.3,0.1,0.5,0.1c0.1,0,0.2,0,0.3,0c0.1,0,0.1,0,0.2-0.1L110.7,78.9z
		 M111.3,75.5c0,0.3,0.1,0.6,0.2,0.8s0.3,0.4,0.5,0.5c0.2,0.1,0.5,0.2,0.8,0.3c0.3,0.1,0.6,0.1,0.9,0.1h0.3v0.5c0,0.5-0.1,0.8-0.3,1
		c-0.2,0.2-0.4,0.3-0.7,0.3c-0.3,0-0.5-0.1-0.7-0.2c-0.2-0.1-0.3-0.2-0.5-0.3l-0.4,0.6c0.1,0.1,0.1,0.1,0.2,0.2
		c0.1,0.1,0.2,0.2,0.4,0.2c0.1,0.1,0.3,0.1,0.5,0.2s0.4,0.1,0.6,0.1c0.6,0,1-0.2,1.3-0.5c0.3-0.3,0.5-0.8,0.5-1.6v-2.6
		c0-0.2,0-0.5,0-0.7c0-0.2,0-0.4,0-0.5h-0.9l0,0.6h0c0-0.1-0.1-0.2-0.1-0.2c-0.1-0.1-0.1-0.2-0.2-0.2c-0.1-0.1-0.2-0.1-0.3-0.2
		c-0.1-0.1-0.3-0.1-0.5-0.1c-0.2,0-0.4,0-0.6,0.1c-0.2,0.1-0.3,0.2-0.5,0.3c-0.1,0.1-0.2,0.3-0.3,0.5
		C111.3,75,111.3,75.2,111.3,75.5z M113,74.7c0.1,0,0.3,0,0.4,0.1c0.1,0,0.2,0.1,0.3,0.1c0.1,0.1,0.1,0.1,0.2,0.2
		c0.1,0.1,0.1,0.1,0.1,0.2v1.3l-0.3,0c-0.5,0-0.8-0.1-1-0.2s-0.4-0.4-0.4-0.7c0-0.3,0.1-0.5,0.2-0.7C112.6,74.8,112.8,74.7,113,74.7
		z M120.5,79h-0.7c0.2-0.3,0.3-0.6,0.3-1c0-0.3,0-0.6-0.1-0.8c-0.1-0.2-0.2-0.4-0.4-0.6c-0.2-0.2-0.4-0.3-0.6-0.4
		c-0.2-0.1-0.5-0.1-0.8-0.1c-0.1,0-0.1,0-0.2,0s-0.1,0-0.2,0c-0.1,0-0.2-0.1-0.3-0.2c-0.1-0.1-0.2-0.2-0.2-0.3c0-0.1,0-0.2,0.1-0.3
		c0.1-0.1,0.2-0.1,0.4-0.1h0.7c0.3,0,0.5,0,0.7-0.1c0.2-0.1,0.4-0.1,0.6-0.3c0.2-0.1,0.3-0.3,0.4-0.5s0.1-0.4,0.1-0.7
		c0-0.3-0.1-0.6-0.2-0.8c-0.1-0.3-0.3-0.5-0.6-0.7c-0.2-0.2-0.5-0.3-0.9-0.4c-0.3-0.1-0.7-0.2-1.1-0.2c-0.6,0-1.1,0.1-1.4,0.4
		c-0.3,0.3-0.5,0.6-0.5,1.1c0,0.2,0,0.4,0.1,0.6c0.1,0.2,0.2,0.3,0.3,0.4c0.1,0.1,0.2,0.2,0.3,0.3c0.1,0.1,0.2,0.1,0.3,0.2v0
		c-0.2,0.2-0.4,0.4-0.4,0.8c0,0.2,0,0.3,0.1,0.4c0.1,0.1,0.1,0.2,0.2,0.3c0.1,0.1,0.2,0.1,0.2,0.2c0.1,0,0.1,0.1,0.2,0.1v0
		c-0.3,0.1-0.5,0.3-0.7,0.6c-0.2,0.3-0.3,0.7-0.3,1.1c0,0.3,0.1,0.6,0.2,0.8c0.1,0.2,0.2,0.4,0.4,0.6s0.4,0.3,0.6,0.4
		c0.2,0.1,0.5,0.1,0.8,0.1s0.5,0,0.8-0.1h1.7L120.5,79z M117.8,74.2c-0.2,0-0.3,0-0.4,0c-0.1,0-0.1-0.1-0.2-0.1
		c-0.1-0.1-0.1-0.1-0.2-0.2c-0.1-0.1-0.1-0.2-0.1-0.3c0-0.1-0.1-0.2-0.1-0.4c0-0.6,0.3-0.9,1-0.9c0.6,0,1,0.1,1.3,0.3
		c0.3,0.2,0.4,0.5,0.4,0.8c0,0.3-0.1,0.5-0.3,0.6c-0.2,0.1-0.4,0.2-0.7,0.2H117.8z M119.1,77.9c0,0.4-0.1,0.7-0.3,0.9
		c-0.2,0.2-0.4,0.3-0.7,0.3c-0.3,0-0.5-0.1-0.7-0.3c-0.2-0.2-0.3-0.5-0.3-0.9c0-0.4,0.1-0.7,0.3-0.9c0.2-0.2,0.4-0.3,0.7-0.3
		c0.3,0,0.5,0.1,0.7,0.3C119,77.2,119.1,77.5,119.1,77.9z M124,78.9h-1.2v-3.2c0-0.4,0.1-0.7,0.2-0.8c0.1-0.1,0.3-0.2,0.5-0.2
		c0.1,0,0.3,0,0.4,0.1c0.1,0,0.2,0.1,0.2,0.1l0.1-0.8c0,0-0.1-0.1-0.3-0.1c-0.2-0.1-0.4-0.1-0.6-0.1c-0.5,0-0.9,0.1-1.1,0.4
		c-0.2,0.3-0.4,0.7-0.4,1.4v3.3h-0.7v0.6l0.7,0.1l0.1,1.6h0.9v-1.6h1.4L124,78.9z M128.7,77.8c0-0.2,0-0.5,0-0.6c0-0.2,0-0.3,0-0.5
		h-2.9c0-0.7,0.2-1.2,0.4-1.5c0.3-0.3,0.6-0.5,1.1-0.5c0.2,0,0.3,0,0.5,0.1c0.1,0,0.3,0.1,0.4,0.1c0.1,0.1,0.2,0.1,0.2,0.2
		c0.1,0.1,0.1,0.1,0.1,0.1l0.4-0.7c0,0-0.1-0.1-0.2-0.2c-0.1-0.1-0.2-0.2-0.3-0.2c-0.1-0.1-0.3-0.1-0.5-0.2
		c-0.2-0.1-0.4-0.1-0.7-0.1c-0.4,0-0.7,0.1-1,0.2c-0.3,0.1-0.5,0.3-0.7,0.6c-0.2,0.2-0.4,0.6-0.5,1c-0.1,0.4-0.2,0.8-0.2,1.4
		c0,0.5,0.1,0.9,0.2,1.3c0.1,0.4,0.3,0.7,0.5,0.9s0.4,0.4,0.7,0.5c0.3,0.1,0.5,0.2,0.8,0.2c0.5,0,1-0.2,1.3-0.5
		C128.5,79,128.7,78.5,128.7,77.8z M126.9,79.1c-0.3,0-0.6-0.1-0.8-0.4c-0.2-0.3-0.3-0.7-0.4-1.2h2.1c0,0,0,0.1,0,0.2
		c0,0.1,0,0.2,0,0.2c0,0.4-0.1,0.7-0.2,0.9C127.4,79,127.2,79.1,126.9,79.1z M132.2,76.8c0,0.6,0.1,1.1,0.2,1.5
		c0.2,0.4,0.3,0.7,0.6,0.9c0.2,0.2,0.5,0.4,0.8,0.5c0.3,0.1,0.6,0.1,0.9,0.1c0.2,0,0.3,0,0.5,0c0.1,0,0.2-0.1,0.3-0.1v2.7l1,0.1V74
		h-0.9v0.6h0c0,0-0.1-0.1-0.1-0.2c-0.1-0.1-0.2-0.2-0.3-0.2c-0.1-0.1-0.2-0.2-0.4-0.2c-0.2-0.1-0.4-0.1-0.6-0.1
		c-0.3,0-0.5,0.1-0.8,0.2c-0.2,0.1-0.5,0.3-0.6,0.5c-0.2,0.2-0.3,0.5-0.4,0.9C132.3,75.8,132.2,76.2,132.2,76.8z M134.5,74.7
		c0.2,0,0.3,0,0.4,0.1c0.1,0,0.2,0.1,0.3,0.1c0.1,0.1,0.2,0.1,0.2,0.2c0.1,0.1,0.1,0.1,0.1,0.2v3.5c-0.1,0.1-0.2,0.1-0.3,0.1
		c-0.1,0-0.3,0.1-0.4,0.1c-0.2,0-0.4,0-0.6-0.1c-0.2-0.1-0.4-0.2-0.5-0.4c-0.1-0.2-0.3-0.4-0.3-0.7c-0.1-0.3-0.1-0.6-0.1-1
		c0-0.4,0-0.7,0.1-1c0.1-0.3,0.2-0.5,0.3-0.6c0.1-0.2,0.3-0.3,0.4-0.4C134.1,74.7,134.3,74.7,134.5,74.7z M141.6,77.8
		c0-0.2,0-0.5,0-0.6c0-0.2,0-0.3,0-0.5h-2.9c0-0.7,0.2-1.2,0.4-1.5c0.3-0.3,0.6-0.5,1.1-0.5c0.2,0,0.3,0,0.5,0.1
		c0.1,0,0.3,0.1,0.4,0.1c0.1,0.1,0.2,0.1,0.2,0.2c0.1,0.1,0.1,0.1,0.1,0.1l0.4-0.7c0,0-0.1-0.1-0.2-0.2c-0.1-0.1-0.2-0.2-0.3-0.2
		c-0.1-0.1-0.3-0.1-0.5-0.2c-0.2-0.1-0.4-0.1-0.7-0.1c-0.4,0-0.7,0.1-1,0.2c-0.3,0.1-0.5,0.3-0.7,0.6c-0.2,0.2-0.4,0.6-0.5,1
		c-0.1,0.4-0.2,0.8-0.2,1.4c0,0.5,0.1,0.9,0.2,1.3c0.1,0.4,0.3,0.7,0.5,0.9s0.4,0.4,0.7,0.5c0.3,0.1,0.5,0.2,0.8,0.2
		c0.5,0,1-0.2,1.3-0.5C141.5,79,141.6,78.5,141.6,77.8z M139.8,79.1c-0.3,0-0.6-0.1-0.8-0.4s-0.3-0.7-0.4-1.2h2.1c0,0,0,0.1,0,0.2
		c0,0.1,0,0.2,0,0.2c0,0.4-0.1,0.7-0.2,0.9C140.4,79,140.1,79.1,139.8,79.1z M145.4,78.9c0,0-0.1,0-0.2,0.1c-0.1,0-0.2,0-0.3,0
		c-0.3,0-0.5-0.1-0.7-0.2c-0.2-0.2-0.3-0.3-0.4-0.5V74h-1v5.7h0.9v-0.8h0c0,0.1,0.1,0.2,0.2,0.3c0.1,0.1,0.1,0.2,0.2,0.3
		s0.2,0.1,0.3,0.2c0.1,0,0.3,0.1,0.5,0.1c0.1,0,0.2,0,0.3,0c0.1,0,0.1,0,0.2-0.1L145.4,78.9z M153.2,80.1c0-0.3,0-0.5-0.1-0.7
		c-0.1-0.2-0.2-0.4-0.3-0.6c-0.1-0.2-0.3-0.3-0.4-0.4c-0.2-0.1-0.3-0.2-0.5-0.2v0c0.2,0,0.4-0.1,0.6-0.2c0.2-0.1,0.3-0.2,0.5-0.4
		c0.1-0.2,0.2-0.4,0.3-0.6c0.1-0.2,0.1-0.5,0.1-0.7c0-0.3-0.1-0.6-0.2-0.9s-0.3-0.5-0.5-0.7c-0.2-0.2-0.5-0.4-0.9-0.5
		c-0.4-0.1-0.8-0.2-1.3-0.2h-1.7v8.2h1.6c0.5,0,0.9,0,1.2-0.1c0.3-0.1,0.6-0.2,0.9-0.4c0.2-0.2,0.4-0.4,0.5-0.7
		C153.1,80.7,153.2,80.4,153.2,80.1z M152.1,80.1c0,0.4-0.1,0.7-0.4,0.9c-0.3,0.2-0.7,0.4-1.3,0.4h-0.5v-2.8h0.5
		c0.6,0,1,0.1,1.3,0.4C152,79.2,152.1,79.6,152.1,80.1z M152.3,76.3c0,0.4-0.1,0.8-0.4,1.1c-0.3,0.3-0.7,0.4-1.2,0.4h-0.7v-2.9h0.6
		c0.6,0,1.1,0.1,1.3,0.4C152.1,75.5,152.3,75.8,152.3,76.3z M158.6,74h-0.9v0.6h0c0,0-0.1-0.1-0.2-0.2c-0.1-0.1-0.2-0.2-0.3-0.3
		c-0.1-0.1-0.3-0.2-0.4-0.2s-0.4-0.1-0.6-0.1c-0.3,0-0.5,0-0.7,0.1c-0.2,0.1-0.4,0.2-0.5,0.4c-0.1,0.2-0.3,0.4-0.3,0.6
		c-0.1,0.3-0.1,0.6-0.1,1v3.7h1V76c0-0.5,0.1-0.8,0.2-1c0.2-0.2,0.4-0.3,0.7-0.3c0.3,0,0.5,0.1,0.7,0.2c0.2,0.1,0.3,0.3,0.5,0.4v4.4
		h1V74z M163.2,74v3.7c0,0.5-0.1,0.8-0.2,1c-0.2,0.2-0.4,0.3-0.7,0.3c-0.3,0-0.5-0.1-0.7-0.2c-0.2-0.1-0.3-0.3-0.5-0.4V74h-1v5.7
		h0.9v-0.6h0c0,0,0.1,0.1,0.2,0.2c0.1,0.1,0.2,0.2,0.3,0.3c0.1,0.1,0.3,0.2,0.5,0.2s0.4,0.1,0.6,0.1c0.3,0,0.5,0,0.7-0.1
		c0.2-0.1,0.4-0.2,0.5-0.4c0.1-0.2,0.3-0.4,0.3-0.6c0.1-0.3,0.1-0.6,0.1-1V74H163.2z M165.4,76.8c0,0.6,0.1,1.1,0.2,1.5
		c0.2,0.4,0.3,0.7,0.6,0.9c0.2,0.2,0.5,0.4,0.8,0.5c0.3,0.1,0.6,0.1,0.9,0.1c0.2,0,0.3,0,0.5,0c0.1,0,0.2-0.1,0.3-0.1v2.7l1,0.1V74
		h-0.9v0.6h0c0,0-0.1-0.1-0.1-0.2c-0.1-0.1-0.2-0.2-0.3-0.2c-0.1-0.1-0.2-0.2-0.4-0.2c-0.2-0.1-0.4-0.1-0.6-0.1
		c-0.3,0-0.5,0.1-0.8,0.2c-0.2,0.1-0.5,0.3-0.6,0.5c-0.2,0.2-0.3,0.5-0.4,0.9C165.4,75.8,165.4,76.2,165.4,76.8z M167.6,74.7
		c0.2,0,0.3,0,0.4,0.1c0.1,0,0.2,0.1,0.3,0.1c0.1,0.1,0.2,0.1,0.2,0.2c0.1,0.1,0.1,0.1,0.1,0.2v3.5c-0.1,0.1-0.2,0.1-0.3,0.1
		c-0.1,0-0.3,0.1-0.4,0.1c-0.2,0-0.4,0-0.6-0.1c-0.2-0.1-0.4-0.2-0.5-0.4c-0.1-0.2-0.3-0.4-0.3-0.7c-0.1-0.3-0.1-0.6-0.1-1
		c0-0.4,0-0.7,0.1-1c0.1-0.3,0.2-0.5,0.3-0.6c0.1-0.2,0.3-0.3,0.4-0.4C167.3,74.7,167.5,74.7,167.6,74.7z M174.8,77.8
		c0-0.2,0-0.5,0-0.6c0-0.2,0-0.3,0-0.5h-2.9c0-0.7,0.2-1.2,0.4-1.5c0.3-0.3,0.6-0.5,1.1-0.5c0.2,0,0.3,0,0.5,0.1
		c0.1,0,0.3,0.1,0.4,0.1c0.1,0.1,0.2,0.1,0.2,0.2c0.1,0.1,0.1,0.1,0.1,0.1l0.4-0.7c0,0-0.1-0.1-0.2-0.2c-0.1-0.1-0.2-0.2-0.3-0.2
		c-0.1-0.1-0.3-0.1-0.5-0.2c-0.2-0.1-0.4-0.1-0.7-0.1c-0.4,0-0.7,0.1-1,0.2c-0.3,0.1-0.5,0.3-0.7,0.6c-0.2,0.2-0.4,0.6-0.5,1
		c-0.1,0.4-0.2,0.8-0.2,1.4c0,0.5,0.1,0.9,0.2,1.3c0.1,0.4,0.3,0.7,0.5,0.9s0.4,0.4,0.7,0.5c0.3,0.1,0.5,0.2,0.8,0.2
		c0.5,0,1-0.2,1.3-0.5C174.7,79,174.8,78.5,174.8,77.8z M173,79.1c-0.3,0-0.6-0.1-0.8-0.4s-0.3-0.7-0.4-1.2h2.1c0,0,0,0.1,0,0.2
		c0,0.1,0,0.2,0,0.2c0,0.4-0.1,0.7-0.2,0.9C173.5,79,173.3,79.1,173,79.1z M178.6,78.6c-0.1,0.1-0.2,0.2-0.3,0.3
		c-0.2,0.1-0.4,0.2-0.7,0.2c-0.3,0-0.4-0.1-0.6-0.2c-0.1-0.1-0.2-0.3-0.2-0.4c0-0.2,0.1-0.4,0.2-0.5c0.1-0.1,0.3-0.3,0.6-0.4
		l0.4-0.2c0.4-0.2,0.7-0.5,0.9-0.7c0.2-0.3,0.3-0.6,0.3-1c0-0.5-0.2-0.8-0.5-1.1c-0.3-0.3-0.8-0.5-1.4-0.5c-0.2,0-0.4,0-0.6,0.1
		s-0.3,0.1-0.5,0.2c-0.1,0.1-0.2,0.1-0.3,0.2c-0.1,0.1-0.2,0.1-0.2,0.2l0.5,0.8c0,0,0.1-0.1,0.2-0.2c0.1-0.1,0.1-0.1,0.2-0.2
		c0.1-0.1,0.2-0.1,0.3-0.1c0.1,0,0.3-0.1,0.4-0.1c0.3,0,0.5,0.1,0.7,0.2c0.2,0.1,0.2,0.3,0.2,0.5c0,0.1,0,0.3-0.1,0.4
		c0,0.1-0.1,0.2-0.2,0.3s-0.2,0.2-0.3,0.2c-0.1,0.1-0.2,0.2-0.4,0.2l-0.4,0.2c-0.4,0.2-0.6,0.5-0.8,0.7c-0.2,0.3-0.3,0.6-0.3,1
		c0,0.2,0,0.4,0.1,0.6c0.1,0.2,0.2,0.3,0.4,0.5c0.2,0.1,0.3,0.2,0.5,0.3c0.2,0.1,0.4,0.1,0.6,0.1c0.2,0,0.4,0,0.6-0.1
		c0.2,0,0.3-0.1,0.4-0.2c0.1-0.1,0.2-0.1,0.3-0.2c0.1-0.1,0.1-0.1,0.2-0.2L178.6,78.6z M182.8,78.9c0,0-0.1,0-0.2,0.1
		c-0.1,0-0.2,0-0.3,0c-0.3,0-0.5-0.1-0.7-0.2c-0.2-0.2-0.3-0.3-0.4-0.5V74h-1v5.7h0.9v-0.8h0c0,0.1,0.1,0.2,0.2,0.3
		c0.1,0.1,0.1,0.2,0.2,0.3s0.2,0.1,0.3,0.2c0.1,0,0.3,0.1,0.5,0.1c0.1,0,0.2,0,0.3,0c0.1,0,0.1,0,0.2-0.1L182.8,78.9z M187.2,77.8
		c0-0.2,0-0.5,0-0.6c0-0.2,0-0.3,0-0.5h-2.9c0-0.7,0.2-1.2,0.4-1.5c0.3-0.3,0.6-0.5,1.1-0.5c0.2,0,0.3,0,0.5,0.1
		c0.1,0,0.3,0.1,0.4,0.1c0.1,0.1,0.2,0.1,0.2,0.2c0.1,0.1,0.1,0.1,0.1,0.1l0.4-0.7c0,0-0.1-0.1-0.2-0.2c-0.1-0.1-0.2-0.2-0.3-0.2
		c-0.1-0.1-0.3-0.1-0.5-0.2c-0.2-0.1-0.4-0.1-0.7-0.1c-0.4,0-0.7,0.1-1,0.2c-0.3,0.1-0.5,0.3-0.7,0.6c-0.2,0.2-0.4,0.6-0.5,1
		c-0.1,0.4-0.2,0.8-0.2,1.4c0,0.5,0.1,0.9,0.2,1.3c0.1,0.4,0.3,0.7,0.5,0.9s0.4,0.4,0.7,0.5c0.3,0.1,0.5,0.2,0.8,0.2
		c0.5,0,1-0.2,1.3-0.5C187.1,79,187.2,78.5,187.2,77.8z M185.4,79.1c-0.3,0-0.6-0.1-0.8-0.4s-0.3-0.7-0.4-1.2h2.1c0,0,0,0.1,0,0.2
		c0,0.1,0,0.2,0,0.2c0,0.4-0.1,0.7-0.2,0.9C186,79,185.7,79.1,185.4,79.1z M192.6,79h-0.7c0.2-0.3,0.3-0.6,0.3-1
		c0-0.3,0-0.6-0.1-0.8c-0.1-0.2-0.2-0.4-0.4-0.6c-0.2-0.2-0.4-0.3-0.6-0.4c-0.2-0.1-0.5-0.1-0.8-0.1c-0.1,0-0.1,0-0.2,0
		c0,0-0.1,0-0.2,0c-0.1,0-0.2-0.1-0.3-0.2c-0.1-0.1-0.2-0.2-0.2-0.3c0-0.1,0-0.2,0.1-0.3c0.1-0.1,0.2-0.1,0.4-0.1h0.7
		c0.3,0,0.5,0,0.7-0.1c0.2-0.1,0.4-0.1,0.6-0.3c0.2-0.1,0.3-0.3,0.4-0.5c0.1-0.2,0.1-0.4,0.1-0.7c0-0.3-0.1-0.6-0.2-0.8
		c-0.1-0.3-0.3-0.5-0.6-0.7c-0.2-0.2-0.5-0.3-0.9-0.4c-0.3-0.1-0.7-0.2-1.1-0.2c-0.6,0-1.1,0.1-1.4,0.4c-0.3,0.3-0.5,0.6-0.5,1.1
		c0,0.2,0,0.4,0.1,0.6c0.1,0.2,0.2,0.3,0.3,0.4c0.1,0.1,0.2,0.2,0.3,0.3c0.1,0.1,0.2,0.1,0.3,0.2v0c-0.2,0.2-0.4,0.4-0.4,0.8
		c0,0.2,0,0.3,0.1,0.4c0.1,0.1,0.1,0.2,0.2,0.3c0.1,0.1,0.2,0.1,0.2,0.2c0.1,0,0.1,0.1,0.2,0.1v0c-0.3,0.1-0.5,0.3-0.7,0.6
		c-0.2,0.3-0.3,0.7-0.3,1.1c0,0.3,0.1,0.6,0.2,0.8c0.1,0.2,0.2,0.4,0.4,0.6c0.2,0.2,0.4,0.3,0.6,0.4c0.2,0.1,0.5,0.1,0.8,0.1
		c0.3,0,0.5,0,0.8-0.1h1.7L192.6,79z M190,74.2c-0.2,0-0.3,0-0.4,0c-0.1,0-0.1-0.1-0.2-0.1c-0.1-0.1-0.1-0.1-0.2-0.2
		s-0.1-0.2-0.1-0.3c0-0.1-0.1-0.2-0.1-0.4c0-0.6,0.3-0.9,1-0.9c0.6,0,1,0.1,1.3,0.3c0.3,0.2,0.4,0.5,0.4,0.8c0,0.3-0.1,0.5-0.3,0.6
		c-0.2,0.1-0.4,0.2-0.7,0.2H190z M191.2,77.9c0,0.4-0.1,0.7-0.3,0.9c-0.2,0.2-0.4,0.3-0.7,0.3c-0.3,0-0.5-0.1-0.7-0.3
		c-0.2-0.2-0.3-0.5-0.3-0.9c0-0.4,0.1-0.7,0.3-0.9c0.2-0.2,0.4-0.3,0.7-0.3c0.3,0,0.5,0.1,0.7,0.3C191.1,77.2,191.2,77.5,191.2,77.9
		z M194.7,74h-1v5.7h1V74z M194.2,81.1c-0.2,0-0.4,0.1-0.5,0.2s-0.2,0.3-0.2,0.5c0,0.2,0.1,0.4,0.2,0.5s0.3,0.2,0.5,0.2
		c0.2,0,0.3-0.1,0.5-0.2c0.1-0.1,0.2-0.3,0.2-0.5c0-0.2-0.1-0.4-0.2-0.5C194.6,81.2,194.4,81.1,194.2,81.1z M199.8,77.8
		c0-0.2,0-0.5,0-0.6c0-0.2,0-0.3,0-0.5h-2.9c0-0.7,0.2-1.2,0.4-1.5c0.3-0.3,0.6-0.5,1.1-0.5c0.2,0,0.3,0,0.5,0.1
		c0.1,0,0.3,0.1,0.4,0.1c0.1,0.1,0.2,0.1,0.2,0.2c0.1,0.1,0.1,0.1,0.1,0.1l0.4-0.7c0,0-0.1-0.1-0.2-0.2c-0.1-0.1-0.2-0.2-0.3-0.2
		c-0.1-0.1-0.3-0.1-0.5-0.2c-0.2-0.1-0.4-0.1-0.7-0.1c-0.4,0-0.7,0.1-1,0.2c-0.3,0.1-0.5,0.3-0.7,0.6c-0.2,0.2-0.4,0.6-0.5,1
		c-0.1,0.4-0.2,0.8-0.2,1.4c0,0.5,0.1,0.9,0.2,1.3c0.1,0.4,0.3,0.7,0.5,0.9c0.2,0.2,0.4,0.4,0.7,0.5c0.3,0.1,0.5,0.2,0.8,0.2
		c0.5,0,1-0.2,1.3-0.5C199.7,79,199.8,78.5,199.8,77.8z M198,79.1c-0.3,0-0.6-0.1-0.8-0.4s-0.3-0.7-0.4-1.2h2.1c0,0,0,0.1,0,0.2
		c0,0.1,0,0.2,0,0.2c0,0.4-0.1,0.7-0.2,0.9C198.5,79,198.3,79.1,198,79.1z M203.6,78.9c0,0-0.1,0-0.2,0.1c-0.1,0-0.2,0-0.3,0
		c-0.3,0-0.5-0.1-0.7-0.2c-0.2-0.2-0.3-0.3-0.4-0.5V74h-1v5.7h0.9v-0.8h0c0,0.1,0.1,0.2,0.2,0.3c0.1,0.1,0.1,0.2,0.2,0.3
		s0.2,0.1,0.3,0.2c0.1,0,0.3,0.1,0.5,0.1c0.1,0,0.2,0,0.3,0c0.1,0,0.1,0,0.2-0.1L203.6,78.9z M208.6,74h-0.9v0.6h0
		c0,0-0.1-0.1-0.2-0.2c-0.1-0.1-0.2-0.2-0.3-0.3c-0.1-0.1-0.3-0.2-0.4-0.2s-0.4-0.1-0.6-0.1c-0.3,0-0.5,0-0.7,0.1
		c-0.2,0.1-0.4,0.2-0.5,0.4c-0.1,0.2-0.3,0.4-0.3,0.6c-0.1,0.3-0.1,0.6-0.1,1v3.7h1V76c0-0.5,0.1-0.8,0.2-1c0.2-0.2,0.4-0.3,0.7-0.3
		c0.3,0,0.5,0.1,0.7,0.2c0.2,0.1,0.3,0.3,0.5,0.4v4.4h1V74z M213.2,74v3.7c0,0.5-0.1,0.8-0.2,1c-0.2,0.2-0.4,0.3-0.7,0.3
		c-0.3,0-0.5-0.1-0.7-0.2c-0.2-0.1-0.3-0.3-0.5-0.4V74h-1v5.7h0.9v-0.6h0c0,0,0.1,0.1,0.2,0.2c0.1,0.1,0.2,0.2,0.3,0.3
		c0.1,0.1,0.3,0.2,0.5,0.2s0.4,0.1,0.6,0.1c0.3,0,0.5,0,0.7-0.1c0.2-0.1,0.4-0.2,0.5-0.4c0.1-0.2,0.3-0.4,0.3-0.6
		c0.1-0.3,0.1-0.6,0.1-1V74H213.2z M219.7,79h-0.7c0.2-0.3,0.3-0.6,0.3-1c0-0.3,0-0.6-0.1-0.8c-0.1-0.2-0.2-0.4-0.4-0.6
		c-0.2-0.2-0.4-0.3-0.6-0.4c-0.2-0.1-0.5-0.1-0.8-0.1c-0.1,0-0.1,0-0.2,0c0,0-0.1,0-0.2,0c-0.1,0-0.2-0.1-0.3-0.2
		c-0.1-0.1-0.2-0.2-0.2-0.3c0-0.1,0-0.2,0.1-0.3c0.1-0.1,0.2-0.1,0.4-0.1h0.7c0.3,0,0.5,0,0.7-0.1c0.2-0.1,0.4-0.1,0.6-0.3
		c0.2-0.1,0.3-0.3,0.4-0.5s0.1-0.4,0.1-0.7c0-0.3-0.1-0.6-0.2-0.8s-0.3-0.5-0.6-0.7c-0.2-0.2-0.5-0.3-0.9-0.4
		c-0.3-0.1-0.7-0.2-1.1-0.2c-0.6,0-1.1,0.1-1.4,0.4c-0.3,0.3-0.5,0.6-0.5,1.1c0,0.2,0,0.4,0.1,0.6c0.1,0.2,0.2,0.3,0.3,0.4
		c0.1,0.1,0.2,0.2,0.3,0.3c0.1,0.1,0.2,0.1,0.3,0.2v0c-0.2,0.2-0.4,0.4-0.4,0.8c0,0.2,0,0.3,0.1,0.4c0.1,0.1,0.1,0.2,0.2,0.3
		c0.1,0.1,0.2,0.1,0.2,0.2c0.1,0,0.1,0.1,0.2,0.1v0c-0.3,0.1-0.5,0.3-0.7,0.6c-0.2,0.3-0.3,0.7-0.3,1.1c0,0.3,0.1,0.6,0.2,0.8
		c0.1,0.2,0.2,0.4,0.4,0.6s0.4,0.3,0.6,0.4c0.2,0.1,0.5,0.1,0.8,0.1s0.5,0,0.8-0.1h1.7L219.7,79z M217,74.2c-0.2,0-0.3,0-0.4,0
		c-0.1,0-0.1-0.1-0.2-0.1c-0.1-0.1-0.1-0.1-0.2-0.2c-0.1-0.1-0.1-0.2-0.1-0.3c0-0.1-0.1-0.2-0.1-0.4c0-0.6,0.3-0.9,1-0.9
		c0.6,0,1,0.1,1.3,0.3c0.3,0.2,0.4,0.5,0.4,0.8c0,0.3-0.1,0.5-0.3,0.6c-0.2,0.1-0.4,0.2-0.7,0.2H217z M218.3,77.9
		c0,0.4-0.1,0.7-0.3,0.9c-0.2,0.2-0.4,0.3-0.7,0.3c-0.3,0-0.5-0.1-0.7-0.3c-0.2-0.2-0.3-0.5-0.3-0.9c0-0.4,0.1-0.7,0.3-0.9
		c0.2-0.2,0.4-0.3,0.7-0.3c0.3,0,0.5,0.1,0.7,0.3C218.2,77.2,218.3,77.5,218.3,77.9z M65.6,66.9h-1.2V62h-1v4.9h-0.7v0.6l0.7,0.1
		v1.1c0,0.3,0,0.6,0.1,0.8s0.2,0.4,0.3,0.5c0.1,0.1,0.3,0.2,0.5,0.3s0.4,0.1,0.6,0.1c0.2,0,0.4,0,0.5-0.1c0.1-0.1,0.2-0.1,0.3-0.1
		l-0.2-0.8c0,0-0.1,0.1-0.2,0.1c-0.1,0-0.2,0.1-0.3,0.1c-0.2,0-0.4-0.1-0.5-0.2s-0.2-0.4-0.2-0.8v-1h1.3L65.6,66.9z M70.6,62h-0.9
		v0.6h0c0,0-0.1-0.1-0.2-0.2c-0.1-0.1-0.2-0.2-0.3-0.3C69.1,62.1,69,62,68.8,62s-0.4-0.1-0.6-0.1c-0.3,0-0.5,0-0.7,0.1
		c-0.2,0.1-0.4,0.2-0.5,0.4c-0.1,0.2-0.3,0.4-0.3,0.6c-0.1,0.3-0.1,0.6-0.1,1v3.7h1V64c0-0.5,0.1-0.8,0.2-1c0.2-0.2,0.4-0.3,0.7-0.3
		c0.3,0,0.5,0.1,0.7,0.2c0.2,0.1,0.3,0.3,0.5,0.4v4.4h1V62z M68.2,69.4c0-0.2-0.1-0.3-0.2-0.4c-0.1-0.1-0.2-0.2-0.4-0.2
		s-0.3,0.1-0.4,0.2s-0.2,0.3-0.2,0.4c0,0.2,0.1,0.3,0.2,0.4s0.2,0.2,0.4,0.2s0.3-0.1,0.4-0.2C68.2,69.7,68.2,69.5,68.2,69.4z
		 M70.1,69.4c0-0.2-0.1-0.3-0.2-0.4s-0.2-0.2-0.4-0.2s-0.3,0.1-0.4,0.2c-0.1,0.1-0.2,0.3-0.2,0.4c0,0.2,0.1,0.3,0.2,0.4
		c0.1,0.1,0.2,0.2,0.4,0.2s0.3-0.1,0.4-0.2S70.1,69.5,70.1,69.4z M74.6,66.9c0,0-0.1,0-0.2,0.1c-0.1,0-0.2,0-0.3,0
		c-0.3,0-0.5-0.1-0.7-0.2c-0.2-0.2-0.3-0.3-0.4-0.5V62h-1v5.7h0.9v-0.8h0c0,0.1,0.1,0.2,0.2,0.3s0.1,0.2,0.2,0.3s0.2,0.1,0.3,0.2
		c0.1,0,0.3,0.1,0.5,0.1c0.1,0,0.2,0,0.3,0c0.1,0,0.1,0,0.2-0.1L74.6,66.9z M80.5,66.2l2.8-4.2H82l-2.4,3.7H79V62h-1v8.2h1v-3.7h0.6
		l2.3,3.7h1.2L80.5,66.2z M88,62h-0.9v0.6h0c0,0-0.1-0.1-0.2-0.2c-0.1-0.1-0.2-0.2-0.3-0.3c-0.1-0.1-0.3-0.2-0.4-0.2
		c-0.2-0.1-0.4-0.1-0.6-0.1c-0.3,0-0.5,0-0.7,0.1c-0.2,0.1-0.4,0.2-0.5,0.4c-0.1,0.2-0.3,0.4-0.3,0.6c-0.1,0.3-0.1,0.6-0.1,1v3.7h1
		V64c0-0.5,0.1-0.8,0.2-1c0.2-0.2,0.4-0.3,0.7-0.3c0.3,0,0.5,0.1,0.7,0.2c0.2,0.1,0.3,0.3,0.5,0.4v4.4h1V62z M90.4,63.3
		c0-0.2,0-0.4,0.1-0.5c0.1-0.1,0.2-0.1,0.4-0.1c0.1,0,0.2,0,0.2,0s0.1,0,0.1,0l0.1-0.7c0,0-0.1-0.1-0.3-0.1s-0.3-0.1-0.5-0.1
		c-0.3,0-0.6,0.1-0.8,0.3c-0.2,0.2-0.3,0.6-0.3,1.1v7.2l1,0.1V63.3z M94.6,66.9h-1.2v-3.2c0-0.4,0.1-0.7,0.2-0.8
		c0.1-0.1,0.3-0.2,0.5-0.2c0.1,0,0.3,0,0.4,0.1c0.1,0,0.2,0.1,0.2,0.1l0.1-0.8c0,0-0.1-0.1-0.3-0.1c-0.2-0.1-0.4-0.1-0.6-0.1
		c-0.5,0-0.9,0.1-1.1,0.4c-0.2,0.3-0.4,0.7-0.4,1.4v3.3h-0.7v0.6l0.7,0.1l0.1,1.6h0.9v-1.6h1.4L94.6,66.9z M99.7,62h-0.9v0.6h0
		c0,0-0.1-0.1-0.2-0.2c-0.1-0.1-0.2-0.2-0.3-0.3c-0.1-0.1-0.3-0.2-0.4-0.2s-0.4-0.1-0.6-0.1c-0.3,0-0.5,0-0.7,0.1
		c-0.2,0.1-0.4,0.2-0.5,0.4c-0.1,0.2-0.3,0.4-0.3,0.6c-0.1,0.3-0.1,0.6-0.1,1v3.7h1V64c0-0.5,0.1-0.8,0.2-1c0.2-0.2,0.4-0.3,0.7-0.3
		c0.3,0,0.5,0.1,0.7,0.2c0.2,0.1,0.3,0.3,0.5,0.4v4.4h1V62z M103.7,66.9c0,0-0.1,0-0.2,0.1c-0.1,0-0.2,0-0.3,0
		c-0.3,0-0.5-0.1-0.7-0.2c-0.2-0.2-0.3-0.3-0.4-0.5V62h-1v5.7h0.9v-0.8h0c0,0.1,0.1,0.2,0.2,0.3s0.1,0.2,0.2,0.3s0.2,0.1,0.3,0.2
		c0.1,0,0.3,0.1,0.5,0.1c0.1,0,0.2,0,0.3,0c0.1,0,0.1,0,0.2-0.1L103.7,66.9z M110.9,62H110v0.6h0c0,0-0.1-0.1-0.2-0.2
		c-0.1-0.1-0.2-0.2-0.3-0.3c-0.1-0.1-0.3-0.2-0.4-0.2s-0.4-0.1-0.6-0.1c-0.3,0-0.5,0-0.7,0.1c-0.2,0.1-0.4,0.2-0.5,0.4
		c-0.1,0.2-0.3,0.4-0.3,0.6c-0.1,0.3-0.1,0.6-0.1,1v3.7h1V64c0-0.5,0.1-0.8,0.2-1c0.2-0.2,0.4-0.3,0.7-0.3c0.3,0,0.5,0.1,0.7,0.2
		c0.2,0.1,0.3,0.3,0.5,0.4v4.4h1V62z M115.5,62v3.7c0,0.5-0.1,0.8-0.2,1c-0.2,0.2-0.4,0.3-0.7,0.3c-0.3,0-0.5-0.1-0.7-0.2
		c-0.2-0.1-0.3-0.3-0.5-0.4V62h-1v5.7h0.9v-0.6h0c0,0,0.1,0.1,0.2,0.2c0.1,0.1,0.2,0.2,0.3,0.3c0.1,0.1,0.3,0.2,0.5,0.2
		s0.4,0.1,0.6,0.1c0.3,0,0.5,0,0.7-0.1c0.2-0.1,0.4-0.2,0.5-0.4s0.3-0.4,0.3-0.6c0.1-0.3,0.1-0.6,0.1-1V62H115.5z M117.6,64.8
		c0,0.6,0.1,1.1,0.2,1.5c0.2,0.4,0.3,0.7,0.6,0.9c0.2,0.2,0.5,0.4,0.8,0.5c0.3,0.1,0.6,0.1,0.9,0.1c0.2,0,0.3,0,0.5,0
		c0.1,0,0.2-0.1,0.3-0.1v2.7l1,0.1V62H121v0.6h0c0,0-0.1-0.1-0.1-0.2c-0.1-0.1-0.2-0.2-0.3-0.2c-0.1-0.1-0.2-0.2-0.4-0.2
		c-0.2-0.1-0.4-0.1-0.6-0.1c-0.3,0-0.5,0.1-0.8,0.2c-0.2,0.1-0.5,0.3-0.6,0.5c-0.2,0.2-0.3,0.5-0.4,0.9
		C117.7,63.8,117.6,64.2,117.6,64.8z M119.9,62.7c0.2,0,0.3,0,0.4,0.1c0.1,0,0.2,0.1,0.3,0.1c0.1,0.1,0.2,0.1,0.2,0.2
		s0.1,0.1,0.1,0.2v3.5c-0.1,0.1-0.2,0.1-0.3,0.1c-0.1,0-0.3,0.1-0.4,0.1c-0.2,0-0.4,0-0.6-0.1c-0.2-0.1-0.4-0.2-0.5-0.4
		s-0.3-0.4-0.3-0.7c-0.1-0.3-0.1-0.6-0.1-1c0-0.4,0-0.7,0.1-1c0.1-0.3,0.2-0.5,0.3-0.6c0.1-0.2,0.3-0.3,0.4-0.4
		C119.5,62.7,119.7,62.7,119.9,62.7z M132.9,70.2V62h-1v3.9c0,0.2,0,0.5,0,0.7c0,0.2,0,0.5,0,0.7c0,0.2,0,0.4,0,0.5
		c0,0.2,0,0.3,0,0.4h0c0-0.2-0.1-0.5-0.2-0.9c-0.1-0.4-0.3-0.8-0.4-1.3l-1.4-4h-0.8l-1.4,4c-0.2,0.5-0.3,0.9-0.4,1.3
		c-0.1,0.4-0.2,0.7-0.2,0.9h0c0-0.1,0-0.2,0-0.4c0-0.2,0-0.3,0-0.5c0-0.2,0-0.4,0-0.7c0-0.2,0-0.5,0-0.7V62h-1v8.2h1.2l1.9-5.7
		c0.1-0.3,0.2-0.5,0.2-0.8c0.1-0.2,0.1-0.5,0.1-0.6h0c0,0.2,0,0.4,0.1,0.6c0.1,0.2,0.1,0.5,0.2,0.8l1.9,5.7H132.9z M138.2,65.8
		c0-0.2,0-0.5,0-0.6c0-0.2,0-0.3,0-0.5h-2.9c0-0.7,0.2-1.2,0.4-1.5c0.3-0.3,0.6-0.5,1.1-0.5c0.2,0,0.3,0,0.5,0.1
		c0.1,0,0.3,0.1,0.4,0.1c0.1,0.1,0.2,0.1,0.2,0.2c0.1,0.1,0.1,0.1,0.1,0.1l0.4-0.7c0,0-0.1-0.1-0.2-0.2c-0.1-0.1-0.2-0.2-0.3-0.2
		c-0.1-0.1-0.3-0.1-0.5-0.2s-0.4-0.1-0.7-0.1c-0.4,0-0.7,0.1-1,0.2c-0.3,0.1-0.5,0.3-0.7,0.6s-0.4,0.6-0.5,1
		c-0.1,0.4-0.2,0.8-0.2,1.4c0,0.5,0.1,0.9,0.2,1.3c0.1,0.4,0.3,0.7,0.5,0.9c0.2,0.2,0.4,0.4,0.7,0.5c0.3,0.1,0.5,0.2,0.8,0.2
		c0.5,0,1-0.2,1.3-0.5C138.1,67,138.2,66.5,138.2,65.8z M136.4,67.1c-0.3,0-0.6-0.1-0.8-0.4s-0.3-0.7-0.4-1.2h2.1c0,0,0,0.1,0,0.2
		c0,0.1,0,0.2,0,0.2c0,0.4-0.1,0.7-0.2,0.9C137,67,136.7,67.1,136.4,67.1z M139.3,64.8c0,0.6,0.1,1.1,0.2,1.5
		c0.2,0.4,0.3,0.7,0.6,0.9c0.2,0.2,0.5,0.4,0.8,0.5c0.3,0.1,0.6,0.1,0.9,0.1c0.2,0,0.3,0,0.5,0c0.1,0,0.2-0.1,0.3-0.1v2.7l1,0.1V62
		h-0.9v0.6h0c0,0-0.1-0.1-0.1-0.2c-0.1-0.1-0.2-0.2-0.3-0.2c-0.1-0.1-0.2-0.2-0.4-0.2c-0.2-0.1-0.4-0.1-0.6-0.1
		c-0.3,0-0.5,0.1-0.8,0.2c-0.2,0.1-0.5,0.3-0.6,0.5c-0.2,0.2-0.3,0.5-0.4,0.9C139.3,63.8,139.3,64.2,139.3,64.8z M141.5,62.7
		c0.2,0,0.3,0,0.4,0.1c0.1,0,0.2,0.1,0.3,0.1c0.1,0.1,0.2,0.1,0.2,0.2c0.1,0.1,0.1,0.1,0.1,0.2v3.5c-0.1,0.1-0.2,0.1-0.3,0.1
		c-0.1,0-0.3,0.1-0.4,0.1c-0.2,0-0.4,0-0.6-0.1c-0.2-0.1-0.4-0.2-0.5-0.4c-0.1-0.2-0.3-0.4-0.3-0.7c-0.1-0.3-0.1-0.6-0.1-1
		c0-0.4,0-0.7,0.1-1c0.1-0.3,0.2-0.5,0.3-0.6c0.1-0.2,0.3-0.3,0.4-0.4C141.2,62.7,141.4,62.7,141.5,62.7z M146,62h-1v5.7h1V62z
		 M145.5,69.1c-0.2,0-0.4,0.1-0.5,0.2c-0.1,0.1-0.2,0.3-0.2,0.5c0,0.2,0.1,0.4,0.2,0.5c0.1,0.1,0.3,0.2,0.5,0.2
		c0.2,0,0.3-0.1,0.5-0.2s0.2-0.3,0.2-0.5c0-0.2-0.1-0.4-0.2-0.5S145.7,69.1,145.5,69.1z M151.1,65.8c0-0.2,0-0.5,0-0.6
		c0-0.2,0-0.3,0-0.5h-2.9c0-0.7,0.2-1.2,0.4-1.5c0.3-0.3,0.6-0.5,1.1-0.5c0.2,0,0.3,0,0.5,0.1c0.1,0,0.3,0.1,0.4,0.1
		c0.1,0.1,0.2,0.1,0.2,0.2c0.1,0.1,0.1,0.1,0.1,0.1l0.4-0.7c0,0-0.1-0.1-0.2-0.2c-0.1-0.1-0.2-0.2-0.3-0.2c-0.1-0.1-0.3-0.1-0.5-0.2
		s-0.4-0.1-0.7-0.1c-0.4,0-0.7,0.1-1,0.2c-0.3,0.1-0.5,0.3-0.7,0.6s-0.4,0.6-0.5,1c-0.1,0.4-0.2,0.8-0.2,1.4c0,0.5,0.1,0.9,0.2,1.3
		c0.1,0.4,0.3,0.7,0.5,0.9s0.4,0.4,0.7,0.5c0.3,0.1,0.5,0.2,0.8,0.2c0.5,0,1-0.2,1.3-0.5C151,67,151.1,66.5,151.1,65.8z M149.3,67.1
		c-0.3,0-0.6-0.1-0.8-0.4s-0.3-0.7-0.4-1.2h2.1c0,0,0,0.1,0,0.2c0,0.1,0,0.2,0,0.2c0,0.4-0.1,0.7-0.2,0.9
		C149.9,67,149.6,67.1,149.3,67.1z M155.5,62v3.7c0,0.5-0.1,0.8-0.2,1c-0.2,0.2-0.4,0.3-0.7,0.3c-0.3,0-0.5-0.1-0.7-0.2
		c-0.2-0.1-0.3-0.3-0.5-0.4V62h-1v5.7h0.9v-0.6h0c0,0,0.1,0.1,0.2,0.2c0.1,0.1,0.2,0.2,0.3,0.3c0.1,0.1,0.3,0.2,0.5,0.2
		s0.4,0.1,0.6,0.1c0.3,0,0.5,0,0.7-0.1c0.2-0.1,0.4-0.2,0.5-0.4s0.3-0.4,0.3-0.6c0.1-0.3,0.1-0.6,0.1-1V62H155.5z"
    />
</g>
<g id="Adler-und-Saeulenelement">
	<path
      d="M37.2,29.3c0-0.2,0-0.5,0-0.7c0-0.1,0-0.3,0-0.4c2,0,3.7-1.5,3.7-3.1c0-0.8-0.5-1.5-0.9-1.9c0.1,0,0.1,0,0.2,0
		c0.3,0.3,1.1,1.2,1.1,2.3C41.4,27.5,39.4,29.3,37.2,29.3 M35.2,22.4c0-0.2-0.1-0.4-0.2-0.6c0-0.2,0.1-0.4,0.4-0.2
		c-0.2,0.2,0,0.5,0,0.5s0.4-0.2,0.3-0.4C36.1,21.8,35.7,22.5,35.2,22.4 M34.7,23.5c-0.1-0.3-0.2-0.6-0.4-0.8
		c-0.2-0.2-0.5-0.5-0.9-0.5c-0.2,0-0.5,0.1-0.7,0.2c-0.1-0.1-0.2-0.4-0.2-0.6c0-0.1,0.2-0.3,0.7-0.3c1,0,1.6,0.5,1.6,1.2
		C34.9,23,34.8,23.2,34.7,23.5 M37.4,36.8c0.1,0,0.2,0,0.2,0c0.3,0.8,1.4,2.3,1.5,2.4l0,0l0,0c0.3,0,1-0.2,1.6-0.2h0
		c0.1,0,0.1,0,0.2,0c0,0,0.1,0.1,0.1,0.2c0,0.1-0.1,0.4-0.1,0.5c-0.2-0.2-0.6-0.3-1.1-0.3c-0.2,0-0.4,0-0.5,0.1l0,0l0,0l0.3,0.3
		c0.5,0.5,0.9,0.9,0.9,1.2c0,0.2-0.2,0.4-0.3,0.5c0-0.5-0.5-1.2-1.1-1.6l0,0l0,0.2c0,0.1,0,0.3,0,0.5c0,1-0.1,1.1-0.4,1.1
		c-0.1,0-0.1,0-0.2,0c0.2-0.2,0.3-0.5,0.3-1.1l0-0.3l0-0.2c0-0.2,0-0.4,0-0.5l0-0.1l-0.1,0c-0.2,0-0.5-0.1-0.7-0.1
		c-0.5,0-0.8,0-1,0.3c-0.2-0.1-0.3-0.3-0.3-0.5c0-0.2,0.1-0.2,0.3-0.2c0.1,0,0.2,0,0.3,0c0.2,0,0.5,0.1,1.2,0.1h0l0,0
		c-0.2-0.5-0.6-1.1-1.3-2C37.1,36.9,37.1,36.8,37.4,36.8 M31.2,39.2L31.2,39.2L31.2,39.2c0.7,0,1,0,1.2,0c0.1,0,0.2,0,0.3,0
		c0.2,0,0.3,0,0.3,0.2c0,0.1-0.2,0.4-0.3,0.5c-0.2-0.2-0.6-0.3-1-0.3c-0.2,0-0.5,0-0.7,0.1l0,0l0,0l0,0.1c0,0.1,0,0.3,0,0.5l0,0.2
		l0,0.3c0,0.5,0.1,0.9,0.3,1.1c0,0-0.1,0-0.2,0c-0.3,0-0.4-0.1-0.4-1.1c0-0.2,0-0.4,0-0.5l0-0.2l0,0c-0.5,0.4-1,1.1-1.1,1.6
		c-0.2-0.1-0.3-0.3-0.3-0.5c0-0.3,0.4-0.7,0.9-1.2l0.3-0.3l0,0l-0.1,0c-0.1,0-0.3-0.1-0.5-0.1c-0.5,0-0.9,0.1-1.1,0.3
		c-0.1-0.1-0.1-0.4-0.1-0.5c0-0.1,0-0.2,0.1-0.2c0,0,0.1,0,0.2,0h0c0.6,0,1.3,0.1,1.6,0.2l0,0l0,0c0-0.1,1.2-1.6,1.5-2.4
		c0.1,0,0.1,0,0.2,0c0.2,0,0.3,0.2,0.4,0.4C31.8,38,31.3,38.7,31.2,39.2 M28.1,25.5c0-1.1,0.8-2,1.1-2.3c0.1,0,0.1,0,0.2,0
		c-0.3,0.4-0.9,1-0.9,1.9c0,1.7,1.8,3.1,3.8,3.1c0,0.1,0,0.3,0,0.4c0,0.2,0,0.5,0,0.7C30.1,29.3,28.1,27.5,28.1,25.5 M43.4,29
		c1,1.6,1.8,1.6,3,1.6c-1-0.8-1.7-1.8-2-2.3l-1.9-3c-0.2-0.9-0.7-1.8-1.4-2.4c0.2-0.1,0.4-0.2,0.6-0.3c-1.2,0-2.4-0.6-3.1-0.6
		c-0.4,0-0.7,0.3-0.7,0.6c0,0.4,0.4,0.8,1.1,0.8c0.2,0,0.4,0,0.6-0.1c0.4,0.5,0.7,1,0.7,1.7c0,1.3-1.6,2.3-3.1,2.3
		c-0.1,0-0.2,0-0.3,0c-0.1-0.3-0.6-0.9-0.6-1.5c0-1,0.7-1.9,0.7-2.9c0-0.6-0.3-1-0.4-1.2c0.2-0.2,0.4-0.4,0.5-0.6
		c-0.1,0-0.2,0.1-0.4,0.1c-0.8,0-1.4-0.2-2-0.2c-0.3,0-0.4,0.1-0.4,0.2c0,0,0,0.1,0,0.1c-0.1,0-0.2-0.1-0.4-0.1
		c-0.2,0-0.4-0.1-0.6-0.1c-0.7,0-1,0.3-1,0.6c0,0.2,0.2,0.6,0.4,0.9c0.3-0.1,0.6-0.2,0.8-0.2c0.4,0,0.7,0.4,0.9,0.8
		c-0.3,0-0.3,0-0.6,0c-0.7,0-1.2-0.3-1.3-0.3c0,0,0,0,0,0c0,0.1,0.2,0.4,0.6,0.5c0.5,0.2,1.3,0.3,1.4,0.3c0,0-0.1,0.3-0.3,0.3
		c0,0-0.1,0-0.1,0c-0.5-0.1-0.7-0.2-1.4-0.4c0,0,0,0,0,0c0,0.3,0.7,0.9,1.3,1.1c-0.5,0.7-1.2,1.4-1.5,2.4c-0.1,0-0.2,0-0.3,0
		c-1.6,0-3.1-1-3.1-2.3c0-0.7,0.3-1.2,0.7-1.7c0.2,0,0.4,0.1,0.6,0.1c0.7,0,1.1-0.4,1.1-0.8c0-0.3-0.3-0.6-0.7-0.6
		c-0.7,0-1.9,0.6-3.1,0.6c0.1,0.1,0.3,0.2,0.6,0.3c-0.7,0.6-1.2,1.5-1.4,2.4l-1.9,3c-0.3,0.5-1,1.5-2,2.3c1.2,0,2,0,3-1.6l1-1.5
		c0.1,0.2,0.2,0.4,0.3,0.6l-1.9,3.1c-0.3,0.5-1,1.5-2,2.3c1.2,0,2,0,3-1.6l1.6-2.6c0.1,0.1,0.3,0.3,0.4,0.4l-2.3,3.7
		c-0.3,0.5-1,1.5-2,2.2c1.2,0,2,0,3-1.6l2.3-3.6c0.1,0.1,0.3,0.2,0.5,0.3l-2.8,4.4c-0.3,0.5-1,1.5-2,2.2c1.2,0,2,0,3-1.6l2.8-4.5
		c0.2,0.1,0.3,0.1,0.5,0.2l-3.2,5.1c-0.3,0.5-1,1.5-2,2.2c1.2,0,2,0,3-1.6l3.4-5.5c0,0,0.1,0,0.1,0c0.1,0.3,0.2,0.6,0.2,0.8
		c0,1.7-1.1,3.2-2.5,4.4c0.1,0,0.2,0.1,0.4,0.1c0.3,0,0.5,0,0.6,0c-0.3,0.7-1,1.6-1.3,2.1c-0.4-0.1-1.1-0.1-1.5-0.1
		c-0.4,0-0.5,0.3-0.5,0.5c0,0.4,0.2,0.7,0.4,0.9c0.1-0.2,0.2-0.5,1.1-0.5c0,0,0,0,0.1,0c-0.2,0.3-1,0.9-1,1.4c0,0.3,0.4,0.8,0.8,0.8
		c0-0.1,0-0.2,0-0.3c0-0.4,0.3-0.9,0.6-1.2c0,0.1,0,0.1,0,0.2c0,0.9,0.1,1.4,0.7,1.4c0.3,0,0.5-0.2,0.6-0.2
		c-0.4-0.4-0.4-0.6-0.4-1.2c0-0.1,0-0.3,0-0.5c0-0.1,0-0.3,0-0.4c0.2,0,0.3,0,0.5,0c0,0,0.8-0.1,1,0.4c0.2-0.2,0.6-0.5,0.6-0.8
		c0-0.2-0.1-0.5-0.5-0.5c-0.2,0-0.7,0.1-1.1,0.1c0.1-0.3,0.6-1,1.1-1.6c0.1,0.2,0.2,0.4,0.4,0.6c0-0.4,0.2-1.5,0.8-2.1
		c0.1,0.4,0.2,0.9,0.2,1.8c0,2.3-0.6,4-1.7,4.3c0.2,0.3,0.5,0.5,0.8,0.5c0.4,0,0.7-0.5,0.9-1c0.1,0.3,0.5,1.2,0.8,1.2
		s0.7-0.8,0.8-1.2c0.2,0.5,0.5,1,0.9,1c0.3,0,0.7-0.2,0.8-0.5c-1.2-0.3-1.7-2-1.7-4.3c0-1,0.1-1.4,0.2-1.8c0.6,0.7,0.8,1.8,0.8,2.1
		c0.2-0.2,0.3-0.4,0.4-0.6c0.4,0.5,1,1.3,1.1,1.6c-0.4,0-0.9-0.1-1.1-0.1c-0.4,0-0.5,0.2-0.5,0.5c0,0.3,0.3,0.6,0.6,0.8
		c0.2-0.4,1-0.4,1-0.4c0.2,0,0.2,0,0.5,0c0,0.1,0,0.3,0,0.4c0,0.2,0,0.3,0,0.5c0,0.5,0,0.8-0.4,1.2c0.1,0,0.3,0.2,0.6,0.2
		c0.6,0,0.7-0.4,0.7-1.4c0-0.1,0-0.1,0-0.2c0.3,0.3,0.6,0.8,0.6,1.2c0,0.1,0,0.2,0,0.3c0.5,0,0.8-0.5,0.8-0.8c0-0.5-0.7-1.1-1-1.4
		c0,0,0.1,0,0.1,0c0.8,0,1,0.3,1.1,0.5c0.2-0.2,0.4-0.5,0.4-0.9c0-0.2,0-0.5-0.5-0.5c-0.4,0-1.1,0.1-1.5,0.1c-0.3-0.5-1-1.4-1.3-2.1
		c0.1,0,0.3,0,0.6,0c0.1,0,0.3,0,0.4-0.1c-1.4-1.2-2.5-2.7-2.5-4.4c0-0.3,0.1-0.6,0.2-0.8c0,0,0.1,0,0.1,0L40,37
		c1,1.6,1.8,1.6,3,1.6c-1-0.8-1.7-1.8-2-2.2l-3.2-5.1c0.2-0.1,0.3-0.1,0.5-0.2l2.8,4.5c1,1.6,1.8,1.6,3,1.6c-1-0.8-1.7-1.7-2-2.2
		l-2.8-4.4c0.2-0.1,0.3-0.2,0.5-0.3l2.3,3.6c1,1.6,1.8,1.6,3,1.6c-1-0.8-1.7-1.7-2-2.2L41,29.5c0.1-0.1,0.3-0.2,0.4-0.4l1.6,2.6
		c1,1.6,1.8,1.6,3,1.6c-1-0.8-1.7-1.7-2-2.3L42.2,28c0.1-0.2,0.2-0.4,0.3-0.6L43.4,29z"
    />
	<path d="M56,42h-3.5V22H56V42z" />
	<path class="st1" d="M56,62h-3.5V42H56V62z" />
	<path class="st2" d="M56,82h-3.5V62H56V82z" />
</g>
</svg>
