<svg width="21" height="21" fill="none" xmlns="http://www.w3.org/2000/svg"><path d="M20.102 6.4c0-.3 0-.6-.1-.9-.4-2.6-2.6-4.5-5.3-4.5h-8.2c-.3 0-.6 0-.9.1-2.7.5-4.5 2.6-4.5 5.3v8.2c0 .3 0 .6.1.9.5 2.7 2.6 4.5 5.3 4.5h8.2c.3 0 .6 0 .9-.1 2.7-.5 4.5-2.6 4.5-5.3V6.4zm-1.5 8.2c0 2.2-1.7 3.9-3.9 3.9h-8.2c-2.2 0-3.8-1.7-3.8-3.8V6.5c0-2.2 1.7-3.8 3.8-3.8h8.2c2.2 0 3.9 1.7 3.9 3.9v8z" fill="#000" stroke="#000" stroke-width=".504" stroke-miterlimit="10"/><path d="M10.702 5.9c-2.5 0-4.6 2-4.6 4.5s2 4.6 4.5 4.6 4.6-2 4.6-4.6c0-2.4-2-4.5-4.5-4.5zm0 7.6c-1.7 0-3-1.4-3-3 0-1.7 1.4-3 3-3 1.7 0 3 1.4 3 3s-1.4 3-3 3zM15.6 4.4c-.6 0-1.1.5-1.1 1.1 0 .6.5 1.1 1.1 1.1.6 0 1.1-.5 1.1-1.1 0-.6-.5-1.1-1.1-1.1z" fill="#000" stroke="#000" stroke-width=".504" stroke-miterlimit="10"/></svg>