<svg width="20" height="19" viewBox="0 0 20 19" fill="none" xmlns="http://www.w3.org/2000/svg">
<path d="M9.89844 0C4.69844 0 0.398438 4.2 0.398438 9.5C0.398438 14.2 3.89844 18.2 8.39844 18.9V12.4H5.99844V9.5H8.49844V8.4C8.49844 8.4 8.39844 6.9 8.79844 5.7C9.09844 4.5 10.0984 4.1 11.1984 3.7C12.2984 3.4 14.3984 3.8 14.3984 3.8V6.2C14.3984 6.2 12.8984 6.1 12.1984 6.4C11.4984 6.7 11.5984 7.9 11.5984 7.9V9.5H14.1984L13.7984 12.4H11.5984V18.8C16.0984 18 19.3984 14.1 19.3984 9.5C19.3984 4.2 15.1984 0 9.89844 0Z" fill="black"/>
</svg>
