<svg width="21" height="21" viewBox="0 0 21 21" fill="none" xmlns="http://www.w3.org/2000/svg">
<path d="M20.1016 6.4C20.1016 6.1 20.1016 5.8 20.0016 5.5C19.6016 2.9 17.4016 1 14.7016 1C12.0016 1 9.20156 1 6.50156 1C6.20156 1 5.90156 1 5.60156 1.1C2.90156 1.6 1.10156 3.7 1.10156 6.4C1.10156 7.8 1.10156 9.1 1.10156 10.5C1.10156 11.9 1.10156 13.2 1.10156 14.6C1.10156 14.9 1.10156 15.2 1.20156 15.5C1.70156 18.2 3.80156 20 6.50156 20C9.20156 20 11.9016 20 14.7016 20C15.0016 20 15.3016 20 15.6016 19.9C18.3016 19.4 20.1016 17.3 20.1016 14.6C20.1016 11.8 20.1016 9.1 20.1016 6.4ZM18.6016 14.6C18.6016 16.8 16.9016 18.5 14.7016 18.5C12.0016 18.5 9.20156 18.5 6.50156 18.5C4.30156 18.5 2.70156 16.8 2.70156 14.7C2.70156 12 2.70156 9.2 2.70156 6.5C2.70156 4.3 4.40156 2.7 6.50156 2.7C7.90156 2.7 9.30156 2.7 10.6016 2.7C12.0016 2.7 13.3016 2.7 14.7016 2.7C16.9016 2.7 18.6016 4.4 18.6016 6.6C18.6016 9.1 18.6016 11.8 18.6016 14.6Z" fill="black" stroke="black" stroke-width="0.504" stroke-miterlimit="10"/>
<path d="M10.7016 5.90039C8.20156 5.90039 6.10156 7.90039 6.10156 10.4004C6.10156 12.9004 8.10156 15.0004 10.6016 15.0004C13.1016 15.0004 15.2016 13.0004 15.2016 10.4004C15.2016 8.00039 13.2016 5.90039 10.7016 5.90039ZM10.7016 13.5004C9.00156 13.5004 7.70156 12.1004 7.70156 10.5004C7.70156 8.80039 9.10156 7.50039 10.7016 7.50039C12.4016 7.50039 13.7016 8.90039 13.7016 10.5004C13.7016 12.1004 12.3016 13.5004 10.7016 13.5004Z" fill="black" stroke="black" stroke-width="0.504" stroke-miterlimit="10"/>
<path d="M15.6 4.40039C15 4.40039 14.5 4.90039 14.5 5.50039C14.5 6.10039 15 6.60039 15.6 6.60039C16.2 6.60039 16.7 6.10039 16.7 5.50039C16.7 4.90039 16.2 4.40039 15.6 4.40039Z" fill="black" stroke="black" stroke-width="0.504" stroke-miterlimit="10"/>
</svg>
